<?xml version="1.0" encoding="UTF-8"?>
<svg xmlns="http://www.w3.org/2000/svg" xmlns:xlink="http://www.w3.org/1999/xlink" viewBox="0 0 267.5 160.24">
  <defs>
    <style>
      .cls-1 {
        fill: url(#linear-gradient);
      }

      .cls-2 {
        clip-path: url(#clippath);
      }

      .cls-3, .cls-4 {
        fill: #010443;
      }

      .cls-5, .cls-6 {
        fill: #84a9e4;
      }

      .cls-7 {
        fill: #333;
      }

      .cls-8 {
        fill: #d5ad96;
        mix-blend-mode: multiply;
      }

      .cls-9 {
        clip-rule: evenodd;
        fill: none;
      }

      .cls-10 {
        clip-path: url(#clippath-1);
      }

      .cls-11 {
        fill: url(#linear-gradient-2);
      }

      .cls-12 {
        fill: #263d76;
      }

      .cls-12, .cls-13, .cls-14, .cls-15, .cls-16, .cls-17, .cls-18, .cls-19, .cls-20, .cls-21, .cls-22, .cls-23, .cls-6, .cls-24, .cls-25, .cls-26, .cls-27, .cls-28, .cls-29, .cls-30, .cls-31, .cls-32, .cls-4, .cls-33 {
        fill-rule: evenodd;
      }

      .cls-13 {
        fill: #4d7cd2;
      }

      .cls-14 {
        fill: #a2bfef;
      }

      .cls-15 {
        fill: #07153f;
      }

      .cls-16 {
        fill: #214780;
      }

      .cls-17 {
        fill: #1e2081;
      }

      .cls-18 {
        fill: #e08731;
      }

      .cls-19 {
        fill: #cedffb;
      }

      .cls-20 {
        fill: #d0726f;
      }

      .cls-21 {
        fill: #d96a2a;
      }

      .cls-22 {
        fill: #304483;
      }

      .cls-23 {
        fill: #b7d0fa;
      }

      .cls-24 {
        fill: #b6d0f7;
      }

      .cls-25 {
        fill: #efb65e;
      }

      .cls-26 {
        fill: #eff5fd;
      }

      .cls-27 {
        fill: #e9b193;
      }

      .cls-28 {
        fill: #e9b3b1;
      }

      .cls-29 {
        fill: #fff;
      }

      .cls-30 {
        fill: #f4f9fc;
      }

      .cls-31 {
        fill: #fcf0da;
      }

      .cls-32 {
        fill: #edc1c5;
      }

      .cls-33 {
        fill: #05164a;
      }

      .cls-34 {
        isolation: isolate;
      }
    </style>
    <clipPath id="clippath">
      <polygon class="cls-9" points="51.83 30.85 54.07 29.27 69.21 49.88 66.97 51.45 51.83 30.85"/>
    </clipPath>
    <linearGradient id="linear-gradient" x1="62.24" y1="42.08" x2="55.29" y2="35.14" gradientUnits="userSpaceOnUse">
      <stop offset="0" stop-color="#05164a"/>
      <stop offset=".52" stop-color="#2a5b9f"/>
      <stop offset="1" stop-color="#4f9ef3"/>
    </linearGradient>
    <clipPath id="clippath-1">
      <polygon class="cls-9" points="152.22 30.99 149.98 29.41 134.84 50.02 137.08 51.59 152.22 30.99"/>
    </clipPath>
    <linearGradient id="linear-gradient-2" x1="141.81" y1="42.22" x2="148.76" y2="35.28" xlink:href="#linear-gradient"/>
  </defs>
  <g class="cls-34">
    <g id="Layer_2" data-name="Layer 2">
      <g id="Layer_1-2" data-name="Layer 1">
        <path class="cls-26" d="m141.65,5.63c13.55,4.65,26.43,14.62,36.58,23.91,21.13,19.35,24.28,23.42,50.34,39.66,15.19,9.47,27.17,17.47,33.07,28.18,16.58,30.08-3.17,62.57-44.54,62.57H48.92s-19.78.41-34.22-15.67C-34.23,89.8,46.92-26.91,141.65,5.63"/>
        <g class="cls-2">
          <rect class="cls-1" x="51.83" y="29.27" width="17.37" height="22.18"/>
        </g>
        <g class="cls-10">
          <rect class="cls-11" x="134.84" y="29.41" width="17.37" height="22.18"/>
        </g>
        <path class="cls-13" d="m158.05,30.73l-11.08-7.56c-10.31-7.03-24.49-4.35-31.52,5.96l48.57,33.12c7.03-10.31,4.35-24.49-5.96-31.52"/>
        <path class="cls-22" d="m102.15,35.74c33.37,0,60.42,27.05,60.42,60.42s-27.05,60.42-60.42,60.42-60.42-27.05-60.42-60.42,27.05-60.42,60.42-60.42"/>
        <path class="cls-13" d="m102.15,43.7c28.97,0,52.45,23.48,52.45,52.45s-23.48,52.45-52.45,52.45-52.45-23.48-52.45-52.45,23.48-52.45,52.45-52.45"/>
        <path class="cls-29" d="m102.15,48.86c26.12,0,47.29,21.17,47.29,47.29s-21.17,47.29-47.29,47.29-47.29-21.17-47.29-47.29,21.17-47.29,47.29-47.29"/>
        <path class="cls-24" d="m102.15,48.86l-.06,10.71,1.23,32.2-1.98,5.82-2.62,1.51-37.6,20.56c-.3-.5-.05-.08-.33-.59-3.77-6.79-5.92-14.61-5.92-22.93,0-25.84,20.73-46.85,46.47-47.28.63-.01.19-.02.81,0"/>
        <path class="cls-17" d="m103.32,57.41v39.39h-2.34v-39.39c0-.64.53-1.17,1.17-1.17h0c.64,0,1.17.53,1.17,1.17"/>
        <path class="cls-17" d="m136.89,122.03l-35.26-26,.4-.54,35.26,26c.15.11.18.32.07.47h0c-.11.15-.32.18-.47.07"/>
        <path class="cls-21" d="m77.14,108.87l18.28-10.56c-.22-.68-.34-1.41-.34-2.16,0-3.9,3.16-7.06,7.06-7.06s7.06,3.16,7.06,7.06-3.16,7.06-7.06,7.06c-2.31,0-4.36-1.11-5.65-2.83l-18.19,10.5c-.56.32-1.27.13-1.59-.43h0c-.32-.56-.13-1.27.43-1.6"/>
        <polygon class="cls-17" points="68.44 76.69 63.06 75.84 65.02 72.46 68.44 76.69"/>
        <polygon class="cls-17" points="135.86 115.62 141.24 116.46 139.28 119.85 135.86 115.62"/>
        <polygon class="cls-17" points="82.68 62.44 78.46 59.02 81.84 57.07 82.68 62.44"/>
        <polygon class="cls-17" points="121.61 129.87 125.84 133.29 122.46 135.24 121.61 129.87"/>
        <polygon class="cls-17" points="135.86 76.69 139.28 72.46 141.24 75.84 135.86 76.69"/>
        <polygon class="cls-17" points="68.44 115.62 65.02 119.85 63.06 116.46 68.44 115.62"/>
        <polygon class="cls-17" points="121.61 62.44 122.46 57.07 125.84 59.02 121.61 62.44"/>
        <polygon class="cls-17" points="82.68 129.87 81.84 135.24 78.46 133.29 82.68 129.87"/>
        <polygon class="cls-17" points="141.08 96.15 146.16 94.2 146.16 98.1 141.08 96.15"/>
        <polygon class="cls-17" points="63.22 96.15 58.14 98.1 58.14 94.2 63.22 96.15"/>
        <polygon class="cls-17" points="102.15 57.22 100.2 52.15 104.1 52.15 102.15 57.22"/>
        <polygon class="cls-17" points="102.15 135.08 104.1 140.16 100.2 140.16 102.15 135.08"/>
        <path class="cls-13" d="m46,30.59l11.08-7.56c10.31-7.03,24.49-4.35,31.52,5.96l-48.57,33.12c-7.03-10.31-4.35-24.49,5.96-31.52"/>
        <path class="cls-33" d="m98.39,38.38h7.6c.54,0,.99.44.99.99s-.44.99-.99.99h-7.6c-.54,0-.99-.44-.99-.99s.44-.99.99-.99"/>
        <path class="cls-22" d="m70.73,142.08l5.44,1.84-6.67,14.16c-.68,1.44-2.45,2.2-3.95,1.69h0c-1.49-.51-2.16-2.1-1.49-3.54l6.67-14.16Z"/>
        <path class="cls-22" d="m136.35,142.08l-5.44,1.84,6.67,14.16c.68,1.44,2.45,2.2,3.95,1.69h0c1.49-.51,2.16-2.1,1.49-3.54l-6.67-14.16Z"/>
        <path class="cls-29" d="m102.15,92.47c2.04,0,3.69,1.65,3.69,3.69s-1.65,3.69-3.69,3.69-3.69-1.65-3.69-3.69,1.65-3.69,3.69-3.69"/>
        <path class="cls-13" d="m97.71,23.07h8.96c2.22,0,4.04,1.82,4.04,4.04s-1.82,4.04-4.04,4.04h-3.38v9.2h-2.19v-9.2h-3.38c-2.22,0-4.04-1.82-4.04-4.04s1.82-4.04,4.04-4.04"/>
        <rect class="cls-3" x="30.16" y="159.78" width="218.94" height=".46"/>
        <path class="cls-23" d="m158.52,130.69l1.13.15-3.54,28.44c-.04.31-.33.53-.64.49h-.06c-.28-.04-.47-.3-.44-.58l3.54-28.5Z"/>
        <path class="cls-23" d="m178.92,130.65h1.14v28.67c0,.31-.26.57-.57.57h-.07c-.28,0-.51-.23-.51-.51v-28.73Z"/>
        <path class="cls-23" d="m195.76,130.65h1.14v28.67c0,.31-.26.57-.57.57h-.07c-.28,0-.51-.23-.51-.51v-28.73Z"/>
        <path class="cls-23" d="m171.36,130.69l1.13.15-3.54,28.44c-.04.31-.33.53-.64.49h-.06c-.28-.04-.47-.3-.44-.58l3.54-28.5Z"/>
        <path class="cls-25" d="m185.63,94.19c1.49,4.75,3.67,9.37,8.55,12.19,4.29,1.1,13.18.8,12.92-.25-.24-.97-1.73-1.75-2.54-1.24-.89.55-9.49-6.05-9.59-6.08-.73-.17-2.91-10.69-7.25-12.52-.49-.4-3.31,5.52-2.09,7.9"/>
        <path class="cls-18" d="m187.94,100.03c.25.44,1.19,2.07,2.82,3.53-.94-1.96-2.93-10.47-2.93-10.47l.1,6.94Z"/>
        <path class="cls-23" d="m178.88,127.15h19.58c1.17,0,2.13.96,2.13,2.13h0c0,1.17-.96,2.13-2.13,2.13h-19.58c-1.17,0-2.13-.96-2.13-2.13h0c0-1.17.96-2.13,2.13-2.13"/>
        <path class="cls-23" d="m172.29,94.01h-19.94l5.01,33.22,19.94.02h0c.08,0,.16,0,.23-.02h0c.82,0,1.37-.9,1.24-1.71l-4.78-30.27c-.13-.81-.89-1.24-1.71-1.24h0Z"/>
        <path class="cls-14" d="m153.83,95.25l5.07,31.9h22.12c1.17,0,2.13.96,2.13,2.13s-.96,2.13-2.13,2.13h-22.29c-2.13,0-2.5-1.99-2.69-3.2l-5.16-32.5c-.13-.81.42-1.71,1.24-1.71h0c.82,0,1.58.43,1.71,1.24"/>
        <polygon class="cls-27" points="208.07 156.03 208.04 151.88 204.46 151.98 204.54 156.23 208.07 156.03"/>
        <path class="cls-12" d="m176.65,115.77l7.97-1.51s18.49,2.02,21.92,8.05c3.42,6.03,2.07,30.37,2.07,30.37l-4.97.06c.32-2-5.15-25.26-5.17-25.26l-20.84-7.42-.98-4.3Z"/>
        <path class="cls-4" d="m176.65,115.77l2.8,1.26c2.3.04,12.28,1.6,13.95,1.96,5.67,1.22,4.97,4.1,5.06,8.5l-4.12-.56-16.72-6.86-.98-4.3Z"/>
        <polygon class="cls-27" points="189.6 155.33 189.94 151.72 186.32 151.81 186.35 155.95 189.6 155.33"/>
        <path class="cls-15" d="m189.77,154.72c1.02,1.84,2.69,3.6,1.39,5.16h-6.63s-.02-.06-.03-.1c-.06-.21-.37-.3-.17-1.09.38-1.45,1.51-3.69,1.9-3.81.77-.23,1.86.41,3.54-.17"/>
        <path class="cls-16" d="m191.66,158.67h0c.01.49-.04.92-.49,1.22h-6.63c-.34-.2-.43-.34-.2-1.18l7.32-.03Z"/>
        <path class="cls-16" d="m187.14,154.54h1.54c.21,0,.38.17.38.38v1.97c0,.21-.17.38-.38.38h-1.54c-.21,0-.38-.17-.38-.38v-1.97c0-.21.17-.38.38-.38"/>
        <path class="cls-12" d="m167.52,114.89s-2.32,9.35,1.89,11.37c4.21,2.02,17.34,2.23,17.34,2.23-2.65,9.94-.72,16.23-.82,24.7l4.39.02s4.42-15.81,5.72-24.77c.66-4.52.79-8.12-4.94-9.35-1.93-.42-14.47-3.32-14.47-3.32l-9.13-.87Z"/>
        <path class="cls-25" d="m169.2,85.76c-3.14,7.21,1.05,14.74-2.07,29.62,5.4,1.72,21.36,1.77,22.04-.69.33-9.41-.21-18.43-.59-27.84-5.29-3.66-13.74-4.78-19.39-1.09"/>
        <path class="cls-18" d="m183.48,104.7l-11.64-3.9-.08-4.74-1.29-1.73s-2.63,4.03-2.64,4.3c-.01.27,1.16,4.37,1.06,4.37-.11,0,6.95,2.35,7.53,2.49.58.14,7.07-.8,7.07-.8"/>
        <path class="cls-25" d="m170.23,85.15c-4.65,1.61-6.59,15.97-5.54,19.57.18,2.59,10.76,2.25,18.29,3.24,1.03-.76,1.88-1.76.91-3.17-4.63-1.7-12.77-3.22-12.76-3.47.64-4.93,1.62-11.71,1.26-14.98-.04-.39-1.74-1.34-2.16-1.2"/>
        <rect class="cls-5" x="218.97" y="110.98" width="3.02" height="48.91"/>
        <path class="cls-14" d="m228.47,107.26h-50.23v4.04h50.23c1.11,0,2.02-.91,2.02-2.02h0c0-1.11-.91-2.02-2.02-2.02"/>
        <path class="cls-6" d="m180.24,107.26h-28.68c-1.11,0-2.02.91-2.02,2.02s.91,2.02,2.02,2.02h12.79v48.58h3.17v-48.58h12.72c1.11,0,2.02-.91,2.02-2.02s-.91-2.02-2.02-2.02"/>
        <path class="cls-15" d="m208.52,154.61s4.78,1.96,6.37,2.74c1.24.61,1.94,1.88.92,2.53h-12.37s-.02-.06-.03-.1c-.18-.61-.66-4.98.62-4.88.8.06,2.7.63,4.49-.29"/>
        <path class="cls-16" d="m216.31,158.67h0s-.01.5-.01.5c-.02.39-.16.51-.48.72h-12.43s-.02-.06-.03-.1c-.04-.12-.12-.74-.17-1.08l13.12-.03Z"/>
        <path class="cls-16" d="m209.05,154.84c1.72.72,4.6,1.93,5.79,2.49-.62.48-1.21.38-1.21.38,0,0-3.36-1.05-4.31-1.73-.56-.4-.45-.85-.26-1.15"/>
        <path class="cls-22" d="m204.38,106.38h-18.75v.44c0,.24.2.44.44.44h17.86c.24,0,.44-.2.44-.44v-.44Z"/>
        <path class="cls-22" d="m211.98,94.71h-14.76c-.58,0-.95.49-1.06,1.07l-2.03,10.83h16.73l2.03-10.98c.09-.5-.41-.92-.91-.92"/>
        <path class="cls-13" d="m212.49,94.71h-14.76c-.58,0-.95.49-1.06,1.07l-1.89,10.01h-.02l-.12.74c-.07.4.33.74.74.74h15.29c.4,0,.68-.34.74-.74l.09-.6,1.91-10.3c.09-.5-.41-.92-.91-.92"/>
        <path class="cls-30" d="m204.71,100.34c-.35-.08-.72.18-.82.6-.1.41.11.82.46.9s.72-.18.82-.6c.1-.41-.11-.82-.46-.9"/>
        <path class="cls-28" d="m186.93,81.02c-.94,1.12-1.85,1.89-2.97,2.14l-.47,1.98c.34,1.4.02,2.57-1.78,2.46-4.79-.88-3.43-4.04-3.35-4.18l1.11-2.65c-.16-.05-1.31-1.05-1.63-1.23-.32-.19-.66-.96-.53-1.66.13-.7,1.15-.22,1.15-.22-.88-2.08-2-3.87.28-5.02,2.28-1.15,6.87-1.05,6.87-1.05l2.84-.29c-.55.83-.82,3.96-.59,6.01.2,1.84.33,2.2-.93,3.71"/>
        <path class="cls-31" d="m181.39,87.54c-.77.49-1.93,1.15-2.7,1.63-.98-1.69-1.42-2.88-1.63-4.74.28-.39,1.17-1.38,1.52-1.54.32,1.34.94,3.24,2.81,4.65"/>
        <path class="cls-31" d="m181.39,87.54c.46.77,1.36,1.53,1.83,2.3.57-1.11,1.21-3.64,1.29-5.08-.26-.26-.41-.34-.75-.75-.42.95-1.56,2.96-2.37,3.53"/>
        <path class="cls-20" d="m180.45,81.35c.2,1.72.94,3.34,2.75,3.75l.55-1.09.2-.84c-.87-.06-1.68-.32-3.51-1.81"/>
        <path class="cls-12" d="m187.35,75.37c-2.47.56-4.65-1.42-6.31-.25-.82.58-1.03,1.67-.75,3.5.05.32-.71.14-.72.13-.33-.27-.62-.43-.88-.31-.57.26-.54,1.12-.23,1.48.14.16.41.41.41.41-2.8-1.31-3.34-4.28-2.75-6.41.2-.72.45-1.34.73-1.88,0-.21.01-.43.07-.65.24-.93,1.03-1.56,1.9-1.6.4-.93,1.39-1.46,2.36-1.21.29.07.55.21.77.4h.1c.51-.52,1.28-.75,2.03-.56.53.14.96.46,1.24.88.72-.59,1.65-.85,2.56-.61,1.61.41,2.54,2.22,2.08,4.04-.29,1.14-1.06,2-1.99,2.39-.19.1-.4.18-.62.24"/>
        <path class="cls-32" d="m190.31,107.33c-.27-.8-.77-1.94-2.07-2.29-.92-.25-2.73.06-6.39.24-.45.99-.46,1.51-.34,1.98l8.8.08Z"/>
        <path class="cls-19" d="m227.87,55.74l-1.35-.28c-.56-.12-.99-.59-1.03-1.17-.08-1.11-.29-2.19-.63-3.23-.18-.55.04-1.15.52-1.46l1.15-.76c.6-.39.76-1.2.37-1.79l-1.46-2.2c-.39-.6-1.2-.76-1.79-.36l-1.15.76c-.48.32-1.12.28-1.55-.1-.82-.72-1.73-1.34-2.72-1.84-.51-.26-.78-.84-.67-1.4l.27-1.35c.14-.7-.31-1.38-1.01-1.53l-2.58-.53c-.7-.14-1.38.31-1.53,1.01l-.28,1.35c-.12.56-.59.99-1.16,1.03-1.11.07-2.19.29-3.23.62-.55.18-1.15-.04-1.47-.52l-.76-1.15c-.39-.6-1.2-.76-1.79-.36l-2.2,1.45c-.6.39-.76,1.2-.36,1.79l.76,1.15c.32.48.28,1.12-.1,1.55-.71.82-1.33,1.73-1.84,2.72-.26.51-.84.78-1.4.67l-1.35-.28c-.7-.14-1.38.31-1.53,1.01l-.53,2.58c-.14.7.31,1.38,1.01,1.53l1.35.27c.56.12.99.59,1.03,1.17.07,1.11.29,2.19.62,3.22.18.55-.04,1.15-.52,1.47l-1.15.76c-.6.39-.76,1.2-.36,1.79l1.45,2.2c.39.6,1.2.76,1.79.37l1.15-.76c.48-.32,1.12-.28,1.55.1.82.72,1.73,1.34,2.72,1.84.51.26.79.84.67,1.4l-.28,1.35c-.14.7.31,1.38,1.01,1.53l2.58.53c.7.14,1.38-.31,1.53-1.01l.27-1.35c.12-.56.59-.99,1.17-1.03,1.11-.07,2.19-.29,3.22-.62.55-.18,1.15.03,1.47.52l.76,1.15c.39.6,1.2.76,1.79.37l2.2-1.46c.6-.39.76-1.2.37-1.79l-.76-1.15c-.32-.48-.28-1.12.1-1.55.72-.82,1.34-1.73,1.84-2.72.26-.51.84-.78,1.4-.67l1.35.27c.7.14,1.38-.31,1.53-1.01l.53-2.58c.14-.7-.31-1.38-1.01-1.52m-20.26-4.95c2.44-2.53,6.46-2.6,8.99-.16,2.53,2.44,2.6,6.46.16,8.99-2.44,2.53-6.46,2.6-8.99.16-2.53-2.44-2.6-6.46-.16-8.99Z"/>
        <g>
          <path class="cls-7" d="m184.55,81.39c.06,0,.05.09-.01.09-.29-.01-.59-.05-.84-.22-.19-.13-.33-.35-.33-.58,0-.04.06-.04.06,0,0,.23.16.4.35.51,0,0,.23.18.76.2Z"/>
          <path class="cls-7" d="m185.24,79.37c-.09-.28-.15-.57-.17-.87-.02-.31.02-.62.04-.94,0-.04-.05-.05-.07-.01-.18.47-.14,1.03-.04,1.51.05.23.23.55.09.77-.06.1-.17.18-.28.22-.13.05-.27.05-.39.12-.06.03-.04.12.02.12.23.02.53-.11.68-.27.18-.19.18-.41.1-.64Z"/>
          <path class="cls-7" d="m187.05,77.32s-.25-.11-.65-.15c-.4-.03-.68.04-.68.04-.05.01-.14-.05-.13-.14,0-.09.08-.16.16-.2,0,0,.28-.11.68-.08.4.03.66.18.66.18.06.04.14.12.13.21,0,.09-.07.13-.16.12Z"/>
          <path class="cls-7" d="m183.52,77.04s-.26-.11-.66-.15c-.4-.03-.69.04-.69.04-.05.01-.14-.05-.13-.14,0-.09.08-.16.16-.2,0,0,.28-.11.68-.08.4.03.66.19.66.19.06.04.14.12.13.21,0,.09-.08.13-.16.12Z"/>
          <path class="cls-7" d="m183.2,77.73c-.01.17-.16.29-.32.28-.17-.01-.29-.16-.28-.32s.16-.29.32-.28c.17.01.29.16.28.32Z"/>
          <path class="cls-7" d="m186.54,78.04c-.01.17-.16.29-.32.28s-.29-.16-.28-.32c.01-.17.16-.29.32-.28s.29.16.28.32Z"/>
          <path class="cls-8" d="m182.33,77.28s.07-.04.1-.05c.04-.01.08-.02.12-.03.08,0,.16-.01.24,0,.16.01.33.07.46.16.05.04.02.15-.05.12-.14-.06-.27-.1-.42-.12-.07-.01-.14-.01-.21-.01-.04,0-.07,0-.11,0-.04,0-.07.01-.11,0-.03,0-.04-.05-.02-.08Z"/>
          <path class="cls-8" d="m185.85,77.6c.05-.05.13-.06.2-.06.07,0,.14,0,.21.01.14.03.27.09.37.19.06.06-.02.15-.09.11-.1-.06-.21-.12-.33-.14-.06-.01-.11-.02-.17-.02-.06,0-.13,0-.18-.01-.03-.01-.04-.05-.02-.07Z"/>
        </g>
      </g>
    </g>
  </g>
</svg>