<?xml version="1.0" encoding="UTF-8"?>
<svg xmlns="http://www.w3.org/2000/svg" xmlns:xlink="http://www.w3.org/1999/xlink" viewBox="0 0 275.52 165.05">
  <defs>
    <style>
      .cls-1 {
        fill: none;
      }

      .cls-2 {
        fill: url(#linear-gradient);
      }

      .cls-3 {
        clip-path: url(#clippath);
      }

      .cls-4 {
        fill: #010443;
      }

      .cls-5 {
        fill: #333;
      }

      .cls-6, .cls-7 {
        fill: #adc8f4;
      }

      .cls-8 {
        fill: #d5ad96;
        mix-blend-mode: multiply;
      }

      .cls-9 {
        fill: #82baf2;
      }

      .cls-9, .cls-10, .cls-11, .cls-12, .cls-13, .cls-14, .cls-7, .cls-15, .cls-16, .cls-17, .cls-18, .cls-19, .cls-20, .cls-21, .cls-22, .cls-23, .cls-24, .cls-25, .cls-26 {
        fill-rule: evenodd;
      }

      .cls-10 {
        fill: #4d7cd2;
      }

      .cls-11 {
        fill: #214780;
      }

      .cls-12 {
        fill: #e08731;
      }

      .cls-13 {
        fill: #cedffb;
      }

      .cls-14 {
        fill: #bf812c;
      }

      .cls-15 {
        fill: #d0726f;
      }

      .cls-16 {
        fill: #d96a2a;
      }

      .cls-17 {
        fill: #bb5020;
      }

      .cls-18 {
        fill: #304483;
      }

      .cls-19 {
        fill: #eff5fd;
      }

      .cls-20 {
        fill: #e9b3b1;
      }

      .cls-21 {
        fill: #fff;
      }

      .cls-22 {
        fill: #f5f5e4;
      }

      .cls-23 {
        fill: #f4f9fc;
      }

      .cls-24 {
        fill: #e6f3f9;
      }

      .cls-25 {
        fill: #eaa449;
      }

      .cls-26 {
        fill: #edc1c5;
      }

      .cls-27 {
        isolation: isolate;
      }
    </style>
    <clipPath id="clippath">
      <path class="cls-1" d="m88.21,87.16c.06-.68.09-1.36.1-2.04.03-2.91-.28-5.64-1.88-8.23-2.19-3.55-6.07-5.56-10.21-6.78-8.21-2.42-14.7-7.91-18.09-14.79-5.81-11.65,14.78-8.03,21.13-5.86,3.69,1.26,7.06,2.7,9.39,3.52,9.69,3.4,16.55-.71,26.22-.23,5.08.25,8.86,1.93,9.14,5.94.16,2.3-2.4,3.91-3.71,5.19-2.74,2.38-5.99,4.32-9.64,5.64-7.7,2.79-11.78,7.62-12.14,15.07-.01.21-.02.42-.02.62l-.3.15v67.31h-9.99s.17-49.99,0-65.51"/>
    </clipPath>
    <linearGradient id="linear-gradient" x1="88.46" y1="123.32" x2="87.76" y2="43.85" gradientUnits="userSpaceOnUse">
      <stop offset="0" stop-color="#d96a2a"/>
      <stop offset="1" stop-color="#f4c25d"/>
    </linearGradient>
  </defs>
  <g class="cls-27">
    <g id="Layer_2" data-name="Layer 2">
      <g id="Layer_1-2" data-name="Layer 1">
        <path class="cls-19" d="m129.62,5.8c-13.96,4.79-27.22,15.06-37.67,24.63-21.76,19.93-25.01,24.12-51.85,40.85-15.65,9.75-27.98,18-34.06,29.03-17.07,30.98,3.26,64.45,45.87,64.45h173.22s20.38.43,35.25-16.13C310.77,92.49,227.19-27.71,129.62,5.8"/>
        <path class="cls-18" d="m137.4,5.25H47.65v4.16c0,2.29,1.87,4.16,4.16,4.16h81.43c2.29,0,4.16-1.87,4.16-4.16v-4.16Z"/>
        <path class="cls-10" d="m55.54,152.66v-27.08c0-11.51,8.13-21.79,20.06-25.58,5.93-1.88,10.94-4.94,12.3-10.83.31-1.34.4-2.69.42-4.06.03-2.91-.28-5.64-1.88-8.23-2.19-3.55-6.07-5.56-10.21-6.78-12.24-3.61-20.68-14.04-20.68-25.77v-27.08h73.98v27.08c0,11.09-7.56,21.07-18.86,25.17-7.7,2.79-11.78,7.62-12.14,15.07-.37,7.76,4.33,13,12.16,15.84,11.3,4.1,18.84,14.08,18.84,25.16v27.08H55.54Zm-4.06,3.69h82.1v-30.77c0-12.92-8.89-24.04-21.39-28.58-7.83-2.85-9.84-7.48-9.61-12.26.24-4.95,2.32-9.18,9.58-11.81,12.52-4.53,21.42-15.67,21.42-28.59V13.57H51.47v30.77c0,13.63,9.89,25.26,23.48,29.27,8.7,2.57,9.34,7.15,9.29,11.47-.05,4.41-.96,8.58-10,11.45-13.23,4.2-22.78,15.67-22.78,29.06v30.77Z"/>
        <path class="cls-24" d="m55.54,152.66v-27.08c0-11.51,8.13-21.79,20.06-25.58,5.93-1.88,10.94-4.94,12.3-10.83.31-1.34.4-2.69.42-4.06.03-2.91-.28-5.64-1.88-8.23-2.19-3.55-6.07-5.56-10.21-6.78-12.24-3.61-20.68-14.04-20.68-25.77v-27.08h73.98v27.08c0,11.09-7.56,21.07-18.86,25.17-7.7,2.79-11.78,7.62-12.14,15.07-.37,7.76,4.33,13,12.16,15.84,11.3,4.1,18.84,14.08,18.84,25.16v27.08H55.54Z"/>
        <g class="cls-3">
          <rect class="cls-2" x="52.31" y="43.67" width="71.86" height="109"/>
        </g>
        <path class="cls-14" d="m90.67,53.59c8.65,2.22,15.21-1.29,24.19-.85,5.08.25,8.86,1.93,9.14,5.94-13.67,2.63-33.33-5.09-33.33-5.09h0Z"/>
        <path class="cls-18" d="m47.55,164.57h89.96v-4.32c0-2.38-1.94-4.32-4.32-4.32H51.87c-2.38,0-4.32,1.94-4.32,4.32v4.32Z"/>
        <path class="cls-16" d="m98.2,127.28s1.24,13.36,7.95,16.06c6.72,2.7,9.62,4.97,8.65,7.15-.97,2.18-2.13,2.18-2.13,2.18h-40.88s-2.78-3.88,1.48-6.69c4.26-2.81,6.59,1.07,11.51-5.39,4.92-6.46,2.78-13.88,4.01-14.06,1.23-.18,9.41.76,9.41.76"/>
        <path class="cls-17" d="m114.3,148.02c.69.85.87,1.66.51,2.47-.97,2.18-2.13,2.18-2.13,2.18h-40.88s-1.33-1.85-.74-3.93c.47.29,1.06.59,1.78.85,3.12,1.15,3.75-1.64,11.8-2.61,8.04-.97,13.56,2.83,22.71,3.18,4.34.17,6.19-.94,6.95-2.15"/>
        <path class="cls-21" d="m69.27,21.17h0c-2.6,0-4.73,2.13-4.73,4.73v11.74c0,2.6,2.13,4.73,4.73,4.73s4.73-2.13,4.73-4.73v-11.74c0-2.6-2.13-4.73-4.73-4.73"/>
        <path class="cls-21" d="m69.27,116.35h0c-2.6,0-4.73,2.13-4.73,4.73v11.74c0,2.6,2.13,4.73,4.73,4.73s4.73-2.13,4.73-4.73v-11.74c0-2.6-2.13-4.73-4.73-4.73"/>
        <path class="cls-25" d="m184.76,120.68c1.68,7.53,4.97,6.98,8.52,16.32,3.89,10.25,5.55,10.67,5.25,21.71l2.68.39c1.48.25.23,4.43,1.17,1.14l1.79-3.23c-.1-30.61,5.21-53.52-11.81-64.15-1.43-1.42-10.91,19.49-7.6,27.83"/>
        <path class="cls-12" d="m159.28,85.89c3.25,16.79-.84,50.48-5.28,76.25l30.27,1.46c4.46-24.7,7.34-49.91,5.63-67.78-.4-4.12-1.37-4.29-2.67-5.88-8-3.24-14.72-5.59-26.92-5.71l-1.03,1.65Z"/>
        <path class="cls-25" d="m196.61,163.69c7.4-34.92,7.74-65.6-6.8-72.47-.88-.46-1.74-.88-2.59-1.28,2.68,12.11-8.27,44.17-19.92,73.54l29.32.21Z"/>
        <path class="cls-25" d="m169.64,164.57c1.45-32.33-6.48-68.19-8.82-80.29-8.33-.61-13.52.35-18.98,3.85-9.18,5.57-11.4,17.01-9.18,32.01l6.16-4.72c.03,11.95-2.82,32.81-5.76,49.15h36.57Z"/>
        <polygon class="cls-12" points="158.92 155.66 136.97 139.12 135.7 146.56 153.16 157.06 158.92 155.66"/>
        <path class="cls-20" d="m192.45,76.8c-2.69,3.37-5.32,5.7-8.58,6.49l-1.26,5.85c1.08,4.1.23,7.56-5.05,7.37-14.14-2.27-10.37-11.65-10.15-12.08l3.08-7.86c-.46-.12-3.93-2.99-4.87-3.51-.94-.52-2.01-2.77-1.67-4.84.33-2.07,3.36-.74,3.36-.74-2.72-6.05-6.16-11.25.47-14.79,6.62-3.53,20.13-3.55,20.13-3.55l8.35-1.05c-1.56,2.47-2.13,11.71-1.31,17.72.73,5.39,1.13,6.45-2.48,10.98"/>
        <path class="cls-22" d="m176.6,96.34c-2.23,1.49-5.6,3.51-7.83,4.99-3.01-4.9-3.79-11.52-4.54-16.98,1.7-.71,2.33-1.06,3.93-1.86,1.03,3.91,2.84,9.83,8.44,13.84"/>
        <path class="cls-22" d="m176.6,96.34c1.42,2.23,4.12,4.41,5.54,6.64,1.61-3.31,2.38-9.82,2.5-14.07-.59-.85-.89-.88-1.63-1.64-.42,3.88-4.06,7.33-6.41,9.06"/>
        <path class="cls-15" d="m173.42,78.2c1.05,4.17,3.45,10.43,9.18,10.94l1.26-5.85c-2.57-.13-4.97-.84-10.44-5.09"/>
        <path class="cls-25" d="m150.92,104.77c-1.28-5.86,3.54-24.43-13.02-13.47-5.9,5.49-23.99,35.72-24.97,51.4-.45,7.16,5.23,9.81,11.18,12.55,7.81,3.6,16.78,8.24,22.85,9.31,3.5.22,10.59.32,12.24,0,5.57-2.59-.28-8.9-.28-8.9,0,0-25.08-13.47-27.75-15.64-1.24-1.13,20.69-30.98,19.76-35.25"/>
        <path class="cls-25" d="m208.93,127.13c-.89-4.09-3.96-23.21-10.21-28.54-2.7-2.3-4.44.81-9.43,4.11-5.9,5.49,2.35,37.37,1.36,53.05-.44,6.97,39.28,8.43,40.89,7.69,5.57-2.59-1.01-8.34-1.01-8.34,0,0-18.97.13-21.64-2.04-1.24-1.13.98-21.66.05-25.93"/>
        <path class="cls-11" d="m192.8,61.51c-6.78,1.84-13.03-3.37-17.48.07-2.2,1.7-2.66,4.74-1.66,9.78.29,1.49.86,2.65-1.22,1.1-.95-.71-2.55-1.76-3.24-1.41-1.55.79-1.36,3.18-.45,4.12.4.42,1.19,1.09,1.19,1.09-7.89-3.3-9.75-11.44-8.37-17.39.47-2.02,1.08-3.77,1.8-5.29-.05-.59-.02-1.19.11-1.8.55-2.59,2.66-4.43,5.07-4.64.99-2.62,3.67-4.21,6.37-3.64.81.17,1.54.52,2.17,1.01h.29c1.35-1.5,3.44-2.25,5.56-1.8,1.49.31,2.72,1.16,3.55,2.3,1.93-1.72,4.47-2.54,7.01-2,4.51.95,7.3,5.84,6.23,10.92-.67,3.18-2.7,5.67-5.22,6.86-.52.29-1.08.54-1.68.74"/>
        <path class="cls-10" d="m222.5,159.54h-64.11v2.51c0,1.38,1.13,2.51,2.51,2.51h59.08c1.38,0,2.51-1.13,2.51-2.51v-2.51Z"/>
        <path class="cls-10" d="m245.31,123.87h-47.84c-1.89,0-3.08,1.6-3.43,3.47l-6.19,32.89h54.23l6.19-33.37c.3-1.62-1.33-2.99-2.95-2.99"/>
        <path class="cls-9" d="m246.95,123.87h-47.84c-1.89,0-3.08,1.6-3.43,3.47l-6.11,32.46h-.08l-.39,2.38c-.21,1.29,1.07,2.38,2.38,2.38h49.56c1.31,0,2.19-1.09,2.38-2.38l.29-1.96,6.19-33.37c.3-1.62-1.33-2.99-2.95-2.99"/>
        <path class="cls-23" d="m221.74,142.14c-1.14-.27-2.33.59-2.65,1.94-.32,1.34.34,2.65,1.48,2.92,1.14.27,2.33-.59,2.65-1.94.32-1.34-.34-2.65-1.48-2.92"/>
        <path class="cls-26" d="m156.05,164.57c7.46-.04,15.79.06,18-.03-2.18-6.51-9.53-8.12-15.66-7.76-1.47,1.01-2.86,6.03-2.34,7.8"/>
        <rect class="cls-4" x="23.77" y="164.57" width="237.84" height=".48"/>
        <path class="cls-13" d="m246.49,78.53l-1.41-.29c-.59-.12-1.03-.62-1.07-1.22-.08-1.16-.3-2.29-.65-3.37-.19-.57.04-1.2.54-1.53l1.2-.79c.62-.41.79-1.25.38-1.87l-1.52-2.3c-.41-.62-1.25-.79-1.87-.38l-1.2.79c-.5.33-1.17.29-1.62-.1-.86-.75-1.81-1.39-2.84-1.92-.54-.27-.82-.87-.7-1.46l.29-1.41c.15-.73-.32-1.44-1.05-1.59l-2.7-.55c-.73-.15-1.44.32-1.59,1.05l-.29,1.41c-.12.59-.62,1.03-1.21,1.07-1.16.08-2.29.3-3.37.65-.57.19-1.2-.04-1.53-.54l-.79-1.2c-.41-.62-1.25-.79-1.87-.38l-2.3,1.52c-.62.41-.79,1.25-.38,1.87l.79,1.2c.33.5.29,1.17-.1,1.62-.75.86-1.39,1.81-1.92,2.84-.27.54-.87.82-1.46.7l-1.41-.29c-.73-.15-1.44.32-1.59,1.05l-.55,2.7c-.15.73.32,1.44,1.05,1.59l1.41.29c.59.12,1.03.62,1.07,1.22.08,1.16.3,2.28.65,3.36.19.57-.04,1.2-.54,1.53l-1.2.79c-.62.41-.79,1.25-.38,1.87l1.52,2.3c.41.62,1.25.79,1.87.38l1.2-.79c.5-.33,1.17-.29,1.62.1.86.75,1.81,1.39,2.84,1.92.54.27.82.87.7,1.46l-.29,1.41c-.15.73.32,1.44,1.05,1.59l2.7.55c.73.15,1.44-.32,1.59-1.05l.29-1.41c.12-.59.62-1.03,1.22-1.07,1.16-.08,2.28-.3,3.36-.65.57-.19,1.2.04,1.53.54l.79,1.2c.41.62,1.25.79,1.87.38l2.3-1.52c.62-.41.79-1.25.38-1.87l-.79-1.2c-.33-.5-.29-1.16.1-1.62.75-.85,1.4-1.81,1.92-2.84.27-.54.87-.82,1.46-.7l1.41.29c.73.15,1.44-.32,1.59-1.05l.55-2.7c.15-.73-.32-1.44-1.05-1.59m-21.14-5.16c2.54-2.63,6.74-2.71,9.38-.17,2.63,2.54,2.71,6.74.17,9.38-2.54,2.63-6.74,2.71-9.38.17-2.64-2.54-2.71-6.74-.17-9.38Z"/>
        <path class="cls-6" d="m198.58,17.73h-46.53c-.83,0-1.58.34-2.13.89s-.89,1.3-.89,2.13v5.72c0,.83.34,1.58.89,2.13.55.55,1.3.89,2.13.89h46.53c.83,0,1.58-.34,2.13-.89.55-.55.89-1.3.89-2.13v-5.72c0-.83-.34-1.58-.89-2.13-.55-.55-1.3-.89-2.13-.89m-46.53-1.01h46.53c1.11,0,2.12.45,2.85,1.18.73.73,1.18,1.74,1.18,2.85v5.72c0,1.11-.45,2.12-1.18,2.85-.73.73-1.74,1.18-2.85,1.18h-46.53c-1.11,0-2.12-.45-2.85-1.18-.73-.73-1.18-1.74-1.18-2.85v-5.72c0-1.11.45-2.12,1.18-2.85.73-.73,1.74-1.18,2.85-1.18Z"/>
        <path class="cls-7" d="m152.08,18.95h1.89c.51,0,.94.42.94.94v7.48c0,.51-.42.94-.94.94h-1.89c-.51,0-.94-.42-.94-.94v-7.48c0-.51.42-.94.94-.94"/>
        <path class="cls-7" d="m156.97,18.95h1.89c.51,0,.94.42.94.94v7.48c0,.51-.42.94-.94.94h-1.89c-.51,0-.94-.42-.94-.94v-7.48c0-.51.42-.94.94-.94"/>
        <path class="cls-7" d="m161.86,18.95h1.89c.51,0,.94.42.94.94v7.48c0,.51-.42.94-.94.94h-1.89c-.51,0-.94-.42-.94-.94v-7.48c0-.51.42-.94.94-.94"/>
        <path class="cls-7" d="m166.75,18.95h1.89c.51,0,.94.42.94.94v7.48c0,.51-.42.94-.94.94h-1.89c-.51,0-.94-.42-.94-.94v-7.48c0-.51.42-.94.94-.94"/>
        <path class="cls-7" d="m171.64,18.95h1.89c.51,0,.94.42.94.94v7.48c0,.51-.42.94-.94.94h-1.89c-.51,0-.94-.42-.94-.94v-7.48c0-.51.42-.94.94-.94"/>
        <path class="cls-7" d="m176.53,18.95h1.89c.51,0,.94.42.94.94v7.48c0,.51-.42.94-.94.94h-1.89c-.51,0-.94-.42-.94-.94v-7.48c0-.51.42-.94.94-.94"/>
        <g>
          <path class="cls-5" d="m186.27,79.2c.18,0,.14.27-.03.27-.85-.03-1.75-.16-2.47-.65-.56-.38-.97-1.03-.96-1.72,0-.11.19-.11.19,0,.03.67.47,1.18,1.02,1.51,0,0,.68.53,2.25.58Z"/>
          <path class="cls-5" d="m188.3,73.21c-.26-.84-.44-1.7-.49-2.58-.06-.93.07-1.84.12-2.77,0-.11-.15-.15-.19-.04-.52,1.38-.42,3.04-.12,4.46.15.68.67,1.61.27,2.27-.19.31-.5.52-.82.66-.37.16-.8.16-1.16.34-.17.09-.13.35.07.37.66.07,1.56-.33,2.02-.81.53-.56.52-1.21.3-1.9Z"/>
          <path class="cls-5" d="m193.68,67.17s-.75-.34-1.93-.43c-1.18-.09-2.02.12-2.02.12-.15.04-.41-.13-.39-.41.02-.28.23-.46.47-.59,0,0,.82-.32,2-.23,1.18.09,1.94.55,1.94.55.18.11.42.36.39.63-.02.28-.22.39-.47.36Z"/>
          <path class="cls-5" d="m183.23,66.33s-.76-.34-1.95-.44c-1.19-.1-2.04.12-2.04.12-.15.04-.42-.13-.39-.41.02-.28.23-.46.47-.59,0,0,.83-.32,2.02-.23,1.19.1,1.96.55,1.96.55.18.11.42.36.4.63-.02.28-.22.39-.48.36Z"/>
          <path class="cls-5" d="m182.29,68.37c-.04.49-.47.86-.96.82-.49-.04-.86-.47-.82-.96s.47-.86.96-.82c.49.04.86.47.82.96Z"/>
          <path class="cls-5" d="m192.17,69.28c-.04.49-.47.86-.96.82s-.86-.47-.82-.96c.04-.49.47-.86.96-.82s.86.47.82.96Z"/>
          <path class="cls-8" d="m179.71,67.06c.08-.08.19-.1.3-.14.12-.04.24-.07.36-.08.24-.03.48-.03.72-.01.47.04.97.21,1.36.48.16.11.06.43-.15.34-.41-.17-.81-.29-1.25-.36-.21-.03-.42-.04-.63-.03-.11,0-.21,0-.32,0-.11,0-.22.03-.33,0-.1-.02-.13-.16-.06-.23Z"/>
          <path class="cls-8" d="m190.11,67.99c.14-.15.39-.17.58-.19.21-.02.42,0,.63.04.4.09.8.26,1.1.55.17.17-.05.44-.25.32-.3-.18-.61-.34-.96-.41-.16-.03-.33-.06-.5-.07-.17,0-.37.03-.54-.03-.09-.03-.12-.14-.05-.21Z"/>
        </g>
      </g>
    </g>
  </g>
</svg>