<?xml version="1.0" encoding="UTF-8"?>
<svg id="Layer_2" data-name="Layer 2" xmlns="http://www.w3.org/2000/svg" viewBox="0 0 425.19 425.19">
  <defs>
    <style>
      .cls-1 {
        fill: #00afaf;
      }

      .cls-2 {
        fill: #b4abd4;
      }

      .cls-3 {
        fill: #adc8d3;
      }

      .cls-4 {
        fill: #442d93;
      }

      .cls-5 {
        fill: #fff;
      }

      .cls-5, .cls-6 {
        font-family: Archivo-Bold, Archivo;
        font-size: 18px;
        font-weight: 700;
      }
    </style>
  </defs>
  <g id="Layer_1-2" data-name="Layer 1">
    <g>
      <circle class="cls-2" cx="212.59" cy="73.48" r="73.48"/>
      <circle class="cls-3" cx="212.59" cy="351.7" r="73.48"/>
      <circle class="cls-4" cx="351.7" cy="212.59" r="73.48"/>
      <circle class="cls-1" cx="73.48" cy="212.59" r="73.48"/>
      <path class="cls-2" d="m306.74,128.24s.08-.08.11-.12c.03-.05.06-.1.09-.15.02-.03.04-.06.05-.09,0-.02,0-.03.01-.05.02-.05.03-.11.04-.17.01-.06.02-.11.02-.17,0-.02,0-.03,0-.05v-9.4c0-.63-.51-1.13-1.13-1.13s-1.13.51-1.13,1.13v6.66l-9.1-9.1c-.44-.44-1.16-.44-1.6,0s-.44,1.16,0,1.6l9.1,9.1h-6.66c-.63,0-1.13.51-1.13,1.13,0,.31.13.6.33.8s.49.33.8.33h9.4s.03,0,.05,0c.06,0,.11-.01.17-.02.06-.01.11-.02.17-.04.02,0,.03,0,.05-.01.03-.01.06-.04.09-.05.05-.03.1-.05.15-.09.04-.03.08-.07.12-.11Z"/>
      <path class="cls-1" d="m123.34,115.61s-.08-.08-.12-.11c-.05-.03-.1-.06-.15-.09-.03-.02-.06-.04-.09-.05-.02,0-.03,0-.05-.01-.05-.02-.11-.03-.17-.04-.06-.01-.11-.02-.17-.02-.02,0-.03,0-.05,0h-9.4c-.63,0-1.13.51-1.13,1.13s.51,1.13,1.13,1.13h6.66l-9.1,9.1c-.44.44-.44,1.16,0,1.6s1.16.44,1.6,0l9.1-9.1v6.66c0,.63.51,1.13,1.13,1.13.31,0,.6-.13.8-.33s.33-.49.33-.8v-9.4s0-.03,0-.05c0-.06-.01-.11-.02-.17-.01-.06-.02-.11-.04-.17,0-.02,0-.03-.01-.05-.01-.03-.04-.06-.05-.09-.03-.05-.05-.1-.09-.15-.03-.04-.07-.08-.11-.12Z"/>
      <path class="cls-4" d="m294.1,299.04s.08.08.12.11c.05.03.1.06.15.09.03.02.06.04.09.05.02,0,.03,0,.05.01.05.02.11.03.17.04.06.01.11.02.17.02.02,0,.03,0,.05,0h9.4c.63,0,1.13-.51,1.13-1.13s-.51-1.13-1.13-1.13h-6.66l9.1-9.1c.44-.44.44-1.16,0-1.6s-1.16-.44-1.6,0l-9.1,9.1v-6.66c0-.63-.51-1.13-1.13-1.13-.31,0-.6.13-.8.33s-.33.49-.33.8v9.4s0,.03,0,.05c0,.06.01.11.02.17.01.06.02.11.04.17,0,.02,0,.03.01.05.01.03.04.06.05.09.03.05.05.1.09.15.03.04.07.08.11.12Z"/>
      <path class="cls-3" d="m124.02,286.42s-.08.08-.11.12c-.03.05-.06.1-.09.15-.02.03-.04.06-.05.09,0,.02,0,.03-.01.05-.02.05-.03.11-.04.17-.01.06-.02.11-.02.17,0,.02,0,.03,0,.05v9.4c0,.63.51,1.13,1.13,1.13s1.13-.51,1.13-1.13v-6.66l9.1,9.1c.44.44,1.16.44,1.6,0s.44-1.16,0-1.6l-9.1-9.1h6.66c.63,0,1.13-.51,1.13-1.13,0-.31-.13-.6-.33-.8s-.49-.33-.8-.33h-9.4s-.03,0-.05,0c-.06,0-.11.01-.17.02-.06.01-.11.02-.17.04-.02,0-.03,0-.05.01-.03.01-.06.04-.09.05-.05.03-.1.05-.15.09-.04.03-.08.07-.12.11Z"/>
      <text class="cls-6" transform="translate(205.38 73.48)"><tspan x="0" y="0">4.</tspan><tspan x="-25.51" y="21.6">Priorize</tspan></text>
      <text class="cls-5" transform="translate(344.19 208.98)"><tspan x="0" y="0">1.</tspan><tspan x="-24.01" y="21.6">Planeje</tspan></text>
      <text class="cls-5" transform="translate(65.98 208.98)"><tspan x="0" y="0">3.</tspan><tspan x="-30.52" y="21.6">Preserve</tspan></text>
      <text class="cls-6" transform="translate(206.71 351.7)"><tspan x="0" y="0">2.</tspan><tspan x="-25" y="21.6">Otimize</tspan></text>
    </g>
  </g>
</svg>