<?xml version="1.0" encoding="UTF-8"?>
<svg id="Layer_2" data-name="Layer 2" xmlns="http://www.w3.org/2000/svg" viewBox="0 0 900.39 329.79">
  <defs>
    <style>
      .cls-1 {
        fill: #fff;
      }

      .cls-2 {
        fill: #6647ba;
      }

      .cls-3 {
        fill: #adc8d3;
      }
    </style>
  </defs>
  <g id="Layer_1-2" data-name="Layer 1">
    <g>
      <path class="cls-2" d="m108.46,67.62l128.23,83.93-119.74,95.46s-70.99-76.59-8.49-179.39Z"/>
      <path class="cls-3" d="m140.46,247.01c27.79,34.22,70.2,56.09,117.72,56.09,83.7,0,151.55-67.85,151.55-151.55S341.88,0,258.18,0c-52.66,0-99.04,26.86-126.21,67.62l128.23,83.93-119.74,95.46Z"/>
      <path d="m456.5,143.63h43.74v7.77h-43.74v-7.77Zm0,19.7h43.74v7.68h-43.74v-7.68Z"/>
      <g>
        <path class="cls-1" d="m111.44,165.79c0-1.29.28-2.44.85-3.47.56-1.03,1.26-1.92,2.08-2.69.82-.77,1.9-1.64,3.23-2.61,1.15-.88,2.06-1.61,2.73-2.2.67-.59,1.22-1.23,1.68-1.93.56-.88.85-1.87.85-2.98,0-.72-.27-1.36-.8-1.91-.53-.55-1.29-.83-2.29-.83-2.24,0-3.35,1.07-3.35,3.22v1.39h-4.61c-.09-.41-.14-.86-.14-1.35,0-2.35.78-4.11,2.35-5.28,1.57-1.17,3.55-1.76,5.94-1.76,2.1,0,3.71.41,4.84,1.22,1.13.81,1.87,1.73,2.22,2.74.35,1.02.52,1.96.52,2.84,0,1.56-.35,2.94-1.05,4.15-.7,1.21-1.53,2.22-2.49,3.05-.96.82-2.15,1.72-3.57,2.69-1.08.74-1.9,1.35-2.44,1.83-.38.34-.67.67-.85.98h10.53v4.13h-16.26v-1.22Z"/>
        <path class="cls-1" d="m133.84,166.35c-1.16-.71-2.05-1.95-2.68-3.71-.62-1.76-.93-4.18-.93-7.25s.31-5.49.93-7.25c.62-1.76,1.51-3,2.68-3.71,1.16-.71,2.62-1.07,4.39-1.07s3.22.36,4.39,1.08c1.16.72,2.05,1.96,2.68,3.71.62,1.75.93,4.16.93,7.23s-.31,5.48-.93,7.23c-.62,1.75-1.51,2.99-2.68,3.71-1.16.72-2.62,1.08-4.39,1.08s-3.22-.36-4.39-1.07Zm6.4-3.45c.46-.49.78-1.22.95-2.22.17-.99.25-2.36.25-4.1v-2.37c0-1.74-.08-3.1-.25-4.1-.17-.99-.49-1.73-.95-2.22-.46-.49-1.13-.73-2.02-.73s-1.55.24-2.01.73c-.46.49-.78,1.23-.95,2.22-.17.99-.25,2.36-.25,4.1v2.37c0,1.74.08,3.1.25,4.1.17.99.49,1.73.95,2.22.46.49,1.13.73,2.01.73s1.55-.24,2.02-.73Z"/>
        <path class="cls-1" d="m150.62,154.22c-.95-.91-1.42-2.49-1.42-4.72s.47-3.82,1.42-4.74c.95-.93,2.36-1.39,4.23-1.39s3.28.46,4.23,1.39c.95.93,1.42,2.51,1.42,4.74s-.47,3.81-1.42,4.72c-.95.91-2.36,1.37-4.23,1.37s-3.28-.46-4.23-1.37Zm18.93-10.45h3.52l-17.17,23.23h-3.45l17.1-23.23Zm-13.02,8.28c.3-.53.46-1.3.46-2.32v-.51c0-1.02-.15-1.79-.46-2.32-.3-.53-.86-.8-1.68-.8s-1.37.26-1.68.78c-.3.52-.46,1.3-.46,2.34v.51c0,1.04.15,1.82.46,2.34.3.52.86.78,1.68.78s1.37-.27,1.68-.8Zm9.8,13.99c-.95-.91-1.42-2.49-1.42-4.72s.47-3.82,1.42-4.74c.95-.93,2.36-1.39,4.23-1.39s3.28.46,4.23,1.39c.95.93,1.42,2.51,1.42,4.74s-.47,3.81-1.42,4.72c-.95.91-2.36,1.37-4.23,1.37s-3.28-.46-4.23-1.37Zm5.91-2.17c.3-.53.46-1.3.46-2.32v-.51c0-1.02-.15-1.79-.46-2.32-.3-.53-.86-.8-1.68-.8s-1.37.27-1.68.8c-.3.53-.46,1.3-.46,2.32v.51c0,1.02.15,1.79.46,2.32.3.53.86.8,1.68.8s1.37-.27,1.68-.8Z"/>
      </g>
      <g>
        <path class="cls-2" d="m298.37,165.53c-1.37-1.25-2.05-2.88-2.05-4.89,0-1.29.3-2.4.91-3.35s1.53-1.68,2.78-2.2c-1.02-.54-1.79-1.27-2.32-2.18-.53-.91-.8-1.94-.8-3.06,0-1.22.29-2.31.88-3.28.59-.97,1.46-1.74,2.62-2.32,1.16-.58,2.57-.86,4.22-.86s3.05.29,4.22.86c1.16.58,2.04,1.35,2.62,2.32.59.97.88,2.07.88,3.28,0,1.13-.27,2.15-.8,3.06-.53.91-1.32,1.64-2.35,2.18,2.48.99,3.73,2.84,3.73,5.55,0,2.01-.68,3.64-2.05,4.89-1.37,1.25-3.45,1.88-6.25,1.88s-4.88-.63-6.25-1.88Zm8.86-2.73c.61-.59.91-1.41.91-2.47s-.3-1.88-.91-2.47c-.61-.59-1.48-.88-2.61-.88s-2,.29-2.61.88c-.61.59-.91,1.41-.91,2.47s.3,1.89.91,2.47c.61.59,1.48.88,2.61.88s2-.29,2.61-.88Zm-.36-10.31c.53-.53.8-1.29.8-2.29s-.27-1.76-.8-2.3c-.53-.54-1.28-.81-2.25-.81s-1.72.27-2.24.81c-.52.54-.78,1.31-.78,2.3s.26,1.76.78,2.29c.52.53,1.26.8,2.24.8s1.72-.27,2.25-.8Z"/>
        <path class="cls-2" d="m319.07,166.35c-1.16-.71-2.05-1.95-2.68-3.71-.62-1.76-.93-4.18-.93-7.25s.31-5.49.93-7.25c.62-1.76,1.51-3,2.68-3.71,1.16-.71,2.62-1.07,4.39-1.07s3.22.36,4.39,1.08c1.16.72,2.05,1.96,2.68,3.71.62,1.75.93,4.16.93,7.23s-.31,5.48-.93,7.23c-.62,1.75-1.51,2.99-2.68,3.71-1.16.72-2.62,1.08-4.39,1.08s-3.22-.36-4.39-1.07Zm6.4-3.45c.46-.49.78-1.22.95-2.22.17-.99.25-2.36.25-4.1v-2.37c0-1.74-.08-3.1-.25-4.1-.17-.99-.49-1.73-.95-2.22-.46-.49-1.13-.73-2.02-.73s-1.55.24-2.01.73c-.46.49-.78,1.23-.95,2.22-.17.99-.25,2.36-.25,4.1v2.37c0,1.74.08,3.1.25,4.1.17.99.49,1.73.95,2.22.46.49,1.13.73,2.01.73s1.55-.24,2.02-.73Z"/>
        <path class="cls-2" d="m335.85,154.22c-.95-.91-1.42-2.49-1.42-4.72s.47-3.82,1.42-4.74c.95-.93,2.36-1.39,4.23-1.39s3.28.46,4.23,1.39c.95.93,1.42,2.51,1.42,4.74s-.47,3.81-1.42,4.72c-.95.91-2.36,1.37-4.23,1.37s-3.28-.46-4.23-1.37Zm18.93-10.45h3.52l-17.17,23.23h-3.45l17.1-23.23Zm-13.02,8.28c.3-.53.46-1.3.46-2.32v-.51c0-1.02-.15-1.79-.46-2.32-.3-.53-.86-.8-1.68-.8s-1.37.26-1.68.78c-.3.52-.46,1.3-.46,2.34v.51c0,1.04.15,1.82.46,2.34.3.52.86.78,1.68.78s1.37-.27,1.68-.8Zm9.8,13.99c-.95-.91-1.42-2.49-1.42-4.72s.47-3.82,1.42-4.74c.95-.93,2.36-1.39,4.23-1.39s3.28.46,4.23,1.39c.95.93,1.42,2.51,1.42,4.74s-.47,3.81-1.42,4.72c-.95.91-2.36,1.37-4.23,1.37s-3.28-.46-4.23-1.37Zm5.91-2.17c.3-.53.46-1.3.46-2.32v-.51c0-1.02-.15-1.79-.46-2.32-.3-.53-.86-.8-1.68-.8s-1.37.27-1.68.8c-.3.53-.46,1.3-.46,2.32v.51c0,1.02.15,1.79.46,2.32.3.53.86.8,1.68.8s1.37-.27,1.68-.8Z"/>
      </g>
      <path class="cls-3" d="m599.12,67.62l128.23,83.93-119.74,95.46s-70.99-76.59-8.49-179.39Z"/>
      <path class="cls-2" d="m631.13,247.01c27.79,34.22,70.2,56.09,117.72,56.09,83.7,0,151.55-67.85,151.55-151.55S832.54,0,748.84,0c-52.66,0-99.04,26.86-126.21,67.62l128.23,83.93-119.74,95.46Z"/>
      <g>
        <path class="cls-2" d="m602.11,165.79c0-1.29.28-2.44.85-3.47.56-1.03,1.26-1.92,2.08-2.69.82-.77,1.9-1.64,3.23-2.61,1.15-.88,2.06-1.61,2.73-2.2.67-.59,1.22-1.23,1.68-1.93.56-.88.85-1.87.85-2.98,0-.72-.27-1.36-.8-1.91-.53-.55-1.29-.83-2.29-.83-2.24,0-3.35,1.07-3.35,3.22v1.39h-4.61c-.09-.41-.14-.86-.14-1.35,0-2.35.78-4.11,2.35-5.28,1.57-1.17,3.55-1.76,5.94-1.76,2.1,0,3.71.41,4.84,1.22,1.13.81,1.87,1.73,2.22,2.74.35,1.02.52,1.96.52,2.84,0,1.56-.35,2.94-1.05,4.15-.7,1.21-1.53,2.22-2.49,3.05-.96.82-2.15,1.72-3.57,2.69-1.08.74-1.9,1.35-2.44,1.83-.38.34-.67.67-.85.98h10.53v4.13h-16.26v-1.22Z"/>
        <path class="cls-2" d="m624.51,166.35c-1.16-.71-2.05-1.95-2.68-3.71-.62-1.76-.93-4.18-.93-7.25s.31-5.49.93-7.25c.62-1.76,1.51-3,2.68-3.71,1.16-.71,2.62-1.07,4.39-1.07s3.22.36,4.39,1.08c1.16.72,2.05,1.96,2.68,3.71.62,1.75.93,4.16.93,7.23s-.31,5.48-.93,7.23c-.62,1.75-1.51,2.99-2.68,3.71-1.16.72-2.62,1.08-4.39,1.08s-3.22-.36-4.39-1.07Zm6.4-3.45c.46-.49.78-1.22.95-2.22.17-.99.25-2.36.25-4.1v-2.37c0-1.74-.08-3.1-.25-4.1-.17-.99-.49-1.73-.95-2.22-.46-.49-1.13-.73-2.02-.73s-1.55.24-2.01.73c-.46.49-.78,1.23-.95,2.22-.17.99-.25,2.36-.25,4.1v2.37c0,1.74.08,3.1.25,4.1.17.99.49,1.73.95,2.22.46.49,1.13.73,2.01.73s1.55-.24,2.02-.73Z"/>
        <path class="cls-2" d="m641.29,154.22c-.95-.91-1.42-2.49-1.42-4.72s.47-3.82,1.42-4.74c.95-.93,2.36-1.39,4.23-1.39s3.28.46,4.23,1.39c.95.93,1.42,2.51,1.42,4.74s-.47,3.81-1.42,4.72c-.95.91-2.36,1.37-4.23,1.37s-3.28-.46-4.23-1.37Zm18.93-10.45h3.52l-17.17,23.23h-3.45l17.1-23.23Zm-13.02,8.28c.3-.53.46-1.3.46-2.32v-.51c0-1.02-.15-1.79-.46-2.32-.3-.53-.86-.8-1.68-.8s-1.37.26-1.68.78c-.3.52-.46,1.3-.46,2.34v.51c0,1.04.15,1.82.46,2.34.3.52.86.78,1.68.78s1.37-.27,1.68-.8Zm9.8,13.99c-.95-.91-1.42-2.49-1.42-4.72s.47-3.82,1.42-4.74c.95-.93,2.36-1.39,4.23-1.39s3.28.46,4.23,1.39c.95.93,1.42,2.51,1.42,4.74s-.47,3.81-1.42,4.72c-.95.91-2.36,1.37-4.23,1.37s-3.28-.46-4.23-1.37Zm5.91-2.17c.3-.53.46-1.3.46-2.32v-.51c0-1.02-.15-1.79-.46-2.32-.3-.53-.86-.8-1.68-.8s-1.37.27-1.68.8c-.3.53-.46,1.3-.46,2.32v.51c0,1.02.15,1.79.46,2.32.3.53.86.8,1.68.8s1.37-.27,1.68-.8Z"/>
      </g>
      <g>
        <path class="cls-1" d="m789.04,165.53c-1.37-1.25-2.05-2.88-2.05-4.89,0-1.29.3-2.4.91-3.35s1.53-1.68,2.78-2.2c-1.02-.54-1.79-1.27-2.32-2.18-.53-.91-.8-1.94-.8-3.06,0-1.22.29-2.31.88-3.28.59-.97,1.46-1.74,2.62-2.32,1.16-.58,2.57-.86,4.22-.86s3.05.29,4.22.86c1.16.58,2.04,1.35,2.62,2.32.59.97.88,2.07.88,3.28,0,1.13-.27,2.15-.8,3.06-.53.91-1.32,1.64-2.35,2.18,2.48.99,3.73,2.84,3.73,5.55,0,2.01-.68,3.64-2.05,4.89-1.37,1.25-3.45,1.88-6.25,1.88s-4.88-.63-6.25-1.88Zm8.86-2.73c.61-.59.91-1.41.91-2.47s-.3-1.88-.91-2.47c-.61-.59-1.48-.88-2.61-.88s-2,.29-2.61.88c-.61.59-.91,1.41-.91,2.47s.3,1.89.91,2.47c.61.59,1.48.88,2.61.88s2-.29,2.61-.88Zm-.36-10.31c.53-.53.8-1.29.8-2.29s-.27-1.76-.8-2.3c-.53-.54-1.28-.81-2.25-.81s-1.72.27-2.24.81c-.52.54-.78,1.31-.78,2.3s.26,1.76.78,2.29c.52.53,1.26.8,2.24.8s1.72-.27,2.25-.8Z"/>
        <path class="cls-1" d="m809.73,166.35c-1.16-.71-2.05-1.95-2.68-3.71-.62-1.76-.93-4.18-.93-7.25s.31-5.49.93-7.25c.62-1.76,1.51-3,2.68-3.71,1.16-.71,2.62-1.07,4.39-1.07s3.22.36,4.39,1.08c1.16.72,2.05,1.96,2.68,3.71.62,1.75.93,4.16.93,7.23s-.31,5.48-.93,7.23c-.62,1.75-1.51,2.99-2.68,3.71-1.16.72-2.62,1.08-4.39,1.08s-3.22-.36-4.39-1.07Zm6.4-3.45c.46-.49.78-1.22.95-2.22.17-.99.25-2.36.25-4.1v-2.37c0-1.74-.08-3.1-.25-4.1-.17-.99-.49-1.73-.95-2.22-.46-.49-1.13-.73-2.02-.73s-1.55.24-2.01.73c-.46.49-.78,1.23-.95,2.22-.17.99-.25,2.36-.25,4.1v2.37c0,1.74.08,3.1.25,4.1.17.99.49,1.73.95,2.22.46.49,1.13.73,2.01.73s1.55-.24,2.02-.73Z"/>
        <path class="cls-1" d="m826.51,154.22c-.95-.91-1.42-2.49-1.42-4.72s.47-3.82,1.42-4.74c.95-.93,2.36-1.39,4.23-1.39s3.28.46,4.23,1.39c.95.93,1.42,2.51,1.42,4.74s-.47,3.81-1.42,4.72c-.95.91-2.36,1.37-4.23,1.37s-3.28-.46-4.23-1.37Zm18.93-10.45h3.52l-17.17,23.23h-3.45l17.1-23.23Zm-13.02,8.28c.3-.53.46-1.3.46-2.32v-.51c0-1.02-.15-1.79-.46-2.32-.3-.53-.86-.8-1.68-.8s-1.37.26-1.68.78c-.3.52-.46,1.3-.46,2.34v.51c0,1.04.15,1.82.46,2.34.3.52.86.78,1.68.78s1.37-.27,1.68-.8Zm9.8,13.99c-.95-.91-1.42-2.49-1.42-4.72s.47-3.82,1.42-4.74c.95-.93,2.36-1.39,4.23-1.39s3.28.46,4.23,1.39c.95.93,1.42,2.51,1.42,4.74s-.47,3.81-1.42,4.72c-.95.91-2.36,1.37-4.23,1.37s-3.28-.46-4.23-1.37Zm5.91-2.17c.3-.53.46-1.3.46-2.32v-.51c0-1.02-.15-1.79-.46-2.32-.3-.53-.86-.8-1.68-.8s-1.37.27-1.68.8c-.3.53-.46,1.3-.46,2.32v.51c0,1.02.15,1.79.46,2.32.3.53.86.8,1.68.8s1.37-.27,1.68-.8Z"/>
      </g>
      <polygon points="36.15 229.74 34.74 228.33 59.88 203.19 82.72 203.19 82.72 205.19 60.7 205.19 36.15 229.74"/>
      <polygon points="115.21 303.81 113.8 302.39 138.93 277.25 161.78 277.25 161.78 279.25 139.76 279.25 115.21 303.81"/>
      <polygon points="524.74 229.74 523.33 228.33 548.47 203.19 571.32 203.19 571.32 205.19 549.3 205.19 524.74 229.74"/>
      <polygon points="603.8 303.81 602.39 302.39 627.53 277.25 650.37 277.25 650.37 279.25 628.35 279.25 603.8 303.81"/>
    </g>
  </g>
  <g id="Layer_2-2" data-name="Layer 2">
    <g>
      <path d="m0,238.31h10.78v2.46H2.9v3.02h7v2.46H2.9v3.32h8v2.46H0v-13.72Z"/>
      <path d="m14.17,251.36c-.83-.61-1.25-1.42-1.25-2.43l.02-.24h2.66v.14c.01.47.22.8.63,1.01.41.21.9.31,1.49.31.55,0,1.01-.07,1.4-.22.39-.15.58-.39.58-.72,0-.37-.2-.65-.59-.84-.39-.19-1.01-.37-1.85-.56-.87-.2-1.57-.4-2.12-.61-.55-.21-1.02-.53-1.42-.97-.4-.44-.6-1.03-.6-1.76,0-1.03.43-1.82,1.29-2.37.86-.55,1.97-.83,3.33-.83,1.27,0,2.31.26,3.14.77.83.51,1.24,1.21,1.24,2.09l-.02.46h-2.66v-.12c0-.35-.16-.61-.49-.8-.33-.19-.76-.28-1.31-.28s-.98.07-1.3.22c-.32.15-.48.35-.48.62,0,.33.18.58.55.74.37.16.96.32,1.77.48.89.2,1.62.4,2.18.6.56.2,1.05.53,1.46.98.41.45.62,1.07.62,1.84,0,2.27-1.61,3.4-4.82,3.4-1.47,0-2.62-.3-3.45-.91Z"/>
      <path d="m24.8,243.75h-1.5v-2.24h1.5v-1.2c0-.83.22-1.52.66-2.07.44-.55,1.17-.83,2.18-.83.28,0,.59.03.92.1.33.07.61.14.84.22v1.92h-1c-.57,0-.86.29-.86.86v1h1.86v2.24h-1.86v8.28h-2.74v-8.28Z"/>
      <path d="m31.86,250.93c-.88-.89-1.32-2.28-1.32-4.16s.44-3.27,1.32-4.16c.88-.89,2.22-1.34,4.02-1.34s3.14.45,4.03,1.34,1.33,2.28,1.33,4.16-.44,3.27-1.33,4.16c-.89.89-2.23,1.34-4.03,1.34s-3.14-.45-4.02-1.34Zm5.96-1.67c.4-.51.6-1.29.6-2.33v-.32c0-1.04-.2-1.82-.6-2.33-.4-.51-1.05-.77-1.94-.77s-1.54.26-1.93.77c-.39.51-.59,1.29-.59,2.33v.32c0,1.04.2,1.82.59,2.33.39.51,1.04.77,1.93.77s1.54-.26,1.94-.77Z"/>
      <path d="m43.42,241.51h2.34l.22,1.7h.14c.23-.6.52-1.07.88-1.42.36-.35.83-.52,1.42-.52.39,0,.73.06,1.04.18v2.56h-.76c-.89,0-1.54.24-1.94.73-.4.49-.6,1.22-.6,2.21v5.08h-2.74v-10.52Z"/>
      <path d="m57.01,249.54c.34-.35.51-.84.51-1.47h2.64c0,1.29-.37,2.29-1.1,3-.73.71-1.73,1.1-3,1.18l-.06.46c.59.03,1.06.15,1.42.38.36.23.54.55.54.98,0,.6-.28,1.02-.83,1.26-.55.24-1.18.36-1.89.36-.75,0-1.44-.05-2.08-.16v-.98h1.76c.31,0,.53-.03.68-.1.15-.07.22-.19.22-.38,0-.16-.06-.28-.19-.36-.13-.08-.34-.12-.65-.12h-.82l.2-1.4c-1.28-.2-2.24-.74-2.87-1.63-.63-.89-.95-2.15-.95-3.79,0-1.87.42-3.25,1.25-4.15.83-.9,2.09-1.35,3.77-1.35,1.4,0,2.52.36,3.35,1.07.83.71,1.25,1.76,1.25,3.13h-2.76c0-.64-.17-1.13-.5-1.48-.33-.35-.8-.52-1.4-.52-.75,0-1.3.26-1.65.79-.35.53-.53,1.31-.53,2.35v.32c0,1.04.18,1.82.55,2.35.37.53.96.79,1.77.79.57,0,1.03-.18,1.37-.53Z"/>
      <path d="m62.98,250.93c-.88-.89-1.32-2.28-1.32-4.16s.44-3.27,1.32-4.16c.88-.89,2.22-1.34,4.02-1.34s3.14.45,4.03,1.34,1.33,2.28,1.33,4.16-.44,3.27-1.33,4.16c-.89.89-2.23,1.34-4.03,1.34s-3.14-.45-4.02-1.34Zm5.96-1.67c.4-.51.6-1.29.6-2.33v-.32c0-1.04-.2-1.82-.6-2.33-.4-.51-1.05-.77-1.94-.77s-1.54.26-1.93.77c-.39.51-.59,1.29-.59,2.33v.32c0,1.04.2,1.82.59,2.33.39.51,1.04.77,1.93.77s1.54-.26,1.94-.77Z"/>
    </g>
    <g>
      <path d="m69.46,315.83h7.28c1.53,0,2.69.38,3.46,1.13.77.75,1.16,1.81,1.16,3.17,0,1.92-.8,3.2-2.4,3.84l2.8,5.58h-3.14l-2.42-5.12h-3.84v5.12h-2.9v-13.72Zm7.02,6.18c.63,0,1.11-.17,1.44-.5s.5-.79.5-1.38-.17-1.04-.5-1.36c-.33-.32-.81-.48-1.44-.48h-4.12v3.72h4.12Z"/>
      <path d="m84.53,328.45c-.83-.89-1.25-2.28-1.25-4.16s.42-3.27,1.25-4.16c.83-.89,2.1-1.34,3.79-1.34,1.56,0,2.73.45,3.5,1.35.77.9,1.16,2.28,1.16,4.15v.64h-6.92c.03.93.21,1.62.56,2.07.35.45.93.67,1.74.67.57,0,1.04-.16,1.39-.48.35-.32.53-.77.53-1.36h2.7c0,1.32-.43,2.31-1.28,2.97-.85.66-1.98.99-3.38.99-1.69,0-2.96-.45-3.79-1.34Zm5.61-5.34c0-1.45-.61-2.18-1.82-2.18-.69,0-1.22.18-1.57.54s-.57.91-.65,1.64h4.04Z"/>
      <path d="m95.85,328.88c-.83-.61-1.25-1.42-1.25-2.43l.02-.24h2.66v.14c.01.47.22.8.63,1.01.41.21.9.31,1.49.31.55,0,1.01-.07,1.4-.22.39-.15.58-.39.58-.72,0-.37-.2-.65-.59-.84-.39-.19-1.01-.37-1.85-.56-.87-.2-1.57-.4-2.12-.61-.55-.21-1.02-.53-1.42-.97-.4-.44-.6-1.03-.6-1.76,0-1.03.43-1.82,1.29-2.37.86-.55,1.97-.83,3.33-.83,1.27,0,2.31.26,3.14.77.83.51,1.24,1.21,1.24,2.09l-.02.46h-2.66v-.12c0-.35-.16-.61-.49-.8-.33-.19-.76-.28-1.31-.28s-.98.07-1.3.22c-.32.15-.48.35-.48.62,0,.33.18.58.55.74s.96.32,1.77.48c.89.2,1.62.4,2.18.6.56.2,1.05.53,1.46.98.41.45.62,1.07.62,1.84,0,2.27-1.61,3.4-4.82,3.4-1.47,0-2.62-.3-3.45-.91Z"/>
      <path d="m107.09,328.91c-.62-.59-.93-1.53-.93-2.82v-7.06h2.74v6.48c0,.65.15,1.13.46,1.42.31.29.76.44,1.36.44s1.12-.22,1.53-.65c.41-.43.61-.97.61-1.61v-6.08h2.74v10.52h-2.34l-.2-1.38h-.14c-.85,1.08-1.95,1.62-3.28,1.62-1.08,0-1.93-.29-2.55-.88Z"/>
      <path d="m118.44,315.09h2.74v14.46h-2.74v-14.46Z"/>
      <path d="m124.7,328.99c-.43-.53-.64-1.21-.64-2.02v-5.7h-1.26v-2.24h1.32l.46-2.96h2.22v2.96h1.82v2.24h-1.82v5.42c0,.57.29.86.86.86h.96v1.92c-.23.08-.51.15-.85.22-.34.07-.66.1-.95.1-.99,0-1.69-.27-2.12-.8Z"/>
      <path d="m130.84,329.15c-.68-.43-1.02-1.2-1.02-2.32,0-1.35.55-2.3,1.66-2.87,1.11-.57,2.67-.85,4.7-.85v-.74c0-.47-.1-.83-.31-1.08-.21-.25-.6-.38-1.17-.38-.61,0-1.05.09-1.31.28-.26.19-.39.41-.39.66v.3h-2.64c-.01-.08-.02-.23-.02-.44,0-.88.39-1.59,1.17-2.12s1.82-.8,3.11-.8c1.44,0,2.52.29,3.23.88.71.59,1.07,1.43,1.07,2.54v4.64c0,.24.07.42.2.53s.3.17.5.17h.56v1.92c-.43.21-.95.32-1.58.32-.55,0-1-.12-1.37-.36-.37-.24-.62-.58-.75-1.02h-.12c-.39.45-.83.8-1.33,1.03-.5.23-1.15.35-1.95.35s-1.56-.21-2.24-.64Zm4.8-2.17c.36-.43.54-1.01.54-1.73v-.32c-2.39,0-3.58.53-3.58,1.6,0,.33.11.6.33.8.22.2.56.3,1.01.3.77,0,1.34-.22,1.7-.65Z"/>
      <path d="m142.2,328.42c-.73-.91-1.1-2.3-1.1-4.15s.37-3.18,1.11-4.1c.74-.92,1.72-1.38,2.95-1.38.71,0,1.33.13,1.87.38s.96.61,1.27,1.08h.12v-5.16h2.74v14.46h-2.34l-.18-1.38h-.14c-.33.53-.78.94-1.34,1.21-.56.27-1.18.41-1.86.41-1.33,0-2.37-.46-3.1-1.37Zm6.22-3.95v-.32c0-1.99-.75-2.98-2.24-2.98-.81,0-1.39.24-1.74.73-.35.49-.52,1.22-.52,2.21v.36c0,.99.17,1.72.52,2.21.35.49.93.73,1.74.73,1.49,0,2.24-.98,2.24-2.94Z"/>
      <path d="m154.66,328.45c-.88-.89-1.32-2.28-1.32-4.16s.44-3.27,1.32-4.16c.88-.89,2.22-1.34,4.02-1.34s3.14.45,4.03,1.34c.89.89,1.33,2.28,1.33,4.16s-.44,3.27-1.33,4.16c-.89.89-2.23,1.34-4.03,1.34s-3.14-.45-4.02-1.34Zm5.96-1.67c.4-.51.6-1.29.6-2.33v-.32c0-1.04-.2-1.82-.6-2.33-.4-.51-1.05-.77-1.94-.77s-1.54.26-1.93.77-.59,1.29-.59,2.33v.32c0,1.04.2,1.82.59,2.33s1.04.77,1.93.77,1.54-.26,1.94-.77Z"/>
    </g>
    <g>
      <path d="m491.37,238.31h10.78v2.46h-7.88v3.02h7v2.46h-7v3.32h8v2.46h-10.9v-13.72Z"/>
      <path d="m505.54,251.36c-.83-.61-1.25-1.42-1.25-2.43l.02-.24h2.66v.14c.01.47.22.8.63,1.01.41.21.9.31,1.49.31.55,0,1.01-.07,1.4-.22.39-.15.58-.39.58-.72,0-.37-.2-.65-.59-.84-.39-.19-1.01-.37-1.85-.56-.87-.2-1.57-.4-2.12-.61-.55-.21-1.02-.53-1.42-.97-.4-.44-.6-1.03-.6-1.76,0-1.03.43-1.82,1.29-2.37.86-.55,1.97-.83,3.33-.83,1.27,0,2.31.26,3.14.77.83.51,1.24,1.21,1.24,2.09l-.02.46h-2.66v-.12c0-.35-.16-.61-.49-.8-.33-.19-.76-.28-1.31-.28s-.98.07-1.3.22c-.32.15-.48.35-.48.62,0,.33.18.58.55.74.37.16.96.32,1.77.48.89.2,1.62.4,2.18.6.56.2,1.05.53,1.46.98.41.45.62,1.07.62,1.84,0,2.27-1.61,3.4-4.82,3.4-1.47,0-2.62-.3-3.45-.91Z"/>
      <path d="m516.17,243.75h-1.5v-2.24h1.5v-1.2c0-.83.22-1.52.66-2.07.44-.55,1.17-.83,2.18-.83.28,0,.59.03.92.1.33.07.61.14.84.22v1.92h-1c-.57,0-.86.29-.86.86v1h1.86v2.24h-1.86v8.28h-2.74v-8.28Z"/>
      <path d="m523.23,250.93c-.88-.89-1.32-2.28-1.32-4.16s.44-3.27,1.32-4.16c.88-.89,2.22-1.34,4.02-1.34s3.14.45,4.03,1.34,1.33,2.28,1.33,4.16-.44,3.27-1.33,4.16c-.89.89-2.23,1.34-4.03,1.34s-3.14-.45-4.02-1.34Zm5.96-1.67c.4-.51.6-1.29.6-2.33v-.32c0-1.04-.2-1.82-.6-2.33-.4-.51-1.05-.77-1.94-.77s-1.54.26-1.93.77c-.39.51-.59,1.29-.59,2.33v.32c0,1.04.2,1.82.59,2.33.39.51,1.04.77,1.93.77s1.54-.26,1.94-.77Z"/>
      <path d="m534.79,241.51h2.34l.22,1.7h.14c.23-.6.52-1.07.88-1.42.36-.35.83-.52,1.42-.52.39,0,.73.06,1.04.18v2.56h-.76c-.89,0-1.54.24-1.94.73-.4.49-.6,1.22-.6,2.21v5.08h-2.74v-10.52Z"/>
      <path d="m548.38,249.54c.34-.35.51-.84.51-1.47h2.64c0,1.29-.37,2.29-1.1,3-.73.71-1.73,1.1-3,1.18l-.06.46c.59.03,1.06.15,1.42.38.36.23.54.55.54.98,0,.6-.28,1.02-.83,1.26-.55.24-1.18.36-1.89.36-.75,0-1.44-.05-2.08-.16v-.98h1.76c.31,0,.53-.03.68-.1.15-.07.22-.19.22-.38,0-.16-.06-.28-.19-.36-.13-.08-.34-.12-.65-.12h-.82l.2-1.4c-1.28-.2-2.24-.74-2.87-1.63-.63-.89-.95-2.15-.95-3.79,0-1.87.42-3.25,1.25-4.15.83-.9,2.09-1.35,3.77-1.35,1.4,0,2.52.36,3.35,1.07.83.71,1.25,1.76,1.25,3.13h-2.76c0-.64-.17-1.13-.5-1.48-.33-.35-.8-.52-1.4-.52-.75,0-1.3.26-1.65.79-.35.53-.53,1.31-.53,2.35v.32c0,1.04.18,1.82.55,2.35.37.53.96.79,1.77.79.57,0,1.03-.18,1.37-.53Z"/>
      <path d="m554.35,250.93c-.88-.89-1.32-2.28-1.32-4.16s.44-3.27,1.32-4.16c.88-.89,2.22-1.34,4.02-1.34s3.14.45,4.03,1.34,1.33,2.28,1.33,4.16-.44,3.27-1.33,4.16c-.89.89-2.23,1.34-4.03,1.34s-3.14-.45-4.02-1.34Zm5.96-1.67c.4-.51.6-1.29.6-2.33v-.32c0-1.04-.2-1.82-.6-2.33-.4-.51-1.05-.77-1.94-.77s-1.54.26-1.93.77c-.39.51-.59,1.29-.59,2.33v.32c0,1.04.2,1.82.59,2.33.39.51,1.04.77,1.93.77s1.54-.26,1.94-.77Z"/>
    </g>
    <g>
      <path d="m560.83,315.83h7.28c1.53,0,2.69.38,3.46,1.13.77.75,1.16,1.81,1.16,3.17,0,1.92-.8,3.2-2.4,3.84l2.8,5.58h-3.14l-2.42-5.12h-3.84v5.12h-2.9v-13.72Zm7.02,6.18c.63,0,1.11-.17,1.44-.5s.5-.79.5-1.38-.17-1.04-.5-1.36c-.33-.32-.81-.48-1.44-.48h-4.12v3.72h4.12Z"/>
      <path d="m575.9,328.45c-.83-.89-1.25-2.28-1.25-4.16s.42-3.27,1.25-4.16c.83-.89,2.1-1.34,3.79-1.34,1.56,0,2.73.45,3.5,1.35.77.9,1.16,2.28,1.16,4.15v.64h-6.92c.03.93.21,1.62.56,2.07.35.45.93.67,1.74.67.57,0,1.04-.16,1.39-.48.35-.32.53-.77.53-1.36h2.7c0,1.32-.43,2.31-1.28,2.97-.85.66-1.98.99-3.38.99-1.69,0-2.96-.45-3.79-1.34Zm5.61-5.34c0-1.45-.61-2.18-1.82-2.18-.69,0-1.22.18-1.57.54s-.57.91-.65,1.64h4.04Z"/>
      <path d="m587.22,328.88c-.83-.61-1.25-1.42-1.25-2.43l.02-.24h2.66v.14c.01.47.22.8.63,1.01.41.21.9.31,1.49.31.55,0,1.01-.07,1.4-.22.39-.15.58-.39.58-.72,0-.37-.2-.65-.59-.84-.39-.19-1.01-.37-1.85-.56-.87-.2-1.57-.4-2.12-.61-.55-.21-1.02-.53-1.42-.97-.4-.44-.6-1.03-.6-1.76,0-1.03.43-1.82,1.29-2.37.86-.55,1.97-.83,3.33-.83,1.27,0,2.31.26,3.14.77.83.51,1.24,1.21,1.24,2.09l-.02.46h-2.66v-.12c0-.35-.16-.61-.49-.8-.33-.19-.76-.28-1.31-.28s-.98.07-1.3.22c-.32.15-.48.35-.48.62,0,.33.18.58.55.74s.96.32,1.77.48c.89.2,1.62.4,2.18.6.56.2,1.05.53,1.46.98.41.45.62,1.07.62,1.84,0,2.27-1.61,3.4-4.82,3.4-1.47,0-2.62-.3-3.45-.91Z"/>
      <path d="m598.46,328.91c-.62-.59-.93-1.53-.93-2.82v-7.06h2.74v6.48c0,.65.15,1.13.46,1.42.31.29.76.44,1.36.44s1.12-.22,1.53-.65c.41-.43.61-.97.61-1.61v-6.08h2.74v10.52h-2.34l-.2-1.38h-.14c-.85,1.08-1.95,1.62-3.28,1.62-1.08,0-1.93-.29-2.55-.88Z"/>
      <path d="m609.81,315.09h2.74v14.46h-2.74v-14.46Z"/>
      <path d="m616.07,328.99c-.43-.53-.64-1.21-.64-2.02v-5.7h-1.26v-2.24h1.32l.46-2.96h2.22v2.96h1.82v2.24h-1.82v5.42c0,.57.29.86.86.86h.96v1.92c-.23.08-.51.15-.85.22-.34.07-.66.1-.95.1-.99,0-1.69-.27-2.12-.8Z"/>
      <path d="m622.21,329.15c-.68-.43-1.02-1.2-1.02-2.32,0-1.35.55-2.3,1.66-2.87,1.11-.57,2.67-.85,4.7-.85v-.74c0-.47-.1-.83-.31-1.08-.21-.25-.6-.38-1.17-.38-.61,0-1.05.09-1.31.28-.26.19-.39.41-.39.66v.3h-2.64c-.01-.08-.02-.23-.02-.44,0-.88.39-1.59,1.17-2.12s1.82-.8,3.11-.8c1.44,0,2.52.29,3.23.88.71.59,1.07,1.43,1.07,2.54v4.64c0,.24.07.42.2.53s.3.17.5.17h.56v1.92c-.43.21-.95.32-1.58.32-.55,0-1-.12-1.37-.36-.37-.24-.62-.58-.75-1.02h-.12c-.39.45-.83.8-1.33,1.03-.5.23-1.15.35-1.95.35s-1.56-.21-2.24-.64Zm4.8-2.17c.36-.43.54-1.01.54-1.73v-.32c-2.39,0-3.58.53-3.58,1.6,0,.33.11.6.33.8.22.2.56.3,1.01.3.77,0,1.34-.22,1.7-.65Z"/>
      <path d="m633.57,328.42c-.73-.91-1.1-2.3-1.1-4.15s.37-3.18,1.11-4.1c.74-.92,1.72-1.38,2.95-1.38.71,0,1.33.13,1.87.38s.96.61,1.27,1.08h.12v-5.16h2.74v14.46h-2.34l-.18-1.38h-.14c-.33.53-.78.94-1.34,1.21-.56.27-1.18.41-1.86.41-1.33,0-2.37-.46-3.1-1.37Zm6.22-3.95v-.32c0-1.99-.75-2.98-2.24-2.98-.81,0-1.39.24-1.74.73-.35.49-.52,1.22-.52,2.21v.36c0,.99.17,1.72.52,2.21.35.49.93.73,1.74.73,1.49,0,2.24-.98,2.24-2.94Z"/>
      <path d="m646.03,328.45c-.88-.89-1.32-2.28-1.32-4.16s.44-3.27,1.32-4.16c.88-.89,2.22-1.34,4.02-1.34s3.14.45,4.03,1.34c.89.89,1.33,2.28,1.33,4.16s-.44,3.27-1.33,4.16c-.89.89-2.23,1.34-4.03,1.34s-3.14-.45-4.02-1.34Zm5.96-1.67c.4-.51.6-1.29.6-2.33v-.32c0-1.04-.2-1.82-.6-2.33-.4-.51-1.05-.77-1.94-.77s-1.54.26-1.93.77-.59,1.29-.59,2.33v.32c0,1.04.2,1.82.59,2.33s1.04.77,1.93.77,1.54-.26,1.94-.77Z"/>
    </g>
  </g>
</svg>