<?xml version="1.0" encoding="UTF-8"?>
<svg id="Layer_2" data-name="Layer 2" xmlns="http://www.w3.org/2000/svg" viewBox="0 0 561.93 288.31">
  <defs>
    <style>
      .cls-1 {
        fill: #f4d698;
      }

      .cls-2 {
        fill: #f7d7d1;
      }

      .cls-3 {
        fill: #f1c875;
      }

      .cls-4 {
        fill: #f5cbc4;
      }

      .cls-5 {
        fill: #eaa83c;
      }

      .cls-6 {
        fill: #eaa93e;
      }

      .cls-7 {
        fill: #f3c0b6;
      }

      .cls-8 {
        fill: #e56768;
      }

      .cls-9 {
        fill: #e3c3ad;
      }

      .cls-10 {
        fill: #e3e3e3;
      }

      .cls-11 {
        fill: #eed1be;
      }

      .cls-12 {
        fill: #f3d088;
      }

      .cls-13 {
        fill: #fff;
      }

      .cls-14 {
        fill: #e77d7f;
      }

      .cls-15 {
        fill: #9cb6c1;
      }

      .cls-16 {
        fill: #8facb9;
      }

      .cls-17 {
        fill: #c294a2;
      }

      .cls-18 {
        fill: #b9cbd3;
      }

      .cls-19 {
        fill: #afc3cd;
      }

      .cls-20 {
        fill: #b0c4ce;
      }

      .cls-21 {
        fill: #a4bbc7;
      }

      .cls-22 {
        fill: #b2c6cf;
      }

      .cls-23 {
        fill: #ac6d7f;
      }

      .cls-24 {
        fill: #becfd7;
      }

      .cls-25 {
        fill: #caa3af;
      }

      .cls-26 {
        fill: #d09782;
      }

      .cls-27 {
        fill: #d1ae96;
      }

      .cls-28 {
        fill: #e45f60;
      }

      .cls-29 {
        fill: #c8c3bf;
      }

      .cls-30 {
        fill: #96898a;
      }

      .cls-31 {
        fill: #99b3bf;
      }

      .cls-32 {
        fill: #292b3a;
      }

      .cls-33 {
        fill: #5a5e6e;
      }

      .cls-34 {
        fill: #2e3348;
      }

      .cls-35 {
        fill: #616576;
      }

      .cls-36 {
        fill: #606474;
      }

      .cls-37 {
        fill: #515568;
      }

      .cls-38 {
        isolation: isolate;
        opacity: .24;
      }
    </style>
  </defs>
  <g id="Layer_1-2" data-name="Layer 1">
    <g>
      <path class="cls-10" d="m426.96,58.53c-12.75,0-25.06,1.76-36.76,5.06C360.15,24.9,313.19,0,260.41,0,182.12,0,116.65,54.77,100.19,128.08c-2.15-.45-4.38-.69-6.68-.69-17.87,0-32.34,14.49-32.34,32.34,0,2.23.23,4.38.66,6.48C30.35,174.31,6.16,200.53,1.01,233.09c-.68,4.22-1.01,8.56-1.01,12.98,0,15.43,4.24,29.89,11.62,42.24h511.41c15.08-15.29,26.54-34.16,33-55.2,3.83-12.51,5.89-25.81,5.89-39.59,0-74.55-60.44-134.99-134.97-134.99Z"/>
      <g>
        <path class="cls-31" d="m215.73,18.5c9.58,0,17.64,6.21,20.15,14.72h-40.3c2.49-8.49,10.57-14.72,20.15-14.72Z"/>
        <path class="cls-31" d="m117.51,11.54c14.1,0,26.01,9.17,29.69,21.68h-59.38c3.68-12.51,15.58-21.68,29.69-21.68Z"/>
        <path class="cls-31" d="m209.63,33.22c-4.56-15.26-22.59-26.65-44.15-26.65s-39.61,11.39-44.15,26.65h88.29Z"/>
      </g>
      <g>
        <path class="cls-34" d="m183.82,30.21c4.36,0,8.03,2.92,9.17,6.91h-18.32c1.12-3.99,4.81-6.91,9.15-6.91Z"/>
        <path class="cls-34" d="m139.15,26.93c6.41,0,11.82,4.31,13.49,10.18h-26.99c1.69-5.87,7.08-10.18,13.49-10.18Z"/>
        <path class="cls-34" d="m181.04,37.12c-2.06-7.16-10.27-12.51-20.08-12.51s-18,5.34-20.08,12.51h40.16Z"/>
      </g>
      <path class="cls-37" d="m440.9,236.15c0,2.76-1.12,5.25-2.92,7.07-1.8,1.82-4.31,2.92-7.05,2.92H132.53c-.5,0-1-.04-1.48-.11-4.81-.71-8.51-4.86-8.51-9.88,0-2.76,1.12-5.25,2.92-7.07,1.82-1.8,4.31-2.92,7.07-2.92h298.38c5.52,0,9.99,4.49,9.99,9.99Z"/>
      <g>
        <path class="cls-23" d="m466.27,218.05c6.69,0,12.34,4.49,14.08,10.61h-28.16c1.74-6.12,7.39-10.61,14.08-10.61Z"/>
        <path class="cls-23" d="m397.63,213.03c9.86,0,18.16,6.6,20.74,15.63h-41.48c2.58-9.03,10.88-15.63,20.74-15.63Z"/>
        <path class="cls-23" d="m461.99,228.66c-3.19-11-15.79-19.23-30.85-19.23s-27.66,8.22-30.85,19.23h61.7Z"/>
      </g>
      <g>
        <path class="cls-34" d="m436.18,225.19c4.74,0,8.74,3.19,9.99,7.53h-19.96c1.23-4.34,5.22-7.53,9.97-7.53Z"/>
        <path class="cls-34" d="m447.86,227.52c3.28,0,6.03,2.19,6.89,5.2h-13.78c.85-2.99,3.61-5.2,6.89-5.2Z"/>
        <path class="cls-34" d="m433.01,232.72c-1.34-4.65-6.66-8.1-12.99-8.1s-11.66,3.47-12.99,8.1h25.99Z"/>
      </g>
      <g>
        <path class="cls-16" d="m490.83,122.22c3.86,0,7.12,2.58,8.14,6.12h-16.25c1-3.52,4.25-6.12,8.12-6.12Z"/>
        <path class="cls-16" d="m451.22,119.34c5.7,0,10.48,3.81,11.98,9.03h-23.94c1.48-5.22,6.27-9.03,11.96-9.03Z"/>
        <path class="cls-16" d="m488.38,128.36c-1.83-6.36-9.11-11.09-17.8-11.09s-15.97,4.75-17.8,11.09h35.6Z"/>
      </g>
      <g>
        <path class="cls-23" d="m425.52,163.9c2.03,4.17,6.69,6.09,6.69,6.09,0,0,1.37-4.84-.66-9.03-2.03-4.17-6.69-6.09-6.69-6.09,0,0-1.37,4.84.66,9.03Z"/>
        <path class="cls-23" d="m416.89,182.94c2.69,3.77,7.6,4.9,7.6,4.9,0,0,.55-5-2.15-8.79-2.71-3.79-7.6-4.9-7.6-4.9,0,0-.53,5.02,2.15,8.79Z"/>
        <path class="cls-23" d="m443.3,150.17c-3.03,3.51-2.96,8.54-2.96,8.54,0,0,5-.66,8.03-4.17,3.03-3.51,2.96-8.54,2.96-8.54,0,0-4.98.66-8.03,4.17Z"/>
        <path class="cls-23" d="m440.21,166.32c-4.63.28-8.17,3.88-8.17,3.88,0,0,3.97,3.12,8.6,2.81,4.63-.28,8.17-3.88,8.17-3.88,0,0-3.97-3.1-8.6-2.81Z"/>
        <path class="cls-23" d="m432.69,183.85c-4.63.28-8.17,3.88-8.17,3.88,0,0,3.97,3.12,8.6,2.81,4.63-.28,8.17-3.88,8.17-3.88,0,0-3.95-3.12-8.6-2.81Z"/>
        <path class="cls-23" d="m417.74,224.83l.94-.02c0-.11-.07-11.11,2.88-24.99,1.73-8.14,4.17-15.67,7.21-22.36,3.81-8.35,8.6-15.43,14.22-21.06l-.66-.68c-5.71,5.7-10.57,12.87-14.42,21.34-3.08,6.76-5.52,14.35-7.26,22.57-2.99,13.99-2.92,25.08-2.92,25.19Z"/>
      </g>
      <g>
        <path class="cls-23" d="m460.48,182.87c.48,3.17,3.15,5.38,3.15,5.38,0,0,1.9-2.92,1.42-6.07-.48-3.15-3.15-5.38-3.15-5.38,0,0-1.9,2.9-1.42,6.07Z"/>
        <path class="cls-23" d="m450.89,193.64c1,3.04,4.01,4.79,4.01,4.79,0,0,1.39-3.19.39-6.23s-4.01-4.79-4.01-4.79c0,0-1.39,3.19-.39,6.23Z"/>
        <path class="cls-23" d="m475.01,177.5c-2.72,1.69-3.7,5.02-3.7,5.02,0,0,3.42.59,6.14-1.09s3.7-5.02,3.7-5.02c0,0-3.42-.61-6.14,1.09Z"/>
        <path class="cls-23" d="m469.65,187.48c-3.12-.77-6.18.87-6.18.87,0,0,1.98,2.87,5.07,3.61s6.18-.87,6.18-.87c0,0-1.96-2.85-5.07-3.61Z"/>
        <path class="cls-23" d="m461.1,197.49c-3.12-.77-6.18.87-6.18.87,0,0,1.98,2.87,5.07,3.61,3.12.77,6.18-.87,6.18-.87,0,0-1.96-2.87-5.07-3.61Z"/>
        <path class="cls-23" d="m442.86,221.38l.62.2c.02-.07,2.23-7.33,7.03-15.86,2.81-5,5.96-9.45,9.33-13.24,4.22-4.72,8.83-8.4,13.69-10.93l-.3-.57c-4.93,2.58-9.61,6.3-13.88,11.09-3.42,3.83-6.59,8.31-9.42,13.37-4.82,8.56-7.05,15.88-7.07,15.95Z"/>
      </g>
      <g>
        <g>
          <rect class="cls-13" x="157.11" y="52.66" width="249.22" height="162.86"/>
          <g>
            <rect class="cls-17" x="169.72" y="68.86" width="28.32" height="4.97"/>
            <rect class="cls-12" x="202.33" y="68.86" width="28.32" height="4.97"/>
            <rect class="cls-12" x="234.94" y="68.86" width="28.32" height="4.97"/>
            <rect class="cls-12" x="267.55" y="68.86" width="28.32" height="4.97"/>
            <rect class="cls-12" x="300.16" y="68.86" width="28.32" height="4.97"/>
            <rect class="cls-12" x="332.79" y="68.86" width="28.32" height="4.97"/>
            <rect class="cls-17" x="365.41" y="68.86" width="28.32" height="4.97"/>
          </g>
          <g>
            <rect class="cls-30" x="200.01" y="68.53" width=".18" height="135.5"/>
            <rect class="cls-30" x="232.38" y="68.53" width=".18" height="135.5"/>
            <rect class="cls-30" x="265.4" y="68.53" width=".18" height="135.5"/>
            <rect class="cls-30" x="297.97" y="68.53" width=".18" height="135.5"/>
            <rect class="cls-30" x="330.62" y="68.53" width=".18" height="135.5"/>
            <rect class="cls-30" x="363.16" y="68.53" width=".18" height="135.5"/>
            <rect class="cls-30" x="169.15" y="75.57" width="224.58" height=".18"/>
            <rect class="cls-30" x="169.15" y="99.38" width="224.58" height=".18"/>
            <rect class="cls-30" x="169.15" y="125.53" width="224.58" height=".18"/>
            <rect class="cls-30" x="169.15" y="151.67" width="224.58" height=".18"/>
            <rect class="cls-30" x="169.15" y="177.82" width="224.58" height=".18"/>
          </g>
          <g>
            <circle class="cls-35" cx="170.68" cy="61.34" r="2.4"/>
            <circle class="cls-35" cx="177.53" cy="61.34" r="2.4"/>
            <circle class="cls-35" cx="184.37" cy="61.34" r="2.4"/>
            <circle class="cls-35" cx="191.22" cy="61.34" r="2.4"/>
            <circle class="cls-35" cx="198.04" cy="61.34" r="2.4"/>
            <circle class="cls-35" cx="204.91" cy="61.34" r="2.4"/>
          </g>
          <g>
            <circle class="cls-35" cx="264.54" cy="61.34" r="2.4"/>
            <circle class="cls-35" cx="271.38" cy="61.34" r="2.4"/>
            <circle class="cls-35" cx="278.23" cy="61.34" r="2.4"/>
            <circle class="cls-35" cx="285.07" cy="61.34" r="2.4"/>
            <circle class="cls-35" cx="291.9" cy="61.34" r="2.4"/>
            <circle class="cls-35" cx="298.78" cy="61.34" r="2.4"/>
          </g>
          <g>
            <circle class="cls-35" cx="357.48" cy="61.34" r="2.4"/>
            <circle class="cls-35" cx="364.34" cy="61.34" r="2.4"/>
            <circle class="cls-35" cx="371.17" cy="61.34" r="2.4"/>
            <circle class="cls-35" cx="378.03" cy="61.34" r="2.4"/>
            <circle class="cls-35" cx="384.84" cy="61.34" r="2.4"/>
            <circle class="cls-35" cx="391.72" cy="61.34" r="2.4"/>
          </g>
          <g>
            <path class="cls-20" d="m170.82,62.29h-.28c-.46,0-.84-.37-.84-.84v-14.37c0-.46.37-.84.84-.84h.28c.46,0,.84.37.84.84v14.37c0,.46-.37.84-.84.84Z"/>
            <path class="cls-20" d="m177.66,62.29h-.28c-.46,0-.84-.37-.84-.84v-14.37c0-.46.37-.84.84-.84h.28c.46,0,.84.37.84.84v14.37c0,.46-.37.84-.84.84Z"/>
            <path class="cls-20" d="m184.51,62.29h-.28c-.46,0-.84-.37-.84-.84v-14.37c0-.46.37-.84.84-.84h.28c.46,0,.84.37.84.84v14.37c0,.46-.37.84-.84.84Z"/>
            <path class="cls-20" d="m191.36,62.29h-.28c-.46,0-.84-.37-.84-.84v-14.37c0-.46.37-.84.84-.84h.28c.46,0,.84.37.84.84v14.37c-.02.46-.39.84-.84.84Z"/>
            <path class="cls-20" d="m198.2,62.29h-.28c-.46,0-.84-.37-.84-.84v-14.37c0-.46.37-.84.84-.84h.28c.46,0,.84.37.84.84v14.37c0,.46-.37.84-.84.84Z"/>
            <path class="cls-20" d="m205.05,62.29h-.28c-.46,0-.84-.37-.84-.84v-14.37c0-.46.37-.84.84-.84h.28c.46,0,.84.37.84.84v14.37c-.02.46-.37.84-.84.84Z"/>
          </g>
          <g>
            <path class="cls-20" d="m264.74,62.29h-.28c-.46,0-.84-.37-.84-.84v-14.37c0-.46.37-.84.84-.84h.28c.46,0,.84.37.84.84v14.37c0,.46-.37.84-.84.84Z"/>
            <path class="cls-20" d="m271.59,62.29h-.28c-.46,0-.84-.37-.84-.84v-14.37c0-.46.37-.84.84-.84h.28c.46,0,.84.37.84.84v14.37c-.02.46-.37.84-.84.84Z"/>
            <path class="cls-20" d="m278.43,62.29h-.28c-.46,0-.84-.37-.84-.84v-14.37c0-.46.37-.84.84-.84h.28c.46,0,.84.37.84.84v14.37c0,.46-.37.84-.84.84Z"/>
            <path class="cls-20" d="m285.28,62.29h-.28c-.46,0-.84-.37-.84-.84v-14.37c0-.46.37-.84.84-.84h.28c.46,0,.84.37.84.84v14.37c0,.46-.37.84-.84.84Z"/>
            <path class="cls-20" d="m292.14,62.29h-.28c-.46,0-.84-.37-.84-.84v-14.37c0-.46.37-.84.84-.84h.28c.46,0,.84.37.84.84v14.37c-.02.46-.39.84-.84.84Z"/>
            <path class="cls-20" d="m298.97,62.29h-.28c-.46,0-.84-.37-.84-.84v-14.37c0-.46.37-.84.84-.84h.28c.46,0,.84.37.84.84v14.37c0,.46-.37.84-.84.84Z"/>
          </g>
          <g>
            <path class="cls-20" d="m357.64,62.29h-.28c-.46,0-.84-.37-.84-.84v-14.37c0-.46.37-.84.84-.84h.28c.46,0,.84.37.84.84v14.37c0,.46-.37.84-.84.84Z"/>
            <path class="cls-20" d="m364.5,62.29h-.28c-.46,0-.84-.37-.84-.84v-14.37c0-.46.37-.84.84-.84h.28c.46,0,.84.37.84.84v14.37c-.02.46-.39.84-.84.84Z"/>
            <path class="cls-20" d="m371.33,62.29h-.28c-.46,0-.84-.37-.84-.84v-14.37c0-.46.37-.84.84-.84h.28c.46,0,.84.37.84.84v14.37c0,.46-.37.84-.84.84Z"/>
            <path class="cls-20" d="m378.19,62.29h-.28c-.46,0-.84-.37-.84-.84v-14.37c0-.46.37-.84.84-.84h.28c.46,0,.84.37.84.84v14.37c-.02.46-.39.84-.84.84Z"/>
            <path class="cls-20" d="m385.02,62.29h-.28c-.46,0-.84-.37-.84-.84v-14.37c0-.46.37-.84.84-.84h.28c.46,0,.84.37.84.84v14.37c0,.46-.37.84-.84.84Z"/>
            <path class="cls-20" d="m391.88,62.29h-.28c-.46,0-.84-.37-.84-.84v-14.37c0-.46.37-.84.84-.84h.28c.46,0,.84.37.84.84v14.37c0,.46-.37.84-.84.84Z"/>
          </g>
        </g>
        <g>
          <rect class="cls-29" x="332.79" y="79.04" width="28.32" height="1.19"/>
          <rect class="cls-29" x="332.79" y="82.19" width="28.32" height="1.19"/>
          <rect class="cls-29" x="332.79" y="85.36" width="21.02" height="1.19"/>
        </g>
        <g>
          <rect class="cls-29" x="202.03" y="102.62" width="28.32" height="1.19"/>
          <rect class="cls-29" x="202.03" y="105.77" width="28.32" height="1.19"/>
          <rect class="cls-29" x="202.03" y="108.94" width="21.02" height="1.19"/>
        </g>
        <g>
          <rect class="cls-29" x="267.45" y="155.12" width="28.32" height="1.19"/>
          <rect class="cls-29" x="267.45" y="158.29" width="28.32" height="1.19"/>
          <rect class="cls-29" x="267.45" y="161.44" width="21.02" height="1.19"/>
        </g>
        <g>
          <rect class="cls-29" x="202.2" y="155.12" width="28.32" height="1.19"/>
          <rect class="cls-29" x="202.2" y="158.29" width="28.32" height="1.19"/>
          <rect class="cls-29" x="202.2" y="161.44" width="21.02" height="1.19"/>
        </g>
        <g>
          <path class="cls-16" d="m212.07,134.19v9.97h-2.26v-8.12h-1.96v-1.85h4.22Z"/>
          <path class="cls-16" d="m222.73,142.05h-1.58v2.1h-2.21v-2.1h-5.27v-1.55l4.61-6.32h2.37l-4.27,6h2.62v-1.87h2.14v1.87h1.58v1.87h.02Z"/>
        </g>
        <g>
          <path class="cls-16" d="m311.75,107.15v9.97h-2.26v-8.12h-1.96v-1.85h4.22Z"/>
          <path class="cls-16" d="m313.46,112.13c0-3.29,1.78-5.16,4.18-5.16s4.18,1.87,4.18,5.16-1.78,5.16-4.18,5.16-4.18-1.87-4.18-5.16Zm6.11,0c0-2.26-.78-3.2-1.9-3.2s-1.9.94-1.9,3.2.78,3.2,1.9,3.2,1.9-.93,1.9-3.2Z"/>
        </g>
        <g>
          <path class="cls-16" d="m347.19,168.22v1.89h-7.39v-1.5l3.77-3.63c.87-.84,1.01-1.35,1.01-1.83,0-.78-.53-1.25-1.57-1.25-.84,0-1.55.32-2.03,1l-1.66-1.09c.75-1.12,2.12-1.85,3.88-1.85,2.17,0,3.63,1.14,3.63,2.95,0,.96-.27,1.85-1.64,3.15l-2.24,2.17h4.22v-.02Z"/>
          <path class="cls-16" d="m355.53,166.98c0,1.76-1.26,3.31-4.06,3.31-1.35,0-2.78-.39-3.72-1.07l.89-1.76c.75.57,1.76.89,2.78.89,1.14,0,1.83-.48,1.83-1.3s-.5-1.3-2.28-1.3h-2.49l.5-5.61h5.96v1.85h-4.08l-.16,1.89h.8c2.87,0,4.02,1.32,4.02,3.1Z"/>
        </g>
        <g>
          <polygon class="cls-3" points="288.24 103.39 270.92 103.39 270.92 120.89 292.53 120.89 292.53 107.68 288.24 103.39"/>
          <polygon class="cls-5" points="288.24 107.68 292.53 107.68 288.24 103.39 288.24 107.68"/>
        </g>
        <g>
          <polygon class="cls-2" points="255.63 79.04 238.3 79.04 238.3 96.54 259.92 96.54 259.92 83.33 255.63 79.04"/>
          <polygon class="cls-7" points="255.63 83.33 259.92 83.33 255.63 79.04 255.63 83.33"/>
        </g>
        <g>
          <polygon class="cls-18" points="386.73 130.41 369.41 130.41 369.41 147.91 391.02 147.91 391.02 134.7 386.73 130.41"/>
          <polygon class="cls-16" points="386.73 134.7 391.02 134.7 386.73 130.41 386.73 134.7"/>
        </g>
        <g>
          <polygon class="cls-25" points="191.86 155.49 174.54 155.49 174.54 172.99 196.15 172.99 196.15 159.78 191.86 155.49"/>
          <polygon class="cls-23" points="191.86 159.78 196.15 159.78 191.86 155.49 191.86 159.78"/>
        </g>
        <g>
          <polygon class="cls-2" points="353.48 103.39 336.14 103.39 336.14 120.89 357.75 120.89 357.75 107.68 353.48 103.39"/>
          <polygon class="cls-7" points="353.48 107.68 357.75 107.68 353.48 103.39 353.48 107.68"/>
        </g>
      </g>
      <g>
        <path class="cls-31" d="m218.69,85.52c2.9,0,5.36,1.96,6.12,4.61h-12.25c.77-2.67,3.22-4.61,6.12-4.61Z"/>
        <path class="cls-31" d="m188.85,83.33c4.29,0,7.9,2.87,9.01,6.8h-18.03c1.14-3.92,4.75-6.8,9.03-6.8Z"/>
        <path class="cls-31" d="m216.84,90.13c-1.39-4.79-6.85-8.35-13.4-8.35s-12.03,3.58-13.4,8.35h26.81Z"/>
      </g>
      <g>
        <path class="cls-8" d="m160.01,84.38c2.03,0,3.76,1.37,4.29,3.22h-8.56c.52-1.87,2.24-3.22,4.27-3.22Z"/>
        <path class="cls-8" d="m139.13,82.85c2.99,0,5.52,2.01,6.3,4.75h-12.62c.8-2.74,3.33-4.75,6.32-4.75Z"/>
        <path class="cls-8" d="m158.72,87.6c-.96-3.35-4.81-5.84-9.38-5.84s-8.42,2.49-9.38,5.84h18.76Z"/>
      </g>
      <g>
        <path class="cls-34" d="m268.8,13.44c1.53,0,2.83,1.03,3.24,2.44h-6.46c.39-1.41,1.67-2.44,3.22-2.44Z"/>
        <path class="cls-34" d="m253.03,12.3c2.26,0,4.17,1.51,4.77,3.6h-9.52c.59-2.08,2.49-3.6,4.75-3.6Z"/>
        <path class="cls-34" d="m267.82,15.88c-.73-2.53-3.63-4.41-7.08-4.41s-6.36,1.89-7.08,4.41h14.17Z"/>
      </g>
      <path class="cls-34" d="m159.53,180.82c-4.88,1.41-8.7,3.86-10.43,5.11-.04-.14-.07-.28-.11-.43-.87-3.72-1.96-7.9-3.31-12.39,1.96-.36,6.59-1.42,11.14-4.11,6-3.54,9.59-8.54,9.59-8.54,0,0-6.12.73-12.12,4.25-4.41,2.6-7.53,6-8.87,7.6-1.12-3.72-2.44-7.64-3.93-11.66,1.83-.87,5.98-3.08,9.65-6.78,4.9-4.95,7.1-10.7,7.1-10.7,0,0-5.73,2.26-10.63,7.23-3.42,3.45-5.52,7.32-6.48,9.31-1.51-4.02-3.24-8.14-5.16-12.3,1.69-1.14,5.45-3.95,8.51-8.19,4.08-5.64,5.38-11.66,5.38-11.66,0,0-5.32,3.12-9.4,8.76-2.81,3.88-4.31,7.96-4.97,10.11-1.32-2.79-2.74-5.59-4.27-8.38,1.14-1.71,3.54-5.71,4.77-10.77,1.66-6.76.57-12.83.57-12.83,0,0-3.74,4.9-5.39,11.66-1,4.11-1,7.96-.84,10.34-1.09-1.94-2.24-3.86-3.44-5.79-.57-2.33-1.74-6-3.95-9.63-3.61-5.95-8.67-9.47-8.67-9.47,0,0,.82,6.11,4.43,12.05,2.19,3.58,4.88,6.28,6.69,7.87,1.25,1.98,2.42,3.97,3.54,5.98-2.08-.89-6.14-2.33-10.89-2.67-6.94-.5-12.75,1.58-12.75,1.58,0,0,5.45,2.87,12.39,3.36,5.27.37,9.88-.73,11.8-1.28,1.55,2.79,2.97,5.61,4.31,8.4-2.08-.25-6.68-.61-11.68.53-6.78,1.53-11.75,5.2-11.75,5.2,0,0,6.05,1.17,12.83-.36,5.16-1.17,9.26-3.56,10.93-4.65,1.99,4.25,3.77,8.49,5.32,12.6-2.06-.45-6.59-1.16-11.62-.48-6.91.93-12.16,4.15-12.16,4.15,0,0,5.93,1.71,12.82.77,5.2-.69,9.45-2.69,11.25-3.63,1.51,4.08,2.83,8.03,3.97,11.77-2.08-.52-6.53-1.39-11.54-.89-6.92.68-12.3,3.7-12.3,3.7,0,0,5.86,1.92,12.78,1.23,5.14-.5,9.43-2.31,11.3-3.2,1.32,4.43,2.4,8.54,3.26,12.23.04.18.09.37.12.55-1.37-.21-6.66-.89-12.5.43-6.78,1.53-11.75,5.2-11.75,5.2,0,0,6.05,1.17,12.83-.36,5.84-1.32,10.31-4.2,11.45-5,3.49,15.1,4.24,25.85,4.25,25.95l1.71-.11c0-.11-.75-10.73-4.17-25.7,2.1.14,6.69.21,11.61-1.21,6.69-1.92,11.43-5.86,11.43-5.86,0,0-6-.82-12.69,1.1Z"/>
      <path class="cls-34" d="m115.46,189.83c-2.83,2.12-4.7,4.68-5.52,5.91-.05-.09-.11-.18-.18-.25-1.5-2.21-3.24-4.66-5.22-7.25,1.19-.71,3.93-2.56,6.23-5.43,3.03-3.79,4.13-7.94,4.13-7.94,0,0-3.81,1.99-6.84,5.77-2.23,2.78-3.42,5.77-3.88,7.14-1.66-2.14-3.47-4.36-5.45-6.6.98-1.01,3.13-3.49,4.59-6.8,1.96-4.43,1.96-8.72,1.96-8.72,0,0-3.17,2.9-5.13,7.33-1.37,3.1-1.78,6.12-1.9,7.67-1.98-2.24-4.13-4.5-6.41-6.71.82-1.16,2.56-3.92,3.51-7.44,1.26-4.68.61-8.92.61-8.92,0,0-2.69,3.35-3.95,8.03-.87,3.22-.84,6.25-.73,7.8-1.55-1.5-3.17-2.95-4.84-4.4.32-1.39.89-4.59.43-8.19-.61-4.81-2.81-8.49-2.81-8.49,0,0-1.23,4.11-.62,8.92.37,2.92,1.32,5.43,2.01,6.94-1.19-1-2.42-1.96-3.67-2.9-.94-1.37-2.62-3.47-4.95-5.29-3.83-2.97-7.99-4.01-7.99-4.01,0,0,2.05,3.77,5.87,6.75,2.31,1.8,4.74,2.88,6.3,3.47,1.3.98,2.56,1.98,3.79,3.01-1.57-.05-4.57,0-7.76.96-4.65,1.41-7.9,4.18-7.9,4.18,0,0,4.25.52,8.9-.89,3.52-1.07,6.25-2.94,7.35-3.76,1.69,1.44,3.33,2.9,4.88,4.4-1.41.34-4.49,1.26-7.46,3.24-4.04,2.69-6.36,6.3-6.36,6.3,0,0,4.24-.73,8.26-3.42,3.06-2.03,5.14-4.61,5.96-5.73,2.35,2.28,4.56,4.59,6.59,6.89-1.46.23-4.57.87-7.67,2.56-4.25,2.31-6.89,5.71-6.89,5.71,0,0,4.27-.36,8.53-2.67,3.2-1.74,5.48-4.09,6.43-5.16,1.99,2.28,3.83,4.52,5.5,6.68-1.48.18-4.59.71-7.73,2.28-4.34,2.15-7.08,5.46-7.08,5.46,0,0,4.29-.2,8.63-2.37,3.22-1.6,5.57-3.85,6.57-4.88,1.96,2.55,3.68,4.97,5.16,7.16.07.11.14.21.21.32-.94.2-4.56,1.07-8.03,3.36-4.04,2.69-6.36,6.3-6.36,6.3,0,0,4.24-.73,8.26-3.42,3.47-2.3,5.66-5.29,6.21-6.09,6,8.95,9.17,15.77,9.2,15.84l1.09-.5c-.04-.07-3.15-6.8-9.08-15.7,1.41-.43,4.41-1.53,7.25-3.67,3.88-2.9,5.98-6.64,5.98-6.64,0,0-4.11.91-7.99,3.83Z"/>
      <g>
        <path class="cls-34" d="m97.25,214.13c-8.53,0-15.72,5.71-17.94,13.53h35.91c-2.24-7.81-9.43-13.53-17.96-13.53Z"/>
        <path class="cls-34" d="m184.74,207.72c-12.57,0-23.16,8.42-26.45,19.94h52.89c-3.28-11.52-13.87-19.94-26.43-19.94Z"/>
        <path class="cls-34" d="m102.68,227.66c4.06-14.03,20.13-24.51,39.34-24.51s35.28,10.48,39.34,24.51h-78.68Z"/>
      </g>
      <g>
        <path class="cls-23" d="m117.9,227.2c-4.29,0-7.9,2.87-9.03,6.8h18.03c-1.12-3.92-4.72-6.8-9.01-6.8Z"/>
        <path class="cls-23" d="m161.85,223.99c-6.32,0-11.64,4.24-13.28,10.02h26.56c-1.64-5.8-6.96-10.02-13.28-10.02Z"/>
        <path class="cls-23" d="m120.62,234c2.03-7.05,10.11-12.32,19.76-12.32s17.71,5.27,19.76,12.32h-39.52Z"/>
      </g>
      <g>
        <path class="cls-8" d="m330.57,33c-.8-1.48.53-1.99.57-2.03.36-.36,1.32-.12,1.71.34l8.24,10.98c.14.16-.12.41-.27.57-.05.05-.12.09-.18.11-.46.23-1.14.09-1.57-.23-2.24-1.66-7.48-7.81-8.51-9.74Z"/>
        <path class="cls-26" d="m327.49,53.21c2.49-.98,2.71-2.44,2.51-3.38v-.2c-.07-.8-.8-1.37-1.6-1.28l-22.22,2.88c-.36.05-.61.36-.57.71.02.12.05.23.12.32.34.75,1.09,1.26,1.92,1.32,4.41.28,16.59.89,19.83-.37Z"/>
        <path class="cls-26" d="m307.53,51.75c-.75-.46-1.34-.57-1.96-.18-.68.43-.87,1.34-.43,1.99l12.19,18.74c.2.3.8.27,1.1.09s.39-.57.23-.89l-.48-.84c-7-13.67-8.17-17.12-10.66-18.92Z"/>
        <path class="cls-26" d="m315.35,62.89c.07-.87-.09-1.44-.71-1.82-.68-.43-1.58-.2-1.98.5l-11.3,19.31c-.18.3.11.84.41,1.03.3.18.69.11.89-.2l.53-.8c9.11-12.39,11.66-14.99,12.16-18.03Z"/>
        <path class="cls-26" d="m333.02,53.65c1.82-1.98,1.37-3.38.77-4.15-.02-.05-.05-.12-.09-.18-.43-.68-1.32-.89-1.99-.45l-18.69,12.35c-.3.2-.37.59-.2.89.05.11.14.18.25.23.64.53,1.53.68,2.31.34,4.08-1.67,15.29-6.46,17.64-9.04Z"/>
        <path class="cls-36" d="m301.05,80.82c.23.18.71.32,1.28.37.32.02.61.02.85-.02.18-.02.34.11.36.28.05.61.09,1.53-.23,1.55-.48.02-7.46-.37-7.48-.69-.04-.87,3.4-1.39,5.22-1.5Z"/>
        <path class="cls-36" d="m316.91,71.99c.23-.16.52-.59.73-1.12.12-.28.2-.57.23-.82.04-.18.2-.3.37-.27.61.12,1.5.36,1.41.68-.12.46-2.53,7.03-2.85,6.96-.82-.21-.3-3.65.11-5.43Z"/>
        <path class="cls-23" d="m324.44,48.7s-17.36,1.32-18.9,2.35c-1.55,1.03-.69,2.65.02,3.77.71,1.12,9.81,14.95,9.81,14.95l2.1-1.21s-5.25-12.39-7.46-14.51c0,0,16.29,1.32,18.23,0,1.94-1.32,1.28-4.65,1.28-4.65l-5.07-.71Z"/>
        <path class="cls-23" d="m334.54,48.86s1.28,3.51-1.82,6.14-16.61,7.83-16.61,7.83c0,0-.09,2.71-11.2,16.47l-2.39-1.46s7.96-15.45,10.06-16.8c2.1-1.35,15.91-11.27,15.91-11.27l6.03-.91Z"/>
        <path class="cls-8" d="m326.72,39.43c-.09-.75-1.16-5.55-.3-7.07.73-1.32,1.82-2.99,3.92-2.67,2.65.41,3.45,3.22,3.81,5.54.82,5.29.69,11.37.93,16.75-1.12.07-1.89.71-3.1.27-2.55-.96-5.54-.41-7.19-3.9-.02.02,2.15-6.96,1.94-8.92Z"/>
        <path class="cls-26" d="m306.79,34.27c-.48.04-.94-.14-1.28-.52-.82-.93-2.33-2.71-2.23-3.47.14-1.03,3.2,1.5,3.77,3.95l-.27.04Z"/>
        <path class="cls-8" d="m328.86,33.79c1.37-.98.39-2.03.37-2.08-.18-.48-1.12-.69-1.69-.45l-12.19,6.28c-.21.09-.07.43,0,.64.02.07.07.12.12.18.32.41,1,.57,1.51.48,2.71-.52,10.09-3.77,11.87-5.06Z"/>
        <path class="cls-8" d="m306.23,34.23c2.39,1.57,8.1,4.2,9.88,4.57,1.48.3,1.64-.61,1.66-.62.21-.41-.11-1.21-.61-1.44l-10.36-3.76-.57,1.25Z"/>
        <g>
          <path class="cls-34" d="m324.09,28.3s.02-1.09.8-1.76.68.41.68.41l-1.48,1.35Z"/>
          <path class="cls-34" d="m330.98,28.41c-.09.07-1.42,1.55-1.73,1.46-.41-.12.23-1.41.23-1.41l1.5-.05Z"/>
          <path class="cls-34" d="m326.4,24.23s-.05-1.03.52-1.51c.55-.46,1.37-.84,3.44.52.3.2.41.57.27.89l-.39.93-3.83-.82Z"/>
          <path class="cls-26" d="m329.96,27.66c-.75,1.25-1.48,2.24-2.55,2.46-.37.07-.82.09-1.28-.04-.28-.07-.59-.2-.89-.41-.77-.52-1-1.14-.91-1.85.11-.8.64-1.74,1.26-2.79,1.17-1.98,2.76-2.39,3.97-1.66s1.58,2.31.39,4.29Z"/>
          <path class="cls-26" d="m330.39,26.77l-2.4-.09c-.02.34-.09,3.47.11,4.65.11.36.71.5,1.35.3.57-.18.98-.55.98-.89h0c-.11-.73-.07-2.83-.04-3.97Z"/>
          <path class="cls-34" d="m330.69,28.71s-.62-.07-.89-.75c-.34-.89-.3-2.53-.18-3.22.21-1.23.66-1.39.66-1.39,0,0,2.06,1.07,2.21,1.98.25,1.35-1.8,3.38-1.8,3.38Z"/>
          <path class="cls-34" d="m329.84,26.27l-1.73,2.88c-.18.3-.53.46-.87.43l-.41-.05c-.25-.04-.41-.28-.32-.52l.23-.64c.05-.14,0-.3-.12-.39l-1.25-.87c-.12-.09-.32-.09-.43.04l-.5.46c-.48.45-.46,1.23.05,1.66l.71.59c.16.12.34.21.53.25h.05l.3.04h0l1.01.14c.62.09,1.23-.21,1.55-.75l1.73-2.87-.55-.39Z"/>
          <path class="cls-26" d="m330.82,28.23c-.25.43-1,.73-1.32.53-.3-.18-.18-.57.07-1s.75-.68,1.05-.5c.32.2.45.53.2.96Z"/>
          <path class="cls-34" d="m330.02,24.37l-1.28-.75c-.43-.25-.93-.34-1.42-.25l-.66.12,1.3-.84,1.25.21,1.25.87-.43.62Z"/>
        </g>
        <path class="cls-26" d="m337.17,53.92c-.36.32-.53.8-.5,1.28.11,1.23.39,3.54,1,3.99.85.61,1.1-3.36-.3-5.46l-.2.2Z"/>
        <path class="cls-8" d="m336.55,54.06c.12-3.01,1.35-9.49,2.14-11.23.64-1.44,1.51-1,1.57-1,.48.07.98.85.85,1.42l-3.13,11.13-1.42-.32Z"/>
      </g>
      <path class="cls-6" d="m261.62,115.08l-1.03,6.28h-13.12l1.03-6.28h-1.25l-19.01,115.83h1.25l1.16-7.01h13.12l-1.16,7.01h1.25l19.01-115.83h-1.25Zm-17.68,107.63h-13.12l1-6.07h13.12l-1,6.07Zm1.19-7.25h-13.12l1-6.07h13.12l-1,6.07Zm1.17-7.25h-13.12l1-6.07h13.12l-1,6.07Zm1.19-7.23h-13.12l1-6.07h13.12l-1,6.07Zm1.19-7.25h-13.12l1-6.07h13.12l-1,6.07Zm1.19-7.23h-13.12l1-6.07h13.12l-1,6.07Zm1.17-7.25h-13.12l1-6.07h13.12l-1,6.07Zm1.19-7.25h-13.12l1-6.07h13.12l-1,6.07Zm1.19-7.23h-13.12l1-6.07h13.12l-1,6.07Zm1.19-7.25h-13.12l1-6.07h13.12l-1,6.07Zm1.17-7.23h-13.12l1-6.07h13.12l-1,6.07Zm1.19-7.25h-13.12l1-6.07h13.12l-1,6.07Zm1.19-7.25h-13.12l1-6.07h13.12l-1,6.07Zm1.19-7.23h-13.12l1-6.07h13.12l-1,6.07Z"/>
      <g>
        <path class="cls-34" d="m243.89,137.39s-1.46-2.03.36-3.42c1.8-1.39,3.81-.05,3.92,1.48.11,1.69-.94,2.4-1.71,2.65s-1.92-.04-2.56-.71Z"/>
        <path class="cls-11" d="m239.12,197.56s1.07-.55,1.1-.46c0,0,.96,1.17.77,1.35-.11.09-1.51.78-2.97,1.44h-2.28c.71-.53,2.3-1.73,3.38-2.33Z"/>
        <path class="cls-11" d="m241.05,177.91c-.34-.68-.73-1.03-1.37-1.03-.69,0-1.26.59-1.25,1.28l.68,19.56c.02.3.27.55.57.55s.57-.25.57-.55l.04-.85c1.09-13.37,1.78-16.48.77-18.96Z"/>
        <path class="cls-11" d="m243.06,160.58c-.48-2.3-1.71-2.69-2.56-2.65-.05-.02-.11-.02-.18-.02-.69-.05-1.3.5-1.32,1.19l-.68,19.56c-.02.3.23.57.53.59.11,0,.2-.02.28-.05.69-.2,1.25-.75,1.42-1.48.85-3.74,3.13-14.15,2.49-17.14Z"/>
        <path class="cls-11" d="m249.91,176.36c-.73-.25-1.25-.23-1.69.21-.5.48-.52,1.3,0,1.78l14.03,13.65c.21.21.57.21.8,0s.23-.57.04-.8l-.57-.62c-8.51-10.41-10.15-13.14-12.6-14.22Z"/>
        <path class="cls-11" d="m262.8,191.1s1.51.12,1.5.41c-.02.27-1.96,5.95-2.35,6.25s-.32-1.05-.32-1.05c0,0,.3-2.92.75-4.49,0,0,.36-1.16.43-1.12Z"/>
        <path class="cls-33" d="m261.77,194.51c.48-.48,1.01-1.37,1.44-2.46.14-.36.25-.69.34-1.01.52.12,1.1.32,1.05.57-.12.45-2.3,6.59-2.6,6.52-.59-.16-.48-1.99-.23-3.61Z"/>
        <path class="cls-11" d="m246.12,159.21c-1.26-1.98-2.55-1.9-3.33-1.58-.05,0-.11.02-.18.04-.68.2-1.05.93-.82,1.58l6.19,18.57c.09.28.41.46.71.37.11-.04.18-.09.25-.16.59-.43.91-1.14.82-1.87-.5-3.83-2.01-14.37-3.65-16.95Z"/>
        <path class="cls-34" d="m243.93,159.57s-.87,12.59-2.76,17.64c0,0,2.15,3.74-.43,17.73h-2.31s-.55-17.62-.53-19.51c.02-1.89.37-15.36,1.1-16.32l4.93.46Z"/>
        <path class="cls-34" d="m247.15,159.5s2.4,10.43,3.06,16.56c0,0,4.2,2.1,11.23,12.5l-1.5,1.82s-12.1-11.39-12.43-12.3-6.53-19.21-6.53-19.21c0,0,2.06-1.05,6.16.64Z"/>
        <path class="cls-16" d="m240.53,137.12s-.94,1.44-1.58,4.93c-.64,3.49-.11,10.72-1.05,13.14,0,0,1.26.78,2.63,1.03l1.12-11.89-1.12-7.21Z"/>
        <path class="cls-11" d="m223.16,137.6c-.41.21-.89.21-1.32.02-1.07-.52-3.06-1.55-3.24-2.26-.27-.98,3.4.16,4.79,2.12l-.23.12Z"/>
        <path class="cls-16" d="m222.76,136.45c2.74.05,8.69,1.07,10.29,1.74,1.34.55.98,1.35.96,1.41-.05.45-.75.91-1.26.8l-10.22-2.65.23-1.3Z"/>
        <path class="cls-16" d="m242.99,136.64c1.34.11,1.23,1.44,1.25,1.48.12.46-.36,1.12-.84,1.21l-10.65,1.09c-.16.04-.25-.3-.3-.52-.02-.07-.02-.14-.02-.2,0-.48.34-.96.71-1.14,1.92-.96,8.12-2.06,9.84-1.92Z"/>
        <path class="cls-28" d="m247.72,160.71c.25.07.12-4.91-.45-8.47.12-3.1-.69-10.48-1.41-12.71-.89-2.81-2.3-4.34-4.63-3.22-.73.36-1.44,2.42-1.74,4.63-.3,2.21-.75,1.76.46,4.98.43,1.14-.66,8.92-1.19,10.97-.16.59-.37,2.6-.68,3.22.43.3.84.53,1.3.69,3.22,1.16,5.09-1.14,8.33-.09Z"/>
        <path class="cls-34" d="m241.78,134.47c.12.5.62.82,1.12.73.82-.14,2.6-.87,3.28-2.12,1.5-2.78-.85-5.32-3.4-4.91-1.82.3-2.14,1.58-2.1,1.96.04.27.75,2.97,1.1,4.34Z"/>
        <path class="cls-11" d="m243.95,132.49l-2.37-.34c-.05.32-.45,3.42-.37,4.59.07.36.66.55,1.3.43.59-.11,1.01-.45,1.05-.78h0c-.04-.69.23-2.76.39-3.9Z"/>
        <path class="cls-11" d="m243.34,133.19c-1.12,1.55-3.12,2.03-4.08,1.35-.94-.69-.5-2.28.62-3.83s2.47-1.8,3.42-1.1c.96.68,1.16,2.01.04,3.58Z"/>
        <path class="cls-34" d="m242.13,128.83s-.62,2.49,1.14,4.25c.91.91,2.06-.66,2.06-.66l-.32-2.14s-.55-1.1-1.26-1.34c-.07-.04-1.62-.12-1.62-.12Z"/>
        <path class="cls-34" d="m240.74,129.79s2.23.2,2.81-.34-.43-.91-.43-.91c0,0-1.48-.12-2.39,1.25Z"/>
        <path class="cls-11" d="m244.02,134.1c-.32.34-1.09.46-1.34.23s-.05-.57.28-.93c.32-.34.84-.48,1.09-.25s.28.59-.04.94Z"/>
        <path class="cls-16" d="m243.61,135.91s.55.85-.32,1.94-1.34,1.35-1.34,1.35c0,0,1.42,4.88.91,7.21-.52,2.33-1.19,8.79-.91,11.48,0,0,5.91,1.62,6.28,1.23,0,0-1.19-13.1-1.12-14.15s-1.09-7.71-3.51-9.06Z"/>
        <g>
          <path class="cls-33" d="m237.06,198.75c.68,0,1.69-.23,2.78-.68.34-.14.66-.3.96-.46.28.46.55,1.01.32,1.14-.2.11-1.8.85-3.36,1.53h-2.55c.48-.5,1.16-1.05,1.85-1.53Z"/>
          <path class="cls-33" d="m237.59,200.26c-1.67.11-3.29.16-3.31.02-.05-.28.53-.78,1.94-.93l1.37.91Z"/>
        </g>
        <path class="cls-16" d="m243.79,139.37c1.41-.46,1.74.85,1.76.89.28.39,0,1.23-.46,1.5l-10.63,5.57c-.16.11-.36-.18-.48-.36-.04-.05-.07-.12-.07-.18-.16-.46.04-1.07.36-1.39,1.69-1.74,7.71-5.43,9.52-6.03Z"/>
        <path class="cls-11" d="m223.99,145.38c-.02-.46-.25-.89-.64-1.16-.98-.68-2.87-1.89-3.58-1.69-.98.25,1.82,2.87,4.22,3.12v-.27Z"/>
        <path class="cls-16" d="m223.73,144.47c2.74-.25,8.76.11,10.41.61,1.39.41,1.12,1.25,1.12,1.28,0,.45-.64.98-1.16.94l-10.45-1.51.07-1.32Z"/>
      </g>
      <g>
        <path class="cls-9" d="m305.56,209.63c-.23-.84-.59-1.32-1.3-1.46-.78-.16-1.55.36-1.67,1.16l-3.7,22.07c-.05.36.18.68.52.75.34.07.68-.14.77-.5l.23-.94c4.25-14.76,5.75-18.07,5.16-21.08Z"/>
        <path class="cls-27" d="m309.44,189.64c-.36-2.65-1.71-3.2-2.67-3.26-.07-.02-.12-.04-.2-.05-.8-.12-1.53.45-1.62,1.25l-2.55,22.23c-.04.36.21.68.55.73.12.02.23,0,.34-.04.82-.16,1.5-.75,1.74-1.55,1.32-4.22,4.84-15.86,4.4-19.31Z"/>
        <path class="cls-9" d="m314.51,209.32c-.61-.62-1.16-.87-1.85-.64-.77.25-1.17,1.07-.91,1.83l7.55,21.06c.12.34.48.52.82.41s.53-.46.43-.8l-.27-.93c-3.47-14.97-3.79-18.6-5.77-20.93Z"/>
        <path class="cls-27" d="m313.03,189c-1.05-2.46-2.51-2.62-3.45-2.4-.07,0-.12,0-.2.02-.8.11-1.35.84-1.23,1.64l3.6,22.09c.05.36.37.59.73.55.12-.02.23-.05.3-.12.75-.37,1.23-1.12,1.26-1.96.12-4.43.36-16.63-1.01-19.81Z"/>
        <path class="cls-34" d="m319.94,231.49c-.48,0-.91-.07-1.16-.18-1.67.23-5.09,1.01-4.98,1.87.04.3,6.71.11,7.17.05.32-.04.2-1,.09-1.57-.04-.16-.18-.27-.34-.23-.23.02-.5.05-.78.05Z"/>
        <path class="cls-34" d="m299.45,231.49c-.48,0-.91-.07-1.16-.18-1.67.23-5.09,1.01-4.98,1.87.04.3,6.71.11,7.17.05.32-.04.2-1,.09-1.57-.04-.16-.18-.27-.34-.23-.25.02-.5.05-.78.05Z"/>
        <path class="cls-34" d="m311.08,185.52s-1.46,11-5.43,23.05c0,0,1.99,4.63-4.38,19.74h-2.39s3.31-19.21,3.44-20.79c.12-1.58,2.24-21.72,2.65-22.79l6.11.78Z"/>
        <path class="cls-34" d="m313.34,185.26s1.46,7.28,1.19,23.3c0,0,3.58,3.85,5.7,19.6l-2.51.12s-6.5-17.75-6.62-18.55-4.38-25.03-4.38-25.03l6.62.55Z"/>
        <path class="cls-9" d="m300.47,163.13c-.2-.5-.14-1.07.12-1.51.71-1.17,2.12-3.35,2.95-3.49,1.16-.2-.55,3.9-2.97,5.3l-.11-.3Z"/>
        <path class="cls-23" d="m310.54,166.39c1.21-1.42-.12-2.3-.16-2.33-.3-.46-1.41-.45-1.94-.04l-11.5,10.02c-.2.14-.2,1.14-.05,1.35.05.07.11.12.18.16.46.36,1.48-.25,1.99-.55,2.49-1.46,9.9-6.76,11.48-8.62Z"/>
        <path class="cls-23" d="m300.18,162.56c-1.46,2.83-3.68,9.45-3.88,11.46-.16,1.67.85,1.74.89,1.76.48.2,1.34-.27,1.51-.84l2.9-11.89-1.42-.5Z"/>
        <path class="cls-23" d="m314.1,182.94c.04-.55.07-1.14.11-1.69.02-.37.04-.75.05-1.12.04-.82.09-1.66.12-2.47.02-.39.04-.78.05-1.14.04-.89.05-1.85.07-2.69,0-.36.04-.75.02-1-.04-1.6,0-3.17-.12-4.68-.07-.89.02-1.28-.28-2.19-.89-2.67-3.13-3.65-5.63-2.05-.14.09-.36.25-.45.36-.96,1.09-1.73,1.71-1.6,3.4.14,1.87-.32,4.47-.62,6.52-.02.12-.07.61-.11.87-.05.39-.11.87-.16,1.34-.07.66-.16,1.39-.25,2.08-.05.43-.09.89-.14,1.34-.09.78-.18,1.6-.28,2.4-.02.21-.05.45-.09.68-.02.18-.05.34-.07.52-.05.41-.11.82-.18,1.23-.05.34-.12.66-.18,1-.09.45-.18.89-.28,1.35,1,.2,1.99.2,2.99.02,1.67-.3,3.26-.8,4.97-.71.57.02,1.09.2,1.64.3.12-.85.23-1.71.32-2.58.05-.39.09-.73.11-1.07Z"/>
        <g>
          <path class="cls-34" d="m312.7,161.37c-.07.07-1.26,1.58-1.57,1.51-.41-.09.12-1.37.12-1.37l1.44-.14Z"/>
          <path class="cls-34" d="m308.09,157.51s-.14-1,.39-1.5c.5-.48,1.25-.93,3.36.21.3.16.45.52.34.85l-.3.93-3.79-.5Z"/>
          <path class="cls-9" d="m311.81,160.53c-.62,1.28-1.25,2.28-2.26,2.58-.36.11-.78.16-1.25.07-.28-.05-.59-.14-.89-.32-.78-.45-1.07-1.01-1.03-1.71.04-.78.48-1.73,1-2.79.98-1.99,2.47-2.53,3.7-1.92,1.21.59,1.71,2.1.73,4.09Z"/>
          <path class="cls-9" d="m312.14,160.19l-2.31-.36c-.05.32-.46,3.33-.43,4.49.07.36.64.55,1.28.45.57-.11,1-.43,1.03-.75h0c-.02-.69.27-2.71.43-3.83Z"/>
          <path class="cls-34" d="m312.59,161.49s-.61-.02-.91-.66c-.39-.84-.5-2.42-.45-3.1.11-1.19.53-1.39.53-1.39,0,0,2.08.87,2.3,1.73.34,1.3-1.48,3.42-1.48,3.42Z"/>
          <path class="cls-9" d="m312.66,161.03c-.21.43-.91.78-1.23.62s-.21-.53-.02-.98c.21-.43.66-.71.98-.57.34.16.48.48.27.93Z"/>
          <path class="cls-34" d="m311.57,157.34l-1.3-.62c-.43-.21-.93-.25-1.39-.12l-.62.18,1.19-.93,1.23.11,1.28.73-.39.66Z"/>
          <path class="cls-34" d="m308.26,161.49s-.07-.98-.45-1.01c-.37-.02-.45-.59-.73-.43s-.66.77-.48.69.55-.37.8.11c.25.52.93,1.07.85.64Z"/>
        </g>
        <path class="cls-23" d="m311.84,167.42c-1.05-1.55.37-2.28.41-2.31.36-.43,1.44-.3,1.94.18l10.32,11.23c.18.16-.09.48-.25.66-.05.07-.12.11-.2.14-.5.3-1.26.21-1.76-.09-2.63-1.57-9.1-7.8-10.47-9.81Z"/>
        <path class="cls-9" d="m316.9,187.16c-.45-.3-1-.37-1.51-.21-1.3.43-3.74,1.34-4.06,2.12-.45,1.09,3.93.32,5.82-1.73l-.25-.18Z"/>
        <path class="cls-23" d="m315.85,186.81c1.17-2.95,4.72-8.99,6.11-10.45,1.16-1.21,1.87-.5,1.9-.48.46.23.68,1.17.36,1.69l-7.05,10-1.32-.77Z"/>
      </g>
      <g>
        <rect class="cls-4" x="172.8" y="131.36" width="4.41" height="1.3"/>
        <rect class="cls-4" x="177.91" y="131.36" width="1.99" height="1.3"/>
        <rect class="cls-4" x="172.8" y="134.04" width="10.13" height="1.3"/>
        <rect class="cls-4" x="183.6" y="134.04" width="4.22" height="1.3"/>
      </g>
      <g>
        <rect class="cls-21" x="270.79" y="81.33" width="4.41" height="1.3"/>
        <rect class="cls-21" x="275.9" y="81.33" width="1.99" height="1.3"/>
        <rect class="cls-21" x="270.79" y="84.02" width="10.13" height="1.3"/>
        <rect class="cls-21" x="281.6" y="84.02" width="4.22" height="1.3"/>
      </g>
      <g>
        <rect class="cls-4" x="269.81" y="182.73" width="4.41" height="1.3"/>
        <rect class="cls-4" x="274.94" y="182.73" width="1.99" height="1.3"/>
        <rect class="cls-4" x="269.81" y="185.42" width="10.13" height="1.3"/>
        <rect class="cls-4" x="280.62" y="185.42" width="4.22" height="1.3"/>
      </g>
      <g>
        <rect class="cls-1" x="203.68" y="117.33" width="4.41" height="1.3"/>
        <rect class="cls-1" x="208.79" y="117.33" width="1.99" height="1.3"/>
        <rect class="cls-1" x="203.68" y="120.02" width="10.13" height="1.3"/>
        <rect class="cls-1" x="214.49" y="120.02" width="4.22" height="1.3"/>
      </g>
      <g class="cls-38">
        <path class="cls-5" d="m367.19,199.23c1.09-8.03-12.92-25.7-2.58-37.74,8.24-9.59,42.95-21.7,22.57-46.05-14.1-16.84-19.83-20.38-13.58-38.08,1.12,8.42-.07,10.34,10.06,16.31,11.78,6.92,43.97,17.05,36.39,40.39-7.58,23.34-35.48,24.37-49.27,32.33-11.82,6.84,1.01,24.69-3.58,32.84Z"/>
      </g>
      <g class="cls-38">
        <path class="cls-5" d="m367.51,198.57c2.47-3.52-4.43-26.9,4.4-36.78,4.49-5.02,19.46-14.47,8.62-27.43-7.49-8.95-10.54-10.84-7.23-20.24.59,4.47-.04,5.5,5.36,8.67,6.27,3.68,23.39,9.08,19.35,21.49s-15.17,13.33-21.56,18.89c-10.31,8.97-4.86,29.6-8.94,35.41Z"/>
      </g>
      <g>
        <polygon class="cls-32" points="382.07 232.88 352.75 232.88 343.72 195.99 391.07 195.99 382.07 232.88"/>
        <path class="cls-32" d="m390.01,219.83c-.8,0-1.55-.18-2.24-.55-3.29-1.82-3.61-7.37-.69-12.67,1.34-2.42,3.03-4.18,4.88-5.07,1.87-.89,3.83-.87,5.52.05,1.69.93,2.76,2.56,3.01,4.63.25,2.05-.32,4.41-1.66,6.84-2.28,4.2-5.8,6.78-8.81,6.78Zm4.72-16.68c-.59,0-1.19.14-1.8.45-1.44.68-2.78,2.1-3.86,4.11-1.14,2.08-1.74,4.27-1.71,6.18.05,2.26.96,3.1,1.51,3.4.53.3,1.74.62,3.67-.55,1.64-.98,3.15-2.67,4.29-4.75,1.1-2.01,1.58-3.9,1.39-5.46-.16-1.34-.8-2.33-1.85-2.92-.5-.3-1.05-.45-1.64-.45Z"/>
        <rect class="cls-5" x="359.53" y="195.94" width=".91" height="16.47"/>
        <polygon class="cls-15" points="363.06 210.14 356.93 210.14 354.6 212.56 354.6 222.43 365.07 222.43 365.07 212.56 363.06 210.14"/>
      </g>
      <g>
        <path class="cls-14" d="m188,240.33v7.32c0,.73.48,1.32,1.05,1.32h3.81v-9.93h-3.81c-.57-.02-1.05.57-1.05,1.3Z"/>
        <g>
          <g>
            <g>
              <polygon class="cls-13" points="266.07 238.38 264.81 239.27 268.14 241.63 264.81 244 268.14 246.37 264.81 248.74 266.04 249.61 275.85 245.75 275.85 242.22 266.07 238.38"/>
              <path class="cls-15" d="m275.85,242.22v3.54l4.22-1.66c.09-.04.09-.2,0-.23l-4.22-1.66Z"/>
            </g>
            <g>
              <polygon class="cls-19" points="198 246.4 268.07 246.4 268.14 246.37 264.81 244 268.14 241.63 268.09 241.6 198 241.6 198 246.4"/>
              <polygon class="cls-16" points="198 249.61 266.02 249.61 266.04 249.61 264.81 248.74 268.07 246.4 198 246.4 198 249.61"/>
              <polygon class="cls-16" points="198 241.6 268.09 241.6 264.81 239.27 266.07 238.38 266.02 238.36 198 238.36 198 241.6"/>
            </g>
          </g>
          <rect class="cls-5" x="192.86" y="238.36" width="5.13" height="11.25"/>
        </g>
      </g>
      <g>
        <g>
          <path class="cls-5" d="m336.37,244.41c3.47,0,6.41,2.33,7.32,5.52h-14.63c.91-3.19,3.83-5.52,7.32-5.52Z"/>
          <path class="cls-5" d="m344.93,246.12c2.4,0,4.43,1.6,5.06,3.81h-10.11c.62-2.19,2.65-3.81,5.06-3.81Z"/>
          <path class="cls-5" d="m334.04,249.93c-.98-3.4-4.88-5.95-9.54-5.95s-8.56,2.55-9.54,5.95h19.08Z"/>
        </g>
        <g>
          <path class="cls-5" d="m342.96,232.73c-.5-.16-1.03.11-1.19.61-.07.23-.05.45.04.66-.8.78-1.53,1.62-2.19,2.46.12-.89.27-2.21.12-3.51.23-.11.43-.3.52-.57.16-.5-.11-1.03-.61-1.19-.5-.16-1.03.11-1.19.61s.11,1.03.61,1.19c.05.02.11.04.18.04.2,1.96-.23,4.01-.3,4.33-1.42,1.92-2.53,3.86-3.31,5.41-1.41,2.76-2.1,4.88-2.12,4.91l.48.16s.69-2.1,2.08-4.84c.41-.82.93-1.76,1.53-2.74.36-.09,1.71-.37,3.52-.16.02.39.27.73.66.85.5.16,1.03-.11,1.19-.61s-.11-1.03-.61-1.19c-.45-.14-.91.05-1.12.45-1.44-.18-2.6-.05-3.26.05,1.1-1.74,2.49-3.6,4.15-5.23.07.05.16.11.27.14.5.16,1.03-.11,1.19-.61.12-.53-.14-1.05-.64-1.21Z"/>
          <path class="cls-5" d="m331.64,239.73c.3-.21,1.46-.96,3.24-1.39.16.36.52.59.91.57.52-.02.93-.46.89-1-.02-.52-.46-.93-1-.89-.46.02-.82.37-.89.8-1.41.34-2.46.85-3.04,1.21.43-2.03,1.07-4.24,2.03-6.36.09.02.2.04.3.04.52-.02.93-.46.89-1-.02-.52-.46-.93-1-.89s-.93.46-.89,1c.02.23.11.45.25.61-.46,1.01-.85,2.05-1.19,3.08-.2-.87-.53-2.15-1.12-3.33.18-.18.28-.45.28-.71-.02-.52-.46-.93-1-.89-.52.02-.93.46-.89,1,.02.52.46.93,1,.89.05,0,.12-.02.18-.02.87,1.76,1.19,3.83,1.25,4.15-.66,2.3-1,4.5-1.19,6.23-.34,3.08-.25,5.32-.25,5.34l.52-.02s-.09-2.21.25-5.25c.11-.96.25-2.03.48-3.17Z"/>
        </g>
      </g>
      <g>
        <circle class="cls-32" cx="328.51" cy="133.52" r="17.41"/>
        <g>
          <circle class="cls-8" cx="331.76" cy="133.56" r=".82"/>
          <circle class="cls-8" cx="327.81" cy="133.56" r=".82"/>
          <circle class="cls-8" cx="323.86" cy="133.56" r=".82"/>
        </g>
        <path class="cls-32" d="m327.27,144.71s1.32,7.8-8.79,12.44c0,0,6.92-5,5.22-12.07l3.58-.37Z"/>
      </g>
      <g>
        <path class="cls-34" d="m461.8,83.83c5.11,0,9.43,3.44,10.77,8.12h-21.52c1.32-4.68,5.63-8.12,10.75-8.12Z"/>
        <path class="cls-34" d="m409.32,80c7.53,0,13.88,5.06,15.86,11.94h-31.7c1.96-6.89,8.31-11.94,15.84-11.94Z"/>
        <path class="cls-34" d="m458.54,91.94c-2.44-8.42-12.07-14.7-23.59-14.7s-21.15,6.3-23.59,14.7h47.17Z"/>
      </g>
      <g>
        <path class="cls-24" d="m446.28,91.05c2.26,0,4.17,1.51,4.75,3.58h-9.51c.59-2.05,2.49-3.58,4.75-3.58Z"/>
        <path class="cls-24" d="m423.08,89.36c3.33,0,6.14,2.23,7.01,5.29h-14.01c.87-3.04,3.67-5.29,7-5.29Z"/>
        <path class="cls-24" d="m444.83,94.65c-1.07-3.72-5.34-6.5-10.41-6.5s-9.35,2.78-10.41,6.5h20.83Z"/>
      </g>
      <path class="cls-13" d="m278.77,32.65c1.64,0,2.95-1.32,2.95-2.95,0,1.64,1.32,2.95,2.95,2.95-1.64,0-2.95,1.32-2.95,2.95,0-1.64-1.32-2.95-2.95-2.95Z"/>
      <path class="cls-13" d="m372.67,206.51c1.64,0,2.96-1.32,2.96-2.95,0,1.64,1.32,2.95,2.96,2.95-1.64,0-2.96,1.32-2.96,2.95,0-1.62-1.32-2.95-2.96-2.95Z"/>
      <path class="cls-22" d="m285.16,171.64c1.64,0,2.95-1.32,2.95-2.95,0,1.64,1.32,2.95,2.95,2.95-1.64,0-2.95,1.32-2.95,2.95,0-1.62-1.32-2.95-2.95-2.95Z"/>
      <path class="cls-22" d="m174.26,105.61c1.64,0,2.95-1.32,2.95-2.95,0,1.64,1.32,2.95,2.95,2.95-1.64,0-2.95,1.32-2.95,2.95,0-1.64-1.32-2.95-2.95-2.95Z"/>
      <path class="cls-13" d="m301.21,19.01c2.94,0,5.32-2.39,5.32-5.32,0,2.94,2.39,5.32,5.32,5.32-2.94,0-5.32,2.39-5.32,5.32,0-2.94-2.39-5.32-5.32-5.32Z"/>
      <path class="cls-22" d="m272.57,195.99c2.94,0,5.32-2.39,5.32-5.32,0,2.94,2.39,5.32,5.32,5.32-2.94,0-5.32,2.39-5.32,5.32.02-2.94-2.37-5.32-5.32-5.32Z"/>
      <path class="cls-22" d="m183.49,115.08c2.94,0,5.32-2.39,5.32-5.32,0,2.94,2.39,5.32,5.32,5.32-2.94,0-5.32,2.39-5.32,5.32,0-2.94-2.39-5.32-5.32-5.32Z"/>
    </g>
  </g>
</svg>