<?xml version="1.0" encoding="UTF-8"?>
<svg xmlns="http://www.w3.org/2000/svg" viewBox="0 0 615.54 376.64">
  <defs>
    <style>
      .cls-1, .cls-2 {
        fill: #f8dca1;
      }

      .cls-3 {
        fill: #efbc7b;
      }

      .cls-4 {
        fill: #ecb3b2;
      }

      .cls-5 {
        fill: #e9e7e7;
      }

      .cls-6 {
        fill: #e3ecef;
      }

      .cls-7 {
        fill: #fff;
      }

      .cls-8 {
        fill: #f09f7a;
      }

      .cls-9 {
        fill: #fcf3e7;
      }

      .cls-10 {
        fill: #80624f;
      }

      .cls-11 {
        fill: #adc8d3;
      }

      .cls-12 {
        fill: #de9f9e;
      }

      .cls-13 {
        fill: #c56d5b;
      }

      .cls-14 {
        fill: #dc7965;
      }

      .cls-15 {
        fill: #dee9e9;
      }

      .cls-16 {
        fill: #121d20;
      }

      .cls-17 {
        fill: #41646f;
      }

      .cls-18, .cls-19 {
        fill: #99bbc6;
      }

      .cls-20 {
        fill: #2e474f;
      }

      .cls-21 {
        fill: #5c8d9d;
      }

      .cls-22 {
        fill: #7ba4b0;
      }

      .cls-19 {
        opacity: .61;
      }

      .cls-19, .cls-2 {
        mix-blend-mode: multiply;
      }

      .cls-2 {
        opacity: .74;
      }

      .cls-23 {
        isolation: isolate;
      }
    </style>
  </defs>
  <g class="cls-23">
    <g id="Layer_2" data-name="Layer 2">
      <g id="Layer_1-2" data-name="Layer 1">
        <g>
          <g>
            <path class="cls-11" d="m45.39,172.81c-3.04,10.64,1.66,19.71,10.52,20.25,8.85.54,18.49-7.65,21.54-18.29,3.04-10.65-1.66-19.71-10.52-20.26-8.85-.54-18.5,7.65-21.54,18.29Z"/>
            <path class="cls-11" d="m568.44,367.82H49.51c-31.27,0-52.01-45.84-37.91-84.67,5.71-15.72,15.47-30.77,31.59-42.24,43.99-31.29,58.54-85.34,68.51-108.01,15.63-35.52,102.8-89.11,148.44-16.58,45.64,72.53,102.75,35.53,134.31,14.29,31.56-21.24,95.13-33.24,108.99,41.46,11.47,61.79,59.27,78.03,86.64,107.53,26.69,28.76,12.11,88.22-21.65,88.22Z"/>
            <path class="cls-11" d="m599.62,209.82c4.1,14.02-2.62,25.88-15.01,26.51-12.39.62-25.75-10.24-29.84-24.25-4.09-14.02,2.63-25.88,15.01-26.5,12.39-.62,25.75,10.24,29.84,24.25Z"/>
          </g>
          <g>
            <path class="cls-6" d="m312.01,270.2c-3.09-2.46-9.01-.12-13.22,5.21-3.94,4.99-3.59,14.67-3.52,15.88l-4.44,5.52-4.07-7.72-.16.09s4.07-9.12,2.05-16.49c-2.03-7.39-6.56-13.15-10.12-12.89-3.56.27-4.8,6.47-2.77,13.86,2.03,7.37,10.82,15.5,10.84,15.52l-.16.09,7.56,14.35c-4.63-3.28-10.18-7.28-16.02-11.62-.79-2.34-1.88-4.7-3.37-6.69-4.89-6.51-11.17-10.43-14.02-8.74-.45.27-.78.67-1.01,1.17-1.59-1.29-3.15-2.58-4.67-3.86-.43-.87-2.51-5.13-4.63-10.35l1.57-2.77-.33-.19-1.43,2.52c-2.36-5.85-4.7-12.78-4.82-17.44.08.09.13.15.13.15,0,0,5.03-8.54,3.7-15.94-1.33-7.4-5.35-13.46-8.98-13.52-3.64-.06-5.5,5.89-4.17,13.3,1.13,6.28,7.14,13.53,8.95,15.59-.05,8.29,7.33,24.02,9.3,28.05-7-5.93-13.09-11.64-16.96-16.36,0,0,0,0,0,0,0,0-.17-10.6-4.86-17.23-4.69-6.63-10.87-10.72-13.8-9.14,0,0,0,0-.02,0l.26.37c-.22.06-.42.13-.62.24-2.93,1.58-1.5,8.23,3.19,14.86,4.69,6.63,15.47,11.51,15.47,11.51,0,0,0-.18-.02-.49,2.6,3.19,6.2,6.82,10.42,10.66l-7.98-.31-.02.38,8.43.33c2.17,1.97,4.49,3.99,6.92,6.03.02.03.04.08.05.09l.04-.02c1.54,1.29,3.12,2.6,4.72,3.9-.38,1.15-.27,2.75.25,4.6-5.22-1.09-11.68-2.18-16.07-2.07.03-.04.04-.06.04-.06,0,0-10.93-4.34-18.01-2.72-7.07,1.63-11.61,5.75-10.13,9.2.3.71.85,1.33,1.56,1.86,2.64,2.28,8.4,3.07,14.26,1.72,6.51-1.5,11.76-8.53,12.55-9.64,3.67-.06,8.72.7,13.27,1.58l-2.43,5.56c-.01-.15-.02-.24-.02-.24,0,0-10.49,2.92-14.32,8.53-3.83,5.62-4.34,12.04-1.14,14.35,3.2,2.3,8.91-.38,12.73-6,3.13-4.58,2.97-12.92,2.8-15.84l2.76-6.3c.77.15,1.53.31,2.26.46.78,2.5,2.31,5.41,4.48,8.3,4.49,5.97,14,10.3,15.55,10.97l7.19,6.64c-5.72-.74-11.43-1.03-14.84.01,0-.13,0-.21,0-.21,0,0-10.83.78-15.63,5.61-4.79,4.83-6.33,10.92-3.44,13.6,2.89,2.68,9.12.94,13.91-3.89,4.11-4.14,4.96-12.44,5.12-14.73,8.41-2.71,31.57,3.15,31.8,3.21l1.27-.11c-.56-.14-9.01-2.27-17.6-3.43l.02-.02-7.6-7.02-.02.02c-.09-1.23-.49-5.22-1.83-9.46,14.83,11.03,27.61,19.65,27.86,19.82l.58-.06c-.15-.1-4.94-3.33-12-8.33h.02s-3.62-6.89-3.62-6.89l4.69-5.83c2.02-.4,10.59-2.35,14.29-7.03,4.21-5.33,5.11-11.65,2.01-14.1Zm-75.19-13.66l.1.14-.09.07c0-.07,0-.14-.01-.22Z"/>
            <path class="cls-6" d="m239.27,267.56s-9.54-7.29-17.23-8.07c-7.69-.79-13.68,1.43-13.37,4.95.31,3.52,6.8,7.01,14.49,7.79,7.69.79,16.11-4.67,16.11-4.67Z"/>
            <path class="cls-6" d="m252.88,260.68c2.92.12,11.16.14,15.79-3.02,5.69-3.88,8.28-9.47,5.78-12.49,0,0,0-.01-.01-.02l-.16.11c-.13-.23-.28-.45-.45-.65-2.55-2.97-9.14-2.11-14.71,1.92-5.56,4.03-7.44,14.11-7.44,14.11,0,0,.45.03,1.2.04Z"/>
          </g>
          <g>
            <path class="cls-6" d="m603.06,284.17c-6.99-1.28-16.9,2.15-19.76,3.23-8.62-3.29-27.92-1.76-32.9-1.29,8.93-4.98,17.26-9.1,23.7-11.28,0,0,0,0,0,0,0,0,11.12,3.97,19.87,1.67,8.75-2.3,15.43-7.14,14.93-10.81,0,0,0-.01,0-.02l-.49.13c.03-.25.03-.49,0-.73-.5-3.67-8-4.79-16.75-2.49-8.75,2.3-18.05,11.63-18.05,11.63,0,0,.19.07.52.18-4.34,1.46-9.54,3.8-15.2,6.69l3.45-8.21-.19-.08s11.34-7.1,15.17-14.81c3.83-7.71,3.86-14.82.07-15.88-3.79-1.05-9.97,4.35-13.8,12.06-3.83,7.71-1.44,18.62-1.44,18.63l-.19-.08-3.64,8.66c-2.9,1.49-5.91,3.12-8.99,4.85-.04,0-.09,0-.12.01v.05c-1.95,1.1-3.92,2.23-5.91,3.4-1.05-.85-2.76-1.36-4.89-1.53,3.18-5.02,6.85-11.32,8.45-15.95.03.04.05.07.05.07,0,0,8.81-9.7,9.88-17.71,1.07-8.01-1.46-14.35-5.63-14.16-.86.04-1.71.36-2.55.9-3.41,1.86-6.49,7.55-7.38,14.2-.98,7.38,4.3,15.6,5.14,16.85-1.38,3.85-4.14,8.82-6.84,13.23l-4.84-4.71c.16.05.26.07.26.07,0,0,1.07-12.08-3.3-18.28-4.36-6.19-10.86-9.24-14.52-6.8-3.66,2.44-3.09,9.43,1.27,15.62,3.55,5.05,12.31,8.15,15.42,9.12l5.49,5.34c-.46.75-.92,1.48-1.37,2.18-2.91-.16-6.55.29-10.41,1.43-7.99,2.34-16.22,10.57-17.53,11.92l-9.74,4.9c3.02-5.68,5.54-11.52,5.79-15.48.14.06.22.09.22.09,0,0,3.42-11.6.26-18.49-3.16-6.89-8.91-10.88-12.84-8.91-3.93,1.97-4.55,9.14-1.39,16.03,2.71,5.9,11.01,10.03,13.35,11.1-.45,9.83-15.63,31.69-15.79,31.91l-.38,1.36c.37-.53,5.89-8.51,10.46-17.01v.03s10.31-5.17,10.31-5.17v-.03c1.3.38,5.62,1.53,10.57,1.79-17.31,11.15-31.3,21.1-31.58,21.29l-.16.63c.17-.12,5.41-3.85,13.38-9.26v.03s8.59-1.09,8.59-1.09l4.25,7.18c-.37,2.26-1.7,11.96,1.74,17.65,3.92,6.47,10.15,9.89,13.92,7.62,3.77-2.26,3.65-9.35-.26-15.82-3.67-6.06-13.9-9.48-15.18-9.89l-4.01-6.79,9.65-1.22-.03-.21s7.91,7.81,16.4,8.59c8.5.77,16.29-1.69,17.4-5.51,1.11-3.82-4.87-7.54-13.36-8.31-8.49-.77-20.42,5.23-20.43,5.23l-.03-.21-17.92,2.27c5.23-3.55,11.57-7.77,18.39-12.15,2.75.09,5.64-.11,8.29-.89,8.71-2.55,15.24-7.57,14.61-11.2-.1-.58-.4-1.08-.82-1.51,1.97-1.15,3.92-2.27,5.85-3.36,1.08-.11,6.33-.61,12.6-.78l2.28,2.72.32-.27-2.07-2.47c7.02-.17,15.17.1,20.07,1.8-.13.05-.2.08-.2.08,0,0,6.93,8.58,15.18,10.1,8.24,1.51,16.13-.32,17.61-4.08,1.49-3.77-3.99-8.04-12.23-9.56Zm-28.41-9.63l-.19.05-.04-.12c.07.02.15.05.23.07Z"/>
            <path class="cls-6" d="m564.54,288.43s-.21.46-.52,1.25c-1.27,3.01-4.51,11.58-3.03,17.63,1.82,7.45,6.64,12.34,10.76,10.92,0,0,.02,0,.02,0l-.05-.21c.29-.05.57-.11.85-.22,4.1-1.5,5.78-8.71,3.76-16.09-2.02-7.38-11.8-13.28-11.8-13.28Z"/>
          </g>
          <g>
            <g>
              <path class="cls-9" d="m539.42,184.29l-126.2-18.86-123.76,18.86v157.81c0,4.17,3.39,7.56,7.56,7.56h234.84c4.18,0,7.56-3.39,7.56-7.56v-157.81h0Z"/>
              <path class="cls-12" d="m515.53,283.73v14.37c0,.55-.45,1-1.01,1h-20.41c-.56,0-1.01-.45-1.01-1v-14.37c0-.55.45-1,1.01-1h20.41c.55,0,1.01.45,1.01,1Zm0-23.92c0-.55-.45-1-1.01-1h-20.41c-.56,0-1.01.45-1.01,1v14.37c0,.55.45,1,1.01,1h20.41c.55,0,1.01-.45,1.01-1v-14.37Zm0-23.93c0-.55-.45-1-1.01-1h-20.41c-.56,0-1.01.45-1.01,1v14.37c0,.55.45,1.01,1.01,1.01h20.41c.55,0,1.01-.45,1.01-1.01v-14.37Zm0-23.93c0-.55-.45-1-1.01-1h-20.41c-.56,0-1.01.45-1.01,1v14.37c0,.55.45,1,1.01,1h20.41c.55,0,1.01-.45,1.01-1v-14.37Z"/>
              <path class="cls-12" d="m494.12,299.1h20.41c.55,0,1-.45,1-1v-14.37c0-.55-.45-1-1-1h-8.83c-1.93.47-3.98.59-6.08.29-.9-.13-1.82-.22-2.74-.29h-2.76c-.56,0-1,.45-1,1v14.37c0,.55.45,1,1,1Z"/>
              <path class="cls-18" d="m455.62,250.25c0,.55-.45,1.01-1.01,1.01h-20.4c-.56,0-1.01-.45-1.01-1.01v-14.37c0-.55.45-1,1.01-1h20.4c.56,0,1.01.45,1.01,1v14.37Zm0-38.3c0-.55-.45-1-1.01-1h-20.4c-.56,0-1.01.45-1.01,1v14.37c0,.55.45,1,1.01,1h20.4c.56,0,1.01-.45,1.01-1v-14.37Zm-1.01,70.77h-20.4c-.56,0-1.01.45-1.01,1v14.37c0,.55.45,1,1.01,1h20.4c.56,0,1.01-.45,1.01-1v-14.37c0-.55-.45-1-1.01-1Zm-110.39-55.4h20.5c.56,0,1.01-.45,1.01-1v-14.37c0-.55-.45-1-1.01-1h-20.5c-.55,0-1,.45-1,1v14.37c0,.55.45,1,1,1Zm-1,22.92c0,.55.45,1.01,1,1.01h20.5c.56,0,1.01-.45,1.01-1.01v-14.37c0-.55-.45-1-1.01-1h-20.5c-.55,0-1,.45-1,1v14.37Zm112.4,9.55c0-.55-.45-1-1.01-1h-20.4c-.56,0-1.01.45-1.01,1v14.37c0,.55.45,1,1.01,1h20.4c.56,0,1.01-.45,1.01-1v-14.37Zm-112.4,14.37c0,.55.45,1,1,1h20.5c.56,0,1.01-.45,1.01-1v-14.37c0-.55-.45-1-1.01-1h-20.5c-.55,0-1,.45-1,1v14.37Zm141.35,8.55h-20.4c-.56,0-1.01.45-1.01,1v14.37c0,.55.45,1,1.01,1h20.4c.56,0,1-.45,1-1v-14.37c0-.55-.45-1-1-1Zm1-22.92c0-.55-.45-1-1-1h-20.4c-.56,0-1.01.45-1.01,1v14.37c0,.55.45,1,1.01,1h20.4c.56,0,1-.45,1-1v-14.37Zm0-23.93c0-.55-.45-1-1-1h-20.4c-.56,0-1.01.45-1.01,1v14.37c0,.55.45,1.01,1.01,1.01h20.4c.56,0,1-.45,1-1.01v-14.37Zm0-23.93c0-.55-.45-1-1-1h-20.4c-.56,0-1.01.45-1.01,1v14.37c0,.55.45,1,1.01,1h20.4c.56,0,1-.45,1-1v-14.37Zm-142.35,110.05c0,.55.45,1,1,1h20.5c.56,0,1.01-.45,1.01-1v-14.35c0-.55-.45-1-1.01-1h-20.5c-.55,0-1,.45-1,1v14.35Zm60.02-23.9c0,.55.45,1,1,1h20.4c.56,0,1.01-.45,1.01-1v-14.37c0-.55-.45-1-1.01-1h-20.4c-.56,0-1,.45-1,1v14.37Zm1-46.85h20.4c.56,0,1.01-.45,1.01-1.01v-14.37c0-.55-.45-1-1.01-1h-20.4c-.56,0-1,.45-1,1v14.37c0,.55.45,1.01,1,1.01h0Zm-1,22.92c0,.55.45,1,1,1h20.4c.56,0,1.01-.45,1.01-1v-14.37c0-.55-.45-1-1.01-1h-20.4c-.56,0-1,.45-1,1v14.37Zm0,47.83c0,.55.45,1,1,1h20.4c.56,0,1.01-.45,1.01-1v-14.35c0-.55-.45-1-1.01-1h-20.4c-.56,0-1,.45-1,1v14.35Zm21.41-111.05h-20.4c-.56,0-1,.45-1,1v14.37c0,.55.45,1,1,1h20.4c.56,0,1.01-.45,1.01-1v-14.37c0-.55-.45-1-1.01-1Zm-81.43,87.15c0,.55.45,1,1,1h20.5c.56,0,1.01-.45,1.01-1v-14.37c0-.55-.45-1-1.01-1h-20.5c-.55,0-1,.45-1,1v14.37Zm30.06,23.9c0,.55.45,1,1,1h20.4c.56,0,1.01-.45,1.01-1v-14.35c0-.55-.45-1-1.01-1h-20.4c-.56,0-1,.45-1,1v14.35Zm0-71.75c0,.55.45,1.01,1,1.01h20.4c.56,0,1.01-.45,1.01-1.01v-14.37c0-.55-.45-1-1.01-1h-20.4c-.56,0-1,.45-1,1v14.37Zm1-22.92h20.4c.56,0,1.01-.45,1.01-1v-14.37c0-.55-.45-1-1.01-1h-20.4c-.56,0-1,.45-1,1v14.37c0,.55.45,1,1,1Zm-1,46.85c0,.55.45,1,1,1h20.4c.56,0,1.01-.45,1.01-1v-14.37c0-.55-.45-1-1.01-1h-20.4c-.56,0-1,.45-1,1v14.37Zm0,23.93c0,.55.45,1,1,1h20.4c.56,0,1.01-.45,1.01-1v-14.37c0-.55-.45-1-1.01-1h-20.4c-.56,0-1,.45-1,1v14.37Z"/>
              <path class="cls-17" d="m534.36,154.74h-242.28c-1.45,0-2.62,1.17-2.62,2.62v26.94h249.95v-26.94c0-1.45-1.17-2.62-2.61-2.62h-2.44Z"/>
              <path class="cls-12" d="m313.36,250.25v-14.37c0-.55.45-1,1-1h20.3c.56,0,1.01.45,1.01,1v14.37c0,.55-.45,1.01-1.01,1.01h-20.3c-.55,0-1-.45-1-1.01Zm0,23.93c0,.55.45,1,1,1h20.3c.56,0,1.01-.45,1.01-1v-14.37c0-.55-.45-1-1.01-1h-20.3c-.55,0-1,.45-1,1v14.37h0Zm0,47.83c0,.55.45,1,1,1h20.3c.56,0,1.01-.45,1.01-1v-14.35c0-.55-.45-1-1.01-1h-20.3c-.55,0-1,.45-1,1v14.35h0Zm0-23.9c0,.55.45,1,1,1h20.3c.56,0,1.01-.45,1.01-1v-14.37c0-.55-.45-1-1.01-1h-20.3c-.55,0-1,.45-1,1v14.37h0Z"/>
            </g>
            <rect class="cls-1" x="303.99" y="139.07" width="6.9" height="31.32"/>
            <rect class="cls-1" x="339.53" y="139.07" width="6.9" height="31.32"/>
            <rect class="cls-1" x="374.24" y="139.07" width="6.9" height="31.32"/>
            <rect class="cls-1" x="409.78" y="139.07" width="6.9" height="31.32"/>
            <rect class="cls-1" x="447.75" y="139.07" width="6.9" height="31.32"/>
            <rect class="cls-1" x="483.29" y="139.07" width="6.9" height="31.32"/>
            <rect class="cls-1" x="518" y="139.07" width="6.9" height="31.32"/>
          </g>
          <g>
            <path class="cls-21" d="m200.9,51c46.81,0,84.75,37.95,84.75,84.75s-37.95,84.76-84.75,84.76-84.76-37.95-84.76-84.76,37.95-84.75,84.76-84.75Z"/>
            <path class="cls-9" d="m200.4,57.22c43.6,0,78.95,35.35,78.95,78.95s-35.35,78.95-78.95,78.95-78.95-35.35-78.95-78.95,35.35-78.95,78.95-78.95Z"/>
            <path class="cls-20" d="m206.45,128.37c4.3,2.61,5.68,8.2,3.08,12.51-2.61,4.3-8.21,5.68-12.51,3.08-4.3-2.61-5.68-8.21-3.08-12.51,2.6-4.31,8.21-5.68,12.51-3.08Z"/>
            <path class="cls-20" d="m203.31,133.57c-1.43-.87-1.89-2.74-1.03-4.17l17.29-28.58c.87-1.43,2.73-1.89,4.17-1.03,1.43.87,1.9,2.74,1.03,4.17l-17.29,28.58c-.87,1.43-2.73,1.89-4.17,1.03Z"/>
            <path class="cls-20" d="m170.97,145.95c-2.29-1.39-1.79-4.9.85-5.55l20.85-5.13c1.63-.4,3.27.59,3.67,2.22.4,1.63-.59,3.27-2.22,3.67l-20.85,5.13c-.81.2-1.63.05-2.3-.35h0Z"/>
            <path class="cls-18" d="m200.4,81.51c-1.68,0-3.04-1.36-3.04-3.04v-6.07c0-1.68,1.36-3.04,3.04-3.04s3.04,1.36,3.04,3.04v6.07c0,1.68-1.36,3.04-3.04,3.04Z"/>
            <path class="cls-18" d="m241.19,98.41c-2.68,0-4.07-3.26-2.15-5.18l4.29-4.3c1.19-1.18,3.11-1.18,4.29,0,1.19,1.19,1.19,3.11,0,4.3l-4.29,4.29c-.59.59-1.37.89-2.15.89h0Z"/>
            <path class="cls-18" d="m264.16,139.21h-6.07c-1.68,0-3.04-1.36-3.04-3.04s1.36-3.04,3.04-3.04h6.07c1.68,0,3.04,1.36,3.04,3.04s-1.36,3.04-3.04,3.04Z"/>
            <path class="cls-18" d="m245.49,184.3c-.78,0-1.55-.3-2.15-.89l-4.29-4.29c-1.19-1.19-1.19-3.11,0-4.3,1.19-1.18,3.11-1.18,4.3,0l4.29,4.3c1.92,1.92.53,5.18-2.15,5.18h0Z"/>
            <path class="cls-18" d="m200.4,202.97c-1.68,0-3.04-1.36-3.04-3.04v-6.07c0-1.68,1.36-3.04,3.04-3.04s3.04,1.36,3.04,3.04v6.07c0,1.68-1.36,3.04-3.04,3.04Z"/>
            <path class="cls-18" d="m155.3,184.3c-2.68,0-4.07-3.26-2.15-5.18l4.29-4.3c1.19-1.18,3.11-1.18,4.29,0,1.19,1.19,1.19,3.11,0,4.3l-4.29,4.29c-.59.59-1.37.89-2.15.89h0Z"/>
            <path class="cls-18" d="m142.7,139.21h-6.07c-1.68,0-3.04-1.36-3.04-3.04s1.36-3.04,3.04-3.04h6.07c1.68,0,3.04,1.36,3.04,3.04s-1.36,3.04-3.04,3.04Z"/>
            <path class="cls-18" d="m159.6,98.41c-.78,0-1.55-.3-2.15-.89l-4.29-4.29c-1.19-1.19-1.19-3.11,0-4.29,1.19-1.19,3.11-1.19,4.29,0l4.29,4.29c1.92,1.92.53,5.18-2.15,5.18Z"/>
          </g>
          <g>
            <rect class="cls-1" x="2.39" y="324.15" width="76.4" height="47.15" transform="translate(-38.49 6.69) rotate(-6.4)"/>
            <path class="cls-3" d="m.05,328.73c4.62,2.59,9.23,5.18,13.85,7.77,7.35,4.12,14.7,8.25,22.05,12.37,1.67.94,3.35,1.88,5.02,2.82.03.01.07,0,.1-.01,3.72-3.3,7.44-6.61,11.15-9.93,6.2-5.53,12.4-11.06,18.54-16.66,1.72-1.57,3.57-3.09,5.14-4.83.08-.09-.07-.21-.15-.12-1.43,1.58-3.11,2.97-4.67,4.4-2.97,2.71-5.96,5.4-8.95,8.09-6.05,5.43-12.11,10.83-18.18,16.23-.76.68-1.52,1.35-2.29,2.03-.19.17-.38.39-.59.52-.17.11-.03.08-.05.07-.4-.04-1.02-.57-1.37-.76-1.01-.57-2.01-1.13-3.02-1.7-6.94-3.89-13.88-7.79-20.82-11.68-3.34-1.88-6.68-3.75-10.03-5.63-1.78-1-3.55-2.18-5.41-3.04-.09-.04-.17-.1-.25-.14-.11-.06-.19.12-.08.18H.05Z"/>
            <path class="cls-3" d="m5.52,375.13c9.68-8.9,19.08-18.1,28.25-27.53.09-.09-.06-.21-.15-.12-9.16,9.41-18.55,18.6-28.21,27.5-.09.08.02.24.11.15h0Z"/>
            <path class="cls-3" d="m80.99,366.62c-11.43-6.55-22.68-13.42-33.72-20.59-.1-.07-.23.08-.12.15,11.06,7.18,22.32,14.06,33.77,20.62.11.06.18-.12.08-.18h0Z"/>
          </g>
          <g>
            <polygon class="cls-1" points="80.89 234.87 63.6 252.16 63.6 217.58 80.89 234.87"/>
            <polygon class="cls-1" points="100.22 234.87 82.93 252.16 82.93 217.58 100.22 234.87"/>
            <polygon class="cls-1" points="119.17 234.87 101.87 252.16 101.87 217.58 119.17 234.87"/>
          </g>
          <g>
            <polygon class="cls-14" points="56.03 276.06 38.74 293.35 38.74 258.77 56.03 276.06"/>
            <rect class="cls-14" x="58.07" y="258.77" width="1.87" height="34.58"/>
          </g>
          <g>
            <rect class="cls-20" x="513.29" y="270.79" width="34.37" height="2.17" transform="translate(1060.95 543.74) rotate(180)"/>
            <polygon class="cls-20" points="567.5 375 567.87 374.92 547.26 270.75 546.89 270.83 567.5 375"/>
            <polygon class="cls-20" points="534.71 375.11 535.08 375.03 514.75 272.29 514.38 272.37 534.71 375.11"/>
            <polygon class="cls-20" points="497.64 374.05 513.61 272.37 513.24 272.3 497.27 373.99 497.64 374.05"/>
            <rect class="cls-20" x="518.17" y="289.04" width="32.94" height=".4"/>
            <rect class="cls-20" x="521.58" y="306.76" width="32.94" height=".4"/>
            <rect class="cls-20" x="525" y="324.48" width="32.94" height=".4"/>
            <rect class="cls-20" x="528.41" y="342.2" width="32.94" height=".4"/>
            <rect class="cls-20" x="531.83" y="359.91" width="32.94" height=".4"/>
          </g>
          <g id="person3">
            <path class="cls-10" d="m366.61,372.86c.78.39,1.27,1.14,1.23,1.9-.05,1.03-1.09,1.96-2.4,1.88-1.94-.44-3.87-.87-5.81-1.31-.61-.31-1.82-.97-1.71-1.48.12-.59,1.99-.68,2.77-.72,1.14-.05,2.08.07,2.71.19,1.07-.15,2.14-.31,3.21-.46Z"/>
            <path class="cls-10" d="m381.65,370.84c.83.37,1.4,1.16,1.41,1.99.02,1.13-.99,2.24-2.35,2.24-2.03-.33-4.07-.66-6.1-1-.65-.29-1.95-.93-1.88-1.5.09-.66,2.01-.9,2.82-1,1.17-.15,2.16-.08,2.82,0,1.09-.25,2.19-.5,3.28-.75Z"/>
            <path class="cls-16" d="m353.97,284.27c2.27,1.84,4.63,1.2,4.63,1.2-.02.02-.04.04-.05.05,2.57-.38,5.11-1.2,5.92-2.01.75-.75,1.5.13,2.08,1.24.74-1.83-.25-6.89-5.61-6.33-5.52.58-9.24,4.01-6.98,5.85Z"/>
            <path class="cls-10" d="m359.93,290.62c.74.9,5.3,3.72,5.3,3.72l2.4-.74c-1.39-3.52-2-7-1.13-8.69.02-.05.05-.1.07-.17-.58-1.11-1.33-1.99-2.08-1.24-.81.82-3.35,1.64-5.92,2.01-1.56,1.64.64,4.2,1.37,5.09Z"/>
            <path class="cls-12" d="m368.58,326.48c-1.77,3.44-4.18,9.36-4.23,16.93-.1,15.74,10.1,26.17,12.4,28.42,1.91-.2,3.83-.4,5.74-.6-6.72-8.25-9.78-19.99-9.67-24.49.13-5.74,3.02-18.44,5.44-24.49-2.22,2.32-7.46,1.91-9.67,4.23Z"/>
            <path class="cls-4" d="m361.62,319.83c-2.44,4.53-5.82,12.26-6.65,22.37-1.21,14.86,3.8,26.22,6.35,31.14,2.22.1,4.43.2,6.65.3-1.5-4.74-3.02-11.61-3.02-19.95,0-15.42,7.99-23.5,10.28-28.72-2.92-2.82-10.68-2.32-13.61-5.14Z"/>
            <polygon class="cls-16" points="330.11 289.4 329.56 287.92 340.8 283.23 341.35 284.71 330.11 289.4"/>
            <path class="cls-5" d="m330.12,287.68c1.36,1.77-2.26,6.21-5.05,4.72-2.37-1.26-3.45-2.67-5.07-4.78,0,0,4.28,1.19,5.02-.21.93-1.77,3.89-1.31,5.11.27Z"/>
            <path class="cls-14" d="m367.22,292.52c3.19-.02,7.36,1.26,10.19,4.7,3.15,3.83,4.07,21.73,1.57,26.19-3.63,6.46-13.59,8.57-18.8,3.92-4.55-4.06-3.23-23.37-3.13-23.84-2.31,0-6.13-.32-10.18-2.35-8.31-4.16-11.15-12.24-11.75-14.1.38.49,1.6.17,1.98.6,5.37,6.13,9.59,7.81,11.34,8.02,4.8.55,11.15-1.19,12.53-1.57,3.39-.93,4.07-1.55,6.27-1.57Z"/>
            <path class="cls-10" d="m337.08,287.64c-.22-.89-1.39-3.58-2.64-2.28-.51.53-.84,1.38.36,2.66,1.04,1.1,1.26,1.51,1.26,1.51l1.02-1.89Z"/>
          </g>
          <g>
            <rect class="cls-20" x="144.44" y="215.64" width="42.16" height="3.27"/>
            <polygon class="cls-20" points="120.1 372.76 119.64 372.63 144.93 215.58 145.39 215.7 120.1 372.76"/>
            <polygon class="cls-20" points="160.32 372.93 159.86 372.8 184.8 217.91 185.26 218.04 160.32 372.93"/>
            <polygon class="cls-20" points="205.8 371.33 186.21 218.02 186.67 217.92 206.26 371.23 205.8 371.33"/>
            <rect class="cls-20" x="140.2" y="243.17" width="40.41" height=".61"/>
            <rect class="cls-20" x="136.01" y="269.88" width="40.41" height=".61"/>
            <rect class="cls-20" x="131.82" y="296.59" width="40.41" height=".61"/>
            <rect class="cls-20" x="127.63" y="323.3" width="40.41" height=".61"/>
            <rect class="cls-20" x="123.44" y="350.01" width="40.42" height=".61"/>
          </g>
          <g id="person1">
            <path class="cls-12" d="m146.45,160.2c-2.9,1.06-6.42,2.54-7.28-1.4-.86-3.94,7.56-16.87,8.8-17.71,1.24-.84,3.52-1.48,3.94-.86.42.62-5.46,19.98-5.46,19.98Z"/>
            <path class="cls-16" d="m148.7,135.8c1.21-1.58.79-3.7,1.8-5.01,1.07-1.39,2.5-.05,4.6.14,1.06-.87,1.68-2.31,1.39-3.97-.32-1.81-4.27-2.31-7.17-1.25-3.52,1.28-3.07,6.15-1.65,8.24.39.58.74,1.21,1.03,1.85Z"/>
            <path class="cls-8" d="m149.58,140.79l2.33-.57s-.91-2.7,1.06-3.77c2.64-1.44,2.03-5.45,2.13-5.53-2.1-.18-3.53-1.53-4.6-.14-1.01,1.32-.59,3.43-1.8,5.01.74,1.63,1.1,3.38.88,4.99Z"/>
            <path class="cls-8" d="m169.31,214.88c-1.3.88-1.59,1.92-.16,2.64,1.43.71,9.02-.72,5.64-1.62-3.46-.92-3.91-1.1-3.91-1.1l-1.57.08Z"/>
            <path class="cls-8" d="m151.97,212.64c-.82.74-.19,2.28,1.28,3.07,1.46.79,6.15,1.85,3.11-.69-3.04-2.54-2.63-2.91-2.63-2.91l-1.76.53Z"/>
            <path class="cls-13" d="m151.85,212.93c1.12-5.22,2.1-12.5,1.5-21.15-.54-7.85-2.22-14.37-3.83-19.14,3.54-.63,7.09-1.26,10.63-1.89,1.2,5.73,2.34,14.72.52,25.43-1.27,7.46-3.58,13.51-5.67,17.89-1.05-.38-2.1-.75-3.15-1.13Z"/>
            <path class="cls-14" d="m163.54,169.42c2.4,2.28,4.87,5.2,6.92,8.88,8.7,15.63,3.03,32.75,1.51,36.95-1.11.15-2.21.29-3.32.44,1.16-4.08,2.12-10.07-.12-16.2-.47-1.29-1.44-3.56-7.56-11.16-8.62-10.7-13.99-13.75-13.15-16.2.55-1.63,4.83-2.99,15.72-2.71Z"/>
            <path class="cls-8" d="m180.11,142.36c.8-1.55,2.98-4.85,3.95-3.87.97.99,1.35,2.16-1.22,4.29l-2.56,2.12-.17-2.54Z"/>
            <path class="cls-4" d="m180.99,140.43c-5.16,4.4-16.78,5.93-20.54,3.05-3.76-2.88-8.76-4.92-10.62-3.66-1.86,1.26-8.22,11.9-5.44,22.67,2.78,10.78,3.22,14.1,10.27,13.84,7.06-.26,13.68-3.84,10.06-15.85-3.62-12.02-2.56-9.12-2.56-9.12,2.92,1.64,8.74.82,10.8-.08,3.57-1.55,10.21-8.34,9.7-8.38l-1.68-2.48Z"/>
          </g>
          <g id="person4">
            <path class="cls-10" d="m383.7,59.76c.51.75.85,1.46,1.05,2.15-.18-2.18.14-5.25,1.44-5.43,1.04-.14,2.84-.39,4.53-.9.99-1.67.55-4.3-.99-5.47-1.64-1.25-1.34.92-4.76,2.85-3.41,1.94-3.12,4.1-1.28,6.79Z"/>
            <path class="cls-8" d="m384.68,66.98s3.08,1.05,2.89-.39c-.39-2.89,2.03-3.53,3.02-4.82,1.87-2.46.08-6.07.13-6.18-1.69.51-3.49.76-4.53.9-1.31.18-1.62,3.25-1.44,5.43.55,1.8.24,3.43-.07,5.07Z"/>
            <path class="cls-8" d="m402.04,56.52c.39-1.79,1.73-5.73,2.98-4.99,1.25.74,1.95,1.84-.09,4.68l-2.03,2.85-.85-2.54Z"/>
            <path class="cls-20" d="m392.98,73.94c3.43-2.06,5.38-4.33,6.53-6.04,3.02-4.49,5.12-10.99,5.12-10.99l-.72.1s-.77.06-2.36-1.15c-.72,1.63-1.61,4.6-4.89,7.28-3.56,2.91-7.22,3.84-8.99,4.17,1.77,2.21,3.54,4.42,5.32,6.63Z"/>
            <path class="cls-8" d="m387.69,147.38c-.59,3.21-1.18,6.41,3.04,6.86,4.22.45,7.58-1.58,2.63-3.49-4.95-1.91-2.17-4.38-2.17-4.38l-3.5,1.01Z"/>
            <path class="cls-8" d="m377.34,144.61c-1.45,2.29-2.89,4.58.23,6.23,3.12,1.65,6.34,1.12,3.11-1.88-3.23-3-.33-4.05-.33-4.05l-3.01-.3Z"/>
            <path class="cls-12" d="m387.42,118.65c.06,2.85-.11,6.2-.78,9.88-1.47,8.12-4.7,14.32-7.25,18.29-1.13-.45-2.26-.9-3.38-1.34,1.49-2.71,3.71-7.62,4.01-14.08.49-10.36-3.07-26.67-4.84-29.21,4.47,2.56,7.77,13.92,12.24,16.47Z"/>
            <path class="cls-4" d="m387.93,96.63c1.83,2.48,4.26,6.33,5.91,11.47.54,1.69,2.06,6.82,1.67,16.53-.23,5.83-1.2,14.44-4.7,24.62-1.54-.21-3.08-.41-4.62-.62.89-3.56.81-8.95.36-15.45-1.15-16.88-12.73-33.12-12.51-35.39,4.53-2.64,9.35,1.48,13.88-1.16Z"/>
            <path class="cls-8" d="m414.75,72.89c.91-1.6,3.35-4.97,4.32-3.88.97,1.08,1.31,2.33-1.47,4.45l-2.79,2.12-.06-2.68Z"/>
            <path class="cls-17" d="m390.55,66.91c-1.42-.56-5.97-2.12-10.3-.07-4.75,2.26-6.33,6.38-7.42,10.25-1.83,6.51-.66,14.43.18,18.96.51,2.72,1.59,6.78,2.05,8.26,1.9.75,4.44,1.29,7.58,1.64,4.29.48,7.89.18,10.24-.39.77-2.24,2.54-20.58,2.3-20.9,0,0,5.16,1.09,9.48-.56,3.62-1.38,6.1-3.69,8.07-5.51,1.71-1.59,2.98-3.08,3.84-4.2-.37-.93-.74-1.86-1.12-2.79-1.47,1.36-4.18,3.52-8.17,4.79-1.65.53-3.15.86-4.51,1.07-3.54.53-6.99-1.57-8.1-4.97-.18-.55-.39-1.11-.65-1.64-1.07-2.25-2.74-3.46-3.48-3.94Z"/>
          </g>
          <path class="cls-6" d="m483.21,214.54l-10.84,10.84c-.1.1-.25.1-.35,0l-6.15-6.16c-.1-.1-.1-.25,0-.35l1.5-1.5c.1-.1.25-.1.35,0l4.49,4.49,9.17-9.17c.1-.1.25-.1.35,0l1.5,1.5c.1.1.1.25,0,.35Z"/>
          <path class="cls-1" d="m438.78,245.67l-25.17,25.17c-.22.22-.58.22-.8,0l-14.29-14.29c-.22-.22-.22-.58,0-.8l3.47-3.47c.22-.22.58-.22.8,0l10.42,10.42,21.29-21.29c.22-.22.58-.22.8,0l3.47,3.47c.22.22.22.58,0,.8Z"/>
          <path class="cls-17" d="m398.6,207.43l-16,16c-.14.14-.37.14-.51,0l-9.08-9.09c-.14-.14-.14-.37,0-.51l2.21-2.21c.14-.14.37-.14.51,0l6.62,6.62,13.54-13.54c.14-.14.37-.14.51,0l2.21,2.21c.14.14.14.37,0,.51Z"/>
          <g id="person1-2" data-name="person1">
            <path class="cls-8" d="m525.31,270.08c1.36.81,1.71,1.84.31,2.64-1.4.8-9.12-.21-5.77-1.31,3.43-1.12,3.87-1.33,3.87-1.33h1.59Z"/>
            <path class="cls-8" d="m542.64,266.83c.87.7.32,2.28-1.11,3.17-1.43.88-6.09,2.21-3.17-.52,2.91-2.73,2.48-3.08,2.48-3.08l1.8.43Z"/>
            <path class="cls-20" d="m542.77,267.11c-1.42-5.19-2.83-12.46-2.73-21.2.09-7.93,1.4-14.59,2.76-19.49-3.6-.43-7.21-.86-10.81-1.3-.88,5.83-1.51,14.95.94,25.63,1.7,7.44,4.38,13.39,6.74,17.68,1.04-.44,2.07-.88,3.11-1.31Z"/>
            <path class="cls-17" d="m528.5,223.99c-2.29,2.44-4.6,5.52-6.45,9.33-7.86,16.24-1.17,33.14.6,37.28,1.12.08,2.24.17,3.37.25-1.4-4.04-2.71-10.01-.81-16.31.4-1.33,1.24-3.67,6.96-11.67,8.06-11.27,13.29-14.64,12.31-17.06-.65-1.61-5.04-2.73-15.98-1.83Z"/>
            <g id="person2">
              <path class="cls-21" d="m516.15,184.26l-2.82,2.56c-.4.36-1.03.33-1.39-.07l-7.54-8.32c-.36-.4-.33-1.03.07-1.39l2.82-2.56c.4-.36,1.03-.33,1.39.07l7.54,8.32c.36.4.33,1.03-.07,1.39Z"/>
              <rect class="cls-21" x="497.23" y="184.56" width="13.22" height="3.11" transform="translate(5.55 386.6) rotate(-42.19)"/>
              <path class="cls-8" d="m503.92,189.4c.7-2.58-1.28-5.22-3.45-4.63-2.17.6-.84.63.64,2.61,1.48,1.98,1.8,2.85,1.8,2.85l1.01-.84Z"/>
              <path class="cls-3" d="m514.79,210.88c-2.32-1.89-5.95-5.33-8.77-10.69-2.27-4.32-3.17-8.31-3.56-11.02.51-.21,1.02-.41,1.53-.62.38,1.77,1.42,5.41,4.47,8.87,3.56,4.04,7.78,5.46,9.52,5.95-1.07,2.5-2.13,5.01-3.19,7.52Z"/>
              <path class="cls-10" d="m519.49,193.86c.22.91-.27,1.41-.5,2.35-1.53-.58-2.97-.94-4.09-.49-.92.37-1.82,1.25-2.74,2.07-.01-.02,0-.04-.01-.07-.43.09-1.13.16-1.84-.15-1.65-.7-2.47-3.01-1.85-4.59.91-2.31,4.56-2.19,5.35-2.16,2.22.08,5.21,1.12,5.68,3.05Z"/>
              <path class="cls-8" d="m522.12,202.58l-2.29.93c-1.36-1.2-2.62-1.81-3.53-2.13-1.41-.5-2.4-.5-3.22-1.37-.65-.68-.86-1.57-.92-2.23.92-.82,1.82-1.7,2.74-2.07,1.12-.45,2.55-.09,4.09.49-.05.17-.08.36-.1.57-.13,1.38.42,3.3,3.24,5.81Z"/>
              <path class="cls-1" d="m519.97,201.67c5.84-3.06,12.28.06,13.63.72,5.19,2.52,7.61,6.78,9.23,9.62,2.26,3.98,3.42,11.05,2.24,15.81-1.39,5.56-6.21,8.21-13.35,7.36-7.15-.85-12.7-7.87-11.69-15.74-2.36,1.2-6.88,3.02-12.4,2.34-8.59-1.06-16.02-7.74-19.36-17.09.67,1.16,1.58,1.57,2.4,2.53,4.81,5.66,11.7,8.51,17.24,6.44,4.16-1.56,6.45-5.14,7.49-7.25.79-1.6,1.93-3.02,3.41-4.03.36-.24.74-.48,1.16-.7Z"/>
              <path class="cls-21" d="m494.75,202.78c-.3.41-2.15-.02-2.15-.02l-.4.61-.61.75-1.25,1.45c-.86.96-1.68,1.93-2.57,2.86-.86.94-1.77,1.86-2.68,2.76-.94.9-1.86,1.79-2.87,2.62l-.63-.53c.6-1.15,1.29-2.24,1.98-3.33.71-1.08,1.42-2.14,2.17-3.19.73-1.05,1.52-2.06,2.28-3.09l1.18-1.52.6-.75.3-.37c.05-.04.06-.12.15-.13-.78-.8-1.15-1.6-.86-1.99.4-.55,1.92-.14,3.4.93,1.48,1.07,2.36,2.37,1.96,2.93Z"/>
              <path class="cls-8" d="m490.67,207.22c-.39-1.27-1.6-4.99-3.11-3.74-.81.67-.62,1.78,1.01,3.7l1.64,1.92.46-1.88Z"/>
            </g>
          </g>
          <path class="cls-6" d="m337.59,117.98h-27.45c-2.28,0-4.13-1.85-4.13-4.13v-27.45c0-2.27,1.85-4.13,4.13-4.13h27.45c2.27,0,4.12,1.85,4.12,4.13v27.45c0,2.28-1.85,4.13-4.12,4.13Zm-27.45-32.77c-.66,0-1.2.54-1.2,1.2v27.45c0,.66.54,1.2,1.2,1.2h27.45c.66,0,1.2-.54,1.2-1.2v-27.45c0-.66-.54-1.2-1.2-1.2h-27.45Z"/>
          <path class="cls-1" d="m347.24,81.73c-7.87,8.53-15.73,17.07-23.6,25.61-2.48-4.45-4.96-8.9-7.43-13.35-.7-1.25-2.52.02-1.83,1.26,2.71,4.87,5.42,9.73,8.13,14.6.37.65,1.32.57,1.76.09,8.22-8.92,16.44-17.84,24.66-26.76.97-1.06-.72-2.5-1.69-1.45Z"/>
          <path class="cls-15" d="m481.08,98h-17.99c-1.49,0-2.7-1.21-2.7-2.7v-17.99c0-1.49,1.21-2.7,2.7-2.7h17.99c1.49,0,2.7,1.21,2.7,2.7v17.99c0,1.49-1.21,2.7-2.7,2.7Zm-17.99-21.47c-.43,0-.79.35-.79.78v17.99c0,.43.35.79.79.79h17.99c.43,0,.78-.35.78-.79v-17.99c0-.43-.35-.78-.78-.78h-17.99Z"/>
          <path class="cls-1" d="m487.4,74.25c-5.15,5.59-10.31,11.19-15.46,16.78-1.62-2.92-3.25-5.83-4.87-8.75-.46-.82-1.65.02-1.2.83,1.78,3.19,3.55,6.38,5.33,9.57.24.43.86.38,1.15.06,5.39-5.85,10.77-11.69,16.16-17.54.64-.69-.47-1.64-1.11-.95Z"/>
          <path class="cls-11" d="m296,61.75h-17.99c-1.49,0-2.7-1.21-2.7-2.7v-17.99c0-1.49,1.21-2.7,2.7-2.7h17.99c1.49,0,2.7,1.21,2.7,2.7v17.99c0,1.49-1.21,2.7-2.7,2.7Zm-17.99-21.47c-.43,0-.79.35-.79.78v17.99c0,.43.35.79.79.79h17.99c.43,0,.79-.35.79-.79v-17.99c0-.43-.35-.78-.79-.78h-17.99Z"/>
          <path class="cls-1" d="m302.33,37.99c-5.15,5.59-10.31,11.19-15.46,16.78-1.62-2.92-3.25-5.83-4.87-8.75-.46-.82-1.65.02-1.2.83,1.78,3.19,3.55,6.38,5.33,9.57.24.43.86.38,1.15.06,5.39-5.85,10.77-11.69,16.16-17.54.64-.69-.47-1.64-1.11-.95Z"/>
          <g>
            <path class="cls-1" d="m437.42,47.87c-10.71,11.51-28.73,12.16-40.25,1.45-11.51-10.71-12.16-28.73-1.45-40.25,10.71-11.51,28.73-12.16,40.25-1.45,11.51,10.71,12.16,28.73,1.45,40.25Z"/>
            <path class="cls-2" d="m443.97,36.25c-.65.88-1.35,1.73-2.11,2.55-10.71,11.51-28.73,12.16-40.24,1.45-8.09-7.53-10.82-18.67-8-28.62-8.45,11.49-7.13,27.74,3.56,37.69,11.51,10.71,29.53,10.06,40.25-1.45,3.18-3.42,5.36-7.42,6.55-11.63Z"/>
            <path class="cls-7" d="m420.63,62.82c-.95-5.55-2.19-12.17-3.51-18.45-1.89-.49-3.83-1.3-5.67-2.4-5.04-3.02-8.25-7.51-8.81-12.32-.75-6.41.89-8.81,2.4-9.69,1.63-.96,3.92-.59,6.11,1,2.1,1.51,4.81,12.22,6.97,22.46,1.27.28,2.51.39,3.65.34-.96-6.48-1.54-13.3-.56-17.06,1-3.84,2.64-6.15,4.86-6.88,1.94-.63,4.24.02,6.48,1.84,1.38,1.12,1.83,3.99,1.24,7.85-.93,6-4.22,13-8.7,14.77-.61.24-1.27.41-1.96.52,1.2,7.66,2.84,14.57,2.87,14.7l-1.14.27c-.13-.53-1.73-7.31-2.91-14.85-1.13.06-2.33-.03-3.57-.26,1.75,8.41,3.1,16.22,3.4,17.97l-1.15.2Zm-10.05-40.82s-.08-.07-.12-.1c-1.8-1.3-3.61-1.65-4.83-.94-1.7,1-2.35,4.03-1.83,8.54.52,4.45,3.52,8.62,8.25,11.45,1.56.94,3.19,1.65,4.8,2.12-2.22-10.37-4.63-19.56-6.27-21.08Zm21.31.63s-.05-.04-.08-.07c-1.11-.9-3.29-2.32-5.38-1.64-1.82.6-3.19,2.63-4.09,6.06-.94,3.58-.35,10.27.6,16.65.61-.1,1.18-.25,1.71-.46,4.03-1.59,7.11-8.32,7.97-13.86.5-3.25.22-5.8-.74-6.69Z"/>
            <g>
              <path class="cls-22" d="m426.54,73.92h0c-2.61.56-5.17-1.11-5.72-3.71l-2.69-12.62,9.43-2.01,2.69,12.62c.56,2.61-1.1,5.17-3.71,5.72Z"/>
              <rect class="cls-18" x="417.91" y="65.51" width="14.44" height="3.61" transform="translate(-4.69 90.17) rotate(-12.04)"/>
              <rect class="cls-19" x="418.18" y="68.05" width="14.44" height="1.04" transform="translate(-4.94 90.25) rotate(-12.04)"/>
              <polygon class="cls-18" points="431.47 62.47 417.35 65.48 416.6 61.95 424.42 60.29 430.72 58.94 431.47 62.47"/>
              <rect class="cls-19" x="417.09" y="62.95" width="14.44" height="1.04" transform="translate(-3.9 89.93) rotate(-12.04)"/>
              <rect class="cls-18" x="415.57" y="54.54" width="14.44" height="3.61" transform="translate(-2.45 89.44) rotate(-12.04)"/>
              <rect class="cls-19" x="415.84" y="57.08" width="14.44" height="1.04" transform="translate(-2.71 89.52) rotate(-12.04)"/>
            </g>
          </g>
          <g>
            <path class="cls-8" d="m108.06,302.24c.76-1.78,1.26-2.97,3.8-4,2.54-1.03,4.71-7.82,1.15-9.33-3.57-1.51-7.3-.99-8.12,4.27-.16,2.03.53,3.73.87,4.57.34.85-.92,3.82-1.17,4.41-.25.6,3.48.07,3.48.07Z"/>
            <path class="cls-16" d="m104.13,295.46c.22.74.84,1.29,1.6,1.41,1.57.26,3.4-.05,3.1-1.64-.39-2.04,1.35-3.19,1.43-1.9.08,1.29,4.8,2.14,5.51.46.68-1.59,1.04-7.07-6.9-6.05-6.1.78-5.4,5.55-4.74,7.72Z"/>
            <path class="cls-8" d="m111.8,363.79c-1.01,2.38-2.05,7.5,1.23,5.43,3.33-2.09,4.3-7.25,2.77-7.94-.91-.14-2.12,1.98-3.26,3.53l-.75-1.02Z"/>
            <path class="cls-8" d="m126.91,328.11c1.28,1.94,2.81,3.29,4.16,1.76,1.35-1.53,2.77-6.54,1.58-7.04-1.19-.5-2.45,2.47-2.7,3.06-.25.6-1.69.68-1.69.68l-1.35,1.53Z"/>
            <path class="cls-12" d="m108.22,339.13c.52-1.96,1.77-5.49,4.97-8.41,1.1-1.01,2.84-2.6,5.58-3.25,4.44-1.05,8.14,1.15,9.08,1.74.42-.99.84-1.98,1.26-2.97-.77-.87-6.61-4.7-13.33-4.95-9.09-.34-12.6,6.78-12.86,7.18,1.77,3.55,3.53,7.11,5.3,10.66Z"/>
            <path class="cls-4" d="m113.34,365.14c-.93.54-1.86,1.09-2.79,1.62.09-7.47-2.34-12.03-3.79-14.23-2.79-4.19-6.92-7.1-9.53-8.95-5.15-3.63-7.24-3.64-9.1-6.66-1.66-2.7-1.75-5.56-1.6-8.15,7.05,2.23,15.81,3.02,18.5,1.46-.08.14-.15.29-.22.42,1.28,1.78,2.92,4.32,4.53,7.53,1.31,2.64,3.24,6.5,4.2,11.6,1.24,6.56.52,12.04-.19,15.35Z"/>
            <path class="cls-8" d="m129.81,300.59c1.52-1.02,4.66-3.7,3.52-4.58-1.14-.88-2.41-1.13-4.29,1.8l-1.88,2.92,2.66-.14Z"/>
            <path class="cls-17" d="m129.26,301.05c-2.16,3-4.21,5.44-5.9,7.32-2.61,2.89-4.34,4.82-7.09,6.81-2.92,2.12-5.79,3.44-8.12,4.27-.17,1.79-.54,4-1.33,6.45-.54,1.66-1.17,3.11-1.79,4.33-2.69,1.56-11.45.77-18.5-1.46.03-.55.07-1.08.12-1.6.53-6.47,3.37-10.82,6.8-16.05,0,0,5.7-8.7,11.24-9.97.72-.17,1.4-.09,1.44-.09,2.3.26,3.73,2.41,4.25,3.2.43.64,1.06,1.77,1.37,3.39,1.99-.19,5.25-.74,8.81-2.58,3.73-1.93,6.13-4.4,7.44-5.97.43.65.86,1.29,1.28,1.95Z"/>
          </g>
        </g>
      </g>
    </g>
  </g>
</svg>