<?xml version="1.0" encoding="UTF-8"?>
<svg id="Layer_2" data-name="Layer 2" xmlns="http://www.w3.org/2000/svg" viewBox="0 0 261.85 157.02">
  <defs>
    <style>
      .cls-1 {
        fill: #010443;
      }

      .cls-2, .cls-3 {
        fill: #e9b3b1;
      }

      .cls-4 {
        fill: #e68e7a;
      }

      .cls-5 {
        fill: #de6754;
      }

      .cls-6 {
        fill: #2e1806;
      }

      .cls-7 {
        fill: #2b5cbc;
      }

      .cls-7, .cls-8, .cls-9, .cls-10, .cls-11, .cls-12, .cls-13, .cls-14, .cls-15, .cls-16, .cls-17, .cls-18, .cls-19, .cls-20, .cls-21, .cls-22, .cls-23, .cls-3, .cls-24, .cls-25, .cls-26, .cls-27, .cls-28 {
        fill-rule: evenodd;
      }

      .cls-8 {
        fill: #2756b7;
      }

      .cls-9 {
        fill: #82baf2;
      }

      .cls-10 {
        fill: #4fa4b4;
      }

      .cls-11 {
        fill: #4d7cd2;
      }

      .cls-12 {
        fill: #1e2081;
      }

      .cls-13 {
        fill: #e3647d;
      }

      .cls-14 {
        fill: #dfdfde;
      }

      .cls-15 {
        fill: #da8786;
      }

      .cls-16 {
        fill: #d23f57;
      }

      .cls-17 {
        fill: #cedffb;
      }

      .cls-18 {
        fill: #db8342;
      }

      .cls-19 {
        fill: #d96a2a;
      }

      .cls-20 {
        fill: #992d2b;
      }

      .cls-21 {
        fill: #304483;
      }

      .cls-22 {
        fill: #b6d0f7;
      }

      .cls-23 {
        fill: #eff5fd;
      }

      .cls-24 {
        fill: #e64e69;
      }

      .cls-25 {
        fill: #fff;
      }

      .cls-26 {
        fill: #e99a56;
      }

      .cls-27 {
        fill: #eaa449;
      }

      .cls-28 {
        fill: #eceded;
      }
    </style>
  </defs>
  <g id="Layer_1-2" data-name="Layer 1">
    <path class="cls-23" d="m123.19,5.51c-13.26,4.56-25.87,14.31-35.8,23.41-20.68,18.94-23.77,22.92-49.28,38.82-14.87,9.27-26.59,17.11-32.37,27.59-16.23,29.45,3.1,61.25,43.6,61.25h164.63s19.37.4,33.5-15.33C295.36,87.9,215.92-26.34,123.19,5.51"/>
    <path class="cls-17" d="m136.7,61.46l-2.46-.5c-1.03-.21-1.8-1.08-1.87-2.12-.14-2.02-.53-3.99-1.14-5.88-.32-1,.07-2.09.94-2.67l2.09-1.39c1.09-.72,1.39-2.18.67-3.26l-2.65-4.01c-.72-1.09-2.18-1.38-3.27-.66l-2.09,1.38c-.88.58-2.03.51-2.82-.18-1.49-1.31-3.15-2.43-4.96-3.35-.94-.47-1.43-1.52-1.22-2.55l.5-2.46c.26-1.27-.56-2.52-1.84-2.78l-4.71-.96c-1.27-.26-2.52.56-2.78,1.84l-.5,2.46c-.21,1.03-1.07,1.8-2.12,1.87-2.02.14-3.99.52-5.87,1.14-1,.33-2.09-.06-2.67-.94l-1.38-2.09c-.72-1.09-2.18-1.38-3.26-.66l-4.01,2.65c-1.09.72-1.38,2.18-.66,3.27l1.38,2.09c.58.88.51,2.04-.18,2.82-1.3,1.49-2.43,3.16-3.35,4.96-.47.94-1.52,1.43-2.55,1.22l-2.46-.5c-1.27-.26-2.52.56-2.78,1.84l-.96,4.71c-.26,1.28.56,2.52,1.84,2.78l2.46.5c1.03.21,1.8,1.07,1.87,2.12.13,2.02.52,3.99,1.14,5.87.33,1-.06,2.09-.94,2.67l-2.1,1.38c-1.09.72-1.38,2.18-.66,3.27l2.65,4.01c.72,1.09,2.18,1.38,3.27.67l2.09-1.38c.88-.58,2.04-.51,2.83.18,1.49,1.3,3.15,2.43,4.96,3.35.94.47,1.43,1.53,1.22,2.55l-.5,2.46c-.26,1.27.56,2.52,1.84,2.78l4.71.96c1.27.26,2.52-.57,2.78-1.84l.5-2.46c.21-1.03,1.08-1.8,2.13-1.87,2.02-.14,3.99-.53,5.87-1.14,1-.33,2.09.06,2.67.94l1.38,2.09c.72,1.09,2.18,1.39,3.27.67l4.01-2.65c1.09-.72,1.39-2.18.67-3.27l-1.38-2.09c-.58-.88-.51-2.03.18-2.83,1.31-1.49,2.44-3.15,3.35-4.96.48-.94,1.52-1.43,2.55-1.22l2.46.5c1.27.26,2.52-.56,2.78-1.84l.96-4.71c.26-1.27-.56-2.52-1.84-2.78m-36.91-9.01c4.44-4.6,11.77-4.73,16.37-.29,4.6,4.44,4.73,11.77.29,16.37-4.44,4.6-11.77,4.73-16.37.29-4.6-4.44-4.73-11.77-.29-16.37Z"/>
    <path class="cls-21" d="m175.91,31.07c-34.65,0-62.74,28.09-62.74,62.74s28.09,62.74,62.74,62.74,62.74-28.09,62.74-62.74-28.09-62.74-62.74-62.74"/>
    <path class="cls-11" d="m175.91,39.34c-30.08,0-54.47,24.39-54.47,54.47s24.39,54.47,54.47,54.47,54.47-24.39,54.47-54.47-24.39-54.47-54.47-54.47"/>
    <path class="cls-25" d="m175.91,44.7c-27.12,0-49.1,21.98-49.1,49.1s21.98,49.1,49.1,49.1,49.1-21.98,49.1-49.1-21.98-49.1-49.1-49.1"/>
    <path class="cls-22" d="m175.91,44.7l.07,11.12-1.28,33.44,2.06,6.04,2.72,1.57,39.04,21.35c.31-.52.05-.08.35-.61,3.92-7.05,6.15-15.17,6.15-23.81,0-26.84-21.53-48.65-48.26-49.1-.65-.01-.19-.02-.84,0"/>
    <path class="cls-12" d="m174.7,53.57v40.9h2.43v-40.9c0-.67-.55-1.21-1.21-1.21s-1.21.55-1.21,1.21"/>
    <path class="cls-12" d="m139.83,120.68l36.61-27-.41-.56-36.61,27c-.15.11-.19.33-.07.49.11.15.33.19.49.07"/>
    <path class="cls-19" d="m201.88,107.01l-18.99-10.96c.23-.71.35-1.46.35-2.24,0-4.05-3.28-7.33-7.33-7.33s-7.33,3.28-7.33,7.33,3.28,7.33,7.33,7.33c2.4,0,4.53-1.15,5.87-2.94l18.89,10.91c.58.33,1.32.13,1.66-.44h0c.33-.58.13-1.32-.44-1.66"/>
    <polygon class="cls-12" points="210.92 73.59 216.5 72.71 214.47 69.2 210.92 73.59"/>
    <polygon class="cls-12" points="140.9 114.02 135.32 114.9 137.35 118.41 140.9 114.02"/>
    <polygon class="cls-12" points="196.12 58.79 200.52 55.24 197 53.22 196.12 58.79"/>
    <polygon class="cls-12" points="155.7 128.81 151.31 132.36 154.82 134.39 155.7 128.81"/>
    <polygon class="cls-12" points="140.9 73.59 137.35 69.2 135.32 72.71 140.9 73.59"/>
    <polygon class="cls-12" points="210.92 114.02 214.47 118.41 216.5 114.9 210.92 114.02"/>
    <polygon class="cls-12" points="155.7 58.79 154.82 53.22 151.31 55.24 155.7 58.79"/>
    <polygon class="cls-12" points="196.12 128.81 197 134.39 200.52 132.36 196.12 128.81"/>
    <polygon class="cls-12" points="135.49 93.8 130.21 91.78 130.21 95.83 135.49 93.8"/>
    <polygon class="cls-12" points="216.34 93.8 221.61 95.83 221.61 91.78 216.34 93.8"/>
    <polygon class="cls-12" points="175.91 53.38 177.94 48.11 173.88 48.11 175.91 53.38"/>
    <polygon class="cls-12" points="175.91 134.23 173.88 139.5 177.94 139.5 175.91 134.23"/>
    <path class="cls-25" d="m175.91,89.98c-2.11,0-3.83,1.71-3.83,3.83s1.71,3.83,3.83,3.83,3.83-1.71,3.83-3.83-1.71-3.83-3.83-3.83"/>
    <path class="cls-9" d="m125.76,76.06H54.46c-2.35,0-4.27,1.92-4.27,4.27v71.99c0,2.35,1.92,4.27,4.27,4.27h71.3c2.35,0,4.27-1.92,4.27-4.27v-71.99c0-2.35-1.92-4.27-4.27-4.27"/>
    <path class="cls-16" d="m126.62,74.6H53.6c-1.88,0-3.41,1.53-3.41,3.41v11.48h79.84v-11.48c0-1.88-1.53-3.41-3.41-3.41"/>
    <path class="cls-25" d="m121.55,76.06H50.25c-2.35,0-4.27,1.92-4.27,4.27v71.99c0,2.35,1.92,4.27,4.27,4.27h71.3c2.35,0,4.27-1.92,4.27-4.27v-71.99c0-2.35-1.92-4.27-4.27-4.27"/>
    <path class="cls-13" d="m122.41,74.6H49.39c-1.88,0-3.41,1.53-3.41,3.41v11.48h79.84v-11.48c0-1.88-1.53-3.41-3.41-3.41"/>
    <path class="cls-13" d="m120.35,93.58h-9.31c-.35,0-.64.29-.64.64v9.31c0,.35.29.64.64.64h9.31c.35,0,.64-.29.64-.64v-9.31c0-.35-.29-.64-.64-.64"/>
    <path class="cls-9" d="m105.4,93.58h-9.31c-.35,0-.64.29-.64.64v9.31c0,.35.29.64.64.64h9.31c.35,0,.64-.29.64-.64v-9.31c0-.35-.29-.64-.64-.64"/>
    <path class="cls-13" d="m90.45,93.58h-9.31c-.35,0-.64.29-.64.64v9.31c0,.35.29.64.64.64h9.31c.35,0,.64-.29.64-.64v-9.31c0-.35-.29-.64-.64-.64"/>
    <path class="cls-9" d="m75.5,93.58h-9.31c-.35,0-.64.29-.64.64v9.31c0,.35.29.64.64.64h9.31c.35,0,.64-.29.64-.64v-9.31c0-.35-.29-.64-.64-.64"/>
    <path class="cls-9" d="m60.55,93.58h-9.31c-.35,0-.64.29-.64.64v9.31c0,.35.29.64.64.64h9.31c.35,0,.64-.29.64-.64v-9.31c0-.35-.29-.64-.64-.64"/>
    <path class="cls-13" d="m120.35,108.52h-9.31c-.35,0-.64.29-.64.64v9.31c0,.35.29.64.64.64h9.31c.35,0,.64-.29.64-.64v-9.31c0-.35-.29-.64-.64-.64"/>
    <path class="cls-13" d="m120.35,123.47h-9.31c-.35,0-.64.29-.64.64v9.31c0,.35.29.64.64.64h9.31c.35,0,.64-.29.64-.64v-9.31c0-.35-.29-.64-.64-.64"/>
    <path class="cls-13" d="m105.4,108.52h-9.31c-.35,0-.64.29-.64.64v9.31c0,.35.29.64.64.64h9.31c.35,0,.64-.29.64-.64v-9.31c0-.35-.29-.64-.64-.64"/>
    <path class="cls-13" d="m90.55,108.52h-9.31c-.35,0-.64.29-.64.64v9.31c0,.35.29.64.64.64h9.31c.35,0,.64-.29.64-.64v-9.31c0-.35-.29-.64-.64-.64"/>
    <path class="cls-13" d="m105.4,123.47h-9.31c-.35,0-.64.29-.64.64v9.31c0,.35.29.64.64.64h9.31c.35,0,.64-.29.64-.64v-9.31c0-.35-.29-.64-.64-.64"/>
    <path class="cls-9" d="m90.45,123.47h-9.31c-.35,0-.64.29-.64.64v9.31c0,.35.29.64.64.64h9.31c.35,0,.64-.29.64-.64v-9.31c0-.35-.29-.64-.64-.64"/>
    <path class="cls-13" d="m75.5,108.52h-9.31c-.35,0-.64.29-.64.64v9.31c0,.35.29.64.64.64h9.31c.35,0,.64-.29.64-.64v-9.31c0-.35-.29-.64-.64-.64"/>
    <path class="cls-13" d="m75.5,123.47h-9.31c-.35,0-.64.29-.64.64v9.31c0,.35.29.64.64.64h9.31c.35,0,.64-.29.64-.64v-9.31c0-.35-.29-.64-.64-.64"/>
    <path class="cls-9" d="m60.55,108.52h-9.31c-.35,0-.64.29-.64.64v9.31c0,.35.29.64.64.64h9.31c.35,0,.64-.29.64-.64v-9.31c0-.35-.29-.64-.64-.64"/>
    <path class="cls-9" d="m60.55,123.47h-9.31c-.35,0-.64.29-.64.64v9.31c0,.35.29.64.64.64h9.31c.35,0,.64-.29.64-.64v-9.31c0-.35-.29-.64-.64-.64"/>
    <path class="cls-16" d="m109.65,79.07c-1.41,0-2.56,1.15-2.56,2.56s1.15,2.56,2.56,2.56,2.56-1.15,2.56-2.56-1.15-2.56-2.56-2.56"/>
    <path class="cls-21" d="m112.63,67.99c-1.67,0-3.17.87-4.24,2.28-1.01,1.33-1.64,3.16-1.64,5.16s.63,3.83,1.64,5.16c.91,1.2,2.14,2.02,3.52,2.23.19-.36.3-.76.3-1.19,0-.24-.03-.47-.1-.69h.02c-.86-.15-1.64-.69-2.24-1.48-.77-1.02-1.25-2.44-1.25-4.02s.48-3.01,1.25-4.02c.72-.94,1.68-1.52,2.74-1.52s2.02.58,2.74,1.52c.63.84,1.07,1.95,1.2,3.2h1.9c-.15-1.67-.73-3.19-1.61-4.34-1.07-1.41-2.57-2.28-4.24-2.28"/>
    <path class="cls-16" d="m97.01,79.07c-1.41,0-2.56,1.15-2.56,2.56s1.15,2.56,2.56,2.56,2.56-1.15,2.56-2.56-1.15-2.56-2.56-2.56"/>
    <path class="cls-16" d="m84.37,79.07c-1.41,0-2.56,1.15-2.56,2.56s1.15,2.56,2.56,2.56,2.56-1.15,2.56-2.56-1.15-2.56-2.56-2.56"/>
    <path class="cls-16" d="m71.74,79.07c-1.41,0-2.56,1.15-2.56,2.56s1.15,2.56,2.56,2.56,2.56-1.15,2.56-2.56-1.15-2.56-2.56-2.56"/>
    <path class="cls-20" d="m59.1,79.07c-1.41,0-2.56,1.15-2.56,2.56s1.15,2.56,2.56,2.56,2.56-1.15,2.56-2.56-1.15-2.56-2.56-2.56"/>
    <path class="cls-21" d="m99.99,67.99c-1.67,0-3.17.87-4.24,2.28-1.01,1.33-1.64,3.16-1.64,5.16s.63,3.83,1.64,5.16c.91,1.2,2.14,2.02,3.52,2.23.19-.36.3-.76.3-1.19,0-.24-.03-.47-.1-.69h.02c-.86-.15-1.64-.69-2.24-1.48-.77-1.02-1.25-2.44-1.25-4.02s.48-3.01,1.25-4.02c.72-.94,1.68-1.52,2.74-1.52s2.02.58,2.74,1.52c.63.84,1.07,1.95,1.2,3.2h1.9c-.15-1.67-.73-3.19-1.61-4.34-1.07-1.41-2.57-2.28-4.24-2.28"/>
    <path class="cls-21" d="m87.35,67.99c-1.67,0-3.17.87-4.24,2.28-1.01,1.33-1.64,3.16-1.64,5.16s.63,3.83,1.64,5.16c.91,1.2,2.14,2.02,3.52,2.23.19-.36.3-.76.3-1.19,0-.24-.03-.47-.1-.69h.02c-.86-.15-1.64-.69-2.24-1.48-.77-1.02-1.25-2.44-1.25-4.02s.48-3.01,1.25-4.02c.72-.94,1.68-1.52,2.74-1.52s2.02.58,2.74,1.52c.63.84,1.07,1.95,1.2,3.2h1.9c-.15-1.67-.73-3.19-1.61-4.34-1.07-1.41-2.57-2.28-4.24-2.28"/>
    <path class="cls-21" d="m74.71,67.99c-1.67,0-3.17.87-4.24,2.28-1.01,1.33-1.64,3.16-1.64,5.16s.63,3.83,1.64,5.16c.91,1.2,2.14,2.02,3.52,2.23.19-.36.3-.76.3-1.19,0-.24-.03-.47-.1-.69h.02c-.86-.15-1.64-.69-2.24-1.48-.77-1.02-1.25-2.44-1.25-4.02s.48-3.01,1.25-4.02c.72-.94,1.68-1.52,2.74-1.52s2.02.58,2.74,1.52c.63.84,1.07,1.95,1.2,3.2h1.9c-.15-1.67-.73-3.19-1.61-4.34-1.07-1.41-2.57-2.28-4.24-2.28"/>
    <path class="cls-21" d="m62.08,67.99c-1.67,0-3.17.87-4.24,2.28-1.01,1.33-1.64,3.16-1.64,5.16s.63,3.83,1.64,5.16c.91,1.2,2.14,2.02,3.52,2.23.19-.36.3-.76.3-1.19,0-.24-.03-.47-.1-.69h.02c-.86-.15-1.64-.69-2.24-1.48-.77-1.02-1.25-2.44-1.25-4.02s.48-3.01,1.25-4.02c.72-.94,1.68-1.52,2.74-1.52s2.02.58,2.74,1.52c.63.84,1.07,1.95,1.2,3.2h1.9c-.15-1.67-.73-3.19-1.61-4.34-1.07-1.41-2.57-2.28-4.24-2.28"/>
    <path class="cls-9" d="m105.4,138.31h-9.31c-.35,0-.64.29-.64.64v9.31c0,.35.29.64.64.64h9.31c.35,0,.64-.29.64-.64v-9.31c0-.35-.29-.64-.64-.64"/>
    <path class="cls-9" d="m90.45,138.31h-9.31c-.35,0-.64.29-.64.64v9.31c0,.35.29.64.64.64h9.31c.35,0,.64-.29.64-.64v-9.31c0-.35-.29-.64-.64-.64"/>
    <path class="cls-9" d="m75.5,138.31h-9.31c-.35,0-.64.29-.64.64v9.31c0,.35.29.64.64.64h9.31c.35,0,.64-.29.64-.64v-9.31c0-.35-.29-.64-.64-.64"/>
    <path class="cls-9" d="m60.55,138.31h-9.31c-.35,0-.64.29-.64.64v9.31c0,.35.29.64.64.64h9.31c.35,0,.64-.29.64-.64v-9.31c0-.35-.29-.64-.64-.64"/>
    <path class="cls-13" d="m120.35,138.31h-9.31c-.35,0-.64.29-.64.64v9.31c0,.35.29.64.64.64h9.31c.35,0,.64-.29.64-.64v-9.31c0-.35-.29-.64-.64-.64"/>
    <rect class="cls-1" x="18.51" y="156.42" width="236.82" height=".42"/>
    <path class="cls-21" d="m42.17,104.24s.22.68.16,1.86c-.06,1.18.29,2.18.88,3.14.59.96.19,3.01-.01,3.15-.2.13-2.9,1.43-3.5,1.54-.6.11-4.2-2.33-4.2-2.33l-.47-2.88,7.14-4.48Z"/>
    <path class="cls-2" d="m42.17,116.73l2.29,18.96-1.17,17.91c.04.05.08.11.12.16.03.04.06.08.09.12.07.09.14.18.21.27.03.04.06.07.1.11.53.58,1.21.72,1.76.86.43.11.76.16,1.06.73,0,.02.02.04.02.05.06.21-.1.42-.32.42l-5.11-.16c-.25,0-.45-.2-.48-.44,0-.03,0-.07,0-.1l.34-2.23s0,0,0,0c-.12-4.35-1.11-10.73-.3-15.82,0,0-4.83-9.54-4.81-9.77.02-.23,6.2-11.05,6.2-11.05"/>
    <path class="cls-2" d="m38.94,133.77c-.22,1.92,1.11,3.05.89,4.97,0,4.8-3.36,10.33-4.5,15.17-.04.16.25,1.68.22,1.84-.5.54-1.94,1.3-2.1-1.19.64-4.18,1.44-10.94,3.1-16.03l-1.05-5.07,3.44.31Z"/>
    <path class="cls-21" d="m45.79,123.26c1.11,3.67.53,10.71-.05,16.74-4.15,1.07-10.26.78-11.78-.51,1.02-7.86,1.54-15.41,3.16-16.8,3.43-8.01,8.16-1.46,8.67.58"/>
    <path class="cls-24" d="m45.08,113.07s-1.48,3.31-.37,5.95c.02.05,5.76.56,9,.22,1.83-.19,2.6-.82,1.72-1.57-.9-.78-7.75-.13-8.22-1.22-1.34-3.12-.96-5.01-3.31-6.58-.27-.17.4,2.02,1.19,3.2"/>
    <path class="cls-13" d="m34.55,110.81c-.98,3.98,2.93,4.48,2.05,12.52,2.93.41,6.67.55,9.19-.07-.4-2.96-.07-5.98.05-7.59.18-2.43-.51-4.02-1.38-5.37-.86-1.33-8.26-1.95-9.91.51"/>
    <path class="cls-3" d="m41.19,108.24l.02.98.14.12c.56.6-.05,1.83-.69,1.79-1.61.07-2.85-1.25-2.36-1.97l.21-.23.05-1.39c-.08,0-.69-.35-.87-.41-.18-.06-.44-.4-.46-.77-.02-.37.55-.25.55-.25-.68-.94-1.46-1.71-.45-2.55,1.01-.84,3.33-1.33,3.33-1.33l1.39-.48c-.18.48-.12,1.51.23,2.51.5,1.43.09,3.37-1.1,3.97"/>
    <path class="cls-15" d="m39.22,107.74s.78,1.35,1.43,1.48c.65.12.32.03.56,0l-.02-.98c-.45.07-.88.03-1.97-.5"/>
    <path class="cls-21" d="m39.48,104.88s2.07.04,2.81-.61c1.29-1.11.55-4.4-3.45-3.22-3.18.93-1.93,4.72-6.02,6.16-2.17.76-3.01,2.98-1.43,5.83,0,0,.07-1.06.92-1.17-.91,1.9.31,2.99.59,3.24-.27-2.7,1.15-4.81,5.25-5.69,1.48-1.08-.94-4.2,1.31-4.53"/>
    <path class="cls-21" d="m45.42,154.94s1.78.49,1.7,1.04c-.16,1.11-6.27.38-6.3.34-.22-.27-.24-1.52.05-1.89.22-.28,2.61,1.21,4.55.52"/>
    <path class="cls-21" d="m36.11,156.53c-.04.71-2.61.51-2.99.29-.57-.32.13-2.55.34-2.31,0,0,.67,1.05,1.46.84.79-.21.51-.45.65-.18.25.5.58.7.54,1.35"/>
    <polygon class="cls-11" points="68.31 108.4 68.62 108.98 66.12 110.71 65.39 109.33 68.31 108.4"/>
    <path class="cls-27" d="m58.56,111.18l7.31-2.03c.41.36.6.84.7,1.31l-5.89,4.7-1.77-2.49-.35-1.48Z"/>
    <path class="cls-11" d="m60.68,115.15l-31.49,16.79-2.12-3.98,31.49-16.79c.41-.22,1.21.5,1.8,1.59.59,1.1.73,2.16.32,2.38"/>
    <path class="cls-8" d="m28.87,129.56c.59,1.1.73,2.16.32,2.38-.41.22-1.21-.5-1.8-1.59-.59-1.1-.73-2.16-.32-2.38.41-.22,1.21.5,1.8,1.59"/>
    <path class="cls-13" d="m35.95,110.15c-3.63,1.13-4.89,7.8-4.37,10.02.44,1.8,5.97,4.4,7.53,3.91.75-.24.41-1.18.4-1.47-1.53-.85-4.64-2.89-4.69-3.34-.05-1.25.49-3.21,1.11-4.13.91-1.33,2.08-5.13.01-5"/>
    <path class="cls-3" d="m39.33,122.77l.54.25c.2.03,2.4.23,2.02.6-.07.06-.1.06-.2.06-.2-.02-.47-.09-.46-.08.13.33.73.65.75.68.09.21-1.18.52-1.34.48-1.3-.34-.41-.33-1.91-.68-.84-.19.3-1.22.61-1.32"/>
    <path class="cls-3" d="m53.71,119.24c-.11-.11-.1-.52-.23-.69-.19-.25-.13-.22-.14-.29-.01-.11,1.11-1.3,2.09-.59.01.04.58-.16.61-.13.14.15-.13.77-.22,1.02-.17.75-1.67.78-2.12.67"/>
    <path class="cls-11" d="m185.37,136.84h26.55c1.84,0,3.35,2.2,3.35,4.89h0c0,2.69-1.51,4.9-3.35,4.9h-26.55c-1.84,0-3.35-2.2-3.35-4.9h0c0-2.69,1.51-4.9,3.35-4.9"/>
    <path class="cls-7" d="m193.08,136.84h9.52c-1.84,0-3.35,2.2-3.35,4.9h0c0,2.69,1.51,4.9,3.35,4.9h-9.52c-1.84,0-3.35-2.2-3.35-4.9h0c0-2.69,1.51-4.9,3.35-4.9"/>
    <path class="cls-28" d="m210.68,145.14h25.12c-1.04-1.75-1.45-4.24,0-6.81h-25.12c-.84,0-1.53,1.53-1.53,3.4s.69,3.4,1.53,3.4"/>
    <path class="cls-14" d="m234.86,141.86c-.02-1.11.25-2.32.94-3.53h-25.12c-.84,0-1.53,1.53-1.53,3.4,0,.04,0,.09,0,.13h25.71Z"/>
    <path class="cls-7" d="m236.59,146.63h-25.99c-1.21,0-2.49-2.23-2.49-4.92s1.28-4.87,2.49-4.87h25.99v1.47s-25.9.03-25.9.03c-.84,0-1.53,1.53-1.53,3.4s.69,3.4,1.53,3.4l25.89-.03v1.52Z"/>
    <path class="cls-26" d="m233.31,146.63h-26.59c-1.85,0-3.35,2.2-3.35,4.89h0c0,2.69,1.51,4.9,3.35,4.9h26.59c1.84,0,3.35-2.2,3.35-4.9h0c0-2.69-1.51-4.9-3.35-4.9"/>
    <path class="cls-18" d="m225.59,146.63h-9.54c1.85,0,3.35,2.2,3.35,4.9h0c0,2.69-1.51,4.9-3.35,4.9h9.54c1.84,0,3.35-2.2,3.35-4.9h0c0-2.69-1.51-4.9-3.35-4.9"/>
    <path class="cls-28" d="m207.96,154.93h-25.16c1.04-1.75,1.45-4.24,0-6.81h25.16c.84,0,1.53,1.53,1.53,3.4s-.69,3.4-1.53,3.4"/>
    <path class="cls-14" d="m183.74,151.66c.02-1.11-.25-2.32-.94-3.53h25.16c.84,0,1.53,1.53,1.53,3.4,0,.04,0,.09,0,.13h-25.75Z"/>
    <path class="cls-18" d="m182.02,156.42h26.03c1.21,0,2.49-2.23,2.49-4.92s-1.28-4.87-2.49-4.87h-26.03v1.47s25.94.03,25.94.03c.84,0,1.53,1.53,1.53,3.4s-.69,3.4-1.53,3.4l-25.93-.03v1.52Z"/>
    <path class="cls-10" d="m218.53,139.58h2.88c1.1.61.79,3.01,1.44,4.58l-1.7-1.3-1.23,1.22c-.96-1.43-.41-3.86-1.39-4.5"/>
    <path d="m53.66,101.14l1.53-2.24-1.38-2.01h1.13l.88,1.35h.03l.87-1.35h1.06l-1.39,2.01,1.53,2.24h-1.13l-1.02-1.57h-.03l-1.02,1.57h-1.07Z"/>
    <path d="m68.72,101.14l1.53-2.24-1.38-2.01h1.13l.88,1.35h.03l.87-1.35h1.06l-1.39,2.01,1.53,2.24h-1.13l-1.02-1.57h-.03l-1.02,1.57h-1.07Z"/>
    <path d="m68.72,145.99l1.53-2.24-1.38-2.01h1.13l.88,1.35h.03l.87-1.35h1.06l-1.39,2.01,1.53,2.24h-1.13l-1.02-1.57h-.03l-1.02,1.57h-1.07Z"/>
    <path d="m98.62,101.14l1.53-2.24-1.38-2.01h1.13l.88,1.35h.03l.87-1.35h1.06l-1.39,2.01,1.53,2.24h-1.13l-1.02-1.57h-.03l-1.02,1.57h-1.07Z"/>
    <path d="m98.62,145.99l1.53-2.24-1.38-2.01h1.13l.88,1.35h.03l.87-1.35h1.06l-1.39,2.01,1.53,2.24h-1.13l-1.02-1.57h-.03l-1.02,1.57h-1.07Z"/>
    <path d="m83.77,130.84l1.53-2.24-1.38-2.01h1.13l.88,1.35h.03l.87-1.35h1.06l-1.39,2.01,1.53,2.24h-1.13l-1.02-1.57h-.03l-1.02,1.57h-1.07Z"/>
    <path d="m83.77,145.99l1.53-2.24-1.38-2.01h1.13l.88,1.35h.03l.87-1.35h1.06l-1.39,2.01,1.53,2.24h-1.13l-1.02-1.57h-.03l-1.02,1.57h-1.07Z"/>
    <path d="m53.66,130.84l1.53-2.24-1.38-2.01h1.13l.88,1.35h.03l.87-1.35h1.06l-1.39,2.01,1.53,2.24h-1.13l-1.02-1.57h-.03l-1.02,1.57h-1.07Z"/>
    <path d="m53.66,145.73l1.53-2.24-1.38-2.01h1.13l.88,1.35h.03l.87-1.35h1.06l-1.39,2.01,1.53,2.24h-1.13l-1.02-1.57h-.03l-1.02,1.57h-1.07Z"/>
    <path d="m85.5,100.31l-.31-4.43h1.43l-.32,4.43h-.79Zm-.25,1.84v-1.28h1.3v1.28h-1.3Z"/>
    <path d="m85.5,115.31l-.31-4.43h1.43l-.32,4.43h-.79Zm-.25,1.84v-1.28h1.3v1.28h-1.3Z"/>
    <path d="m70.45,115.31l-.31-4.43h1.43l-.32,4.43h-.79Zm-.25,1.84v-1.28h1.3v1.28h-1.3Z"/>
    <path d="m115.24,115.31l-.31-4.43h1.43l-.32,4.43h-.79Zm-.25,1.84v-1.28h1.3v1.28h-1.3Z"/>
    <path d="m115.24,100.17l-.31-4.43h1.43l-.32,4.43h-.79Zm-.25,1.84v-1.28h1.3v1.28h-1.3Z"/>
    <path d="m100.2,115.31l-.31-4.43h1.43l-.32,4.43h-.79Zm-.25,1.84v-1.28h1.3v1.28h-1.3Z"/>
    <path d="m70.45,130.11l-.31-4.43h1.43l-.32,4.43h-.79Zm-.25,1.84v-1.28h1.3v1.28h-1.3Z"/>
    <path d="m115.3,130.11l-.31-4.43h1.43l-.32,4.43h-.79Zm-.25,1.84v-1.28h1.3v1.28h-1.3Z"/>
    <path d="m115.3,144.9l-.31-4.43h1.43l-.32,4.43h-.79Zm-.25,1.84v-1.28h1.3v1.28h-1.3Z"/>
    <path d="m100.35,130.11l-.31-4.43h1.43l-.32,4.43h-.79Zm-.25,1.84v-1.28h1.3v1.28h-1.3Z"/>
    <g>
      <path class="cls-4" d="m41.46,104.81c-.07,0-.13.06-.18.1-.05.05-.1.1-.14.16-.08.11-.14.24-.18.37-.07.28,0,.57.19.79.1.12.24.25.4.27.05,0,.06-.05.03-.08-.06-.06-.13-.1-.2-.15-.06-.05-.12-.11-.16-.18-.09-.13-.15-.28-.15-.44,0-.15.04-.31.12-.44.04-.07.09-.14.14-.19.05-.06.13-.1.17-.17.02-.03,0-.06-.03-.06h0Z"/>
      <path class="cls-4" d="m41.55,106.43c-.04.06-.08.12-.12.19-.04.07-.07.14-.11.2-.03.06.08.11.11.04.03-.07.06-.13.09-.2.03-.07.05-.14.08-.21.01-.03-.03-.06-.05-.03h0Z"/>
      <path class="cls-6" d="m40.06,105.49s0,0,0,0c-.02.01-.03.04-.02.06,0,.03.02.06.02.09,0,.02,0,.04,0,.05,0,.03-.02.03.01.03.03,0,.02,0,.02-.03,0-.02,0-.04,0-.06,0-.02,0-.04,0-.06,0,0,0-.01,0-.02,0-.03,0-.03-.02,0h-.04s-.03-.01-.02,0c0,0,0,.02,0,.02,0,.02,0,.04,0,.06,0,.04,0,.07-.01.11-.02.09.13.13.16.04.02-.06.03-.13.02-.2,0-.06-.03-.13-.08-.17-.05-.04-.13-.03-.16.03-.04.06-.02.15-.01.21,0,.06.02.13.06.17.04.04.11.04.16,0,.09-.08.08-.26,0-.34-.02-.02-.05-.03-.07-.02,0,0,0,0-.01,0h0Z"/>
      <path class="cls-6" d="m41.74,105.34s0,.06,0,.09c0,.02,0,.06,0,.08,0,0,0,0,0,.01.02,0,.04,0,.05,0,0,0,0-.03,0-.04,0-.03,0-.06,0-.09,0,0,0-.03,0-.04,0-.02,0-.02-.03,0-.03,0-.04,0-.03,0,0,.01,0,.04.01.06,0,.05,0,.09-.03.13-.05.09.08.19.13.1.06-.1.09-.24.03-.35-.03-.05-.08-.1-.14-.08-.07.02-.08.09-.09.15,0,.08.01.31.14.27.14-.04.08-.24.04-.33-.02-.05-.08-.02-.08.02h0Z"/>
      <path class="cls-5" d="m41.61,107.23c-.16.16-.39.27-.62.23-.1-.02-.2-.07-.29-.13-.08-.07-.15-.16-.21-.24-.03-.04-.11,0-.1.04.02.07.04.12.08.17.04.05.09.09.14.13.1.07.23.12.35.14.26.02.54-.09.67-.31,0-.02,0-.04-.02-.02h0Z"/>
    </g>
  </g>
</svg>