<?xml version="1.0" encoding="UTF-8"?>
<svg id="Layer_2" data-name="Layer 2" xmlns="http://www.w3.org/2000/svg" viewBox="0 0 413.17 350.23">
  <defs>
    <style>
      .cls-1 {
        fill: #f4c08a;
      }

      .cls-2 {
        fill: #f6cca1;
      }

      .cls-3 {
        fill: #fff;
      }

      .cls-4 {
        fill: #ecdfd6;
      }

      .cls-5 {
        fill: #ba593f;
      }

      .cls-6 {
        fill: #8f5e34;
      }

      .cls-7 {
        fill: #d07056;
      }

      .cls-8 {
        fill: #a56952;
      }

      .cls-9 {
        fill: #bf8c67;
      }

      .cls-10 {
        fill: #ccb6a8;
      }

      .cls-11 {
        fill: #dc9c5e;
      }

      .cls-12 {
        fill: #e28764;
      }

      .cls-13 {
        fill: #dee6fb;
      }

      .cls-14 {
        fill: #090b1b;
      }

      .cls-15 {
        fill: #363844;
      }

      .cls-16 {
        fill: #86ba96;
      }

      .cls-17 {
        fill: #2b3267;
      }

      .cls-18 {
        fill: #2d4c3a;
      }

      .cls-19 {
        fill: #272935;
      }

      .cls-20 {
        fill: #75777f;
      }

      .cls-21 {
        fill: #4c5698;
      }

      .cls-22 {
        fill: #7c4632;
      }

      .cls-23 {
        fill: #507c63;
      }
    </style>
  </defs>
  <g id="Layer_1-2" data-name="Layer 1">
    <g>
      <path class="cls-13" d="m404.78,275.71l-37.49,26.17L2.34,286.89s-8.65-67.07,7.32-99.81c8.02-16.46,14.98-37.02,20.85-57.6.35-1.24.69-2.48,1.05-3.71,4.73-16.97,8.72-33.78,11.96-48.16.08-.31.15-.61.22-.93.34-1.49.67-2.97.99-4.41,2.46-11.03,6.13-20.97,11.1-29.75.26-.45.51-.89.77-1.33,6.57-11.17,15.31-20.4,26.39-27.56,1.05-.67,2.11-1.33,3.19-1.96,4.81-2.82,10.02-5.28,15.67-7.36,31.51-11.63,106.37,3.11,146.19,11.09,39.82,7.99,92.2,42.58,103.65,81.54,11.44,38.96,35.4,20.13,47.32,62.87,11.92,42.74,5.78,115.9,5.78,115.9Z"/>
      <path class="cls-4" d="m105.48,234.59c-.22,0-.4-.18-.4-.4V4.31c0-.22.18-.4.4-.4s.4.18.4.4v229.88c0,.22-.18.4-.4.4Z"/>
      <path class="cls-4" d="m404.78,275.71s-1.56,4.22-5.78,10.63c-.16.24-.32.49-.49.73-2,2.96-4.54,6.34-7.72,9.97-.21.24-.42.47-.64.71-2.77,3.1-6.02,6.36-9.81,9.67-.26.23-.53.46-.8.69-3.6,3.1-7.67,6.24-12.26,9.31-.33.22-.66.45-1.01.66-2.22,1.47-4.56,2.91-7.02,4.34-2.75,1.59-5.56,3.1-8.42,4.53-.42.22-.84.42-1.26.63-6.33,3.11-12.92,5.85-19.68,8.26-.54.2-1.09.39-1.64.57-8.53,2.95-17.32,5.38-26.21,7.33-.76.17-1.52.33-2.28.48-13.32,2.79-26.85,4.52-40.06,5.36-1.34.09-2.68.17-4.02.23-2.43.12-4.84.22-7.23.28-58.24,1.54-111.45-10.14-166.22-24.98-2.06-.56-4.13-1.12-6.2-1.69-7.19-1.96-14.4-3.98-21.66-6.03-26.1-7.35-25.7-7.91-38.48-13.41-.2-.09-.4-.18-.59-.26h0c-.76-.35-1.48-.73-2.15-1.12-6.48-3.74-9.1-9.11-10.15-12.5-.09-.3-.17-.57-.24-.84-.38-1.45-.44-2.36-.44-2.36l13.64-6.82,1.25-.63,17.22-8.61,1.25-.63,17.22-8.61,1.25-.62,17.22-8.62,1.25-.62,17.22-8.62,1.26-.62,14.35-7.18,299.3,40.4Z"/>
      <g>
        <path class="cls-10" d="m399,286.34c-.16.24-.32.49-.49.73l-238.21-33.92-1.27-.18-69.17-9.85,1.26-.62,307.87,43.85Z"/>
        <path class="cls-10" d="m390.79,297.04c-.21.24-.42.47-.64.71l-94.54-13.46-1.31-.18-151.08-21.52h-.03l-71.8-10.23,1.25-.62,70.44,10.03,1.3.18h0l151.07,21.52h.02l95.3,13.57Z"/>
        <path class="cls-10" d="m380.35,307.42c-.26.23-.53.46-.8.69l-326.63-46.52,1.25-.62,224.2,31.92,1.29.18,100.68,14.34Z"/>
        <path class="cls-10" d="m367.29,317.42c-.33.22-.66.45-1.01.66l-148.55-21.15-1.33-.19-123.77-17.62-1.32-.19-56.87-8.1,1.25-.63,331.59,47.22Z"/>
        <path class="cls-10" d="m350.85,326.95c-.42.22-.84.42-1.26.63L15.98,280.07l1.25-.63,58.14,8.28,1.32.19,123.78,17.62,1.32.19,149.07,21.22Z"/>
        <path class="cls-10" d="m329.91,335.84c-.54.2-1.09.39-1.64.57l-191.55-27.28-1.33-.19L3.02,290.09c-.09-.3-.17-.57-.24-.84l327.13,46.58Z"/>
        <path class="cls-10" d="m302.06,343.74c-.76.17-1.52.33-2.28.48l-47.78-6.8-1.32-.18L15.32,303.71h0c-.76-.35-1.48-.73-2.15-1.12l106.3,15.14,1.31.18,181.28,25.82Z"/>
        <path class="cls-10" d="m259.72,349.58c-1.34.09-2.68.17-4.02.23l-173.45-24.7c-2.06-.56-4.13-1.12-6.2-1.69l158.68,22.6,1.32.19,23.67,3.37Z"/>
        <rect class="cls-10" x="74.24" y="283.02" width="19.54" height=".8" transform="translate(-126.42 75.8) rotate(-28.87)"/>
        <rect class="cls-10" x="199.4" y="300.8" width="19.54" height=".8" transform="translate(-119.43 138.42) rotate(-28.87)"/>
        <rect class="cls-10" x="233.68" y="341.28" width="19.54" height=".8" transform="translate(-134.71 159.99) rotate(-28.87)"/>
        <rect class="cls-10" x="277.35" y="288.12" width="19.54" height=".8" transform="translate(-103.62 174.47) rotate(-28.87)"/>
        <rect class="cls-10" x="118.38" y="313" width="19.54" height=".8" transform="translate(-135.39 100.82) rotate(-28.87)"/>
        <rect class="cls-10" x="141.8" y="257.14" width="19.54" height=".8" transform="translate(-105.5 105.18) rotate(-28.87)"/>
      </g>
      <g>
        <path class="cls-20" d="m296.83,289.27s-29.38,15.44-40.56,24.91c-11.2,9.46-25.78,15.18-25.78,15.18l-32.74-4.59h-.02l-4.57-.65h-.03l-100.04-14.01-4.61-.65-29.68-4.16s49.06-23.71,56.46-27.84c7.4-4.13,18.39-11.31,18.39-11.31,0,0,11.23,1.79,26.77,4.23.68.1,1.36.22,2.05.33,27.85,4.37,68,10.6,83.22,12.61,6.4.84,12.97,1.65,19.19,2.4h0c.77.09,1.54.18,2.3.26h0c16.35,1.93,29.62,3.3,29.62,3.3Z"/>
        <path class="cls-19" d="m93.05,302.07c-3.85-.88-7.74-1.55-11.66-2.03-.51-.06-.69.71-.19.78,3.92.48,7.8,1.15,11.66,2.03.5.11.69-.66.19-.78Z"/>
        <path class="cls-19" d="m152.95,308.95c-3.85-.88-7.74-1.55-11.66-2.03-.51-.06-.69.71-.19.78,3.92.48,7.81,1.15,11.66,2.03.5.11.69-.66.19-.78Z"/>
        <path class="cls-19" d="m197.05,308.65c-3.85-.88-7.74-1.55-11.66-2.03-.51-.06-.69.71-.19.78,3.92.48,7.81,1.15,11.66,2.03.5.11.69-.66.19-.78Z"/>
        <path class="cls-19" d="m243.53,302.5c-3.85-.88-7.74-1.55-11.66-2.03-.51-.06-.69.71-.19.78,3.92.48,7.8,1.15,11.66,2.03.5.11.69-.66.19-.78Z"/>
        <path class="cls-19" d="m231.71,320.49c-3.85-.88-7.74-1.55-11.66-2.03-.51-.06-.69.71-.19.78,3.92.48,7.8,1.15,11.66,2.03.5.11.69-.66.19-.78Z"/>
        <path class="cls-19" d="m123.24,295.62c-3.85-.88-7.74-1.55-11.66-2.03-.51-.06-.69.71-.19.78,3.92.48,7.8,1.15,11.66,2.03.5.11.69-.66.19-.78Z"/>
        <path class="cls-19" d="m162.84,291.22c-3.85-.88-7.74-1.55-11.66-2.03-.51-.06-.69.71-.19.78,3.92.48,7.81,1.15,11.66,2.03.5.11.69-.66.19-.78Z"/>
        <path class="cls-19" d="m209.48,289.58c-3.85-.88-7.74-1.55-11.66-2.03-.51-.06-.69.71-.19.78,3.92.48,7.81,1.15,11.66,2.03.5.11.69-.66.19-.78Z"/>
        <path class="cls-19" d="m265.53,293.39c-3.85-.88-7.74-1.55-11.66-2.03-.51-.06-.69.71-.19.78,3.92.48,7.81,1.15,11.66,2.03.5.11.69-.66.19-.78Z"/>
        <path class="cls-19" d="m145.21,278.06c-3.85-.88-7.74-1.55-11.66-2.03-.51-.06-.69.71-.19.78,3.92.48,7.8,1.15,11.66,2.03.5.11.69-.66.19-.78Z"/>
      </g>
      <g>
        <g>
          <g>
            <path class="cls-19" d="m245.5,267.33c-.66,0-1.2-.54-1.2-1.2v-51.64c0-.66.54-1.2,1.2-1.2s1.2.54,1.2,1.2v51.64c0,.66-.54,1.2-1.2,1.2Z"/>
            <path class="cls-19" d="m260.54,271.34c-.08,0-.16,0-.24-.02l-31.05-6.29c-.65-.13-1.07-.76-.94-1.41.13-.65.77-1.07,1.41-.94l31.05,6.29c.65.13,1.07.76.94,1.41-.11.57-.61.96-1.17.96Z"/>
            <path class="cls-19" d="m232.59,273.84c-.46,0-.9-.27-1.1-.72-.26-.61.01-1.31.62-1.58l25.82-11.27c.61-.27,1.31.01,1.58.62.26.61-.01,1.31-.62,1.58l-25.82,11.27c-.16.07-.32.1-.48.1Z"/>
          </g>
          <path class="cls-21" d="m235.9,224.27s20.16,5.28,25.05,4.6c4.89-.68,32.97-13.65,36.36-16.85,3.39-3.19,5.99-17.57,5.99-17.57l-70.2,17.37,2.79,12.44Z"/>
        </g>
        <path class="cls-4" d="m242.9,116.65c-.43-.02-.86-.06-1.29-.08-.52-.03-1.04-.06-1.57-.08-1.27-.06-2.55-.1-3.81-.05-.22.02-.45.02-.67.04-.05,0-.1,0-.14,0h-.02c-.4.03-.8.07-1.19.13-.21.03-.42.06-.62.09h0c-1.6.27-3.15.75-4.65,1.57-4.03,2.21-7.24,4.88-10.49,8.08-1.75,1.72-3.61,3.32-5.59,4.78-1.95,1.45-4.3,2.46-6.16,3.98-1.18.96-4.53,4.74-5.92,6.82-1.41,2.1-2.67,9.16.07,11.47.3.26.64.47,1.01.65,2.98,1.47,7.69.47,10.53-.17,4.77-1.08,9.41-2.46,14.21-3.37.02,0,.02,0,.04,0,3.96-.75,7.6-2.09,10.08-5.44,1.25-1.68,1.88-3.43,2.24-5.25.53-2.6.49-5.33.89-8.14,0-.06.02-.11.03-.17.1-.7.25-1.4.42-2.08.32-1.3.73-2.58,1.1-3.86.34-1.13.65-2.27.87-3.42,0,0,0-.02,0-.03.22-1.08.33-2.17.3-3.3,0-.32-.02-.64-.06-.96-.02-.15-.03-.3-.06-.45.15,0,.3.02.45.02.16,0,.26-.06.33-.17.14-.23.02-.61-.33-.63Z"/>
        <g>
          <path class="cls-8" d="m179.36,299.04s-.42.98-.9,2.25c-.34.88-.72,1.89-1.03,2.79-.22.65-.4,1.24-.5,1.69-.04.18-.07.34-.08.47,0,.08-.02.16-.02.25-.03.38-.07.85-.12,1.38-.02.28-.05.57-.08.86-.15,1.68-.33,3.59-.46,4.5-.27,1.82-2.92,3.64-4.82,6.99-1.9,3.34-5.33,7.71-9.47,9.68-4.14,1.97-4.88.21-4.96-.62-.07-.84.53-3.19,1.75-4.71,1.21-1.52,7.48-12.09,8.24-13.76.21-.46.59-1.53,1.04-2.81.09-.26.18-.53.27-.81.13-.38.26-.76.38-1.15.09-.26.18-.51.26-.77.14-.44.29-.88.43-1.3.77-2.32,1.41-4.33,1.41-4.33,0,0,6.53-6.23,6.91-6.68.38-.46,1.75,6.08,1.75,6.08Z"/>
          <path class="cls-3" d="m169.3,303.98c-.14.42-.29.86-.43,1.3-.09.26-.18.51-.26.77-.13.39-.26.77-.38,1.15-.1.28-.18.54-.27.81-.45,1.29-.83,2.35-1.04,2.81-.76,1.67-7.03,12.24-8.24,13.76-1.21,1.52-1.82,3.87-1.75,4.71.08.83.81,2.6,4.96.62,4.14-1.97,7.57-6.34,9.47-9.68,1.9-3.35,4.55-5.17,4.82-6.99.13-.91.3-2.81.46-4.5.03-.3.06-.58.08-.86.05-.53.09-1,.12-1.38,0-.09.02-.17.02-.25,0-.13.04-.29.08-.47.1-.46.28-1.05.5-1.69-2.64.73-5.79.98-8.13-.11Z"/>
          <path class="cls-5" d="m176.93,305.78c-.04.18-.07.34-.08.47,0,.08-.02.16-.02.25-1.37.17-2.75.27-4.14.3-1.47.02-2.85-.12-4.08-.75.09-.26.18-.51.26-.77,2.15,1.16,5.29.96,8.07.5Z"/>
          <path class="cls-5" d="m176.71,307.88c-.02.28-.05.57-.08.86-2.88.85-6.45.83-8.68-.74.09-.26.18-.53.27-.81,2.07,1.63,5.69,1.58,8.49.69Z"/>
        </g>
        <g>
          <path class="cls-8" d="m236.3,296.41c-.53,3.26-.61,6.65-1.74,9.05-1.13,2.4-2.66,4.79-3.99,4.19-1.33-.6-2-1.33-2-2.66s.34-6.39.53-8.5c.2-2.11-.46-7.47-1.19-8.26-.28-.3-1.57-1.39-3.07-2.61-2.4-1.98-5.32-4.31-5.32-4.31l4.06-5.85s2.61,2.36,5.05,4.28c1.42,1.11,2.78,2.06,3.54,2.31,2.07.66,5.13,1.06,5.39,3.19.27,2.12-.73,5.92-1.26,9.18Z"/>
          <path class="cls-3" d="m237.56,287.22c-.26-2.13-3.32-2.53-5.39-3.19-.05-.02-.1-.03-.14-.06-.23-.09-.5-.23-.81-.42-.28-.16-.59-.37-.91-.59-.25-.18-.51-.36-.78-.57-.29-.21-.58-.44-.89-.67-.07,1.51-.48,3.03-1.41,4.22-.7.89-1.52,1.2-2.37,1.66.33.26.64.52.93.77.25.21.49.41.7.58.5.42.91.77,1.17,1.01.12.1.21.19.26.25.07.08.15.22.22.38.64,1.49,1.14,5.99.97,7.88-.2,2.12-.53,7.17-.53,8.5s.66,2.06,2,2.66c1.33.6,2.86-1.8,3.99-4.19,1.13-2.4,1.21-5.79,1.74-9.05.54-3.27,1.53-7.06,1.26-9.18Z"/>
          <path class="cls-5" d="m230.3,282.96c-.07,2.64-1.58,4.92-3.82,6-.22-.18-.46-.38-.7-.58,2.32-.93,3.92-3.24,3.74-5.98.27.21.54.39.78.57Z"/>
          <path class="cls-5" d="m232.03,283.97c-.04,2.68-1.64,5.13-3.89,6.63-.07-.17-.15-.3-.22-.38-.06-.06-.14-.14-.26-.25,2.18-1.41,3.7-3.82,3.56-6.42.31.19.58.34.81.42Z"/>
        </g>
        <path class="cls-14" d="m179.36,208.04s-10.71,2.2-11.22,12.78c-.51,10.58,6.68,20.56,14.86,28.95,8.18,8.38,36.53,33.54,36.53,33.54,0,0,4.39-2,6.79-5.06,2.4-3.06,3.46-5.72,3.46-8.25s-3.06-2.26-4.92-5.86c-1.86-3.59-1.86-7.7-5.32-9.57-3.46-1.87-6.52-3.47-8.52-9.46-2-5.99-6.52-10.91-6.52-10.91,0,0-.53-16.24-.27-16.9.27-.67,8.25-10.51,3.73-10.78-4.52-.27-28.59,1.53-28.59,1.53Z"/>
        <path class="cls-15" d="m200.47,214s-7.59,7.59-10.93,17.31c-3.34,9.72-18.83,68.34-18.83,68.34,0,0,10.86,2.81,14.88,2.13,4.02-.68,4.02-1.82,6.07-5.92,2.05-4.1,3.25-3.42,4.7-8.88,1.45-5.47-.3-8.66,4.11-14.12,4.4-5.47,7.14-23.69,7.59-25.51.46-1.82,9.34-9.11,22.78-17.54,13.44-8.43,18-15.79,18-15.79,0,0-10.71-6.76-11.85-6.76s-36.52,6.76-36.52,6.76Z"/>
        <path class="cls-21" d="m196.51,163.92s1.06-8.52,7.99-11.45c6.92-2.93,26.88-8.78,27.68-9.05.8-.27,8.22-63.9,11.87-68.37,2.64-3.24,18.41-2.83,25.33-2.66,9.56.23,22.25,2.05,28.51,3.2,5.36.99,17.47,3.75,18.72,7.87,1.11,3.68-8.04,94.04-9.9,99.89-1.86,5.86-43.86,11.45-58.66,8.52-14.8-2.93-51.53-27.95-51.53-27.95Z"/>
        <path class="cls-17" d="m313.28,83.86s-.1,0-.14-.03c-.17-.07-17.47-6.67-37.47-7.75-13.68-.74-29.95,0-30.11,0-.22.02-.41-.16-.42-.38-.01-.22.16-.41.38-.42.16,0,16.47-.74,30.2,0,20.13,1.09,37.54,7.73,37.71,7.8.21.08.31.31.23.52-.06.16-.21.26-.37.26Z"/>
        <g>
          <path class="cls-19" d="m282.4,83.73c-.65-3.37-5.59-6.34-9.26-6.4-.73-.85-1.73-1.49-2.83-1.86h0c-1.41-.5-2.98-.57-4.27-.09h-.03c-1.38.5-2.07.98-3.63,1.01-.83.02-1.52,0-2.32.3-1.18.45-2.07,1.29-2.64,2.34-.66,0-1.33.11-1.98.39-2.02.85-2.82,2.52-2.64,4.62.02.16.02.31.02.46-.63.17-1.22.41-1.68.92-.61.69-.86,1.69-.71,2.6.26,1.56,1.41,2.52,2.77,3.03.13.27.29.53.48.8.65.88,1.47,1.53,2.38,2,.3.14.6.28.91.4.04.34.14.61.28.86,0,0,0,.02,0,.02,0,.03.03.06.05.09v.02c.18.27.42.53.69.81.62.62,1.28,1.21,1.95,1.8.53.46,1.06.91,1.58,1.37.18.16.37.33.55.49.28.25.56.5.84.76.24.22.49.45.73.67,2.09,1.93,4.18,3.93,6.41,5.66.26.21.53.38.78.53,2.16,1.29,4.12.89,5.58-.42.02-.02.04-.04.06-.06,1.25-1.16,2.12-2.98,2.44-4.98,0-.02,0-.05,0-.07h0c.26-1.62.29-3.26.64-4.86.17-.76.41-1.49.65-2.22.25-.75.52-1.49.73-2.26.45-1.57.48-3.13.77-4.73.25-1.29.92-2.64.65-3.98Z"/>
          <path class="cls-8" d="m276.95,97.13c-.05-.72-.1-1.43-.14-2.14-.03-.44-.06-.88-.09-1.32-.02-.26-.02-.51-.04-.77-.1-2.17.57-6.82-2.67-6.85-.03,0-.06.02-.09.02-2.71-.3-5.65-.7-8.48-.58-.26,0-.53.02-.79.05-1.04.08-2.04.24-3.03.52-1.22.35-5.2,1.29-5.2,1.29,0,0-.1,1.18-.19,2.48-.08,1.07-.14,2.22-.16,2.86,0,.39,0,.78-.02,1.15-.04,4.4.07,7.47.61,10.84.51,3.19,2.28,7.03,5.23,8.82.62.38,1.27.66,1.92.85t.02,0c3.06.91,6.31-.13,8.8-2.11,0,0,0,0,0,0,1.77-1.42,3.15-3.32,3.79-5.36.02-.06.05-.13.06-.19h0c.07-.23.13-.45.18-.67.19-.94.31-1.91.38-2.88.06-.78.08-1.57.06-2.36,0-1.21-.06-2.43-.14-3.64Z"/>
          <path class="cls-19" d="m277.58,93.5l-.02-.29c-.21-2.12-.31-4.3-.7-6.39-.21-1.15-.65-1.89-1.81-2.19-2.42-.61-5.41-.43-7.88-.45-.36,0-.8.02-1.29.04-.28.02-.58.04-.9.06-2.83.23-6.8.77-8.57,1.17-.06,0-.1.02-.14.05-.31.14-.48.48-.55.92-.24,1.3.34,3.43.34,3.43.06,0,.12-.02.18-.03.81-.13,1.63-.26,2.43-.45.89-.21,1.81-.7,2.69-.81.78-.1,1.7,0,2.51-.06.94-.06,1.9-.06,2.79.3.76.32,1.3.75,2.15.82,1.51.12,2.6-.57,3.99.27,1.35.83,1.27,2.16,1.9,3.54.23.51.5,1.12,1.03,1.39,0,0,.02,0,.02.02.36.18.73.22,1.06.14.49-.12.88-.5,1.01-1.05.05-.22-.07-.38-.23-.45Z"/>
          <path class="cls-8" d="m281.2,118.05c.08.4-1.28,3.74-2.16,4.54-.88.8-10.61,4.39-12.68,3.43-2.08-.96-7.34-5.58-7.58-6.78-.24-1.2,5.02-2.56,5.02-2.56v-4.94l12.6-7.98s.22,11.28.69,12.04c.14.22,4.02,1.84,4.1,2.24Z"/>
          <path class="cls-22" d="m273.29,110.24c-.06.3-1.15,5.14-4.74,6.11-3.71,1-4.74.35-4.74.35v-2.34s4.3.12,6.76-1.68c2.25-1.64,2.67-2.34,2.71-2.44Z"/>
          <path class="cls-19" d="m261.41,97.19s-.03-.08-.05-.11c-.17-.32-.55-.59-.88-.44-.19.09-.3.29-.37.49-.16.44-.22.92-.16,1.38.04.29.12.58.31.81.3.37.82.36,1.14.03.51-.53.25-1.55,0-2.15Z"/>
          <path class="cls-19" d="m270.08,97.19s-.03-.08-.05-.11c-.17-.32-.55-.59-.88-.44-.19.09-.3.29-.37.49-.16.44-.22.92-.16,1.38.04.29.12.58.31.81.3.37.82.36,1.14.03.51-.53.25-1.55,0-2.15Z"/>
          <path class="cls-3" d="m261.7,106.53s1.2.4,3.54.22c2.35-.17,3.83-.69,3.83-.69,0,0-1.09,2.66-4.03,2.56-2.94-.1-3.34-2.1-3.34-2.1Z"/>
          <path class="cls-19" d="m257.56,94.46c.12-.13.26-.24.36-.3.53-.32,1.14-.47,1.73-.58.98-.19,2.06-.23,2.93.26.26.14.52.38.5.68-.03.39-.49.57-.88.61-1.28.15-2.61-.23-3.86.1-.21.06-.43.13-.65.12-.7-.05-.46-.54-.13-.88Z"/>
          <path class="cls-19" d="m272.59,94.46c-.12-.13-.26-.24-.36-.3-.53-.32-1.14-.47-1.73-.58-.98-.19-2.06-.23-2.93.26-.26.14-.52.38-.5.68.03.39.49.57.88.61,1.28.15,2.61-.23,3.86.1.21.06.43.13.65.12.7-.05.46-.54.13-.88Z"/>
          <path class="cls-8" d="m275.03,96.32s1-3.46,3.66-3.26c2.66.2,1.93,6.72,0,9.05-1.93,2.33-3.66,0-3.66,0v-5.79Z"/>
          <path class="cls-22" d="m276.8,97.01c-.43-.29-.83.4-.4.69.86.58.67,1.78.17,2.53-.28.43.41.83.69.4.76-1.15.76-2.8-.46-3.62Z"/>
          <path class="cls-22" d="m265.94,103.92c-1.29.04-2.56-.05-2.44-1.7.07-.95.29-1.9.43-2.84.08-.5-.69-.72-.77-.21-.2,1.26-.88,3.21-.32,4.44.53,1.16,2,1.14,3.09,1.11.51-.01.51-.81,0-.8Z"/>
        </g>
        <path class="cls-14" d="m272.32,77.87c-1.25-.14-2.57-.29-3.76.25-.44.2-.66.41-1.04.7-.67.52-.66.52-1.55.61-1.96.2-3.1,1.78-3.17,3.65-.02.51.78.51.8,0-.04-1.01.38-1.84,1.27-2.47.62-.36,1.26-.49,1.93-.38.26-.1.41.03.64-.09.87-.48.53-1.01,1.82-1.43.97-.32,2.06-.15,3.05-.03.51.06.51-.74,0-.8Z"/>
        <path class="cls-14" d="m267.59,81.84c-2.09.77-3.23,2.73-2.92,4.93.07.51.84.29.77-.21-.24-1.74.72-3.34,2.36-3.95.48-.18.27-.95-.21-.77Z"/>
        <path class="cls-14" d="m256.82,81.19c-1.69,1.25-1.79,3.32-1.14,5.19.17.48.94.28.77-.21-.51-1.47-.62-3.25.77-4.29.41-.3.01-1-.4-.69Z"/>
        <path class="cls-4" d="m300.24,127.16c-.29-.44-.59-.85-.93-1.24-1.99-2.35-4.7-3.87-7.28-5.57-3.24-2.12-10.55-3.42-11.55-3.44-.05,0-.24.12-.55.34-1.59,1.07-6.21,4.42-9.19,4.96-2,.36-3.92-.03-5.69-.98-.87-.47-2.88-2.59-3.88-3.67-.36-.38-.58-.64-.58-.65-.08-.33-2.84-.53-4.05-.49-2.2.08-13.68-1.04-15.88-.97-.03,0-.06,0-.1,0-1.6.06-3.08.27-4.27.52-.02,0-.03,0-.05,0-1.45.3-2.45.62-2.65.73h0s-.02.02-.02.02c-.77.54-.58,1.37-.13,2.31.36.73.88,1.54,1.24,2.32.34.73.54,1.44.32,2.05-.02.05-.03.09-.05.13-1.1,2.45-2.08,4.96-2.91,7.51-.19.58-.37,1.17-.54,1.77-.28.98-.53,1.98-.77,2.99-.37,1.57-.72,3.15-1.1,4.72-.34,1.36-.69,2.7-1.14,4.02-.3.89-.63,1.78-1.01,2.64-.36.81-.62,2-.89,3.34-.6,2.99-1.18,6.64-2.77,7.82-2.04,1.52-3.55,6.11-5.09,8.14-3.44,4.52-5.45,2.25-10.46,4.68-.15-.24-.51-.33-.65,0,0,0,0,.02,0,.02-.06.13-.1.26-.16.39-.15.1-.18.26-.14.4-.09.29-.15.58-.21.87-.24-.53-.46-1.09-.63-1.62-.16-.49-.93-.28-.77.22.34,1.01.78,2.04,1.34,2.99.05.55.15,1.1.34,1.64.15.42.76.32.79-.04,1.36,1.61,3.15,2.68,5.37,2.53,3.07.63,5.64.93,8.05,1.1,4.85.37,9.03.27,15.2,1.54,9.02,1.84,6.09,3.88,15.35,3.71,2.1-.04,4.22-.1,6.32.04,2.22.15,4.51.89,6.74.63,2.91-.33,4.97-2.61,6.08-5.2,1.66-3.9,8.5-3.96,9.93-7.95.11-.31.26-.65.44-1.01,2.04-4.06,8-10.93,9.17-14.52.52-1.59.89-3.22,1.23-4.86.1-.49.2-.97.3-1.45.51-2.67.98-5.35,1.8-7.95,1.6-5.1,3.71-10.02,5.82-14.92.26-.04.48-.3.3-.58Z"/>
        <path class="cls-21" d="m275.03,159.93s-8.92,1.6-10.05,3.99-1.17,8.38-1.17,8.38c0,0,10.29.4,10.69.67.4.27,6.53-.53,5.92-1.73-.6-1.2-5.39-11.31-5.39-11.31Z"/>
        <path class="cls-4" d="m313.14,158.51c-.39-2.78-1.21-5.53-2.2-8.23-1.18-3.19-2.61-6.3-3.89-9.33-2.1-5-3.92-10.82-7.58-14.93-.05-.06-.1-.09-.15-.1-.27-.1-.57.19-.5.49-8.04,3.07-15.41,8.36-19.68,15.98-.41.71-.77,1.45-1.13,2.18-.13.24-.24.48-.36.73-.54,1.1-1.09,2.2-1.72,3.27-1.29,2.2-3.01,4.1-4.35,6.27-.81,1.3-2.04,3.2-1.44,4.77.17.42.52.85.88,1.26.26.3.54.6.73.85.81,1.1,1.49,2.29,2.27,3.42,1.64,2.36,3.74,4.04,6.08,5.43.5.3,1.02.59,1.55.87.93.49,1.88.95,2.85,1.41,4.56,2.14,9.18,2.79,14.21,2.15,3.78-.49,7.28-1.95,9.9-4.22,3.34-2.88,5.25-7.08,4.54-12.25Z"/>
        <path class="cls-8" d="m249.48,128.54s1.55.75,2.25,1.25c.7.5,2.15,2.45,2.15,2.45l7.09,4.84s-.45-3.29-1.5-5.09c-1.05-1.8-7.24-4.29-8.73-4.84-1.5-.55-2.45-.91-2.45-.91l1.2,2.31Z"/>
        <path class="cls-19" d="m234.03,117.18l3.41,21.99c.05.29.28.52.57.55l13.26,1.56c.43.05.79-.32.73-.74l-3.09-22.19c-.04-.3-.28-.53-.58-.56l-13.58-1.36c-.43-.04-.78.33-.71.75Z"/>
        <path class="cls-8" d="m257.39,141.53l8.12,9.02c1.64,1.83,4.41,2.09,6.37.6l.1-.08c.81-.62,1.4-1.48,1.68-2.47h0c.54-1.9-.15-3.93-1.74-5.1l-12.59-9.26-1.93,7.28Z"/>
        <g>
          <path class="cls-8" d="m260.95,136.85s-.02-.02-.03-.04c-.55-.69-1.13-1.34-1.76-1.95-.65-.62-1.33-1.21-2.04-1.76-.13-.1-.26-.1-.38-.07-1.09-.78-2.32-1.26-3.57-1.69h0c-.86-.3-1.73-.57-2.58-.92-.32-.13-.62-.26-.93-.41-1.57-.76-3.16-1.56-4.58-2.57-.36-.26-2.68-1.94-2.67-.85,0,1.65,1.84,2.54,3.02,3.43,1.38,1.03,2.8,2,4.24,2.95-2.7-.37-5.25-1.28-7.6-2.75-.31-.2-1.11-.69-1.76-.79-.55-.1-1.01.07-1.01.89,0,.39.22.8.58,1.2.18.22.4.43.64.63-.24.69.63,1.7,1.2,2.16.18.14.38.27.57.4,0,.04,0,.08,0,.12.47,2.52,4.44,3.21,6.44,3.95,1.05.38,2.11.73,3.18,1.06,1.83.57,3.67,1.09,5.49,1.68.56.18,1.11.37,1.66.56,1.22.43,1.54.02,2.6-.76.46-.34,1.3-.68,1.3-1.33,0-.94-1.45-2.46-2-3.15Z"/>
          <path class="cls-22" d="m248.22,134.69c-2.35-.42-4.55-1.21-6.63-2.38-.45-.25-.85.44-.4.69,2.14,1.2,4.41,2.03,6.82,2.46.5.09.72-.68.21-.77Z"/>
          <path class="cls-22" d="m247.75,136.42c-1.45-.32-2.81-.82-4.11-1.53-.45-.25-.86.44-.4.69,1.36.74,2.79,1.28,4.3,1.61.5.11.71-.66.21-.77Z"/>
        </g>
        <path class="cls-8" d="m245.11,117.47h0c-.05-.06-.09-.11-.14-.18-.02-.03.49-.66.38-.93-.2-.45-1.21-.52-1.61-.51-.76,0-1.47.32-2.13.71-.26.15-.5.31-.73.47-.21.14-.42.28-.61.42-1.72,1.15-3.29,2.48-4.74,3.95-.02.02-.02.02-.04.04.02-.04.03-.07.05-.11h0c.42-.97.88-1.92,1.46-2.75.68-.97,1.34-1.22,2.28-1.7.07-.03.14-.07.22-.11.21-.1.38-.15.55-.28.06-.05.14-.11.21-.2.28-.35.37-.63.32-.84-.1-.53-1.01-.65-1.68-.53-.99.2-1.84.55-2.59,1.02-.02,0-.04.02-.06.03-.24.16-.47.33-.69.5l-.02.02c-.52.42-.97.92-1.38,1.45-.26.34-.5.7-.71,1.07-1.32,2.27-2,5.08-2.65,7.58-.42,1.59-.84,3.21-1.12,4.84-.06.35-.12.73-.15,1.11-.09,1.02.02,2.1.76,2.85.14.14.29.28.46.4.73.57,1.69.95,2.61.97.79.03,1.54-.2,2.1-.81.02-.02.04-.05.06-.08,0,0,.02-.02.02-.03.48-.56.82-1.27,1.09-2,.17-.46.3-.93.42-1.37.53-2.1,1.49-3.35,2.81-5.04.36-.47,1-1.13,1.56-1.88.87-1.13,1.57-2.44.87-3.42,0,0-.02,0-.02-.02t.02-.02c.4-.39.81-.79,1.2-1.19.57-.58,1.88-1.57,2.01-2.42.07-.47-.12-.73-.38-1.05Z"/>
        <path class="cls-22" d="m243.46,117.22c-3.04,2.01-5.62,4.53-7.7,7.52-.29.42.4.82.69.4,2.01-2.87,4.5-5.3,7.42-7.24.43-.28.03-.97-.4-.69Z"/>
        <path class="cls-22" d="m241.05,122.17c-1.57,1.16-2.93,2.51-4.11,4.06-.31.41.38.81.69.4,1.09-1.44,2.37-2.7,3.82-3.77.41-.3.01-1-.4-.69Z"/>
        <path class="cls-8" d="m230.41,132.25s-16.57,5.61-17.57,6.11c-1,.5-1.7,3.99-.6,6.49,1.1,2.5,2.89,3.09,4.19,2.89,1.3-.2,15.27-8.18,17.22-9.88,1.95-1.7,2.3-2.74,2.3-2.74l-5.54-2.87Z"/>
        <path class="cls-14" d="m210.16,229.26c-.01,5.19-.81,10.28-2.38,15.23-.16.49.62.7.77.21,1.59-5.01,2.39-10.18,2.4-15.44,0-.51-.8-.51-.8,0Z"/>
        <path class="cls-10" d="m303.12,157.76c-2.54-3.59-6.37-5.61-10.55-6.4,2.22-.81,4.54-1.06,6.91-.76.51.06.5-.74,0-.8-2.83-.35-5.56.07-8.17,1.21-.07.03-.12.08-.15.13-.63-.08-1.27-.13-1.91-.16-.34-.01-.68,0-1.01,0,.35-1.52.72-3.06,1.43-4.46.6-1.19,1.63-2.17,2.1-3.42.48-1.29.46-2.83.59-4.18.17-1.72.34-3.43.52-5.15.05-.51-.75-.51-.8,0-.16,1.59-.32,3.19-.48,4.78-.19,1.86-.17,3.75-1.2,5.37-1.48,2.33-2.35,4.36-2.97,7.04-.04,0-.08,0-.13,0-1.32-.08-1.89-.8-2.71-1.7-.86-.96-1.82-1.83-2.86-2.59-2.24-1.64-4.78-2.72-7.5-3.28-.5-.1-.72.67-.21.77,2.84.59,5.48,1.75,7.76,3.55,1.56,1.24,2.8,3.66,4.88,4,1.07.18,2.22.02,3.3.09,1.61.11,3.23.38,4.77.87,3.1.98,5.82,2.81,7.7,5.47.29.42.99.02.69-.4Z"/>
        <path class="cls-10" d="m280.38,118.47c-5.83,4.35-15.16,7.12-20.36.21-.31-.41-1,0-.69.4,5.47,7.26,15.21,4.74,21.46.08.41-.3,0-1-.4-.69Z"/>
        <path class="cls-10" d="m269.86,159.11c-1.37-1.69-3.61-4.43-3.69-6.7-.02-.51-.82-.51-.8,0,.05,1.3.75,2.48,1.38,3.59.74,1.3,1.6,2.52,2.54,3.68.32.4.89-.17.56-.56Z"/>
      </g>
      <g>
        <path class="cls-19" d="m264.98,332c-.2,0-.41-.05-.59-.16-.38-.21-.61-.61-.61-1.04v-109.66c0-.66.54-1.2,1.2-1.2s1.2.54,1.2,1.2v107.55l83.11-49.8v-97.4c0-.66.54-1.2,1.2-1.2s1.2.54,1.2,1.2v98.08c0,.42-.22.81-.58,1.03l-85.51,51.24c-.19.11-.4.17-.62.17Z"/>
        <path class="cls-19" d="m24.4,302.73c-.21,0-.43-.06-.62-.17-.36-.22-.58-.61-.58-1.03v-115.78c0-.66.54-1.2,1.2-1.2s1.2.54,1.2,1.2v113.79l83.11-44.11v-109.34c0-.66.54-1.2,1.2-1.2s1.2.54,1.2,1.2v110.06c0,.44-.24.85-.64,1.06l-85.51,45.38c-.18.09-.37.14-.56.14Z"/>
        <g>
          <polygon class="cls-9" points="109.34 143.96 23.1 181.49 23.1 186.28 265.39 224.61 351.68 182.28 351.68 177.89 109.34 143.96"/>
          <path class="cls-6" d="m265.44,220.33l-.12-.02L23.84,182.38c-.22-.03-.37-.24-.33-.46.03-.22.25-.37.46-.33l241.36,37.91,85.59-41.47c.2-.09.44-.01.53.19.1.2.01.44-.19.53l-85.82,41.58Z"/>
          <path class="cls-6" d="m265.38,224.67c-.22,0-.4-.18-.4-.4v-4.36c0-.22.18-.4.4-.4s.4.18.4.4v4.36c0,.22-.18.4-.4.4Z"/>
        </g>
        <path class="cls-3" d="m109.2,162.92l12.91-8.1s8.52,2.15,11.98,3.03c3.46.88,9.86,4.57,9.86,4.57,0,0-14.92,12.08-17.18,14.37-2.26,2.3-3.06,3.94-3.06,3.94,0,0-10.91-4.77-13.18-5.54-2.26-.77-5.06-3.24-5.06-3.24l3.73-9.03Z"/>
        <path class="cls-4" d="m134.62,152.04l-19.3,17.33s25.15,5.01,25.29,5.48c.13.47,20.5-18.42,20.5-18.42l-26.48-4.39Z"/>
        <g>
          <polygon class="cls-2" points="212.74 176 221.73 177.09 224.2 188.99 215.34 187.18 212.74 176"/>
          <polygon class="cls-2" points="149.46 161.12 147.27 155.34 156.32 156.8 158.51 162.46 149.46 161.12"/>
          <polygon class="cls-2" points="160.71 163.05 158.51 157.26 167.56 158.73 169.76 164.39 160.71 163.05"/>
          <path class="cls-3" d="m143.05,159.55l12.25,39.14c.09.29.34.5.64.55l65.08,10.38c.15.02.3,0,.43-.05l29.56-12.41c.74-.31.61-1.4-.19-1.53l-31.7-3.86-5.59-22.71c-.09-.3-.34-.53-.66-.57l-68.96-9.97c-.58-.08-1.05.47-.87,1.03Z"/>
          <path class="cls-4" d="m222.6,206.48l22.46-9.27c.4-.17.32-.76-.11-.81l-25.67-3.14,3.32,13.22Z"/>
          <path class="cls-4" d="m222.82,207.78c-.18,0-.34-.12-.39-.3l-3.69-14.71c-.05-.21.08-.43.29-.49.21-.05.43.08.48.29l3.69,14.71c.05.21-.08.43-.29.49-.03,0-.07.01-.1.01Z"/>
          <path class="cls-4" d="m184.46,175.77c-.13.88-2.98,1.17-6.36.66-3.38-.51-6.01-1.63-5.88-2.51.13-.88,2.98-1.17,6.36-.66,3.38.51,6.01,1.63,5.88,2.51Z"/>
        </g>
        <path class="cls-4" d="m41.68,156.18s-.45,2.68,0,4.47c.45,1.79.42,5.7.66,7.15.24,1.45-.31,6.03-.43,7.6-.12,1.56.03,5.45.03,5.45l37.84,5.95,32.96-16.98s-.22-5.47,0-7.04c.22-1.56,1.79-5.59,1.56-7.37-.22-1.79-.07-10.61.02-11.39.09-.78-35.55-3.91-39.35-2.23-3.8,1.68-33.29,14.41-33.29,14.41Z"/>
        <path class="cls-10" d="m79.69,185.88c-.2,0-.37-.15-.4-.35-.05-.36-1.1-8.88-.5-12.98.33-2.22.32-3.14.32-4.03,0-.73,0-1.43.18-2.75.32-2.32-.12-5.15-.28-6.06l-36.29-2.87c-.22-.02-.38-.21-.37-.43.02-.22.23-.38.43-.37l36.89,2.92.06.29c.03.15.75,3.69.34,6.62-.18,1.27-.17,1.94-.17,2.64,0,.87,0,1.87-.33,4.15-.58,3.99.49,12.68.5,12.77.03.22-.13.42-.35.45-.02,0-.03,0-.05,0Z"/>
        <path class="cls-10" d="m79.35,159.73c-.15,0-.3-.09-.37-.24-.09-.2,0-.44.21-.52l33.98-14.57c.2-.09.44,0,.52.21.09.2,0,.44-.21.52l-33.98,14.57c-.05.02-.1.03-.16.03Z"/>
        <path class="cls-10" d="m77.9,162.82s-.02,0-.04,0l-34.64-3.09c-.22-.02-.38-.21-.36-.43.02-.22.21-.38.43-.36l34.64,3.09c.22.02.38.21.36.43-.02.21-.19.36-.4.36Z"/>
        <path class="cls-10" d="m77.4,166.22s-.02,0-.03,0l-21.96-1.78c-.22-.02-.38-.21-.37-.43.02-.22.22-.38.43-.37l21.96,1.78c.22.02.38.21.37.43-.02.21-.19.37-.4.37Z"/>
        <path class="cls-10" d="m76.8,183.48s-.04,0-.06,0c-12.66-1.89-31.78-4.69-32.91-4.69-.15.03-.31-.04-.4-.17-.12-.18-.07-.43.11-.55.17-.11.44-.28,33.32,4.63.22.03.37.24.34.45-.03.2-.2.34-.39.34Z"/>
        <path class="cls-10" d="m68.71,178.79s-.04,0-.05,0l-24.35-3.19c-.22-.03-.37-.23-.34-.45.03-.22.24-.37.45-.34l24.35,3.19c.22.03.37.23.34.45-.03.2-.2.35-.4.35Z"/>
        <path class="cls-10" d="m75.9,175.6s-.03,0-.04,0l-10.98-1.1c-.22-.02-.38-.22-.36-.44.02-.22.22-.38.44-.36l10.98,1.1c.22.02.38.22.36.44-.02.21-.19.36-.4.36Z"/>
        <path class="cls-10" d="m92.47,177.19c-.14,0-.28-.08-.35-.22-.1-.2-.02-.44.17-.54l18.76-9.68c.2-.1.44-.02.54.17.1.2.02.44-.17.54l-18.76,9.68c-.06.03-.12.04-.18.04Z"/>
        <path class="cls-3" d="m82.19,173.94l15.77-6.29s3.89.7,5.89,6.29c1.27,3.56,5.99,5.69,5.99,5.69l-13.49,9.48s-7.12-1.69-7.87-4.49c-2.69-10.13-6.29-10.68-6.29-10.68Z"/>
        <path class="cls-3" d="m44.36,167.81s5.18,6.64,6.28,8.21c1.1,1.57,1.9,2.36,1.9,2.36,0,0,2.2-2.39,3.99-4.29,1.8-1.9,7.89-4.29,7.89-4.29l-20.06-2Z"/>
        <path class="cls-3" d="m62.01,162.92s4.78,4.39,5.14,4.89,6.55-3.77,6.55-3.77l-11.69-1.12Z"/>
        <path class="cls-10" d="m82.19,164.44c-.15,0-.3-.09-.37-.24-.09-.2,0-.44.21-.53l29.05-12.63c.2-.09.44,0,.53.21.09.2,0,.44-.21.53l-29.05,12.63c-.05.02-.11.03-.16.03Z"/>
        <path class="cls-10" d="m98.82,161.27c-.15,0-.3-.09-.36-.23-.09-.2,0-.44.2-.53l13.31-6.06c.2-.09.44,0,.53.2.09.2,0,.44-.2.53l-13.31,6.06c-.05.02-.11.04-.17.04Z"/>
        <path class="cls-10" d="m82.99,170.31c-.16,0-.32-.1-.38-.26-.07-.21.03-.44.24-.51l19.43-6.99c.21-.07.44.03.51.24.07.21-.03.44-.24.51l-19.43,6.99s-.09.02-.13.02Z"/>
        <path class="cls-3" d="m100.25,152.94s5.89,1.6,6.99,3.49c1.1,1.9,2.6,2.5,2.6,2.5,0,0,2.1-7.29,2.3-8.48.2-1.2,0-2.1,0-2.1l-11.88,4.59Z"/>
        <g>
          <polygon class="cls-21" points="55.16 155.01 54.73 145.44 80.43 133.16 120.55 136.67 120.95 145.57 94.1 159.02 55.16 155.01"/>
          <polygon class="cls-3" points="120.61 138.06 93.96 149.96 94.59 157.32 120.9 144.6 120.61 138.06"/>
          <path class="cls-4" d="m95.49,150.87c-.12,0-.24-.06-.32-.17-.13-.18-.07-.44.11-.57.04-.03.18-.13,24.42-10.86.2-.09.44,0,.53.2.09.2,0,.44-.2.53-8.22,3.64-23.88,10.57-24.32,10.8-.07.05-.14.07-.22.07Z"/>
          <path class="cls-4" d="m95.91,153.05c-.15,0-.3-.09-.36-.23-.09-.2,0-.44.2-.53l24.05-10.93c.2-.09.44,0,.53.2.09.2,0,.44-.2.53l-24.05,10.93c-.05.02-.11.04-.16.04Z"/>
          <path class="cls-4" d="m96.02,155.37c-.15,0-.29-.09-.36-.23-.09-.2,0-.44.19-.53l24.03-11.3c.2-.09.44,0,.53.19.09.2,0,.44-.19.53l-24.03,11.3c-.05.03-.11.04-.17.04Z"/>
          <polygon class="cls-3" points="58.39 148.04 58.64 153.69 71.58 154.85 71.33 149.13 58.39 148.04"/>
          <polygon class="cls-4" points="61.16 149.46 61.3 152.75 68.82 153.42 68.67 150.1 61.16 149.46"/>
          <path class="cls-3" d="m86.74,153.06c.07,1.67-.94,3.06-2.26,3.12-1.32.06-2.45-1.24-2.53-2.91-.07-1.67.94-3.06,2.26-3.12,1.32-.06,2.45,1.24,2.53,2.91Z"/>
          <path class="cls-15" d="m85.69,153.1c.04.94-.53,1.72-1.27,1.76-.74.03-1.38-.7-1.42-1.64-.04-.94.53-1.72,1.27-1.76.74-.03,1.38.7,1.42,1.64Z"/>
          <path class="cls-17" d="m92.69,150.17s-.03,0-.04,0l-36.94-4.01c-.22-.02-.38-.22-.35-.44.02-.22.24-.38.44-.35l36.94,4.01c.22.02.38.22.35.44-.02.2-.2.36-.4.36Z"/>
        </g>
        <g>
          <polygon class="cls-1" points="43.73 142.14 43.73 132.56 69.94 121.43 109.87 126.71 109.87 135.62 82.45 147.87 43.73 142.14"/>
          <polygon class="cls-3" points="109.87 128.1 82.72 138.82 83.02 146.2 109.87 134.65 109.87 128.1"/>
          <path class="cls-4" d="m84.55,144.31c-.16,0-.3-.09-.37-.25-.08-.2.01-.44.21-.52l24.5-10.23c.2-.08.44.01.52.21.08.2-.01.44-.21.52l-24.5,10.23c-.05.02-.1.03-.15.03Z"/>
          <path class="cls-5" d="m102.52,134.35s1.68.61,2.31,1.05l.63.43,1.43-.74s-.95-.63-1.35-.98c-.4-.35-1.36-.63-1.36-.63l-1.65.87Z"/>
          <path class="cls-4" d="m84.22,139.79c-.13,0-.25-.07-.33-.19-.12-.18-.05-.44.13-.57.05-.03.19-.12,24.88-9.77.21-.08.44.02.52.23.08.21-.02.44-.23.52-8.37,3.27-24.32,9.51-24.77,9.72-.06.04-.13.06-.2.06Z"/>
          <path class="cls-4" d="m84.55,141.99c-.16,0-.31-.09-.37-.25-.08-.2.02-.44.22-.52l24.5-9.86c.2-.08.44.02.52.22.08.2-.02.44-.22.52l-24.5,9.86s-.1.03-.15.03Z"/>
          <polygon class="cls-3" points="47.27 135.32 47.27 140.98 60.15 142.71 60.15 136.99 47.27 135.32"/>
          <polygon class="cls-4" points="49.97 136.87 49.97 140.16 57.45 141.16 57.45 137.84 49.97 136.87"/>
          <path class="cls-3" d="m75.37,141.59c0,1.67-1.07,3.02-2.4,3.02s-2.4-1.35-2.4-3.02,1.07-3.02,2.4-3.02,2.4,1.35,2.4,3.02Z"/>
          <path class="cls-15" d="m74.32,141.59c0,.94-.6,1.7-1.35,1.7s-1.35-.76-1.35-1.7.6-1.7,1.35-1.7,1.35.76,1.35,1.7Z"/>
          <path class="cls-11" d="m81.46,138.97s-.04,0-.06,0l-36.73-5.64c-.22-.03-.37-.24-.33-.45.03-.22.24-.36.46-.33l36.73,5.64c.22.03.37.24.33.46-.03.2-.2.34-.39.34Z"/>
        </g>
        <path class="cls-4" d="m131.74,187.03c-.49-1.49-1.82-2.48-3.34-2.75-1.11-.2-1.83-.14-2.41.23-1.08-.22-2.16-.27-3.05.04-1.44.51-1.71,1.99-1.86,3.35-.13,1.21-.3,3.12.97,3.85.21.12.46.16.7.2,1.3.22.73-.28,2.21.77.61.43.91.88,1.74.91,1.86.05,2.73-1.97,3.83-3.09,1.06-1.08,1.75-1.85,1.21-3.51Z"/>
        <g>
          <path class="cls-3" d="m143.36,180.53c-.64-.55-1.43-.79-2.25-.86-.61-.52-1.32-.89-2.17-.9-.9-.01-2.04.4-2.76.91-.36.25-.34.35-.68.7-.5.51-.72.5-1.18.76-.49.28-.71.09-1.11.64-.52.7-.53,2.35-.47,3.12.12,1.71,1.37,3.54,3.16,3.95.9.21,1.43-.31,2.4-.26.79.05,1.46.34,2.28.23,1.77-.23,3.36-1.41,3.97-3.11.62-1.71.27-3.96-1.17-5.18Z"/>
          <path class="cls-4" d="m141.11,181.54c-.16-.86-.68-1.57-1.52-1.82-.49-.15-.7.62-.21.77.99.3,1.23,1.52.5,2.06-.3.22-.61.25-.76.63-.12.29,0,.55,0,.85,0,1.52-1.21,2.16-2.66,1.86-.5-.1-.72.66-.21.77,1.02.21,2.12.15,2.93-.6.34-.31.59-.73.7-1.17.11-.43-.14-1.17.14-1.52.19-.25.68-.26.9-.56.27-.37.27-.83.19-1.26Z"/>
          <path class="cls-4" d="m138.37,182.78c-.23-1-1.46-1.08-2.31-1.05-.97.04-1.88.44-2.31,1.35-.22.46.47.87.69.4.25-.53.68-.8,1.25-.91.44-.08,1.77-.17,1.91.41.12.5.89.29.77-.21Z"/>
        </g>
        <path class="cls-3" d="m67.87,131.36l16.04-6.77s10.82,1.93,12.83,2.26l2.01.33-17.12,7.3-13.76-3.13Z"/>
        <path class="cls-3" d="m306.3,176.7l-29.68,13.44s21.53,4.29,26.56,6.65c5.03,2.37,7.11,4.13,7.11,4.13l29.41-15.28s-.93-2.14-3.73-3.14c-2.79-1.01-29.68-5.8-29.68-5.8Z"/>
        <polygon class="cls-4" points="254.62 195.81 286.21 180.42 312.82 185.64 284.21 201.98 254.62 195.81"/>
        <g>
          <path class="cls-3" d="m253,170.91s2.93,1.37,7.52,2.11c4.59.75,5.12.02,6.72.75,1.6.73,3.13,1.06,3.13,1.06l-13.77,12.24s-4.73-1.53-8.52-2.46c-3.79-.93-10.45-1.8-10.45-1.8,0,0,7.45-5.12,9.25-6.85,1.8-1.73,6.12-5.06,6.12-5.06Z"/>
          <path class="cls-4" d="m266.13,175.41c-1.52-.99-3.06-.94-4.81-1.04-2.2-.12-4.02-1.19-6.15-1.57-.5-.09-.72.68-.21.77,1.72.31,3.26,1.21,4.99,1.49,1.99.31,4-.12,5.79,1.04.43.28.83-.41.4-.69Z"/>
          <path class="cls-4" d="m262.62,176.73c-1.67-.9-3.42-.72-5.2-1.21-1.77-.49-3.21-1.57-5.08-1.64-.51-.02-.51.78,0,.8,1.79.06,3.19,1.17,4.87,1.61,1.69.44,3.43.28,5.01,1.13.45.24.86-.45.4-.69Z"/>
          <path class="cls-4" d="m255.67,184.58c-4.03-1.78-8.25-2.84-12.65-3.17-.51-.04-.51.76,0,.8,4.25.31,8.35,1.33,12.25,3.06.47.21.87-.48.4-.69Z"/>
          <path class="cls-4" d="m257.53,182.55c-1.36-.06-2.51-1.03-3.86-1.27-1.37-.25-2.75-.19-4.05-.76-.47-.2-.87.49-.4.69,1.32.57,2.65.59,4.04.81,1.51.24,2.73,1.26,4.26,1.32.51.02.51-.78,0-.8Z"/>
        </g>
        <g>
          <path class="cls-15" d="m270.59,184.24l-.65-1.63,15.46-6.18c.23-.09.5.02.59.25l.31.78c.09.23-.02.5-.25.6l-15.46,6.18Z"/>
          <path class="cls-15" d="m269.93,182.61s-5.06,2.22-5.16,2.42.23.77.43.77,5.38-1.56,5.38-1.56l.91-1.15-1.57-.47Z"/>
          <path class="cls-15" d="m285.09,177.56s-.02-.04-.03-.06c-.09-.22.01-.48.24-.57l2.34-.97c.22-.09.48,0,.57.24.09.22-.01.48-.24.57l-2.34.97c-.2.08-.43,0-.54-.18Z"/>
          <path class="cls-15" d="m279.48,181.73s-.02-.04-.03-.06c-.09-.22.01-.48.24-.57l5.61-2.34-.27-.64c-.09-.22.01-.48.24-.57.22-.09.48,0,.57.24l.43,1.05c.09.22-.01.48-.24.57l-6.02,2.5c-.2.08-.43,0-.54-.18Z"/>
        </g>
        <g>
          <path class="cls-3" d="m260.29,213.33c1.54.27,3.43,1.41,4.91.28.66-.5.64-1.04.89-1.75.59-1.72.42-.98,1.35-1.91.17-.17.36-.35.46-.57.61-1.34-.64-2.78-1.45-3.69-.91-1.02-1.99-2.07-3.46-1.65-.9.26-1.75.94-2.5,1.74-.69.03-1.31.4-2.09,1.21-1.07,1.11-1.58,2.68-1.11,4.18.52,1.67,1.53,1.89,3.03,2.15Z"/>
          <path class="cls-4" d="m263.96,211.32c-.1-.33-.34-.61-.57-.84-.64-.66-.97-1.14-.69-2.12.17-.6.43-1.06.03-1.66-.36-.54-.99-.68-1.58-.44-.18.08-.33.34-.25.54.14.36.34.06.59.06.17,0,.33.07.45.19.21.23.22.62.04.87l.03.05c-.06.1-.12.19-.18.29-.04.17-.2.36-.25.54-.09.35-.06.65.09.99.41.94,2.23,1.63,1.1,2.77-.36.37.2.93.56.56.48-.49.85-1.09.63-1.79Z"/>
        </g>
      </g>
      <g>
        <path class="cls-12" d="m220.52,35.23c-2.5,3.03-4.76,6.22-6.79,9.56-.05-1.7-.48-3.43-1.19-5.17-1.13-2.77.68-5.77,2.07-8.2.66-1.15,1.42-2.26,2.36-3.21.67-.67,1.35-1.01,1.59-1.94.08-.31-.2-.54-.49-.49-3.96.71-6.29,4-8.53,7.04-1.42,1.94-2.9,3.71-5.03,4.9-.18.1-.36.2-.54.29.22-1.78.28-3.58.2-5.44-.16-3.76,1.79-7.73,2.92-11.27.13-.4-.39-.64-.67-.39-2.86,2.52-5.79,5.06-8.91,7.26-2.78,1.96-7.04,1.73-10.37,1.79-1.93.04-3.68-.24-5.53-.76-.29-.08-.58-.16-.87-.24,1.03-.84,1.95-1.83,2.71-2.98,1.21-1.81,1.97-3.88,2.24-6.04.38-3.09-.24-6.18.66-9.21.13-.45-.49-.68-.73-.31-1.26,1.92-3.23,2.92-5.26,3.85-.86.39-1.7.8-2.52,1.22.41-1.05.81-2.1,1.23-3.15.15-.37-.41-.67-.67-.39-1.89,2.1-3.77,4.2-5.66,6.3-1.92,2.14-4.54,3.87-6.88,5.64-1.78.79-3.68,1.47-5.17,2.63,1.48-3.52,2.53-7.19,3.12-10.99,0,0,.01-.02.02-.03.28-.43-.41-.83-.7-.39-.01.02-.03.03-.04.05-3.13,4.8-6.95,9.13-11.31,12.82-1.56.82-3.23,1.44-4.98,1.86,1.23-1.81,1.86-3.83,1.87-6.08,0-.41-.53-.52-.74-.2-.97,1.44-2.21,2.49-3.75,3.17,1.24-2.9,1.73-5.97,1.41-9.15-.03-.35-.56-.6-.74-.2-2.64,5.79-9.91,5.61-14.76,8.48-8.7,5.15-6.85,16.17-6.79,24.72.02,2.91.35,5.86-.28,8.73-.63,2.9-1.36,5.69-1.64,8.68-.62,6.75-1.87,21.29,7.08,22.92,4.81.88,9.71,1,14.49,2.09,4.01.92,10.16,4,18.14,4,4.63,0,12.84-1.02,17.52-1.02,4.79,0,9.53.84,14.24,1.67,4.93.86,10.84,2.63,15.8.7,6.6-2.57,6.27-11.12,5.89-16.99-.31-4.8-2.69-9.28-2.26-14.16.24-2.72,1.14-5.35,1.9-7.95l2.37-8.01c1.54-5.21,3.08-10.43,4.62-15.64.11-.36-.41-.7-.67-.39Z"/>
        <path class="cls-1" d="m139.96,30.4c-1.45.58-2.93.98-4.44,1.3,2.11-1.4,3.64-3.56,4.2-6.15.08-.38-.37-.68-.67-.39-1.36,1.33-2.91,2.34-4.72,2.94-1.18.39-2.41.5-3.51,1.11-1.66.92-2.79,2.47-3.28,4.26-.16.1-.25.29-.11.49-.01.07-.03.13-.05.2-.07.39.37.6.62.45,1.72,1.59,4.45,1.59,6.7,1.33,2.71-.31,5.01-2.42,5.74-5.03.08-.27-.2-.61-.49-.49Z"/>
        <path class="cls-1" d="m201.44,28.2c-1.78,2.32-3.6,4.58-6.34,5.77-2.27.99-3.43,2.29-5.09,4.14-.05.05-.07.11-.09.17-.03,0-.05,0-.08-.02-.5-.11-.71.66-.21.77,1.73.39,3.47.62,5.25.59,1.24-.02,2.79.05,3.66-.99.77-.92.79-2.3.93-3.43.32-2.61,1.54-4.34,2.66-6.6.23-.47-.38-.8-.69-.4Z"/>
        <path class="cls-1" d="m176.63,30.82c-1.54.59-3.1,1.07-4.7,1.47,2.52-3.08,4.83-6.4,4.99-10.51.01-.33-.46-.55-.68-.28-2.64,3.09-5.78,5.06-9.47,6.65-3.18,1.37-4.72,3.4-6.22,6.46-.04.08-.04.16-.03.24-.42.5-.82,1.16-.53,1.82.18.41.54.71.91.96,1.72,1.15,3.87,1.14,5.84.84,4.46-.68,9.26-2.3,10.38-7.16.06-.27-.19-.61-.49-.49Z"/>
        <path class="cls-1" d="m163.29,27.15c-1.41,1.66-3.02,3.11-4.9,4.24-.92.55-2.18.72-3.12,1.28.05-.98-.06-1.92-.32-2.9-.08-.3-.45-.37-.67-.18-1.01.91-2.55,1.43-3.43,2.44-.85.98-1.3,2.54-1.85,3.7-.13.28.07.53.29.59.03.04.07.08.12.11,1.66,1.06,3.41,1.18,5.34,1.18,1.78,0,3.76.25,5.37-.68,1.04-.6,2.75-1.69,3.31-2.76.36-.69.26-1.63.3-2.38.07-1.45.15-2.91.22-4.36.02-.33-.46-.55-.68-.28Z"/>
        <polygon class="cls-3" points="209.05 39.7 209.05 97.03 196.91 95.76 196.11 95.68 191.72 95.22 190.92 95.14 185.04 94.52 184.24 94.43 174.02 93.36 173.22 93.28 173.16 93.28 172.36 93.2 161.3 92.04 160.5 91.95 156.87 91.57 156.07 91.49 149.42 90.79 148.62 90.71 140.85 89.9 140.06 89.81 137.55 89.55 136.75 89.47 125.91 88.33 125.91 32.52 209.05 39.7"/>
        <path class="cls-12" d="m199.87,11.95c-.07.09-.14.19-.18.28-.57,1.29-.99,2.67-1.84,3.79-1.29,1.69-3.37,2.54-5.32,3.41-3.54,1.56-6.4,4.15-6.04,8.37.01.15.03.31.14.43.58.63,3.23-.84,3.89-1.04,2.11-.67,4.27-.97,5.86-2.69,1.12-1.21,1.69-2.79,2.07-4.37.41-1.72.95-3.27,1.53-4.94.25-.72,1.24-2.76.53-3.43-.19-.18-.45-.03-.63.19Z"/>
        <path class="cls-12" d="m222.48,54.32c-1.39,3.01-3.54,4.56-5.97,6.64-1.27,1.08-2.1,2.49-2.31,4.16-.31,2.55.08,5.24.14,7.81,0,.44.67.55.78.11.9-3.45,2.33-6.7,4.34-9.65,1.95-2.85,3.11-5.29,3.74-8.75.07-.41-.53-.75-.73-.31Z"/>
        <polygon class="cls-4" points="209.05 39.7 209.05 54.56 125.91 46.4 125.91 32.52 209.05 39.7"/>
        <g>
          <path class="cls-4" d="m209.05,63.58v.81c-2.88-.31-9.28-1.01-17.33-1.88-.26-.03-.53-.06-.8-.09-5.16-.57-10.95-1.19-16.9-1.84-.26-.02-.53-.06-.8-.08-5.45-.6-11.01-1.2-16.35-1.78-.27-.02-.54-.06-.8-.09-5.48-.59-10.68-1.16-15.22-1.64-.27-.03-.54-.06-.8-.09-6.76-.73-11.94-1.29-14.14-1.53v-.8c2.19.23,7.36.78,14.14,1.52.26.03.54.06.8.09,4.54.49,9.73,1.05,15.22,1.65.26.02.53.06.8.08,5.32.58,10.88,1.18,16.35,1.78.27.03.53.06.8.09,5.93.65,11.72,1.27,16.9,1.84.26.03.54.06.8.09,7.71.84,14.01,1.53,17.33,1.88Z"/>
          <path class="cls-4" d="m209.05,74.72v.81c-2.88-.31-9.28-1.01-17.33-1.88-.26-.03-.53-.06-.8-.1-5.16-.56-10.95-1.18-16.9-1.84-.26-.02-.53-.06-.8-.08-5.45-.6-11.01-1.2-16.35-1.78-.27-.02-.54-.06-.8-.09-5.48-.59-10.68-1.16-15.22-1.64-.27-.03-.54-.06-.8-.09-6.76-.73-11.94-1.29-14.14-1.53v-.8c2.19.23,7.36.78,14.14,1.52.26.03.54.06.8.09,4.54.49,9.73,1.05,15.22,1.65.26.02.53.06.8.08,5.32.58,10.88,1.18,16.35,1.78.27.03.53.06.8.09,5.93.65,11.72,1.27,16.9,1.84.26.03.54.06.8.09,7.71.84,14.01,1.53,17.33,1.88Z"/>
          <path class="cls-4" d="m209.05,85.92v.81c-2.88-.31-9.28-1.01-17.33-1.88-.26-.03-.53-.06-.8-.1-5.16-.56-10.95-1.18-16.9-1.84-.26-.02-.53-.06-.8-.08-5.45-.6-11.01-1.2-16.35-1.78-.27-.02-.54-.06-.8-.09-5.48-.59-10.68-1.16-15.22-1.64-.27-.03-.54-.06-.8-.09-6.76-.73-11.94-1.29-14.14-1.53v-.8c2.19.23,7.36.78,14.14,1.52.26.03.54.06.8.09,4.54.49,9.73,1.05,15.22,1.65.26.02.53.06.8.08,5.32.58,10.88,1.18,16.35,1.78.27.03.53.06.8.09,5.93.65,11.72,1.27,16.9,1.84.26.03.54.06.8.09,7.71.84,14.01,1.53,17.33,1.88Z"/>
          <polygon class="cls-4" points="137.55 44.81 137.55 89.55 136.75 89.47 136.75 44.81 137.55 44.81"/>
          <polygon class="cls-4" points="149.42 46.15 149.42 90.79 148.62 90.71 148.62 46.15 149.42 46.15"/>
          <polygon class="cls-4" points="161.3 47.5 161.3 92.04 160.5 91.95 160.5 47.5 161.3 47.5"/>
          <polygon class="cls-4" points="173.16 48.84 173.16 93.28 172.36 93.2 172.36 48.84 173.16 48.84"/>
          <polygon class="cls-4" points="185.04 50.18 185.04 94.52 184.24 94.43 184.24 50.18 185.04 50.18"/>
          <polygon class="cls-4" points="196.91 51.4 196.91 95.76 196.11 95.68 196.11 51.4 196.91 51.4"/>
        </g>
        <path class="cls-16" d="m172.76,83.02s-.05,0-.07,0l-11.87-1.5c-.3-.04-.52-.29-.52-.59v-11.16c0-.17.07-.33.2-.45s.3-.17.46-.15l11.87,1.29c.3.03.53.29.53.6v11.36c0,.17-.07.34-.2.45-.11.1-.25.15-.4.15Zm-11.27-2.62l10.67,1.35v-10.15l-10.67-1.16v9.96Z"/>
        <g>
          <path class="cls-7" d="m184.21,74.42c-.06-.08-.12-.16-.18-.23-.03-.04-.06-.07-.1-.11-.04-.04-.07-.08-.1-.12-.94-1.03-2.2-1.8-3.44-2.06-2.75-.57-5.52,1.37-5.75,4.22-.08,1.02.18,2.09.69,3.04.3.66.76,1.24,1.33,1.71.85.76,1.91,1.26,3.04,1.29.09,0,.17-.02.25-.05.21,0,.41,0,.62-.04.03,0,.06-.01.08-.02.04,0,.07,0,.11,0,2.41-.29,4.68-2.27,4.55-4.85-.05-.99-.47-1.95-1.1-2.78Zm-1.18,1.15c.09.19.15.4.17.65.08.98-.59,2.07-1.1,2.87-.7,1.1-1.88,1.49-2.98,1.29-.91-.23-1.69-.81-2.01-1.8-.32-1.01,0-2.22.51-3.13.71-1.25,1.53-1.53,2.88-1.25.67.14,1.44.3,1.99.71.2.21.38.43.54.67Z"/>
          <path class="cls-7" d="m188.72,71.09c.71-1.86,1.01-3.86.91-5.85-.07-1.42-.15-4.04-1.49-4.94-2.2-1.48-2.67,3.13-2.77,4.25-.21,2.45.18,4.96,1.16,7.22.18.4.45.86.89.89.5.04.84-.48,1.04-.94.09-.21.18-.42.26-.63Z"/>
          <path class="cls-7" d="m188.64,74.47c-.69-.44-1.63-.12-2.01.57-.02.03-.02.06-.04.09-.06.09-.1.19-.14.29-.05.17-.07.34-.06.51-.02.57.19,1.14.67,1.45,0,0,.02,0,.02,0,.12.1.25.18.42.23.59.18,1.03-.1,1.3-.53.15-.16.28-.36.36-.58.25-.69.13-1.61-.54-2.03Z"/>
        </g>
        <path class="cls-15" d="m181.69,70.48c-.35,2.49-1,4.89-1.92,7.22-.47-.64-.87-1.31-1.22-2.04-.22-.46-.91-.06-.69.4.48.99,1.05,1.87,1.75,2.72.21.26.56.07.67-.18,1.07-2.55,1.8-5.18,2.18-7.92.07-.5-.7-.72-.77-.21Z"/>
      </g>
      <g>
        <path class="cls-9" d="m86.18,11.67v93.86c0,.32-.19.61-.49.73l-55.18,23.21c.35-1.24.69-2.48,1.05-3.71,4.73-16.97,8.72-33.78,11.96-48.16.08-.31.15-.61.22-.93.34-1.49.67-2.97.99-4.41,2.46-11.03,6.13-20.97,11.1-29.75.26-.45.51-.89.77-1.33,6.57-11.17,15.31-20.4,26.39-27.56,1.05-.67,2.11-1.33,3.19-1.96Z"/>
        <path class="cls-3" d="m82.99,13.62v89.98c0,.33-.19.61-.49.73l-24.68,10.38-.79.34-25.47,10.72c4.73-16.97,8.72-33.78,11.96-48.16.08-.31.15-.61.22-.93.34-1.49.67-2.97.99-4.41,2.46-11.03,6.13-20.97,11.1-29.75.26-.45.51-.89.77-1.33,6.57-11.17,15.31-20.4,26.39-27.56Z"/>
        <path class="cls-9" d="m84.69,62.43l-1.7.63-25.86,9.53-.8.3-12.81,4.72c.08-.31.15-.61.22-.93l12.58-4.64.79-.3,25.88-9.54,1.43-.53.27.75Z"/>
        <path class="cls-9" d="m57.85,116.41l-.8.02-.02-1.37-.7-42.16v-.85s-.5-29.52-.5-29.52c.26-.45.51-.89.77-1.33l.51,30.56.02.85.69,42.12.03,1.69Z"/>
      </g>
      <path class="cls-3" d="m333.52,295.73s-8.58,8.45-12.78,12.38c-4.19,3.93-7.92,8.32-7.92,8.32,0,0,20.49,2.79,24.09,3.19,3.59.4,4.99.7,4.99.7,0,0,6.19-8.58,7.39-10.08s10.08-12.5,10.08-12.5c0,0-13.18-.78-15.57-.78s-10.28-1.24-10.28-1.24Z"/>
      <path class="cls-3" d="m347.49,287.69l-4.09,5.49s9.38,2.21,10.78,2.55c1.4.34,10.98,2.94,10.98,2.94l6.19-9.41s-10.88-2.46-13.97-3.16c-3.09-.7-6.89-1.55-6.89-1.55l-2.99,3.15Z"/>
      <path class="cls-3" d="m167.17,250.96s-12.98-1.2-17.51-2.66c-4.52-1.46-15.95-1.86-15.95-1.86,0,0-3.61,4.76-6.14,6.04-2.53,1.28-6.58,3.41-6.58,3.41,0,0,20.19,2.13,23.83,3.46,3.64,1.33,12.79,3.26,12.79,3.26,0,0,5.31-6.09,6.69-7.39,1.38-1.3,2.87-4.26,2.87-4.26Z"/>
      <g>
        <g>
          <g>
            <path class="cls-10" d="m388.42,218.92c0,3.14-6.93,5.69-15.48,5.69s-15.48-2.55-15.48-5.69,6.93-5.69,15.48-5.69,15.48,2.55,15.48,5.69Z"/>
            <path class="cls-10" d="m388.42,274.74c0,3.14-6.93,5.69-15.48,5.69s-15.48-2.55-15.48-5.69,6.93-5.69,15.48-5.69,15.48,2.55,15.48,5.69Z"/>
            <rect class="cls-10" x="357.46" y="218.92" width="30.96" height="55.82"/>
            <path class="cls-6" d="m385.92,218.92c0,2.2-5.81,3.99-12.98,3.99s-12.98-1.79-12.98-3.99,5.81-3.99,12.98-3.99,12.98,1.79,12.98,3.99Z"/>
          </g>
          <path class="cls-3" d="m388.42,226.85v7.07c-.48,1.64-1.01,3.09-1.4,3.06-.86-.06-3.39-6.3-3.39-6.3,0,0-2.87,8.03-3.94,8.03s-4.78-6.2-4.78-6.2c0,0-3.07,6.87-4.4,6.8-1.33-.07-4.76-7.55-4.76-7.55,0,0-4.22,6.88-5.15,6.48-.93-.4-3.15-9.95-3.15-9.95l.06.02s-.04-.02-.06-.04v-.95c6.02,4.18,13.93,5.13,21.1,3.99,3.72-.59,7.07-2.18,9.86-4.47Z"/>
          <path class="cls-3" d="m388.42,264.68v1.73c-3.82,1.53-7.8,2.47-11.83,2.79h0c-2.28.18-4.58.18-6.88-.03h0c-4.15-.36-8.28-1.37-12.23-3.03v-1.74c9.98,4.39,21.06,4.44,30.96.27Z"/>
        </g>
        <g>
          <path class="cls-18" d="m354.8,166.76c.02-.17.09-.32.11-.51.03-.22-.02-.45-.02-.67,0-.52.02-1.04.03-1.56.02-1.04.03-2.08.05-3.12.03-2.08.05-4.16.07-6.23.04-4.16.05-8.31.04-12.47-.01-4.16-.05-8.31-.1-12.47,0-.23,0-.46,0-.69,0-.51-.81-.51-.8,0,.18,12.16.15,24.33-.07,36.49-3.93-7.54-8.48-14.77-13.62-21.58-.31-.41-1,0-.69.4,16.28,21.59,26.7,47.32,29.97,74.17.06.5.86.51.8,0-.46-3.77-1.06-7.51-1.79-11.23-.74-3.73-1.62-7.44-2.63-11.11-1.01-3.67-2.16-7.29-3.43-10.87-1.28-3.58-2.68-7.11-4.22-10.59-.6-1.36-1.22-2.71-1.86-4.05-.32-.68-.65-1.36-.98-2.03-.25-.5-.59-1-.8-1.51-.05-.13-.06-.25-.04-.36Z"/>
          <path class="cls-18" d="m403.78,176.2c-7.94,3.67-15.89,7.43-22.86,12.76,1.2-5.95,2.54-11.86,4-17.75,3.67-14.8,8.17-29.47,15.39-42.96.24-.45-.45-.86-.69-.4-5.24,9.77-9.05,20.17-12.15,30.79-1.61-5.68-4.13-14.11-7.24-22.94-4.15-11.78-9.11-24.23-12.04-31.54-.19-.47-.96-.27-.77.21.99,2.48,7.93,20.33,8.87,22.84.95,2.51,1.87,5.04,2.76,7.57.9,2.53,1.76,5.07,2.61,7.62.84,2.55,1.66,5.11,2.45,7.67.79,2.57,1.56,5.14,2.29,7.72.11.37.22.75.3,1.13.06.27.07.55.14.82.07.24.18.44.14.7-.08.52-.34,1.08-.48,1.59-.18.66-.37,1.32-.55,1.99-.36,1.33-.71,2.65-1.05,3.98-.26,1-.51,2-.76,2.99-.66,2.66-1.29,5.33-1.9,8-.61,2.67-1.19,5.35-1.74,8.04-.54,2.65-1.06,5.3-1.55,7.95-.5,2.69-.96,5.38-1.39,8.08-.43,2.7-.83,5.4-1.2,8.11-.34,2.51-.65,5.02-.93,7.53-.06.51.74.51.8,0,1.06-9.6,2.58-19.13,4.46-28.6,7.1-5.61,15.31-9.46,23.49-13.24.47-.22.06-.9-.4-.69Z"/>
          <path class="cls-23" d="m371.63,99.81c-1-3.67-2.46-7.23-4.69-10.31-.78-1.07-1.7-2.13-2.95-2.57-1.13-.4-2.62-.14-3.32.91-.93,1.4-.37,3.2-.21,4.73.37,3.53.75,7.1,2.02,10.41.46,1.2,1.06,2.39,2.03,3.23.97.85,2.37,1.29,3.57.84.42-.16.8-.41,1.22-.57.43-.17.89-.23,1.3-.43.91-.43,1.45-1.43,1.57-2.43.13-1-.09-2.01-.34-2.98-.07-.28-.14-.56-.22-.83Z"/>
          <path class="cls-23" d="m381.36,106.82c-.43-1.04-1.44-1.56-2.56-1.42-2.05.27-3.07,2.46-3.8,4.13-1.31,3-3.01,8.37-.86,11.41.16.61.63,1.09,1.43,1.12,1.44.06,2.49-1.87,3.14-2.92,1.21-1.94,1.97-4.14,2.39-6.38.33-1.71.94-4.28.25-5.95Z"/>
          <path class="cls-23" d="m376.77,128.94c-.88-1.41-1.95-2.7-3.18-3.82-1.12-1.02-2.41-1.92-3.88-2.31-2.9-.76-3.96,2.03-2.9,4.37.5,1.11,1.35,2.02,2.22,2.87,1.62,1.59,3.42,3.06,5.55,3.85,1.04.39,2.37.54,3.11-.28.79-.87.4-2.26-.13-3.31-.24-.47-.5-.94-.78-1.39Z"/>
          <path class="cls-23" d="m386.69,130.38c-2.93,2-3.54,5.82-4.58,8.94-.39,1.16-.16,4.06.88,5.03.34.32.89.34,1.32.17.43-.18.78-.52,1.09-.87,1.67-1.91,2.63-4.33,3.37-6.76.55-1.81.99-3.75.5-5.58-.18-.67-.62-1.4-1.31-1.43-.29-.01-.57.11-.83.25-.15.08-.29.17-.43.26Z"/>
          <path class="cls-23" d="m384.59,152.15c-2.21-2.93-5.56-4.99-9.18-5.63-2.35-.41-2.72,1.29-1.94,3.19,1.63,3.96,6.02,6.6,10.28,6.18.43-.04.87-.12,1.21-.39.47-.37.62-1.05.51-1.64-.11-.59-.45-1.12-.81-1.6-.03-.04-.05-.07-.08-.11Z"/>
          <path class="cls-23" d="m406.52,119.78c-.79-.6-2.03-.21-2.92.32-3.65,2.17-6.36,6.23-6.65,10.5-.05.8.01,1.71.6,2.26.51.48,1.3.56,1.97.36.67-.2,1.24-.64,1.77-1.1,2.9-2.53,4.95-6.03,5.74-9.8.17-.83.25-1.8-.35-2.4-.05-.05-.1-.1-.16-.14Z"/>
          <path class="cls-23" d="m402.3,137.56c-.33-.05-.67-.06-.99-.03-3.05.29-7.41,2.73-8.24,5.89-.22.83-.19,1.82.43,2.42.77.73,2,.5,3,.16,2.68-.93,5.23-2.45,6.97-4.69.52-.66.98-1.49.77-2.3-.22-.84-1.05-1.3-1.95-1.44Z"/>
          <path class="cls-23" d="m395.12,153.02c-.47.07-.93.21-1.37.39-3.08,1.22-6.52,4.21-6.09,7.86.06.52.22,1.06.64,1.38.52.4,1.26.31,1.9.14,3.18-.83,5.94-3.14,7.32-6.13.36-.78.63-1.7.27-2.48-.31-.69-1.07-1.11-1.82-1.19-.28-.03-.57-.02-.85.02Z"/>
          <path class="cls-23" d="m383.7,169.16c-.68-2.6-2.22-4.97-4.38-6.58-.5-.37-1.04-.71-1.65-.81-3.48-.6-1.47,5.24-.68,6.67,1.02,1.86,2.53,3.4,4.16,4.76.4.33.82.66,1.33.79s1.11-.01,1.38-.45c.16-.25.19-.55.2-.84.07-1.19-.06-2.38-.36-3.53Z"/>
          <path class="cls-23" d="m412.88,173.52c-.37-.68-1.03-1.22-1.77-1.48-1.14-.4-2.4-.26-3.58.04-2.47.63-10.88,4.78-6.98,8.38.87.81,2.22.78,3.39.57,2.8-.5,5.45-1.78,7.6-3.64.81-.7,1.59-1.59,1.64-2.66.02-.43-.09-.84-.29-1.21Z"/>
          <path class="cls-23" d="m394.28,169.79c-.78-.28-1.7-.06-2.39.41-3.63,2.44-4.1,8.34-3.1,12.18.09.35.21.72.47.97.6.58,1.62.26,2.29-.24.98-.73,1.7-1.75,2.29-2.82,1.2-2.17,1.96-4.6,2.03-7.07.04-1.27-.24-2.74-1.36-3.33-.08-.04-.16-.08-.24-.11Z"/>
          <path class="cls-23" d="m395.86,186.55c-2.57-1.09-5.42-1.5-8.2-1.17-1.98.23-3.26,1.96-1.52,3.64.73.71,1.76,1.02,2.76,1.23,2.29.5,4.71.64,6.95-.05.49-.15.99-.35,1.37-.7.38-.35.63-.88.53-1.38-.14-.67-.81-1.09-1.44-1.37-.15-.07-.3-.13-.45-.2Z"/>
          <path class="cls-23" d="m380.18,183.61c-.78-2.43-2.23-4.92-3.54-6.5-.69-.83-1.74-1.66-2.74-1.25-.87.36-1.13,1.44-1.2,2.37-.25,3.37.65,6.81,2.52,9.62.76,1.14,1.91,2.29,3.27,2.12,1.28-.16,2.15-1.49,2.24-2.78.08-1.09-.14-2.33-.54-3.59Z"/>
          <path class="cls-23" d="m384.46,194.55c-.18.04-.37.09-.54.15-3.42,1.16-5.5,4.8-6.12,8.19-.07.38-.11.8.1,1.12.37.55,1.22.42,1.83.17,1.96-.8,3.65-2.16,5.11-3.69.89-.94,1.73-2,2.03-3.25.21-.87.08-1.91-.64-2.43-.5-.36-1.15-.38-1.77-.24Z"/>
          <path class="cls-23" d="m357.66,123.8c.02-.63.01-1.25-.02-1.88-.07-1.25-.29-2.58-1.17-3.47-3.21-3.23-4.74,3.49-4.8,5.43-.08,2.52.34,5.05,1.21,7.41.17.46.36.92.7,1.27.34.35.85.57,1.32.44.57-.16.88-.76,1.1-1.31,1.02-2.5,1.59-5.19,1.67-7.89Z"/>
          <path class="cls-23" d="m359.11,133.56c-3.11,1.48-4.58,5.86-4.11,9.08.05.32.13.65.36.87.54.52,1.43.09,2-.39,1.52-1.26,2.78-2.82,3.69-4.57.6-1.15,1.06-2.48.75-3.74-.16-.67-.6-1.35-1.28-1.5-.45-.1-.93.04-1.35.23-.02,0-.04.02-.06.03Z"/>
          <path class="cls-23" d="m350.39,138.63c-.46-.35-.98-.64-1.55-.72-2.89-.4-2.66,4.06-2.17,5.74.46,1.59,1.32,3.03,2.23,4.4.66.99,1.38,1.99,2.37,2.65.49.33,1.08.57,1.67.49,1.42-.21,1.84-1.89,1.87-3.13.06-3.43-1.46-6.86-4.05-9.11-.12-.11-.25-.21-.38-.31Z"/>
          <path class="cls-23" d="m360.25,149.84c-.32.07-.64.24-.93.41-2.4,1.51-4.07,4.32-4.76,7.03-.14.54-.22,1.16.1,1.61.31.42.91.55,1.42.43.51-.12.95-.43,1.37-.75,2.23-1.71,4.27-4.06,4.4-6.86.03-.69-.13-1.51-.76-1.81-.27-.13-.56-.13-.85-.07Z"/>
          <path class="cls-23" d="m340.85,139.88c-.9-1.53-2.07-2.9-3.45-4.01-.59-.47-1.23-.91-1.98-1.03-2.31-.39-2.54,2.16-2.27,3.79.62,3.8,3.44,7.2,7.06,8.53.59.22,1.28.37,1.82.06.77-.45.79-1.55.64-2.43-.3-1.73-.93-3.39-1.82-4.9Z"/>
          <path class="cls-23" d="m348.24,156.53c-.23-.75-.68-1.44-1.26-2.03-.25-.39-.52-.72-.78-.94-.13-.12-.29-.12-.42-.07-1.29-.89-2.85-1.48-4.19-1.69-2.21-.35-4.83.95-3.05,3.33.9,1.19,2.37,2.13,3.7,2.74,1.13.52,2.92,1.31,4.19.97,1.02-.27,1.38-.99,1.38-1.82.25.01.51-.18.41-.49Z"/>
          <path class="cls-23" d="m355.91,169.96c.17-.1.27-.31.16-.54-1.55-3.13-5.33-4.81-8.66-5.29-1.7-.24-5.43.51-4.41,3.01,1.41,3.45,5.66,4.17,8.79,5.09,1.19.35,2.74.85,3.79-.14.7-.66.65-1.42.32-2.14Z"/>
          <path class="cls-23" d="m366.5,169.33c-.71-2.41-2.77-5.23-4.54-1.78-1.38,2.69-1.85,5.51-2,8.5-.08,1.54-.55,4.53,1.19,5.39.95.47,2-.41,2.53-1.08,2.18-2.75,3.51-6.53,3.03-10.05-.04-.3-.11-.63-.21-.97Z"/>
          <path class="cls-23" d="m364.99,192.96c-.11-.44-.31-.88-.53-1.26-1.4-2.34-3.82-4.06-6.49-4.62-2.24-.46-3.04,1.09-2.04,3.02.67,1.29,1.73,2.32,2.84,3.25,1.02.85,2.15,1.65,3.45,1.94.91.21,2.01.08,2.55-.68.34-.48.36-1.07.22-1.66Z"/>
        </g>
      </g>
    </g>
  </g>
</svg>