<?xml version="1.0" encoding="UTF-8"?>
<svg id="Layer_2" data-name="Layer 2" xmlns="http://www.w3.org/2000/svg" xmlns:xlink="http://www.w3.org/1999/xlink" viewBox="0 0 380.8 320.65">
  <defs>
    <style>
      .cls-1, .cls-2 {
        fill: none;
      }

      .cls-3 {
        clip-path: url(#clippath);
      }

      .cls-4 {
        fill: #ecac95;
      }

      .cls-5 {
        fill: #e6e0dc;
      }

      .cls-6 {
        fill: #eeb9a3;
      }

      .cls-7 {
        fill: #fff;
      }

      .cls-8 {
        fill: #e68e7a;
      }

      .cls-9 {
        fill: #e79a87;
      }

      .cls-10 {
        fill: #969492;
      }

      .cls-11 {
        fill: #85614c;
      }

      .cls-12 {
        fill: #b44736;
      }

      .cls-13 {
        fill: #de6754;
      }

      .cls-14 {
        fill: #d9c8bd;
      }

      .cls-15 {
        fill: #dc5448;
      }

      .cls-16 {
        fill: #e27764;
      }

      .cls-17 {
        fill: #dee6fb;
      }

      .cls-18 {
        fill: #432919;
      }

      .cls-19 {
        fill: #2b1503;
      }

      .cls-20 {
        fill: #2e1806;
      }

      .cls-21 {
        fill: #624330;
      }

      .cls-22 {
        clip-path: url(#clippath-1);
      }

      .cls-2 {
        stroke: #664938;
        stroke-linecap: round;
        stroke-linejoin: round;
        stroke-width: 17.5px;
      }

      .cls-23 {
        opacity: .5;
      }
    </style>
    <clipPath id="clippath">
      <path class="cls-17" d="m289.53,52.81c9.49,7.03,18.68,14.88,24.91,25,6.23,10.12,9.18,22.88,5.48,34.21-4.35,13.31-16.96,22.7-20.59,36.23-5.37,19.98,10.55,39.01,26.27,52.17,16.23,13.58,34.06,26.04,45.44,44.01,11.38,17.97,14.4,43.69.43,59.65-11.92,13.61-31.73,15.96-49.65,16.42-62.27,1.59-124.81-8.78-183.35-30.4-19.65-7.25-40.11-16.84-50.85-35.07-6.18-10.49-8.47-22.81-12.9-34.18C58.09,178.12,12.37,150.54,1.98,105.82c-6.18-26.58,2.4-56.19,21.76-75.12C60.75-5.48,128.41-2.97,175.35,4.76c19.28,3.18,38.22,8.47,56.37,15.78,18.23,7.34,35.68,16.71,51.85,27.98,2,1.4,3.99,2.82,5.95,4.28Z"/>
    </clipPath>
    <clipPath id="clippath-1">
      <ellipse class="cls-1" cx="145.08" cy="111.25" rx="66.37" ry="83.76"/>
    </clipPath>
  </defs>
  <g id="Layer_1-2" data-name="Layer 1">
    <g>
      <g>
        <path class="cls-17" d="m289.53,52.81c9.49,7.03,18.68,14.88,24.91,25,6.23,10.12,9.18,22.88,5.48,34.21-4.35,13.31-16.96,22.7-20.59,36.23-5.37,19.98,10.55,39.01,26.27,52.17,16.23,13.58,34.06,26.04,45.44,44.01,11.38,17.97,14.4,43.69.43,59.65-11.92,13.61-31.73,15.96-49.65,16.42-62.27,1.59-124.81-8.78-183.35-30.4-19.65-7.25-40.11-16.84-50.85-35.07-6.18-10.49-8.47-22.81-12.9-34.18C58.09,178.12,12.37,150.54,1.98,105.82c-6.18-26.58,2.4-56.19,21.76-75.12C60.75-5.48,128.41-2.97,175.35,4.76c19.28,3.18,38.22,8.47,56.37,15.78,18.23,7.34,35.68,16.71,51.85,27.98,2,1.4,3.99,2.82,5.95,4.28Z"/>
        <g class="cls-3">
          <path class="cls-6" d="m208.3,297.9l-3.65-18.48c-.39-1.99-.8-4.03-1.88-5.74-.5-.81-1.19-1.53-1.98-2.06-1.29-.86-3.04.03-3.08,1.59-.12,4.47-.24,8.94-.37,13.42-2.02-11.52-7.23-21.62-16.31-29.24-1.07-.9-2.44-1.42-3.84-1.3-3.08.25-3.78,2.95-4.2,5.32-2.87,16.22-2.9,32.94-.08,49.18,6.94,2.85,14.35,5.33,21.84,4.88,8.9-.54,15.27-8.81,13.55-17.56Z"/>
          <g>
            <path class="cls-6" d="m243.55,197.12c.01.17.02.34.04.51.24-5.95-.16-11.92-1.17-17.78,8.08-1.09,16.09-2.74,23.94-4.95,5.31-1.5,10.77-3.44,15.52-6.25,2.88,6.5,7.29,12.24,12.7,16.95-16.99,9.84-35.6,16.89-54.85,20.7,1.65-2.86,2.97-5.91,3.83-9.18Z"/>
            <path class="cls-13" d="m221.46,231.95c2.95-5.02,18.27-25.65,18.27-25.65,0,0,10.61-2.39,14.81-3.61,13.97-4.05,27.45-9.81,40.04-17.09,4.22,3.68,9.05,6.71,14.24,8.98.65-.48,1.3-.95,1.96-1.43,1.78-1.31,17.03,6.24,17.86,3,8.57,3.19,7.81,26.08,8.63,34.07.26,2.55,5,98.42,5,98.42-54.63-.51-138.23,0-139.41,0-1.32,0,9.34-80.93,18.6-96.68Z"/>
          </g>
          <path class="cls-12" d="m243.94,238.64c5.64,3.1,9.51,8.88,11.47,14.88,2.05,6.26,2.3,12.99,2.38,19.53.07,5.74-.27,11.49-.07,17.23.11,3.1-.09,6.23-.24,9.33-.15,3.03-.3,6.07-.6,9.09-.59,6.02-1.35,12.06-2.72,17.97-.27,1.18,1.55,1.69,1.82.5,1.24-5.34,1.98-10.79,2.56-16.23.68-6.3,1.24-12.61,1.57-18.95.08-1.54.3-3.06.35-4.61.06-1.57.15-3.15.12-4.72-.05-2.86-.16-5.73-.33-8.59-.38-6.53-1.03-13.12-2.89-19.41-2.07-6.99-6.2-13.59-13.07-16.63-.4-.18-.76.38-.35.61h0Z"/>
          <path class="cls-8" d="m193.43,285.55c-1.47-5.19-2.93-10.4-4.76-15.48-.89-2.47-1.92-4.89-3.16-7.2-.63-1.18-1.33-2.35-2.13-3.43-.36-.49-.78-.94-1.19-1.38-.45-.49-.87-1.05-1.44-1.39-.35-.21-.86.14-.72.55.22.63.66,1.16,1.01,1.73.33.54.63,1.09.97,1.61.69,1.05,1.36,2.11,2.03,3.18,1.37,2.21,2.6,4.52,3.73,6.87,2.32,4.82,3.98,9.88,5.61,14.96.01.04.07.02.06-.02h0Z"/>
          <path class="cls-8" d="m175.61,256.83c.81,2.47,1.71,4.9,2.52,7.36.82,2.47,1.54,4.97,2.28,7.46.74,2.49,1.39,5.01,2.1,7.52.35,1.25.68,2.51,1.1,3.74.2.57.34,1.14.49,1.73.14.58.21,1.24.52,1.76.06.09.23.09.25-.03.09-.53-.05-1.06-.13-1.59-.11-.71-.22-1.41-.27-2.13-.1-1.29-.37-2.58-.61-3.85-.49-2.56-1.18-5.07-1.9-7.57-1.44-5-3.24-10.06-5.54-14.74-.22-.45-.97-.14-.81.34h0Z"/>
          <path class="cls-8" d="m172.51,265.81c-.04.96-.17,1.92-.22,2.88-.04.94.08,1.93.16,2.87.16,1.93.43,3.84.78,5.75.35,1.9.85,3.73,1.44,5.57.57,1.76,1.06,3.72,2.11,5.25.04.06.15.04.14-.04-.1-1.76-.73-3.49-1.09-5.22-.4-1.88-.72-3.78-1.08-5.67-.34-1.83-.62-3.68-.88-5.53-.13-.94-.2-1.89-.34-2.83-.15-1.02-.42-2-.54-3.03-.04-.31-.47-.32-.49,0h0Z"/>
        </g>
      </g>
      <ellipse class="cls-14" cx="137.11" cy="115.24" rx="74.35" ry="92.04"/>
      <g>
        <path class="cls-19" d="m147.08,22.39c.51-1.58.81-3.1.98-4.76.16-1.64.26-3.3.26-4.95,0-2.02-.08-6.82-3.23-6.29-2.71.46-3.12,3.69-3.09,5.91.04,3.27.36,6.54.6,9.8.06.83,1.37.84,1.31,0-.2-2.67-.21-5.34-.3-8.02-.05-1.7-.57-5.07,1.35-6.02,1.3-.65,1.54,1.29,1.68,2.17.2,1.31.17,2.66.12,3.98-.09,2.69-.44,5.37-.6,8.06-.03.55.77.61.93.13h0Z"/>
        <path class="cls-10" d="m147.11,8.57c.06.07.06.12.1.18.04.07.11-.12.02,0-.1.14-.28.32-.3.45-.01.1-.09.06.03.02.13-.05.05.13.03-.04-.02-.13-.06.05-.02-.11-.03.12-.27.32-.27.31-.01.05-.13,0,.03.03,0,0,.31.03.18,0-.14-.02.16.04.19.06-.19-.08.1.09,0,0-.04-.03.04.05.05.03.05-.05,0-.3.07-.4.13-.18.24-.14.42-.13.09,0-.17-.11-.02,0,.17.12-.1-.07,0,0,.07.07-.05-.22,0,.02.03.12-.07.11,0-.01-.1.15-.18.26-.33.37-.1.03-.08.03.04,0-.05,0-.1.02-.15.03-.28-.08-.5-.2-.6-.51-.03-.08-.01-.3-.02-.1.01-.18.05-.3.16-.44.05-.08.12-.14.21-.18-.1.08-.2.15-.3.23-.19.19-.32.45-.39.7-.17.57.11,1.28.64,1.57,1.39.76,2.78-.7,2.65-2.08-.13-1.36-1.44-2.24-2.76-1.89-1.08.29-1.83,1.33-1.77,2.44.07,1.22.99,2.26,2.21,2.43,1.25.18,2.56-.74,2.58-2.07.01-1.19-1.02-2.18-2.15-2.39-.54-.1-1.09-.08-1.57.23-.38.25-.74.67-.89,1.1-.31.85.12,1.82.88,2.27.9.53,2,.06,2.34-.89.24-.68-.31-1.54-1-1.73-.29-.08-.47.27-.28.48h0Z"/>
        <ellipse class="cls-11" cx="145.08" cy="111.25" rx="74.35" ry="92.04"/>
        <g>
          <ellipse class="cls-5" cx="145.08" cy="111.25" rx="66.37" ry="83.76"/>
          <g>
            <g class="cls-22">
              <g>
                <path class="cls-18" d="m182.07,94.01c2.79-9.11,2.04-19.25-2.06-27.86-4.09-8.6-11.49-15.58-20.32-19.17-13.45-5.46-26.19-5.4-39.41.6-11.39,5.17-20.38,15.03-24.23,27.15-1.93,6.1-2.58,12.57-2.05,18.94.52,6.33,1.35,14.41-2.13,20.16-3.97,6.56-9.05,12.59-11.48,19.87-3.26,9.77-1.31,20.48,1.49,30.39,2.06,7.3.47,4.36,5.86,9.7,7.77,7.71,19.7,9.51,30.61,8.67,11.24-.87,47.01,14.07,54.17,5.37,9.69-11.78-5.91-46.78-5.91-56.48,0-16.56,10.6-21.47,15.46-37.35Z"/>
                <path class="cls-18" d="m183.15,72.62c6.02,9.24,7.71,27.08,4.66,37.67-3.05,10.59-6.86,21.84-3.59,32.37,1.9,6.11,6.02,11.29,8.42,17.22,2.4,5.93,2.58,13.68-2.34,17.78-5.64,4.7-12.86,15.63-17.77,10.18-1.63-1.81-4.81-14.84-5.52-17.17-9.3-30.27-5.34-74.79,16.15-98.05Z"/>
                <path class="cls-20" d="m156.65,136.48c-2.69,6.64.32,14.16,4.41,19.53,3.95,5.18,9.28,10.88,9.04,17.69-.06,1.74-.38,3.36-.99,5.22-.29.86-.69,1.65-1.07,2.47-.4.87-.66,1.82-1,2.71-.28.74.65,1.3,1.26.97.77-.42,1.5-.91,2.15-1.5.67-.62,1.2-1.47,1.68-2.24.91-1.47,1.67-3.13,2.03-4.83.81-3.73-.03-7.58-1.58-11-1.51-3.34-3.85-6.2-6.2-8.98-1.18-1.39-2.38-2.77-3.51-4.21-1.1-1.39-2.31-2.67-3.28-4.16-2.15-3.3-3.41-7.62-2.23-11.47.14-.47-.54-.63-.71-.2h0Z"/>
                <path class="cls-20" d="m114.57,116.72c-.32.91-.79,1.7-1.18,2.56-.37.84-.85,1.61-1.33,2.39-.94,1.52-2.01,2.89-3.25,4.18-2.6,2.7-5.59,4.98-8.42,7.42-2.85,2.46-5.59,5.18-7.42,8.52-1.83,3.35-2.69,7.1-2.87,10.89-.1,2.15.03,4.31.46,6.42.22,1.08.52,2.11.91,3.14.41,1.1.93,1.91,1.67,2.81.48.58,1.48.09,1.46-.61-.07-3.65-1.21-7.19-1.3-10.86-.08-3.54.61-7.13,2.28-10.27,3.47-6.55,10.36-10.11,15.03-15.65,1.31-1.55,2.6-3.25,3.44-5.11.41-.91.73-1.87.96-2.85.22-.93.13-1.97.06-2.91-.02-.29-.4-.34-.5-.07h0Z"/>
                <g>
                  <path class="cls-6" d="m103.25,170.79c4.76-7.24,11.26-19.58,12.76-28.11,9.06,11.52,22.77,19.39,37.29,21.36.13,6.36,1.56,12.8,5.08,18.08,3.91,5.86,10.34,9.96,17.3,11.04-13.74,2.73-27.82,5.18-41.51,2.24-7.53-1.62-15.07-4.19-20.97-9.13-5.9-4.95-14.19-9.04-9.97-15.48Z"/>
                  <path class="cls-9" d="m116.01,142.68c1.32-7.52,1.32-15.27-.1-22.77,9.47,11.32,23.76,20.11,38.18,23.31-1.29,6.53-.8,13.22-.79,19.88,0,.31,0,.62.01.93-14.52-1.97-28.23-9.84-37.29-21.36Z"/>
                </g>
                <path class="cls-6" d="m172.81,64.46c10.99,12.63,14.34,31.44,8.38,47.08-3.88,10.17-1.09,18.59-7.43,27.43-6.14,8.55-16.71,12.69-27.1,10.98-10.39-1.71-20.39-8.81-25.99-17.73-7.51-11.95-11.48-22.82-10.29-36.88,1.19-14.06,8.88-27.81,21.2-34.7,12.32-6.88,31.97-6.82,41.24,3.82Z"/>
                <path class="cls-6" d="m115.23,103.9c.51-3.59-2.64-7.12-6.25-7.48-3.61-.36-7.17,2.1-8.61,5.43-1.44,3.33-.93,7.31.83,10.48,1.76,3.18,4.64,5.62,7.82,7.38,3.18,1.76,6.65,2.89,10.13,3.95-1.04-6.55-4.85-13.2-3.91-19.76Z"/>
                <path class="cls-18" d="m172.02,59.21c11.28,7.5,16.72,22.75,12.74,35.7-.57,1.86.89,5.32-.65,6.52-3.5-13.56-6.76-20.61-15.59-28.99,0,0-1.93,5.81-5.37,8.54-7.13,5.67-20.95,7.45-26.41,15.96-6.99,10.88-15.06,10.28-27.76-.51-1.89-15.22,3.95-32.63,17.37-40.07,13.41-7.44,32.89-5.63,45.67,2.86Z"/>
                <path class="cls-8" d="m166.59,99.05c-.96-.01-1.85.54-2.62,1.05-.82.53-1.6,1.15-2.3,1.83-1.38,1.33-2.49,2.95-3.22,4.72-1.53,3.67-1.13,7.8.84,11.22,1.09,1.89,2.68,3.94,4.84,4.58.61.18.9-.55.57-.98-.71-.91-1.58-1.63-2.35-2.49-.75-.83-1.37-1.77-1.87-2.77-.97-1.93-1.38-4.15-1.12-6.3.26-2.11,1.2-4.14,2.53-5.78.7-.86,1.5-1.66,2.39-2.34.85-.65,1.97-1.09,2.67-1.9.27-.31.1-.83-.35-.84h0Z"/>
                <path class="cls-8" d="m164.34,121.4c-.69.76-1.37,1.47-1.99,2.29-.65.85-1.29,1.7-1.93,2.56-.6.8.79,1.65,1.36.8.56-.84,1.13-1.68,1.69-2.53.56-.86,1.01-1.74,1.5-2.64.21-.38-.31-.82-.62-.48h0Z"/>
                <path class="cls-8" d="m113.99,115.55c-.7-.11-1.41-.18-2.04-.55-.7-.4-1.32-1-1.72-1.7-.35-.61-.57-1.4-.16-2.03.34-.53,1.02-.82,1.63-.7.4.08.83-.11.94-.54.87-3.26-.39-6.87-3.09-8.9-1.43-1.08-3.38-1.79-4.94-.56-1.58,1.24-2.28,3.22-2.39,5.15-.02.31.47.46.61.16.61-1.3,1.5-2.65,2.52-3.67,1.2-1.19,2.69-.41,3.76.57,1.86,1.71,2.69,4.38,2.05,6.83.31-.18.63-.36.94-.54-2.35-.45-4.37,1.66-3.64,4,.36,1.15,1.22,2.14,2.18,2.84.97.7,2.38,1.34,3.45.52.29-.22.35-.83-.12-.91h0Z"/>
                <path class="cls-20" d="m146.02,105.29s-.02,0-.02.01c-.24.13-.44.45-.42.73.04.41.12.83.11,1.25,0,.25-.04.5-.13.74-.12.33-.35.33.09.47.41.13.28.05.28-.33,0-.26,0-.52.02-.77.02-.26.04-.52.08-.78.02-.1.04-.2.06-.3.16-.38.08-.41-.25-.11h-.6c-.26-.29-.35-.32-.27-.08.03.11.04.23.05.35.02.26.02.54-.02.79-.07.5-.24,1-.43,1.47-.51,1.22,1.55,2.08,2.14.9.42-.83.67-1.7.67-2.63,0-.81-.1-1.89-.69-2.51-.62-.66-1.66-.65-2.25.04-.62.73-.64,1.98-.66,2.88-.02.8-.04,1.76.45,2.44.5.67,1.4.85,2.12.43,1.45-.85,1.71-3.35.81-4.65-.2-.29-.59-.52-.95-.39-.06.02-.12.04-.18.07h0Z"/>
                <path class="cls-20" d="m169.21,106.89c-.05.39-.13.78-.19,1.17-.05.31-.21.79-.17,1.1-.02.06-.05.12-.07.18.25.04.5.09.75.13.04-.03-.03-.48-.03-.55,0-.41.05-.8.16-1.19.03-.12.18-.39.17-.51.14-.22,0-.27-.4-.15-.36-.16-.51-.14-.42.06-.07.15.04.62.02.81-.07.62-.28,1.23-.68,1.71-.91,1.1.63,2.69,1.59,1.59,1.11-1.28,1.72-3.05,1.17-4.72-.25-.77-.93-1.48-1.8-1.39-.98.1-1.35,1.09-1.55,1.93-.27,1.13-.51,4.22,1.39,4.03,1.93-.19,1.64-3.11,1.27-4.37-.2-.69-1.11-.49-1.18.16h0Z"/>
                <path class="cls-20" d="m150.58,56.25c.12,3.77-1.74,7.53-4.34,10.19-2.74,2.8-6.45,4.58-10.15,5.75-1.9.6-3.84,1-5.77,1.47-1.94.48-3.59,1.33-4.84,2.92-1.22,1.56-2.1,3.37-3.19,5.02-1.09,1.64-2.3,3.21-3.72,4.57-2.96,2.84-7,4.75-11.13,3.78-1.76-.41-2.41,2.08-.74,2.68,4.03,1.44,8.72-.03,11.95-2.61,3.36-2.68,5.56-6.49,7.56-10.22.43-.79.85-1.62,1.45-2.3.73-.83,1.71-1.25,2.75-1.54,1.99-.56,4.02-.92,6-1.54,4.1-1.27,8.12-3.17,11.04-6.4,2.95-3.26,4.63-7.45,3.74-11.86-.07-.36-.65-.28-.64.09h0Z"/>
                <path class="cls-20" d="m115.69,70.71c-.47.82-1.03,1.5-1.62,2.23-.55.68-1.14,1.37-1.85,1.89-.65.48-1.36.9-2.08,1.27-.77.4-1.48.91-2.25,1.31-3.16,1.65-6.68,1.93-10.18,1.55-.99-.11-1.36,1.23-.77,1.86,3.18,3.37,8.84,1.2,12.15-.87.84-.53,1.76-1.12,2.42-1.86.62-.7,1.18-1.48,1.67-2.27.5-.8,1.05-1.56,1.5-2.38.45-.83.76-1.78,1.07-2.68.02-.05-.06-.08-.08-.04h0Z"/>
                <path class="cls-20" d="m169.95,62.24c2.95,2.9,5.35,6.44,7.19,10.14,1.87,3.74,2.54,7.8,3.74,11.76.09.29.56.33.62,0,.2-1.09.3-2.1.24-3.2-.06-1.13-.33-2.23-.62-3.31-.56-2.09-1.35-4.13-2.32-6.07-1.98-3.96-4.92-7.2-8.52-9.75-.26-.18-.56.22-.34.44h0Z"/>
                <path class="cls-21" d="m152.62,49.35c.38.8.75,1.6,1.13,2.4.17.35.33.71.52,1.06.26.48.5.65.99.85.6.25,1.13-.36,1.17-.89.06-.86-.68-1.53-1.18-2.17-.53-.68-1.07-1.36-1.61-2.03-.49-.61-1.31.17-1.02.79h0Z"/>
                <path class="cls-21" d="m147.48,47.34c-.96.91-2.24,1.83-2.88,3-.54.98.68,1.84,1.49,1.15.52-.44.89-1.09,1.25-1.67.36-.58.73-1.17,1.09-1.75.37-.59-.46-1.19-.94-.73h0Z"/>
                <path class="cls-21" d="m142.33,45.91c-1.26-.37-2.5-.52-3.75-.08-.9.32-1.42,1.23-1.03,2.15.37.88,1.43,1.24,2.26.76.81-.46,1.61-.95,2.52-1.14.88-.18.79-1.46,0-1.7h0Z"/>
                <path class="cls-20" d="m178.91,98.66c-1.19-1.55-2.74-2.65-4.64-3.15-1.84-.48-4.09-.43-5.81.44-.7.35-.21,1.58.54,1.29,1.66-.64,3.19-.98,4.97-.64,1.69.32,3.35,1.12,4.55,2.37.19.2.57-.07.39-.3h0Z"/>
                <path class="cls-20" d="m153.96,96.33c-3.94-4.91-11.92-3.17-15.69,1.07-.15.17,0,.47.23.39,2.66-.84,5.11-2.24,7.9-2.67,2.42-.38,5.28.11,7.27,1.58.23.17.44-.18.29-.37h0Z"/>
                <path class="cls-13" d="m163.34,132.43c-2.59,1.83-5.9,2.85-8.99,1.76-1.39-.49-2.63-1.33-3.63-2.42-1-1.09-1.7-2.47-2.37-3.76-.34-.66-1.52-.38-1.44.39.1.93.26,1.71.75,2.52.45.76,1.01,1.48,1.64,2.11,1.25,1.23,2.82,2.19,4.53,2.63,3.44.89,7.54,0,9.8-2.86.15-.19-.05-.54-.29-.37h0Z"/>
                <path class="cls-16" d="m152.16,150.39c-1.4-.09-2.81-.11-4.2-.27-1.4-.15-2.79-.45-4.16-.76-2.82-.65-5.56-1.69-8.14-3.01-5.33-2.75-9.85-6.92-13.44-11.68-.96-1.28-1.84-2.61-2.61-4.02-.73-1.34-1.25-2.79-1.99-4.12-.13-.24-.45-.06-.41.17.22,1.38.88,2.72,1.5,3.96.64,1.29,1.36,2.53,2.15,3.73,1.69,2.56,3.75,4.88,6.01,6.95,4.45,4.08,9.93,7.54,15.8,9.1,3.02.8,6.5,1.18,9.54.28.19-.06.14-.32-.04-.33h0Z"/>
                <circle class="cls-4" cx="137" cy="116.13" r="7.45"/>
                <path class="cls-4" d="m175.69,110.51c1.99,0,3.79.78,5.13,2.06-1.49,4.35-1.83,8.38-2.31,12.28-.87.36-1.82.56-2.82.56-4.11,0-7.45-3.33-7.45-7.45s3.33-7.45,7.45-7.45Z"/>
                <path class="cls-18" d="m170.32,68.12c-1.1,3.29-2.11,6.57-3.44,9.78-1.2,2.89-3.15,5.48-5.88,7.19-2.88,1.8-6.12,2.41-9.33,3.35-1.62.47-3.24.93-4.85,1.42-1.62.49-3.26.85-4.86,1.41-1.76.61-3.48,1.36-5.06,2.36-1.57.99-2.74,2.38-3.7,3.95-.18.3.21.55.45.35,2.56-2.12,5.83-3.67,8.98-4.63,1.61-.49,3.3-.97,4.97-1.17,1.75-.21,3.53-.35,5.27-.66,6.89-1.23,14.41-4.38,17.33-11.21.42-.97.81-1.94.99-2.98.18-1.06.31-2.14.38-3.21.14-2.02-.05-3.95-.41-5.94-.08-.46-.73-.38-.86,0h0Z"/>
              </g>
              <path class="cls-13" d="m183.48,187.6c-7,.25-14.02-.1-20.96-1.06-10.02,4.63-21.93,5.58-32.6,2.74-10.67-2.84-20.27-9.49-26.67-18.49-9.24,1.74-18.47,3.51-27.08,7.27,9.96,17.95,31.11,26.74,51.64,26.8,20.52.06,37.24-8.25,55.68-17.27Z"/>
            </g>
            <g class="cls-23">
              <path class="cls-7" d="m110.33,39.88c8.59-6.68,18.47-10.95,29.07-12.08,20.07,18.43,42.21,34.6,65.87,48.11,3.09,8.37,5.12,17.5,5.86,27.1-19.5-5.18-36.18-18.6-51.86-31.68-14.97-12.49-30.67-25.43-48.94-31.46Z"/>
              <path class="cls-7" d="m79.96,127.48c12.08,3.03,22.99,10.15,32.61,18.21,11.07,9.27,20.93,19.97,32.39,28.75,7.86,6.02,16.73,11.18,26.18,13.86-5.96,3.21-12.36,5.36-19.06,6.25-23.72-13.48-42.84-36.07-67.27-48.19-2.18-5.95-3.82-12.27-4.85-18.88Z"/>
            </g>
          </g>
        </g>
        <ellipse class="cls-2" cx="145.08" cy="111.25" rx="66.37" ry="83.76"/>
      </g>
      <g>
        <path class="cls-9" d="m242.42,179.85c-1.41-8.22-4.02-16.24-7.77-23.7,14.55.61,26.1-12.87,40.65-12.26.61,3.55,5.15,21.54,6.57,24.75-4.75,2.81-10.21,4.75-15.52,6.25-7.85,2.21-15.85,3.86-23.94,4.95Z"/>
        <g>
          <path class="cls-18" d="m233.23,46.52c-.86.15-1.73.32-2.57.55-.95.26-1.88.69-2.79,1.08-1.81.79-3.56,1.71-5.24,2.74-3.35,2.05-6.42,4.77-8.95,7.75-2.5,2.94-4.58,6.3-5.67,10.03-1.18,4.03-1.2,8.68.22,12.65.78,2.18,2.09,4.68,4.04,6.03,1.8,1.24,3.92,2.09,6.12,1.99.49-.02.54-.65.11-.82-1.7-.67-3.28-1.71-4.42-3.14-.53-.66-1.12-1.25-1.59-1.95-.55-.82-1-1.7-1.34-2.63-1.25-3.51-1.32-7.65-.34-11.24,1.86-6.82,7.14-11.98,12.64-16.07,1.62-1.21,3.32-2.31,5.09-3.28,1.68-.92,3.4-1.81,5.13-2.64.63-.3.15-1.16-.44-1.05h0Z"/>
          <path class="cls-18" d="m222.69,76.28c-.27-.51-.44-1.28-.64-2.59-3.62-23.17,24.64-31.84,43.73-30.38,23.37,1.79,43.04,18.78,48.58,40.73,3.26,12.91,2.74,21,2.83,34.09.07,10.24,4.96,21.87,8.2,31.22,8.77,25.35,29.84,38.45,22.8,65.48-5.92,22.72-24.27,34.4-48.65,30.7-13.85-2.1-28.75-9.71-37.2-20.63-7.6-9.82-6.15-18.48-5.58-30.26.79-16.38.9-63.69-1.88-79.88-2.16-12.54-10.36-21.79-20.05-30.81-2.22-2.07-4.66-3.89-7.43-5.25-3.03-1.48-4.11-1.28-4.7-2.42Z"/>
          <path class="cls-6" d="m248.21,48.73c-13.23,2.73-26.99,11.56-32.12,23.51-4.63,10.78-2.96,20.52.96,32.73,2.26,7.04.21,12.91-5.59,17.7,1.24,2.98,3.1,5.58,5.68,7.64-.3,7.62,1.53,15.87,7.02,21.42,5.24,5.3,13.97,5.65,21.08,2.98,8.5-3.19,13.55-7.91,20.67-10.57,16.14-6.04,27.9-14.88,32.01-30.95,4.12-16.06,1.51-33.46-6.39-48.18-4.1-7.65-8.78-10.32-16.44-14.85-7.66-4.52-18.06-3.26-26.87-1.44Z"/>
          <path class="cls-18" d="m250.45,109.72c1.6-3.7,6.8-5.42,10.78-3.94,3.98,1.48,6.45,5.58,6.31,9.56-.14,3.98-2.6,7.7-5.99,10.14-3.39,2.44-7.63,3.7-11.88,4.2-5.05,15.91-9.39,32.42-4.92,48.48,3.91,14.05,12.81,25.59,19.54,28.92,20.89-7.39,43.3-27.16,47.1-47.62,3.8-20.45-.08-41.39-3.95-61.83-1.62-8.53-1.63-16.69-4.56-24.91-2.94-8.22-14.78-7.1-14.75-16.28.04-12.35-24.71-16.32-43.97-13.29-13.38,2.11-21.04,6.79-28,17.58-6.97,10.79-9.56,24.23-1.39,30.12,2.88,2.08,12.11,3.68,13.93,6.66,1.68,2.73,2.39,5.98,4.52,8.43,3.9,4.5,11.04,4.14,17.24,3.77Z"/>
          <path class="cls-8" d="m261.86,110.96c.08-1.45-.93-2.65-2.21-3.2-1.53-.65-3.2-.23-4.59.55-3.05,1.7-4.43,5.02-4.41,8.39,0,.64.67.96,1.21.7.45-.22,1.05.01,1.31.43.31.49.16,1.13-.08,1.62-.54,1.07-1.82,1.57-2.09,2.81-.06.3.13.53.43.56,2.12.22,3.86-2.57,3.72-4.44-.15-1.98-2.29-3.38-4.1-2.36.4.23.81.46,1.21.7-.14-2.42,1.09-4.72,2.76-6.39.87-.87,1.99-1.55,3.27-1.5,1.17.04,2.41.89,2.39,2.15-.01.76,1.14.75,1.18,0h0Z"/>
          <path class="cls-13" d="m228.62,133.55c-1.38,1.12-2.92,1.9-4.64,2.37-.79.22-1.58.36-2.39.44-.88.1-1.77.03-2.65.13-.86.1-1.26,1.5-.23,1.67,1.88.31,4.02-.29,5.74-1.01,1.73-.72,3.35-1.77,4.73-3.03.39-.36-.18-.9-.57-.57h0Z"/>
          <path class="cls-20" d="m227.09,99.3c-1.6-3.1-5.87-4.32-8.96-2.75-.78.4-.09,1.48.67,1.15,2.69-1.14,6.01-.41,7.83,1.94.21.27.59-.07.45-.35h0Z"/>
          <path class="cls-20" d="m222.89,109.68c.07.61-.09,1.24-.17,1.85-.11.81-.27,1.54-.64,2.28.22-.09.44-.18.66-.27-.3-.07-.13-4.23.09-4.26-.15-.02-.3-.04-.45-.06.04.03.08.06.12.09-.1-.18-.21-.36-.31-.54-.06,1.43.01,2.73-.39,4.13-.3,1.06,1.29,1.48,1.64.45.53-1.54.67-3.41-.08-4.9-.1-.2-.33-.31-.54-.31-1.43-.02-1.28,2.07-1.33,3.02-.05,1.02-.46,3.19.93,3.52.23.06.55-.03.66-.27.37-.79.62-1.6.68-2.47.07-.89-.26-1.5-.56-2.3-.06-.16-.36-.16-.33.05h0Z"/>
          <ellipse class="cls-4" cx="231.11" cy="120.63" rx="8.28" ry="7.9"/>
          <path class="cls-20" d="m259.78,130.17c-4.67,15.13-2.56,31.84,5.25,45.57,3.99,7.01,9.58,12.65,15.2,18.34,2.76,2.79,5.57,5.57,8.06,8.59,1.21,1.46,2.36,2.98,3.41,4.56,1.07,1.61,1.91,3.34,2.77,5.06,2.06,4.09,3.22,8.66,3.44,13.23.11,2.26.03,4.57-.33,6.8-.19,1.17-.43,2.33-.72,3.47-.31,1.24-.28,2.42-.29,3.69-.01,1.07,1.55,1.9,2.29.95.73-.93,1.53-1.87,1.87-3.01.32-1.04.52-2.13.69-3.2.34-2.16.53-4.34.5-6.52-.05-4.26-.82-8.55-2.31-12.54-.74-1.98-1.6-3.96-2.73-5.75-1.05-1.67-2.25-3.24-3.46-4.79-2.45-3.12-5.24-5.99-8.08-8.76-5.62-5.51-11.53-10.77-15.98-17.33-4.44-6.56-7.45-14.01-8.88-21.79-1.58-8.61-1.19-17.62,1.26-26.03.37-1.27-1.59-1.81-1.98-.55h0Z"/>
          <path class="cls-20" d="m225.64,52.71c-6,5.76-7.81,14.96-4.86,22.68,1.58,4.14,4.39,7.39,7.92,10.01,3.69,2.74,7.86,4.7,11.83,6.98,2.19,1.25,4.4,2.58,6.31,4.23,1.75,1.5,3.41,3.73,2.88,6.17-.18.82.82,1.49,1.45.85.83-.83,1.23-1.79,1.16-2.98-.07-1.19-.53-2.29-1.18-3.28-1.32-2-3.24-3.46-5.2-4.78-3.78-2.56-8-4.38-11.98-6.6-3.8-2.12-7.55-4.69-9.93-8.41-2.2-3.43-3.2-7.51-3.04-11.56.19-4.71,1.93-9.33,5.13-12.82.3-.32-.16-.79-.48-.48h0Z"/>
          <path class="cls-20" d="m241.05,59.97c1.76,8.33,9.46,13.24,16.01,17.68,3.53,2.39,7.15,4.87,10.08,8,2.4,2.56,4.43,5.79,4.88,9.34.24,1.86-.01,3.64-.59,5.41-.29.9-.72,1.65-1.14,2.49-.42.86-.84,1.69-1.41,2.47-.25.33.16.82.54.7.8-.27,1.54-.61,2.23-1.09.85-.59,1.44-1.37,1.97-2.24.97-1.62,1.42-3.45,1.58-5.31.33-3.95-1.08-7.69-3.45-10.8-2.58-3.38-6.01-6.12-9.63-8.32-4.01-2.43-8.27-4.41-11.99-7.3-3.71-2.88-7.07-6.59-8.27-11.24-.14-.53-.92-.3-.81.22h0Z"/>
          <path class="cls-16" d="m242.62,154.68c-1.28.24-2.5.76-3.79.99-.68.12-1.36.2-2.04.25-.51.03-.92-.06-1.32.29-.09.08-.08.23,0,.31.44.41,1.04.28,1.61.26.62-.02,1.24-.08,1.86-.16,1.32-.18,2.87-.42,4.03-1.11.45-.27.14-.91-.35-.82h0Z"/>
          <path class="cls-20" d="m310.53,104.74c-.79,2.49-1.55,4.98-2.12,7.53-.57,2.55-1.08,5.11-1.51,7.68-.86,5.04-1.42,10.14-1.76,15.25-.64,9.5.4,19.12,2.99,28.28,2.44,8.63,7.03,16.88,13.27,23.33,2.81,2.9,5.9,5.51,8.82,8.3,1.41,1.35,2.78,2.74,4.05,4.23.17.2.35.41.52.62.07.09.14.18.22.27,0,0,.24.3.1.12-.14-.18.09.11.09.12.07.09.14.18.2.27.16.21.31.43.46.65.54.77,1.04,1.57,1.49,2.39.22.4.42.8.61,1.2.05.11.32.73.16.35.1.24.19.49.28.74.33.91.62,1.84.85,2.78.48,2,.52,4.14.32,6.37-.19,2.16-.87,4.31-1.61,6.36-.77,2.15-1.74,4.28-2.76,6.33-.52,1.03-.99,2.02-1.65,2.97-.29.42.37.93.7.54,1.52-1.74,3.22-3.3,4.61-5.16,1.41-1.9,2.6-4.07,3.45-6.28,1.72-4.44,2.4-9.11,1.22-13.79-1.01-4.01-3.56-7.61-6.27-10.65-2.68-3.01-5.76-5.63-8.74-8.33-1.49-1.35-2.97-2.72-4.37-4.18-1.53-1.59-3.01-3.4-4.22-4.97-2.62-3.41-4.91-7.34-6.72-11.33-1.84-4.05-3.37-8.28-4.36-12.62-1.07-4.66-1.66-9.4-1.87-14.17-.23-5.22-.11-10.38.5-15.58.62-5.25,1.75-10.39,2.67-15.6.23-1.31.48-2.63.74-3.93.05-.23-.28-.33-.36-.1h0Z"/>
          <path class="cls-20" d="m298.64,190.15c1.53,1.53,2.92,3.13,4.17,4.89,1.17,1.63,2.38,3.25,3.48,4.92,2.23,3.4,4.07,7.13,5.29,11.01,1.32,4.2,1.89,8.61,1.56,13-.3,4.14-1.41,8.56-3.66,12.1-2.4,3.79-6.8,6.36-11.38,5.58-.27-.05-.5.35-.2.48,1.87.8,3.75.94,5.71.42,2.05-.55,3.92-1.66,5.45-3.11,3.24-3.08,5.02-7.45,5.84-11.77,1.77-9.32-.5-19.11-5.64-27.01-1.32-2.03-2.77-4.12-4.53-5.79-1.84-1.76-3.81-3.42-5.8-5.01-.21-.17-.5.1-.3.3h0Z"/>
          <path class="cls-18" d="m312.85,122.29c.44,2.35.85,4.74,1.53,7.03.68,2.27,1.47,4.57,2.36,6.77,1.83,4.51,3.92,8.93,6.15,13.26,4.44,8.58,9.59,16.8,15.39,24.53,2.84,3.78,5.81,7.46,8.36,11.44,1.25,1.94,2.3,3.9,3.09,6.08.78,2.17,1.47,4.39,1.89,6.65.37,1.99.52,4.12.48,6.32-.05,2.27-.2,4.28-.59,6.28-.87,4.42-2.33,8.29-4.81,12.02-2.11,3.18-5.05,6.14-8.24,8.38-1.69,1.19-3.49,2.23-5.37,3.1-.95.44-1.94.79-2.87,1.26-.88.44-1.73.77-2.67,1.05-1.01.3-1.9.94-2.9,1.31-.57.21-.45.97.14,1.03,1.02.1,2.22.41,3.23.25,1.09-.17,2.17-.35,3.26-.53,2.12-.35,4.21-1.35,6.12-2.31,3.88-1.95,7.42-4.64,10.34-7.85,6.32-6.97,9.81-16.54,8.96-25.96-.44-4.88-1.76-9.54-4.21-13.8-2.43-4.21-5.1-8.22-8.02-12.11-5.94-7.9-11.65-15.92-16.64-24.47-2.52-4.31-4.86-8.72-6.99-13.23-1.04-2.21-2.06-4.43-3.08-6.64-1.03-2.24-1.97-4.53-3.13-6.72-.56-1.06-1.08-2.15-1.59-3.24-.05-.11-.21-.03-.19.08h0Z"/>
          <path class="cls-18" d="m287.21,241.89c-.68-.05-1.36-.13-2.03-.24-.75-.12-1.42-.36-2.14-.57-1.51-.44-3.02-.81-4.5-1.32-2.98-1.03-5.92-2.18-8.71-3.66-2.49-1.32-4.9-2.83-6.88-4.83-2.34-2.37-4.32-5.18-5.84-8.15-1.5-2.95-2.52-6.25-2.77-9.52-.31-4.07.58-8.1.4-12.17-.17-4-1.21-7.88-2.27-11.71-.53-1.91-1.03-3.83-1.44-5.77-.17-.84-.32-1.68-.45-2.52-.01-.09-.03-.18-.04-.27.04.32.02.14-.07-.53-.07-.51-.04-.27-.02-.16-.07-.53-.12-1.06-.17-1.6-.16-2.01-.15-4.01-.02-6.02.07-1.02.12-2.04.23-3.06.1-.87.3-1.87.41-2.89.2-1.9.85-3.86,1.49-5.67.68-1.91,1.39-3.8,2.24-5.63.42-.89-.74-2.02-1.48-1.14-2.52,2.99-4.32,6.32-5.64,10-.64,1.78-1.21,3.52-1.56,5.39-.38,1.97-.57,3.94-.58,5.94-.02,4.07.7,8.01,1.84,11.91,1.14,3.88,2.5,7.71,3.14,11.72.66,4.15-.16,8.29-.07,12.44.09,3.84,1.01,7.56,2.54,11.07,2.74,6.28,7.4,11.49,13.44,14.72,3.27,1.75,6.87,3.25,10.49,4.1,3.45.81,6.92,1.16,10.46.92.51-.03.5-.75,0-.79h0Z"/>
        </g>
      </g>
      <path class="cls-7" d="m85.04,32.6c.65,8.13,1.3,16.26,1.95,24.39,4.27,1.16,7.81,1.54,12.08,2.71-4.15,1.95-8.13,4.47-12.29,6.42-1.3,5.13-2.95,10.14-4.25,15.26-.71-4.7-1.6-10.7-2.31-15.41-4.09-1.91-8.74-3.81-13.14-4.78,3.98-.81,7.97-1.61,11.95-2.42,3.4-7.24,5.49-18.19,6.01-26.18Z"/>
      <path class="cls-7" d="m191.88,207.03c-.41-5.09-.81-10.19-1.22-15.28-2.67-.73-4.89-.97-7.57-1.69,2.6-1.22,5.09-2.8,7.7-4.02.82-3.21,1.85-6.35,2.66-9.56.45,2.95,1,6.71,1.45,9.65,2.56,1.2,5.47,2.38,8.23,2.99-2.5.5-4.99,1.01-7.49,1.51-2.13,4.54-3.44,11.4-3.77,16.4Z"/>
      <path class="cls-7" d="m59.83,156.29c-.2-2.55-.41-5.09-.61-7.64-1.34-.36-2.45-.48-3.78-.85,1.3-.61,2.55-1.4,3.85-2.01.41-1.61.92-3.18,1.33-4.78.22,1.47.5,3.35.72,4.83,1.28.6,2.74,1.19,4.12,1.5-1.25.25-2.5.5-3.74.76-1.07,2.27-1.72,5.7-1.88,8.2Z"/>
      <path class="cls-7" d="m108.21,192.71c4.98,1.3,9.81,3.17,14.36,5.57-4.37.49-8.74.98-13.11,1.47-1.44,3.42-2.76,6.82-4.19,10.24-.75-3.27-1.33-6.64-2.09-9.91-4.4-1.24-8.87-2.67-13.27-3.91,3.95-1.1,7.9-2.2,11.85-3.31.87-3.23,2.59-6.48,3.45-9.7.86,3.08,2.13,6.47,2.99,9.54Z"/>
      <path class="cls-7" d="m53.07,124.12c.84-3.2,2.04-6.3,3.57-9.22.32,2.81.63,5.61.95,8.42,2.19.92,4.38,1.77,6.58,2.69-2.1.48-4.26.86-6.36,1.34-.8,2.82-1.71,5.7-2.51,8.52-.71-2.54-1.42-5.07-2.12-7.61-2.07-.56-4.16-1.66-6.23-2.22,1.98-.55,4.15-1.37,6.13-1.92Z"/>
      <path class="cls-7" d="m108.72,53.37c.54-2.06,1.31-4.06,2.3-5.94.2,1.81.41,3.62.61,5.42,1.41.59,2.82,1.14,4.24,1.73-1.35.31-2.75.55-4.1.86-.51,1.82-1.1,3.67-1.62,5.49-.46-1.63-.91-3.27-1.37-4.9-1.33-.36-2.68-1.07-4.01-1.43,1.27-.36,2.67-.88,3.95-1.24Z"/>
      <path class="cls-13" d="m141.94,242.38c-.24-1.16-.43-2.36-.19-3.52.23-1.16.98-2.28,2.11-2.65,1.67-.54,3.37.69,4.57,1.97,2.64,2.79,4.63,6.18,5.79,9.84-.48-3.4.31-6.97,2.19-9.84,1.07-1.63,2.74-3.16,4.68-3.03,2.02.13,3.56,2.07,3.88,4.07.32,2-.3,4.02-.99,5.92-2.29,6.26-5.49,12.13-8.82,17.9-.74,1.28-1.69,1.68-2.88.59-1.08-1-1.95-2.38-2.79-3.59-1.73-2.51-3.23-5.18-4.46-7.96-1.37-3.11-2.41-6.36-3.09-9.68Z"/>
      <path class="cls-13" d="m352.15,283.65c-.58-1.37-.97-3.16.12-4.17.9-.84,2.42-.63,3.38.14.96.77,1.48,1.94,1.95,3.08.46,1.14.91,2.33,1.79,3.19-.38-2.26.65-4.7,2.53-6,.66-.46,1.47-.79,2.25-.6.92.22,1.55,1.13,1.71,2.06.16.93-.05,1.88-.3,2.8-.45,1.62-1.02,3.21-1.71,4.74-.56,1.24-1.18,3.13-2.46,3.8-2.54,1.34-5.22-2.38-6.44-4.07-1.12-1.55-2.07-3.22-2.82-4.98Z"/>
      <path class="cls-15" d="m189.7,218.88c.58-1.86.97-4.3-.12-5.67-.9-1.14-2.42-.85-3.38.19-.96,1.05-1.48,2.64-1.95,4.19-.46,1.55-.91,3.17-1.79,4.35.38-3.07-.65-6.39-2.53-8.16-.66-.62-1.47-1.07-2.25-.82-.92.3-1.55,1.53-1.71,2.8-.16,1.27.05,2.56.3,3.8.45,2.21,1.02,4.37,1.71,6.45.56,1.68,1.18,4.25,2.46,5.17,2.54,1.82,5.22-3.24,6.44-5.53,1.12-2.11,2.07-4.38,2.82-6.77Z"/>
    </g>
  </g>
</svg>