<?xml version="1.0" encoding="UTF-8"?>
<svg id="Layer_2" data-name="Layer 2" xmlns="http://www.w3.org/2000/svg" viewBox="0 0 289.96 347.06">
  <defs>
    <style>
      .cls-1 {
        opacity: .12;
      }

      .cls-2 {
        fill: #f8dd69;
      }

      .cls-3 {
        fill: #67b2ec;
      }

      .cls-4 {
        fill: #e9b541;
      }

      .cls-5 {
        fill: #fff;
      }

      .cls-6 {
        fill: #fae97d;
      }

      .cls-7 {
        fill: #e4e4e4;
      }

      .cls-8 {
        fill: #fdffce;
      }

      .cls-9 {
        fill: #667181;
      }

      .cls-10 {
        fill: #d6a343;
      }

      .cls-11 {
        fill: #373d43;
      }

      .cls-12 {
        fill: #6fb4f2;
      }

      .cls-13 {
        fill: #2f3539;
      }

      .cls-14 {
        fill: #5fcf9a;
      }

      .cls-15 {
        opacity: .13;
      }

      .cls-16 {
        fill: #b07f2a;
        opacity: .5;
      }
    </style>
  </defs>
  <g id="Layer_1-2" data-name="Layer 1">
    <g>
      <g class="cls-15">
        <path d="m239.24,40.21h-48.35v-10.08c0-3.85-3.12-6.98-6.97-6.98h-34.76c-3.1,0-5.8-2.06-6.68-5.03-2.19-7.35-8.99-12.72-17.06-12.72-8.06,0-14.87,5.35-17.06,12.71-.88,2.97-3.59,5.02-6.68,5.02h-34.75c-3.85,0-6.98,3.12-6.98,6.97v10.11H11.61c-3.43,0-6.21,2.78-6.21,6.21v294.43c0,3.43,2.78,6.21,6.21,6.21h227.63c3.43,0,6.21-2.78,6.21-6.21V46.42c0-3.43-2.78-6.21-6.21-6.21Z"/>
      </g>
      <g>
        <g>
          <path class="cls-11" d="m6.21,34.81h227.63c3.42,0,6.2,2.78,6.2,6.2v294.43c0,3.43-2.78,6.21-6.21,6.21H6.21c-3.42,0-6.21-2.78-6.21-6.21V41.02c0-3.43,2.78-6.21,6.21-6.21Z"/>
          <rect class="cls-5" x="12.41" y="47.23" width="215.22" height="282"/>
          <g>
            <g>
              <path class="cls-2" d="m143.77,17.74c-3.1,0-5.8-2.05-6.68-5.02C134.9,5.36,128.09,0,120.03,0c-8.06,0-14.87,5.35-17.06,12.71-.88,2.97-3.59,5.02-6.68,5.02h-34.75c-3.85,0-6.98,3.12-6.98,6.97v26.02c0,3.85,3.12,6.98,6.97,6.98l116.99.02c3.85,0,6.98-3.12,6.98-6.98v-26.02c0-3.85-3.12-6.98-6.97-6.98h-34.76Z"/>
              <path class="cls-16" d="m127.75,18.32c0,4.27-3.46,7.72-7.72,7.72s-7.72-3.46-7.72-7.73,3.47-7.72,7.73-7.72,7.72,3.46,7.71,7.73Z"/>
            </g>
            <rect class="cls-10" x="54.55" y="47.15" width="130.94" height="10.58"/>
          </g>
          <g>
            <g>
              <rect class="cls-3" x="104" y="78.35" width="50.29" height="6.03"/>
              <rect class="cls-7" x="104" y="93.62" width="100.57" height="6.03"/>
              <rect class="cls-7" x="104" y="108.48" width="100.57" height="6.03"/>
              <rect class="cls-7" x="104" y="123.34" width="100.57" height="6.03"/>
              <g>
                <path class="cls-7" d="m43.87,129.36c-2.14,0-4.16-.84-5.68-2.36-1.52-1.52-2.36-3.54-2.36-5.68v-34.93c0-4.43,3.61-8.04,8.04-8.04h34.93c4.43,0,8.04,3.61,8.04,8.04v34.93c0,2.14-.84,4.16-2.36,5.68-1.52,1.52-3.54,2.36-5.68,2.36h-34.93Zm0-45.37c-.64,0-1.24.25-1.69.7-.45.45-.7,1.06-.7,1.69v34.93c0,1.32,1.07,2.4,2.4,2.4h34.93c1.32,0,2.4-1.08,2.4-2.4v-34.93c0-1.32-1.07-2.4-2.4-2.4h0-34.93Z"/>
                <path class="cls-14" d="m58.66,117.06l-14.31-13.7,5.35-5.59,8.73,8.35,14.32-14.93,5.59,5.35-19.66,20.51Z"/>
              </g>
            </g>
            <g>
              <rect class="cls-3" x="104" y="138.1" width="50.29" height="6.03"/>
              <rect class="cls-7" x="104" y="153.36" width="100.57" height="6.03"/>
              <rect class="cls-7" x="104" y="168.22" width="100.57" height="6.03"/>
              <rect class="cls-7" x="104" y="183.08" width="100.57" height="6.03"/>
              <g>
                <path class="cls-7" d="m43.87,189.11c-2.14,0-4.16-.84-5.68-2.36-1.52-1.52-2.36-3.54-2.36-5.68v-34.93c0-4.43,3.61-8.04,8.04-8.04h34.93c4.43,0,8.04,3.61,8.04,8.04v34.93c0,2.14-.84,4.16-2.36,5.68-1.52,1.52-3.54,2.36-5.68,2.36h-34.93Zm0-45.37c-.64,0-1.24.25-1.69.7-.45.45-.7,1.06-.7,1.69v34.93c0,1.32,1.07,2.4,2.4,2.4h34.93c1.32,0,2.4-1.08,2.4-2.4v-34.93c0-1.32-1.07-2.4-2.4-2.4h0-34.93Z"/>
                <path class="cls-14" d="m58.66,176.8l-14.31-13.7,5.35-5.59,8.73,8.35,14.32-14.93,5.59,5.35-19.66,20.51Z"/>
              </g>
            </g>
            <g>
              <rect class="cls-3" x="104" y="197.84" width="50.29" height="6.03"/>
              <rect class="cls-7" x="104" y="213.11" width="100.57" height="6.03"/>
              <rect class="cls-7" x="104" y="227.96" width="100.57" height="6.03"/>
              <rect class="cls-7" x="104" y="242.82" width="100.57" height="6.03"/>
              <g>
                <path class="cls-7" d="m43.87,248.85c-2.14,0-4.16-.84-5.68-2.36-1.52-1.52-2.36-3.54-2.36-5.68v-34.93c0-4.43,3.61-8.04,8.04-8.04h34.93c4.43,0,8.04,3.61,8.04,8.04v34.93c0,2.14-.84,4.16-2.36,5.68-1.52,1.52-3.54,2.36-5.68,2.36h-34.93Zm0-45.37c-.64,0-1.24.25-1.69.7-.45.45-.7,1.06-.7,1.69v34.93c0,1.32,1.07,2.4,2.4,2.4h34.93c1.32,0,2.4-1.08,2.4-2.4v-34.93c0-1.32-1.07-2.4-2.4-2.4h0-34.93Z"/>
                <path class="cls-14" d="m58.66,236.55l-14.31-13.7,5.35-5.59,8.73,8.35,14.32-14.93,5.59,5.35-19.66,20.51Z"/>
              </g>
            </g>
            <g>
              <rect class="cls-3" x="104" y="257.58" width="50.29" height="6.03"/>
              <rect class="cls-7" x="104" y="272.85" width="100.57" height="6.03"/>
              <rect class="cls-7" x="104" y="287.71" width="100.57" height="6.03"/>
              <rect class="cls-7" x="104" y="302.56" width="100.57" height="6.03"/>
              <g>
                <path class="cls-7" d="m43.87,308.59c-2.14,0-4.16-.84-5.68-2.36-1.52-1.52-2.36-3.54-2.36-5.68v-34.93c0-4.43,3.61-8.04,8.04-8.04h34.93c4.43,0,8.04,3.61,8.04,8.04v34.93c0,2.14-.84,4.16-2.36,5.68-1.52,1.52-3.54,2.36-5.68,2.36h-34.93Zm0-45.37c-.64,0-1.24.25-1.69.7-.45.45-.7,1.06-.7,1.69v34.93c0,1.32,1.07,2.4,2.4,2.4h34.93c1.32,0,2.4-1.08,2.4-2.4v-34.93c0-1.32-1.07-2.4-2.4-2.4h0-34.93Z"/>
                <path class="cls-14" d="m58.66,296.29l-14.31-13.7,5.35-5.59,8.73,8.35,14.32-14.93,5.59,5.35-19.66,20.51Z"/>
              </g>
            </g>
          </g>
        </g>
        <circle class="cls-12" cx="120.02" cy="18.32" r="7.73" transform="translate(2.18 47.56) rotate(-22.61)"/>
      </g>
      <path class="cls-1" d="m287.51,105.25h-2.52v-10.15c0-1.57-1.28-2.85-2.85-2.85h-6.52c-1.57,0-2.85,1.28-2.85,2.85v10.15h-2.52c-1.35,0-2.45,1.1-2.45,2.45v109.56l3.63,67.42v5.1h1.61l2.29,18.51h2.04v4.54c0,.86.68,1.56,1.51,1.56s1.51-.7,1.51-1.56v-4.54h2.04l2.29-18.51h1.61v-5.1l3.63-67.42h0v-109.56c0-1.35-1.1-2.45-2.45-2.45Z"/>
      <g>
        <rect class="cls-13" x="267.67" y="87.15" width="12.21" height="24.24" rx="2.85" ry="2.85"/>
        <rect class="cls-11" x="262.7" y="100.15" width="22.16" height="12.83" rx="2.45" ry="2.45"/>
        <g>
          <polygon class="cls-9" points="273.78 108.69 273.78 108.69 262.7 108.69 262.7 212.16 266.33 279.58 273.78 279.58 273.78 279.58 281.23 279.58 284.86 212.16 284.86 108.69 273.78 108.69"/>
          <polygon class="cls-11" points="278.31 108.69 278.31 212.16 274.68 279.58 281.23 279.58 284.86 212.16 284.86 108.69 278.31 108.69"/>
          <polygon class="cls-6" points="266 272.42 266.36 279.58 273.78 279.58 273.78 279.58 281.23 279.58 281.55 272.42 266 272.42"/>
          <path class="cls-11" d="m273.78,309.29c-.83,0-1.51-.7-1.51-1.56v-12.45c0-.86.68-1.56,1.51-1.56s1.51.7,1.51,1.56v12.45c0,.86-.68,1.56-1.51,1.56Z"/>
          <rect class="cls-6" x="262.7" y="205" width="22.16" height="7.16"/>
          <polygon class="cls-9" points="281.03 279.58 277.6 279.58 266.33 279.58 266.33 284.68 277.6 284.68 281.03 284.68 281.23 284.68 281.23 279.58 281.03 279.58"/>
          <polygon class="cls-11" points="267.94 284.68 270.23 303.19 277.33 303.19 279.62 284.68 267.94 284.68"/>
        </g>
        <rect class="cls-4" x="278.31" y="205" width="6.55" height="7.15"/>
        <polygon class="cls-4" points="275.01 272.42 275.01 279.58 281.23 279.58 281.55 272.42 275.01 272.42"/>
        <rect class="cls-9" x="267.67" y="95.56" width="12.21" height="4.59"/>
        <g>
          <rect class="cls-2" x="270.16" y="120.26" width="7.78" height="54.98" rx=".68" ry=".68"/>
          <path class="cls-11" d="m275.24,185.54h-2.39c-1.49,0-2.69-1.24-2.69-2.77v3.62c0,1.53,1.21,2.77,2.69,2.77h2.39c1.49,0,2.69-1.24,2.69-2.77v-3.62c0,1.53-1.21,2.77-2.69,2.77Z"/>
          <path class="cls-2" d="m272.89,120.26h2.31c1.51,0,2.73,1.22,2.73,2.73v60.11c0,1.51-1.22,2.73-2.73,2.73h-2.31c-1.51,0-2.73-1.22-2.73-2.73v-60.11c0-1.51,1.22-2.73,2.73-2.73Z"/>
          <path class="cls-8" d="m275.24,182.22h-2.39c-1.49,0-2.69-1.24-2.69-2.77v3.62c0,1.53,1.21,2.77,2.69,2.77h2.39c1.49,0,2.69-1.24,2.69-2.77v-3.62c0,1.53-1.21,2.77-2.69,2.77Z"/>
        </g>
      </g>
    </g>
  </g>
</svg>