<?xml version="1.0" encoding="UTF-8"?>
<svg id="Layer_2" data-name="Layer 2" xmlns="http://www.w3.org/2000/svg" viewBox="0 0 457.21 361.43">
  <defs>
    <style>
      .cls-1 {
        fill: #f7f9ff;
      }

      .cls-2 {
        fill: #060631;
      }

      .cls-3 {
        fill: #05051f;
      }

      .cls-4 {
        fill: #ec7166;
      }

      .cls-5 {
        fill: #e87a6d;
      }

      .cls-6 {
        fill: #ec9793;
      }

      .cls-7 {
        fill: #fff;
      }

      .cls-8 {
        fill: #ee8b83;
      }

      .cls-9 {
        fill: #7e96f0;
      }

      .cls-10 {
        fill: #677fc7;
      }

      .cls-11 {
        fill: #7d9ae3;
      }

      .cls-12 {
        fill: #bccef7;
      }

      .cls-13 {
        fill: #d9706c;
      }

      .cls-14 {
        fill: #c0cff5;
      }

      .cls-15 {
        fill: #c0504b;
      }

      .cls-16 {
        fill: #dee6fb;
      }

      .cls-17 {
        fill: #d86156;
      }

      .cls-18 {
        fill: #121262;
      }

      .cls-19 {
        fill: #070433;
      }

      .cls-20 {
        fill: #0e1d8c;
      }

      .cls-21 {
        fill: #444bd8;
      }

      .cls-22 {
        fill: #0a0a0a;
      }

      .cls-23 {
        fill: #6f76f6;
      }

      .cls-24 {
        fill: #2951b2;
      }
    </style>
  </defs>
  <g id="Layer_1-2" data-name="Layer 1">
    <g>
      <path class="cls-16" d="m391.92,352.47c40.15.93,65.32-51.96,65.28-84.48-.04-35.13-17.26-66.4-27.4-99.17-8.98-29.04-5.69-62-19.54-89.41-16.86-33.33-54.74-43.13-86.98-54.87C281.62,9.36,237.71-4.02,192.74,1.12c-31.68,3.63-62.77,16.85-84.93,39.77-17.44,18.04-28.52,40.78-41.17,62.16-13.09,22.12-30.02,36.75-46.33,55.8-45.69,53.35-6.27,149.42,39.67,189.01,0,0,331.82,4.61,331.96,4.61Z"/>
      <rect class="cls-14" x="203.53" y="96.37" width="51.94" height="2.24" transform="translate(132.01 326.99) rotate(-90)"/>
      <rect class="cls-14" x="295.57" y="188.44" width="51.94" height="2.24"/>
      <rect class="cls-14" x="117.14" y="188.44" width="51.94" height="2.24"/>
      <rect class="cls-14" x="259.09" y="119.85" width="51.94" height="2.24" transform="translate(-4.72 230.16) rotate(-43.64)"/>
      <rect class="cls-14" x="129.96" y="242.99" width="51.94" height="2.24" transform="translate(-125.38 175.07) rotate(-43.64)"/>
      <rect class="cls-14" x="136.07" y="124.03" width="51.94" height="2.24" transform="translate(192.94 327.55) rotate(-136.36)"/>
      <rect class="cls-14" x="265.2" y="247.17" width="51.94" height="2.24" transform="translate(330.51 628.92) rotate(-136.36)"/>
      <path class="cls-14" d="m230.44,87.26c-54.93,0-99.47,44.53-99.47,99.47s44.53,99.47,99.47,99.47,99.47-44.53,99.47-99.47-44.53-99.47-99.47-99.47Zm.17,190.24c-50.31,0-91.09-40.78-91.09-91.09s40.78-91.09,91.09-91.09,91.09,40.78,91.09,91.09-40.78,91.09-91.09,91.09Z"/>
      <path class="cls-14" d="m317.38,328.39c-70.25-2.92-182.19-2.56-250.43,5.29-25.16,2.9-40.05,6.48-40.05,10.37,0,3.57,12.54,6.89,34.06,9.65,24.56,3.15,56.29,5.02,80.95,6.03,56.36,2.32,121.74,2.23,175.46,0,67.96-2.81,114.85-8.77,114.85-15.67s-46.9-12.86-114.85-15.67Z"/>
      <g>
        <g>
          <path class="cls-6" d="m255.72,235.97s-2.76,4.95-3.36,6.97c-.6,2.01-2.68,3.51-1.69,4.23.98.72,3.57-2.38,3.57-2.38,0,0,.78,4.2.82,5.53.04,1.33.72,3.68,1.69,3.72.97.04.32-6.31.32-6.31,0,0,1.07,5.3,1.96,5.53.89.23.52-6.71.52-6.71,0,0,.87,5.71,1.33,6.1.46.39.97-.18,1.16-2.28.18-2.1-.17-4.28-.17-4.28,0,0,.91,3.97,1.19,4.4.28.44.97.84.92-2.29-.06-3.13-1.28-9.89-3.27-13.01l-4.98.79Z"/>
          <path class="cls-6" d="m244.17,328.01s-.16,11.46-.08,11.62c.09.16-.84,1.6-.84,1.6l-3.61.65-3.3-1.52s.29-10.65-.05-12.33c-.35-1.68,7.88-.02,7.88-.02Z"/>
          <path class="cls-2" d="m236.34,340.36s4.17,1.46,7.73-.95c0,0,13.87,5.2,13.45,9.15,0,0,.59,1.18-5.42.92-6.01-.25-15.35-.52-15.6-.66-.25-.14-1.43.5-.15-8.46Z"/>
          <path class="cls-6" d="m201.79,328.01s-.16,11.46-.08,11.62c.09.16-.84,1.6-.84,1.6l-3.61.65-3.3-1.52s.29-10.65-.05-12.33c-.34-1.68,7.88-.02,7.88-.02Z"/>
          <path class="cls-2" d="m193.96,340.36s4.17,1.46,7.73-.95c0,0,13.87,5.2,13.45,9.15,0,0,.59,1.18-5.42.92-6.01-.25-15.35-.52-15.6-.66-.25-.14-1.43.5-.15-8.46Z"/>
          <polygon class="cls-18" points="196.48 218.59 193.38 338.48 202.76 338.13 224.44 249.05 235.76 339.41 245.6 338.48 252.68 218.19 237.61 206.67 196.48 218.59"/>
          <g>
            <path class="cls-13" d="m234.38,131.93s.83-1.54,1.64-1.02c2.07,1.33.31,3.44-.94,3.99l-.7-2.97Z"/>
            <path class="cls-6" d="m234.32,126.54h-.01c0-.15-.02-.3-.03-.46-.62-6.8-6.85-11.74-13.71-10.65-5.71.9-9.99,5.9-10,11.68,0,2.15.55,4.13,1.52,5.85,1.35,2.67,2.53,4.95,3.73,6.82,1.99,3.1,2.86,6.78,2.58,10.46l-.22,2.89c7.62,3.21,10.61-.69,10.61-.69l-.34-5.23c-.04-.68.44-1.28,1.12-1.39,0,0,0,0,.01,0,8.96-1.41,5.12-15.22,4.75-19.28Z"/>
            <path class="cls-2" d="m222.7,133.86c-.06-.61-.59-1.06-1.2-1-.61.06-1.06.59-1,1.2.06.61.59,1.06,1.2,1,.61-.06,1.06-.59,1-1.2Z"/>
            <path class="cls-2" d="m232.31,131.01c-.06-.61-.59-1.06-1.2-1-.61.06-1.06.59-1,1.2.06.61.59,1.06,1.2,1,.61-.06,1.06-.59,1-1.2Z"/>
            <path class="cls-2" d="m218.6,132.5c-.11.01-.23,0-.34-.06-.32-.16-.46-.54-.3-.87.47-.97,2.04-2.54,4.61-1.54.33.13.5.51.37.84-.13.33-.51.5-.84.37-2.12-.83-2.94.82-2.97.89-.1.21-.31.34-.53.36Z"/>
            <path class="cls-2" d="m228.77,129.84c-.11.01-.23,0-.34-.06-.32-.16-.46-.54-.3-.87.47-.97,2.04-2.54,4.61-1.54.33.13.5.51.37.84-.13.33-.51.5-.84.37-2.12-.83-2.94.82-2.97.89-.1.21-.31.34-.53.36Z"/>
            <polygon class="cls-2" points="209.64 129.15 213.58 136.86 215.69 136.23 216.04 125.79 209.64 129.15"/>
            <path class="cls-6" d="m216,135.95c-.23-.37-.59-.63-1-.75-.85-.26-2.32-.48-3.22.6-1.32,1.59,1.95,5.17,4.67,2.99,0,0,.75-.9-.45-2.84Z"/>
            <path class="cls-13" d="m228.73,137.33c-1.01.61-2,.13-2.01.12-.09-.05-.13-.16-.09-.26.05-.09.16-.13.26-.09.05.02,1.15.55,2.11-.5.16-.17.23-.31.23-.4,0-.13-.18-.29-.42-.5-.55-.49-1.47-1.32-1.92-3.34-.02-.1.04-.21.15-.23.1-.02.21.04.23.15.42,1.9,1.25,2.64,1.8,3.14.3.27.53.48.55.77.01.21-.09.42-.33.68-.18.2-.37.35-.56.46Z"/>
            <path class="cls-2" d="m232,122.12s1.81,1.04,2.88,8.18c0,0-.15-8.06-1.12-8.86-.97-.8-1.76.68-1.76.68Z"/>
          </g>
          <path class="cls-7" d="m217.4,150.83h12.56l4.87,21.05v40.38s-11.53,5.58-26.7-1.72l4.43-47.25,4.86-12.46Z"/>
          <path class="cls-10" d="m217.4,150.83s-18.95,8.02-22.67,13.17c-3.72,5.15-14.89,27.49-9.74,73.02h10.2l.25-4.73,18.9,1.86,3.05-83.33Z"/>
          <path class="cls-10" d="m229.95,150.83s18.95,8.02,22.67,13.17c3.72,5.15,14.89,27.49,9.74,73.02h-10.68l.23-4.73-18.9,1.86-3.05-83.33Z"/>
          <path class="cls-22" d="m195.5,232.82c.17,0,.32-.13.33-.31.02-.37,2.44-37.57,7.52-53.67.06-.17-.04-.36-.22-.41-.18-.06-.36.04-.41.22-5.11,16.17-7.52,53.45-7.55,53.82-.01.18.13.34.31.35,0,0,.01,0,.02,0Z"/>
          <path class="cls-22" d="m251.89,232.37s0,0,.01,0c.18,0,.33-.16.32-.34-.07-1.78-1.7-43.79-5.09-53.39-.06-.17-.25-.26-.42-.2-.17.06-.26.25-.2.42,3.36,9.51,5.03,52.76,5.05,53.19,0,.18.15.32.33.32Z"/>
          <polygon class="cls-5" points="221.47 153.19 223.67 156.95 219.07 210.1 226.17 221.56 231.44 209.82 226.33 156.62 227.95 152.87 223.62 151.26 221.47 153.19"/>
          <polygon class="cls-7" points="217.4 150.83 218.34 148.76 224.24 150.83 229.13 148.58 229.95 150.83 228.91 154.69 224.46 151.8 220.11 154.96 217.4 150.83"/>
          <g>
            <path class="cls-2" d="m178.16,256.78h3.24v-5.82h11.15v5.82h3.24v-6.16c0-1.61-1.19-2.91-2.65-2.91h-12.34c-1.46,0-2.65,1.31-2.65,2.91v6.16Z"/>
            <rect class="cls-2" x="162.1" y="255.33" width="48.04" height="31.57" rx="1.8" ry="1.8" transform="translate(372.24 542.23) rotate(180)"/>
            <path class="cls-10" d="m184.75,272.44s.05,0,.08-.01l25.26-7.98c.14-.04.22-.2.18-.34-.04-.14-.2-.22-.34-.18l-25.17,7.95-22.39-8.01c-.14-.05-.3.02-.35.16-.05.14.02.3.16.35l22.47,8.04s.06.02.09.02Z"/>
            <rect class="cls-7" x="183.27" y="269.44" width="2.87" height="5.21" transform="translate(369.42 544.08) rotate(180)"/>
          </g>
          <path class="cls-6" d="m192.4,237.02s2.38,6.49,2.78,8.55c.4,2.06,2.31,3.76,1.26,4.38-1.05.62-3.32-2.72-3.32-2.72,0,0-.52,1.18-.69,2.5-.17,1.32-.82,2.53-1.79,2.47-.97-.05-.63-2.33-.63-2.33,0,0-.57,2.45-1.66,2.11-.88-.27-.69-3.53-.69-3.53,0,0-.51,2.08-.79,2.61-.34.64-1.53.85-1.51-1.26.03-2.1.04-2.05.04-2.05,0,0-.67,2.06-.99,2.47-.32.41-1.53.52-1.22-1.23.55-3.09,2.17-9.06,4.46-11.98h4.75Z"/>
          <path class="cls-2" d="m209.52,117.8c.46-.65,1.02-1.24,1.72-1.62,1.7-.93,3.8-.44,5.73-.68,2.87-.35,5.31-2.32,8.14-2.95,1.56-.34,3.17-.27,4.76-.19.32.02.65.03.95.17.38.17.65.51.88.85.67.97,1.26,2.11,2.32,2.62,1.33.64,3.05.11,4.27.93,1.32.88,1.33,2.79,1.21,4.37-.02.3-.05.62-.21.88-.22.36-.63.55-1.03.69-1.43.49-3,.59-4.48.27-1.47-.31-2.88-1.02-4.38-.93-1.84.11-3.36,1.4-4.96,2.34-1.09.65-2.27,1.14-3.5,1.48-1.5.41-3.08.57-4.51,1.18-2.43,1.04-5.84,4.54-7.43,1.01-1.36-3.02-1.43-7.66.51-10.43Z"/>
        </g>
        <polygon class="cls-11" points="210.01 154.21 213.73 169.55 210.01 171.1 215.49 202.89 217.4 150.83 210.01 154.21"/>
        <polygon class="cls-11" points="237.34 154.21 233.62 169.55 237.34 171.1 231.86 202.89 229.95 150.83 237.34 154.21"/>
        <path class="cls-7" d="m224.46,139.43l7.04-1.79s1.35,2.98-2.28,3.99c-3.63,1.01-4.76-2.2-4.76-2.2Z"/>
      </g>
      <g>
        <g>
          <polygon class="cls-2" points="321.53 107.42 368.47 107.42 373.35 68.57 323.24 68.57 321.53 107.42"/>
          <polygon class="cls-7" points="378.48 107.42 328.37 107.42 324.53 76.86 323.49 68.57 373.6 68.57 374.64 76.86 378.48 107.42"/>
          <polygon class="cls-5" points="374.64 76.86 324.53 76.86 323.49 68.57 373.6 68.57 374.64 76.86"/>
          <g>
            <g>
              <path class="cls-14" d="m346.16,84.35h-3.55c-.3,0-.58-.24-.62-.54l-.55-3.55c-.05-.3.16-.54.46-.54h3.55c.3,0,.58.24.62.54l.55,3.55c.05.3-.16.54-.46.54Z"/>
              <path class="cls-14" d="m352.12,84.35h-3.55c-.3,0-.58-.24-.62-.54l-.55-3.55c-.05-.3.16-.54.46-.54h3.55c.3,0,.58.24.62.54l.55,3.55c.05.3-.16.54-.46.54Z"/>
              <path class="cls-14" d="m358.08,84.35h-3.55c-.3,0-.58-.24-.62-.54l-.55-3.55c-.05-.3.16-.54.46-.54h3.55c.3,0,.58.24.62.54l.55,3.55c.05.3-.16.54-.46.54Z"/>
              <path class="cls-8" d="m364.03,84.35h-3.55c-.3,0-.58-.24-.62-.54l-.55-3.55c-.05-.3.16-.54.46-.54h3.55c.3,0,.58.24.62.54l.55,3.55c.05.3-.16.54-.46.54Z"/>
              <path class="cls-8" d="m369.99,84.35h-3.55c-.3,0-.58-.24-.62-.54l-.55-3.55c-.05-.3.16-.54.46-.54h3.55c.3,0,.58.24.62.54l.55,3.55c.05.3-.16.54-.46.54Z"/>
            </g>
            <g>
              <path class="cls-14" d="m335.27,90.92h-3.55c-.3,0-.58-.24-.62-.54l-.55-3.55c-.05-.3.16-.54.46-.54h3.55c.3,0,.58.24.62.54l.55,3.55c.05.3-.16.54-.46.54Z"/>
              <path class="cls-14" d="m341.23,90.92h-3.55c-.3,0-.58-.24-.62-.54l-.55-3.55c-.05-.3.16-.54.46-.54h3.55c.3,0,.58.24.62.54l.55,3.55c.05.3-.16.54-.46.54Z"/>
              <path class="cls-14" d="m347.19,90.92h-3.55c-.3,0-.58-.24-.62-.54l-.55-3.55c-.05-.3.16-.54.46-.54h3.55c.3,0,.58.24.62.54l.55,3.55c.05.3-.16.54-.46.54Z"/>
              <path class="cls-14" d="m353.14,90.92h-3.55c-.3,0-.58-.24-.62-.54l-.55-3.55c-.05-.3.16-.54.46-.54h3.55c.3,0,.58.24.62.54l.55,3.55c.05.3-.16.54-.46.54Z"/>
              <path class="cls-14" d="m359.1,90.92h-3.55c-.3,0-.58-.24-.62-.54l-.55-3.55c-.05-.3.16-.54.46-.54h3.55c.3,0,.58.24.62.54l.55,3.55c.05.3-.16.54-.46.54Z"/>
              <path class="cls-8" d="m365.05,90.92h-3.55c-.3,0-.58-.24-.62-.54l-.55-3.55c-.05-.3.16-.54.46-.54h3.55c.3,0,.58.24.62.54l.55,3.55c.05.3-.16.54-.46.54Z"/>
              <path class="cls-8" d="m371.01,90.92h-3.55c-.3,0-.58-.24-.62-.54l-.55-3.55c-.05-.3.16-.54.46-.54h3.55c.3,0,.58.24.62.54l.55,3.55c.05.3-.16.54-.46.54Z"/>
            </g>
            <path class="cls-14" d="m336.29,97.49h-3.55c-.3,0-.58-.24-.62-.54l-.55-3.55c-.05-.3.16-.54.46-.54h3.55c.3,0,.58.24.62.54l.55,3.55c.05.3-.16.54-.46.54Z"/>
            <path class="cls-14" d="m342.25,97.49h-3.55c-.3,0-.58-.24-.62-.54l-.55-3.55c-.05-.3.16-.54.46-.54h3.55c.3,0,.58.24.62.54l.55,3.55c.05.3-.16.54-.46.54Z"/>
            <path class="cls-14" d="m348.21,97.49h-3.55c-.3,0-.58-.24-.62-.54l-.55-3.55c-.05-.3.16-.54.46-.54h3.55c.3,0,.58.24.62.54l.55,3.55c.05.3-.16.54-.46.54Z"/>
            <path class="cls-14" d="m354.16,97.49h-3.55c-.3,0-.58-.24-.62-.54l-.55-3.55c-.05-.3.16-.54.46-.54h3.55c.3,0,.58.24.62.54l.55,3.55c.05.3-.16.54-.46.54Z"/>
            <path class="cls-14" d="m360.12,97.49h-3.55c-.3,0-.58-.24-.62-.54l-.55-3.55c-.05-.3.16-.54.46-.54h3.55c.3,0,.58.24.62.54l.55,3.55c.05.3-.16.54-.46.54Z"/>
            <path class="cls-8" d="m366.07,97.49h-3.55c-.3,0-.58-.24-.62-.54l-.55-3.55c-.05-.3.16-.54.46-.54h3.55c.3,0,.58.24.62.54l.55,3.55c.05.3-.16.54-.46.54Z"/>
            <path class="cls-8" d="m372.03,97.49h-3.55c-.3,0-.58-.24-.62-.54l-.55-3.55c-.05-.3.16-.54.46-.54h3.55c.3,0,.58.24.62.54l.55,3.55c.05.3-.16.54-.46.54Z"/>
            <path class="cls-14" d="m337.32,104.06h-3.55c-.3,0-.58-.24-.62-.54l-.55-3.55c-.05-.3.16-.54.46-.54h3.55c.3,0,.58.24.62.54l.55,3.55c.05.3-.16.54-.46.54Z"/>
            <path class="cls-14" d="m343.27,104.06h-3.55c-.3,0-.58-.24-.62-.54l-.55-3.55c-.05-.3.16-.54.46-.54h3.55c.3,0,.58.24.62.54l.55,3.55c.05.3-.16.54-.46.54Z"/>
            <path class="cls-14" d="m349.23,104.06h-3.55c-.3,0-.58-.24-.62-.54l-.55-3.55c-.05-.3.16-.54.46-.54h3.55c.3,0,.58.24.62.54l.55,3.55c.05.3-.16.54-.46.54Z"/>
            <path class="cls-14" d="m355.18,104.06h-3.55c-.3,0-.58-.24-.62-.54l-.55-3.55c-.05-.3.16-.54.46-.54h3.55c.3,0,.58.24.62.54l.55,3.55c.05.3-.16.54-.46.54Z"/>
            <path class="cls-14" d="m361.14,104.06h-3.55c-.3,0-.58-.24-.62-.54l-.55-3.55c-.05-.3.16-.54.46-.54h3.55c.3,0,.58.24.62.54l.55,3.55c.05.3-.16.54-.46.54Z"/>
            <path class="cls-8" d="m367.1,104.06h-3.55c-.3,0-.58-.24-.62-.54l-.55-3.55c-.05-.3.16-.54.46-.54h3.55c.3,0,.58.24.62.54l.55,3.55c.05.3-.16.54-.46.54Z"/>
            <path class="cls-8" d="m373.05,104.06h-3.55c-.3,0-.58-.24-.62-.54l-.55-3.55c-.05-.3.16-.54.46-.54h3.55c.3,0,.58.24.62.54l.55,3.55c.05.3-.16.54-.46.54Z"/>
          </g>
          <g>
            <rect class="cls-7" x="365.23" y="74.7" width="4.2" height=".6"/>
            <rect class="cls-7" x="359.26" y="74.7" width="4.2" height=".6"/>
            <rect class="cls-7" x="353.3" y="74.7" width="4.2" height=".6"/>
            <rect class="cls-7" x="347.33" y="74.7" width="4.2" height=".6"/>
            <rect class="cls-7" x="341.37" y="74.7" width="4.2" height=".6"/>
            <rect class="cls-7" x="335.4" y="74.7" width="4.2" height=".6"/>
            <rect class="cls-7" x="329.43" y="74.7" width="4.2" height=".6"/>
          </g>
        </g>
        <g>
          <rect class="cls-20" x="326.31" y="67.06" width="1.28" height="2.87" rx=".54" ry=".54"/>
          <rect class="cls-20" x="334.9" y="67.06" width="1.28" height="2.87" rx=".54" ry=".54"/>
          <rect class="cls-20" x="343.49" y="67.06" width="1.28" height="2.87" rx=".54" ry=".54"/>
          <rect class="cls-20" x="352.08" y="67.06" width="1.28" height="2.87" rx=".54" ry=".54"/>
          <rect class="cls-20" x="360.66" y="67.06" width="1.28" height="2.87" rx=".54" ry=".54"/>
          <rect class="cls-20" x="369.25" y="67.06" width="1.28" height="2.87" rx=".54" ry=".54"/>
        </g>
      </g>
      <g>
        <path class="cls-5" d="m246.97,28.35c0-9.34-8.2-16.92-18.32-16.92s-18.32,7.57-18.32,16.92c0,4.53,1.93,8.65,5.07,11.68,2.85,2.75,4.48,6.52,4.48,10.48h0c0,3.2,2.6,5.8,5.8,5.8h5.93c3.2,0,5.8-2.6,5.8-5.8h0c0-3.96,1.64-7.73,4.48-10.48,3.14-3.04,5.07-7.15,5.07-11.68Z"/>
        <path class="cls-2" d="m231.86,58.42c-.11,0-.21-.09-.22-.2-.1-1.89,2.76-31.35,2.88-32.6.01-.12.12-.21.24-.19.12.01.21.12.19.24-.03.31-2.98,30.68-2.88,32.54,0,.12-.08.22-.2.23,0,0,0,0-.01,0Z"/>
        <path class="cls-2" d="m225.27,58.42s0,0-.01,0c-.12,0-.21-.11-.2-.23.1-1.85-2.85-32.23-2.88-32.54-.01-.12.08-.22.19-.24.12-.01.22.08.24.19.12,1.25,2.98,30.72,2.88,32.6,0,.11-.1.2-.22.2Z"/>
        <path class="cls-2" d="m228.01,33.17c-.56,0-1.14-.2-1.62-.57-.35.25-.76.4-1.21.36-.61-.06-1.2-.47-1.58-1.12-.32-.56-.84-2.46-.98-3.11-.01-.06.02-.12.08-.13.06-.01.12.02.13.08.14.68.65,2.53.95,3.05.34.59.87.97,1.41,1.02.37.03.73-.09,1.03-.29,0,0,0,0,0,0-.79-.72-1.08-1.73-1.19-2.46-.13-.91-.02-1.66.34-2.24.17-.27.37-.45.59-.54.57-.24,1.24.17,1.5.7.26.52.23,1.12.18,1.69-.06.71-.16,1.52-.55,2.21-.13.23-.31.46-.53.65.66.49,1.51.63,2.19.35.29-.12.54-.32.76-.57-.27-.16-.49-.39-.63-.67-.15-.32-.19-.67-.21-1-.05-1,.06-1.99.32-2.95,0-.03.04-.06.07-.07.34-.11.68.09.86.33.18.24.25.54.31.83.13.68.26,1.57.06,2.41-.09.4-.25.76-.46,1.06.37.16.81.19,1.21.07.22-.07.43-.18.62-.32-.15-.23-.25-.47-.32-.66-.55-1.52-.5-3.25.13-4.74.01-.03.04-.05.06-.06.46-.16.95.13,1.19.49.25.38.3.84.33,1.24.05.7.07,1.62-.24,2.47-.19.52-.49.96-.86,1.29.19.23.43.42.75.45.26.02.49-.08.64-.17.52-.3.83-.96.73-1.55,0-.06.03-.11.09-.12.06,0,.11.03.12.09.11.69-.23,1.42-.84,1.77-.25.15-.52.22-.77.19-.39-.03-.68-.25-.9-.53-.21.16-.44.27-.68.35-.47.15-.98.1-1.41-.1-.24.3-.54.52-.87.66-.26.11-.55.16-.83.16Zm-1.69-5.81c-.09,0-.19.02-.28.05-.18.08-.35.23-.49.46-.33.53-.44,1.25-.31,2.09.1.69.38,1.65,1.12,2.33.01.01.02.02.03.03.21-.18.39-.4.52-.62.37-.65.46-1.43.52-2.12.05-.54.07-1.1-.16-1.58-.18-.36-.57-.65-.95-.65Zm2.88.37c-.25.92-.35,1.87-.3,2.83.02.31.05.64.19.92.12.25.32.45.56.59.2-.29.36-.63.44-1.01.18-.81.06-1.66-.06-2.32-.05-.26-.11-.54-.27-.74-.12-.17-.35-.3-.56-.27Zm2.47-1.08c-.59,1.43-.63,3.08-.11,4.53.05.15.15.37.29.59.34-.3.61-.71.78-1.18.3-.82.28-1.7.22-2.38-.03-.38-.08-.8-.3-1.14-.18-.28-.55-.51-.89-.42Z"/>
        <path class="cls-21" d="m221.29,61.4h14.73v.65c0,1.96-1.59,3.56-3.56,3.56h-7.61c-1.96,0-3.56-1.59-3.56-3.56v-.65h0Z"/>
        <path class="cls-2" d="m229.56,63.43c-4.34,0-8.2-1.24-8.44-1.32-.74-.24-1.14-1.03-.9-1.77.24-.74,1.03-1.14,1.77-.9.13.04,8.13,2.58,13.14.08.69-.35,1.54-.07,1.88.63.35.69.07,1.54-.63,1.88-2.1,1.05-4.53,1.39-6.82,1.39Z"/>
        <path class="cls-21" d="m229.56,61.16c-4.34,0-8.2-1.24-8.44-1.32-.74-.24-1.14-1.03-.9-1.77.24-.74,1.03-1.14,1.77-.9.13.04,8.13,2.58,13.14.08.69-.35,1.54-.07,1.88.63.35.69.07,1.54-.63,1.88-2.1,1.05-4.53,1.39-6.82,1.39Z"/>
        <path class="cls-2" d="m229.56,58.88c-4.34,0-8.2-1.24-8.44-1.32-.74-.24-1.14-1.03-.9-1.77.24-.74,1.03-1.14,1.77-.9.13.04,8.13,2.58,13.14.08.69-.35,1.54-.07,1.88.63.35.69.07,1.54-.63,1.88-2.1,1.05-4.53,1.39-6.82,1.39Z"/>
      </g>
      <g>
        <path class="cls-15" d="m328.33,272.48c-.02-16.58,13.41-30.04,29.99-30.06,16.58-.02,30.04,13.41,30.06,29.99.02,16.58-13.41,30.04-29.99,30.06-16.58.02-30.04-13.41-30.06-29.99Z"/>
        <path class="cls-1" d="m333.29,272.1c.19-13.84,11.57-24.9,25.41-24.71,13.84.19,24.9,11.57,24.71,25.41-.19,13.84-11.57,24.9-25.41,24.71-13.84-.19-24.9-11.57-24.71-25.41Z"/>
        <g>
          <path class="cls-9" d="m378.73,274.21c-.82-.01-1.47-.68-1.46-1.5.01-.82.68-1.47,1.5-1.46.82.01,1.47.68,1.46,1.5-.01.82-.68,1.47-1.5,1.46Z"/>
          <path class="cls-9" d="m337.94,273.64c-.82-.01-1.47-.68-1.46-1.5.01-.82.68-1.47,1.5-1.46.82.01,1.47.68,1.46,1.5-.01.82-.68,1.47-1.5,1.46Z"/>
        </g>
        <g>
          <path class="cls-9" d="m360.12,252.07c-.01.82-.68,1.47-1.5,1.46-.82-.01-1.47-.68-1.46-1.5.01-.82.68-1.47,1.5-1.46.82.01,1.47.68,1.46,1.5Z"/>
          <path class="cls-9" d="m359.55,292.86c-.01.82-.68,1.47-1.5,1.46-.82-.01-1.47-.68-1.46-1.5.01-.82.68-1.47,1.5-1.46.82.01,1.47.68,1.46,1.5Z"/>
        </g>
        <g>
          <path class="cls-9" d="m349.15,253.64c.41.71.16,1.61-.55,2.02-.71.41-1.61.16-2.02-.55-.41-.71-.16-1.61.55-2.02.71-.41,1.61-.16,2.02.55Z"/>
          <path class="cls-9" d="m369.41,289.05c.41.71.16,1.61-.55,2.02-.71.41-1.61.16-2.02-.55-.41-.71-.16-1.61.55-2.02.71-.41,1.61-.16,2.02.55Z"/>
        </g>
        <g>
          <path class="cls-9" d="m367.71,253.9c-.43.7-.2,1.61.49,2.03.7.43,1.61.2,2.03-.49.43-.7.21-1.61-.49-2.04-.7-.43-1.61-.2-2.04.49Z"/>
          <path class="cls-9" d="m346.47,288.73c-.43.7-.2,1.61.49,2.03.7.43,1.61.2,2.03-.49.43-.7.21-1.61-.49-2.03-.7-.43-1.61-.21-2.04.49Z"/>
        </g>
        <g>
          <path class="cls-9" d="m341.63,259.98c.69.44.89,1.35.45,2.04-.44.69-1.35.89-2.04.45-.69-.44-.89-1.35-.46-2.04.44-.69,1.35-.89,2.04-.45Z"/>
          <path class="cls-9" d="m376.06,281.87c.69.44.89,1.35.45,2.04-.44.69-1.35.89-2.04.45-.69-.44-.89-1.35-.46-2.04.44-.69,1.35-.89,2.04-.45Z"/>
        </g>
        <g>
          <path class="cls-9" d="m374.91,261.18c-.72.39-.99,1.29-.6,2.01.39.72,1.29.99,2.01.6.72-.39.99-1.29.6-2.01-.39-.72-1.29-.99-2.01-.6Z"/>
          <path class="cls-9" d="m339,280.54c-.72.39-.99,1.29-.6,2.01.39.72,1.29.99,2.01.6.72-.39.99-1.29.6-2.01-.39-.72-1.29-.99-2.01-.6Z"/>
        </g>
        <path class="cls-9" d="m358.16,275.44c-1.21-.02-2.17-1.01-2.16-2.22.02-1.21,1.01-2.17,2.22-2.16,1.21.02,2.17,1.01,2.16,2.22-.02,1.21-1.01,2.17-2.22,2.16Z"/>
        <g>
          <path class="cls-9" d="m358.18,273.68h.44c.24,0,.44-.18.44-.42,0-.24-.19-.44-.43-.44h0s.17-13.49.17-13.49l.53.79c.13.2.4.25.6.12.2-.13.25-.4.12-.6l-1.31-1.96c-.11-.16-.3-.23-.48-.17-.18.05-.31.22-.31.41l-.19,15.32c0,.24.19.44.43.44Z"/>
          <path class="cls-9" d="m356.87,260.16c.13,0,.25-.05.34-.16l1.5-1.79c.15-.18.13-.46-.05-.61-.18-.15-.46-.13-.61.05l-1.5,1.79c-.15.18-.13.46.05.61.08.07.18.1.27.1Z"/>
        </g>
        <g>
          <path class="cls-9" d="m366.03,275.2c.11,0,.23-.04.31-.13l1.31-1.32c.12-.12.16-.31.09-.47-.07-.16-.22-.27-.4-.27h0s-10.19-.12-10.19-.12c-.24,0-.44.19-.44.43v.44c0,.24.18.44.42.44.24,0,.44-.19.44-.43h0s8.73.1,8.73.1l-.59.59c-.17.17-.17.44,0,.61.08.08.19.12.3.13Z"/>
          <path class="cls-9" d="m367.34,273.88c.1,0,.19-.03.28-.09.19-.15.22-.42.07-.61l-1.19-1.49c-.15-.19-.42-.22-.61-.07-.19.15-.22.42-.07.61l1.19,1.49c.08.11.21.16.33.16Z"/>
        </g>
      </g>
      <g>
        <path class="cls-24" d="m149.28,83.81c1.77-4.54-.54-9.79-5.16-11.73-4.62-1.94-9.8.17-11.57,4.71-1.77,4.54.54,9.79,5.16,11.73,4.62,1.94,9.8-.17,11.57-4.71Zm-1.98-.83c-1.31,3.36-5.14,4.92-8.56,3.49-3.42-1.44-5.13-5.33-3.82-8.69,1.31-3.36,5.14-4.92,8.56-3.49,3.42,1.44,5.13,5.33,3.82,8.69Z"/>
        <polygon class="cls-24" points="137.9 91.45 135.62 90.49 136.87 87.29 139.15 88.25 137.9 91.45"/>
        <polygon class="cls-24" points="142.65 92.1 140.22 92.18 139.97 88.7 142.41 88.62 142.65 92.1"/>
        <polygon class="cls-24" points="147.03 90.7 144.86 91.74 143.26 88.59 145.42 87.55 147.03 90.7"/>
        <polygon class="cls-24" points="150.21 87.97 148.5 89.64 146.01 87.11 147.73 85.44 150.21 87.97"/>
        <polygon class="cls-24" points="130.6 74.59 129.72 76.84 132.98 78.2 133.86 75.96 130.6 74.59"/>
        <polygon class="cls-24" points="152.1 83.62 151.23 85.87 147.97 84.5 148.84 82.26 152.1 83.62"/>
        <polygon class="cls-24" points="131.71 87.51 133.41 89.32 135.92 87 134.22 85.18 131.71 87.51"/>
        <polygon class="cls-24" points="129.5 83.34 130.37 85.66 133.63 84.55 132.77 82.24 129.5 83.34"/>
        <polygon class="cls-24" points="129.04 79.08 129.16 81.52 132.64 81.49 132.53 79.05 129.04 79.08"/>
        <polygon class="cls-24" points="146.29 70 144.01 69.04 142.76 72.25 145.04 73.2 146.29 70"/>
        <polygon class="cls-24" points="150.14 72.97 148.44 71.15 145.93 73.47 147.63 75.29 150.14 72.97"/>
        <polygon class="cls-24" points="152.35 77.13 151.49 74.82 148.22 75.92 149.09 78.23 152.35 77.13"/>
        <polygon class="cls-24" points="152.81 81.39 152.7 78.95 149.21 78.98 149.32 81.42 152.81 81.39"/>
        <polygon class="cls-24" points="139.2 68.37 141.64 68.29 141.88 71.77 139.45 71.85 139.2 68.37"/>
        <polygon class="cls-24" points="134.82 69.77 136.99 68.73 138.6 71.88 136.43 72.92 134.82 69.77"/>
        <polygon class="cls-24" points="131.64 72.5 133.35 70.83 135.84 73.36 134.13 75.04 131.64 72.5"/>
      </g>
      <path class="cls-9" d="m124.24,110.59c1.13-.98,2.05-2.14,2.75-3.41l5.86,1.08,1.04-7.03-5.29-.98c-.04-1.04-.21-2.08-.5-3.11l4.31-2.45-3.72-6.24-4.31,2.45c-.77-.76-1.62-1.41-2.52-1.96l1.74-4.97-6.77-2.59-1.93,5.51c-1.48-.03-2.96.18-4.39.66l-2.89-4.85-6.12,3.48,3.17,5.32c-.62.74-1.15,1.55-1.58,2.4l-6.26-1.16-1.04,7.03,5.95,1.1c.07.88.22,1.76.47,2.63l-4.95,2.81,3.72,6.24,4.95-2.81c.65.64,1.36,1.21,2.11,1.7l-1.96,5.59,6.77,2.59,2.07-5.89c.97.06,1.95,0,2.92-.15l3.17,5.32,6.12-3.48-2.89-4.85Zm-5.42-4.12c-3.32,1.89-7.65.67-9.67-2.72-2.02-3.39-.96-7.66,2.36-9.55,3.32-1.89,7.65-.67,9.67,2.72,2.02,3.39.96,7.66-2.36,9.55Z"/>
      <path class="cls-1" d="m122.03,72.43c.62-.54,1.13-1.18,1.52-1.88l3.24.6.58-3.88-2.92-.54c-.02-.57-.12-1.15-.28-1.72l2.38-1.35-2.05-3.45-2.38,1.35c-.43-.42-.89-.78-1.39-1.08l.96-2.75-3.74-1.43-1.07,3.04c-.81-.02-1.63.1-2.42.36l-1.59-2.68-3.38,1.92,1.75,2.94c-.34.41-.63.86-.87,1.33l-3.46-.64-.58,3.88,3.28.61c.04.48.12.97.26,1.45l-2.73,1.55,2.05,3.45,2.73-1.55c.36.35.75.67,1.16.94l-1.08,3.09,3.74,1.43,1.14-3.25c.54.03,1.08,0,1.61-.08l1.75,2.94,3.38-1.92-1.59-2.68Zm-2.99-2.27c-1.83,1.04-4.22.37-5.34-1.5s-.53-4.23,1.3-5.28c1.83-1.04,4.22-.37,5.34,1.5,1.11,1.87.53,4.23-1.3,5.28Z"/>
      <g>
        <polygon class="cls-3" points="40.47 164.75 85.18 164.68 99.24 197.37 54.54 197.44 40.47 164.75"/>
        <rect class="cls-3" x="90.46" y="195.39" width="29.93" height="1.98" transform="translate(211.13 392.6) rotate(179.92)"/>
        <path class="cls-7" d="m67.4,180.58c0-1.09-.87-1.97-1.96-1.98-1.09,0-1.97.87-1.98,1.96,0,1.09.87,1.97,1.96,1.98,1.09,0,1.97-.87,1.98-1.96Z"/>
      </g>
      <g>
        <g>
          <g>
            <path class="cls-17" d="m115.49,295.96c8.08.13,14.66-1.66,14.7-4,.04-2.34-6.48-4.35-14.56-4.48-8.08-.13-14.66,1.66-14.7,4-.04,2.34,6.48,4.35,14.56,4.48Z"/>
            <polygon class="cls-17" points="130.19 291.96 130.31 289.26 127.64 289.62 101.05 288.77 100.92 291.48 109.62 294.42 122.02 293.02 130.19 291.96"/>
            <path class="cls-5" d="m115.61,293.26c8.08.13,14.66-1.66,14.7-4,.04-2.34-6.48-4.35-14.56-4.48-8.08-.13-14.66,1.66-14.7,4-.04,2.34,6.48,4.35,14.56,4.48Z"/>
            <path class="cls-7" d="m104.46,288.55l2.76.05c.03-.46.53-.93,1.22-1.19l1.83.22c-.66.27-1.19.68-1.19,1.12,0,.56,1.11.96,2.67.99,1.5.02,2.44-.27,3.27-.84,1.11-.79,2.37-1.27,4.75-1.23,2.27.04,3.99.53,4.39,1.27l2.76.05v.49s-2.66-.04-2.66-.04c-.06.47-.5.79-.97,1.01l-1.8-.23c.33-.16.94-.48.95-.98,0-.61-1.25-.86-2.34-.88-1.42-.02-2.14.26-3.13.93-1.16.8-2.59,1.19-5.02,1.15-2.16-.04-4.18-.51-4.63-1.33l-2.84-.05v-.5Z"/>
          </g>
          <g>
            <path class="cls-17" d="m112.51,290.22c8.08.13,14.66-1.66,14.7-4,.04-2.34-6.48-4.35-14.56-4.48-8.08-.13-14.66,1.66-14.7,4-.04,2.34,6.48,4.35,14.56,4.48Z"/>
            <polygon class="cls-17" points="127.21 286.22 127.33 283.52 124.67 283.88 98.07 283.03 97.95 285.74 106.64 288.68 119.04 287.28 127.21 286.22"/>
            <path class="cls-5" d="m112.64,287.52c8.08.13,14.66-1.66,14.7-4,.04-2.34-6.48-4.35-14.56-4.48-8.08-.13-14.66,1.66-14.7,4-.04,2.34,6.48,4.35,14.56,4.48Z"/>
            <path class="cls-7" d="m101.49,282.81l2.76.05c.03-.46.53-.93,1.22-1.19l1.83.22c-.66.27-1.19.68-1.19,1.12,0,.56,1.11.96,2.67.99,1.5.02,2.44-.27,3.27-.84,1.11-.79,2.37-1.27,4.75-1.23,2.27.04,3.99.53,4.39,1.27l2.76.05v.49s-2.66-.04-2.66-.04c-.06.47-.5.79-.97,1.01l-1.8-.23c.33-.16.94-.48.95-.98,0-.61-1.25-.86-2.34-.88-1.42-.02-2.14.26-3.13.93-1.16.8-2.59,1.19-5.02,1.15-2.16-.04-4.18-.51-4.63-1.33l-2.84-.05v-.5Z"/>
          </g>
          <g>
            <path class="cls-17" d="m116.02,286.66c8.08.13,14.66-1.66,14.7-4,.04-2.34-6.48-4.35-14.56-4.48-8.08-.13-14.66,1.66-14.7,4-.04,2.34,6.48,4.35,14.56,4.48Z"/>
            <polygon class="cls-17" points="130.72 282.66 130.84 279.95 128.18 280.31 101.58 279.46 101.46 282.17 110.15 285.12 122.55 283.71 130.72 282.66"/>
            <path class="cls-5" d="m116.15,283.95c8.08.13,14.66-1.66,14.7-4,.04-2.34-6.48-4.35-14.56-4.48-8.08-.13-14.66,1.66-14.7,4-.04,2.34,6.48,4.35,14.56,4.48Z"/>
            <path class="cls-7" d="m105,279.25l2.76.05c.03-.46.53-.93,1.22-1.19l1.83.22c-.66.27-1.19.68-1.19,1.12,0,.56,1.11.96,2.67.99,1.5.02,2.44-.27,3.27-.84,1.11-.79,2.37-1.27,4.75-1.23,2.27.04,3.99.53,4.39,1.27l2.76.05v.49s-2.66-.04-2.66-.04c-.06.47-.5.79-.97,1.01l-1.8-.23c.33-.16.94-.48.95-.98,0-.61-1.25-.86-2.34-.88-1.42-.02-2.14.26-3.13.93-1.16.8-2.59,1.19-5.02,1.15-2.16-.04-4.18-.51-4.63-1.33l-2.84-.05v-.5Z"/>
          </g>
          <g>
            <path class="cls-17" d="m116.05,282.62c8.08.13,14.66-1.66,14.7-4s-6.48-4.35-14.56-4.48c-8.08-.13-14.66,1.66-14.7,4-.04,2.34,6.48,4.35,14.56,4.48Z"/>
            <polygon class="cls-17" points="130.74 278.62 130.87 275.91 128.2 276.28 101.61 275.43 101.48 278.14 110.17 281.08 122.57 279.67 130.74 278.62"/>
            <path class="cls-5" d="m116.17,279.91c8.08.13,14.66-1.66,14.7-4,.04-2.34-6.48-4.35-14.56-4.48-8.08-.13-14.66,1.66-14.7,4-.04,2.34,6.48,4.35,14.56,4.48Z"/>
            <path class="cls-7" d="m105.02,275.21l2.76.05c.03-.46.53-.93,1.22-1.19l1.83.22c-.66.27-1.19.68-1.19,1.12,0,.56,1.11.96,2.67.99,1.5.02,2.44-.27,3.27-.84,1.11-.79,2.37-1.27,4.75-1.23,2.27.04,3.99.53,4.38,1.27l2.76.05v.49s-2.66-.04-2.66-.04c-.06.47-.5.79-.97,1.02l-1.8-.23c.33-.16.94-.48.95-.98,0-.61-1.25-.86-2.34-.88-1.42-.02-2.14.26-3.13.93-1.16.8-2.59,1.19-5.02,1.15-2.16-.04-4.18-.51-4.63-1.33l-2.84-.05v-.5Z"/>
          </g>
          <g>
            <path class="cls-17" d="m116.07,278.78c8.08.13,14.66-1.66,14.7-4,.04-2.34-6.48-4.35-14.56-4.48-8.08-.13-14.66,1.66-14.7,4-.04,2.34,6.48,4.35,14.56,4.48Z"/>
            <polygon class="cls-17" points="130.76 274.78 130.89 272.07 128.22 272.44 101.63 271.59 101.5 274.3 110.19 277.24 122.59 275.83 130.76 274.78"/>
            <path class="cls-5" d="m116.19,276.07c8.08.13,14.66-1.66,14.7-4,.04-2.34-6.48-4.35-14.56-4.48-8.08-.13-14.66,1.66-14.7,4-.04,2.34,6.48,4.35,14.56,4.48Z"/>
            <path class="cls-7" d="m105.04,271.37l2.76.05c.03-.46.53-.93,1.22-1.19l1.83.22c-.66.27-1.19.68-1.19,1.12,0,.56,1.11.96,2.67.99,1.5.02,2.44-.27,3.27-.84,1.11-.79,2.37-1.27,4.75-1.23,2.27.04,3.99.53,4.39,1.27l2.76.05v.49s-2.66-.04-2.66-.04c-.06.47-.5.79-.97,1.01l-1.8-.23c.33-.16.94-.48.95-.98,0-.61-1.25-.86-2.34-.88-1.42-.02-2.14.26-3.13.93-1.16.8-2.59,1.19-5.02,1.15-2.16-.04-4.18-.51-4.63-1.33l-2.84-.05v-.5Z"/>
          </g>
          <g>
            <path class="cls-17" d="m115.43,275.75c8.08.13,14.66-1.66,14.7-4,.04-2.34-6.48-4.35-14.56-4.48-8.08-.13-14.66,1.66-14.7,4-.04,2.34,6.48,4.35,14.56,4.48Z"/>
            <polygon class="cls-17" points="130.12 271.75 130.25 269.04 127.58 269.4 100.99 268.55 100.86 271.26 109.55 274.21 121.95 272.8 130.12 271.75"/>
            <path class="cls-5" d="m115.55,273.04c8.08.13,14.66-1.66,14.7-4,.04-2.34-6.48-4.35-14.56-4.48-8.08-.13-14.66,1.66-14.7,4-.04,2.34,6.48,4.35,14.56,4.48Z"/>
            <path class="cls-7" d="m104.4,268.34l2.76.05c.03-.46.53-.93,1.22-1.19l1.83.22c-.66.27-1.19.68-1.19,1.12,0,.56,1.11.96,2.67.99,1.5.02,2.44-.27,3.27-.84,1.11-.79,2.37-1.27,4.75-1.23,2.27.04,3.99.53,4.39,1.27l2.76.05v.49s-2.66-.04-2.66-.04c-.06.47-.5.79-.97,1.01l-1.8-.23c.33-.16.94-.48.95-.98,0-.61-1.25-.86-2.34-.88-1.42-.02-2.14.26-3.13.93-1.16.8-2.59,1.19-5.02,1.15-2.16-.04-4.18-.51-4.63-1.33l-2.84-.05v-.5Z"/>
          </g>
          <g>
            <path class="cls-17" d="m115.76,271.5c8.08.13,14.66-1.66,14.7-4,.04-2.34-6.48-4.35-14.56-4.48-8.08-.13-14.66,1.66-14.7,4-.04,2.34,6.48,4.35,14.56,4.48Z"/>
            <polygon class="cls-17" points="130.46 267.5 130.58 264.79 127.92 265.15 101.32 264.31 101.2 267.01 109.89 269.96 122.29 268.55 130.46 267.5"/>
            <path class="cls-5" d="m115.89,268.79c8.08.13,14.66-1.66,14.7-4s-6.48-4.35-14.56-4.48c-8.08-.13-14.66,1.66-14.7,4-.04,2.34,6.48,4.35,14.56,4.48Z"/>
            <path class="cls-7" d="m104.74,264.09l2.76.05c.03-.46.53-.93,1.22-1.19l1.83.22c-.66.27-1.19.68-1.19,1.12,0,.56,1.11.96,2.67.99,1.5.02,2.44-.27,3.27-.84,1.11-.79,2.37-1.27,4.75-1.23,2.27.04,3.99.53,4.39,1.27l2.76.05v.49s-2.66-.04-2.66-.04c-.06.47-.5.79-.97,1.01l-1.8-.23c.33-.16.94-.48.95-.98,0-.61-1.25-.86-2.34-.88-1.42-.02-2.14.26-3.13.93-1.16.8-2.59,1.19-5.02,1.15-2.16-.04-4.18-.51-4.63-1.33l-2.84-.05v-.5Z"/>
          </g>
          <g>
            <path class="cls-17" d="m114.5,267.81c8.08.13,14.66-1.66,14.7-4,.04-2.34-6.48-4.35-14.56-4.48-8.08-.13-14.66,1.66-14.7,4-.04,2.34,6.48,4.35,14.56,4.48Z"/>
            <polygon class="cls-17" points="129.19 263.81 129.32 261.11 126.65 261.47 100.06 260.62 99.93 263.33 108.62 266.27 121.02 264.86 129.19 263.81"/>
            <path class="cls-5" d="m114.62,265.1c8.08.13,14.66-1.66,14.7-4s-6.48-4.35-14.56-4.48c-8.08-.13-14.66,1.66-14.7,4-.04,2.34,6.48,4.35,14.56,4.48Z"/>
            <path class="cls-7" d="m103.47,260.4l2.76.05c.03-.46.53-.93,1.22-1.19l1.83.22c-.66.27-1.19.68-1.19,1.12,0,.56,1.11.96,2.67.99,1.5.02,2.44-.27,3.27-.84,1.11-.79,2.37-1.27,4.75-1.23,2.27.04,3.99.53,4.39,1.27l2.76.05v.49s-2.66-.04-2.66-.04c-.06.47-.5.79-.97,1.01l-1.8-.23c.33-.16.94-.48.95-.98,0-.61-1.25-.86-2.34-.88-1.42-.02-2.14.26-3.13.93-1.16.8-2.59,1.19-5.02,1.15-2.16-.04-4.18-.51-4.63-1.33l-2.84-.05v-.5Z"/>
          </g>
          <g>
            <path class="cls-17" d="m112.58,263.77c8.08.13,14.66-1.66,14.7-4,.04-2.34-6.48-4.35-14.56-4.48-8.08-.13-14.66,1.66-14.7,4-.04,2.34,6.48,4.35,14.56,4.48Z"/>
            <polygon class="cls-17" points="127.28 259.78 127.4 257.07 124.74 257.43 98.14 256.58 98.02 259.29 106.71 262.23 119.11 260.83 127.28 259.78"/>
            <path class="cls-5" d="m112.71,261.07c8.08.13,14.66-1.66,14.7-4,.04-2.34-6.48-4.35-14.56-4.48-8.08-.13-14.66,1.66-14.7,4-.04,2.34,6.48,4.35,14.56,4.48Z"/>
            <path class="cls-7" d="m101.56,256.36l2.76.05c.03-.46.53-.93,1.22-1.19l1.83.22c-.66.27-1.19.68-1.19,1.12,0,.56,1.11.96,2.67.99,1.5.02,2.44-.27,3.27-.84,1.11-.79,2.37-1.27,4.75-1.23,2.27.04,3.99.53,4.39,1.27l2.76.05v.49s-2.66-.04-2.66-.04c-.06.47-.5.79-.97,1.01l-1.8-.23c.33-.16.94-.48.95-.98,0-.61-1.25-.86-2.34-.88-1.42-.02-2.14.26-3.13.93-1.16.8-2.59,1.19-5.02,1.15-2.16-.04-4.18-.51-4.63-1.33l-2.84-.05v-.5Z"/>
          </g>
          <g>
            <path class="cls-17" d="m114.54,259.94c8.08.13,14.66-1.66,14.7-4,.04-2.34-6.48-4.35-14.56-4.48-8.08-.13-14.66,1.66-14.7,4-.04,2.34,6.48,4.35,14.56,4.48Z"/>
            <polygon class="cls-17" points="129.24 255.94 129.36 253.23 126.69 253.59 100.1 252.75 99.97 255.45 108.67 258.4 121.07 256.99 129.24 255.94"/>
            <path class="cls-5" d="m114.66,257.23c8.08.13,14.66-1.66,14.7-4,.04-2.34-6.48-4.35-14.56-4.48-8.08-.13-14.66,1.66-14.7,4-.04,2.34,6.48,4.35,14.56,4.48Z"/>
            <path class="cls-7" d="m103.51,252.53l2.76.05c.03-.46.53-.93,1.22-1.19l1.83.22c-.66.27-1.19.68-1.19,1.12,0,.56,1.11.96,2.67.99,1.5.02,2.44-.27,3.27-.84,1.11-.79,2.37-1.27,4.75-1.23,2.27.04,3.99.53,4.39,1.27l2.76.05v.49s-2.66-.04-2.66-.04c-.06.47-.5.79-.97,1.01l-1.8-.23c.33-.16.94-.48.95-.98,0-.61-1.25-.86-2.34-.88-1.42-.02-2.14.26-3.13.93-1.16.8-2.59,1.19-5.02,1.15-2.16-.04-4.18-.51-4.63-1.33l-2.84-.05v-.5Z"/>
          </g>
          <g>
            <path class="cls-17" d="m111.25,256.9c8.08.13,14.66-1.66,14.7-4,.04-2.34-6.48-4.35-14.56-4.48-8.08-.13-14.66,1.66-14.7,4-.04,2.34,6.48,4.35,14.56,4.48Z"/>
            <polygon class="cls-17" points="125.95 252.9 126.08 250.2 123.41 250.56 96.81 249.71 96.69 252.42 105.38 255.36 117.78 253.95 125.95 252.9"/>
            <path class="cls-5" d="m111.38,254.19c8.08.13,14.66-1.66,14.7-4,.04-2.34-6.48-4.35-14.56-4.48-8.08-.13-14.66,1.66-14.7,4-.04,2.34,6.48,4.35,14.56,4.48Z"/>
            <path class="cls-7" d="m100.23,249.49l2.76.05c.03-.46.53-.93,1.22-1.19l1.83.22c-.66.27-1.19.68-1.19,1.12,0,.56,1.11.96,2.67.99,1.5.02,2.44-.27,3.27-.84,1.11-.79,2.37-1.27,4.75-1.23,2.27.04,3.99.53,4.39,1.27l2.76.05v.49s-2.66-.04-2.66-.04c-.06.47-.5.79-.97,1.01l-1.8-.23c.33-.16.94-.48.95-.98,0-.61-1.25-.86-2.34-.88-1.42-.02-2.14.26-3.13.93-1.16.8-2.59,1.19-5.02,1.15-2.16-.04-4.18-.51-4.63-1.33l-2.84-.05v-.5Z"/>
          </g>
        </g>
        <g>
          <g>
            <path class="cls-17" d="m81.01,296.75c7.82.13,14.2-1.6,14.23-3.87.04-2.27-6.28-4.21-14.1-4.34-7.82-.13-14.2,1.6-14.23,3.87-.04,2.27,6.28,4.21,14.1,4.34Z"/>
            <polygon class="cls-17" points="95.24 292.87 95.36 290.25 92.78 290.6 67.02 289.78 66.9 292.4 75.32 295.25 87.33 293.89 95.24 292.87"/>
            <path class="cls-5" d="m81.13,294.12c7.82.13,14.2-1.6,14.23-3.87.04-2.27-6.28-4.21-14.1-4.34-7.82-.13-14.2,1.6-14.23,3.87-.04,2.27,6.28,4.21,14.1,4.34Z"/>
            <path class="cls-7" d="m70.33,289.57l2.68.04c.03-.44.52-.9,1.18-1.16l1.77.21c-.64.27-1.15.66-1.16,1.09,0,.55,1.07.93,2.58.96,1.46.02,2.36-.26,3.17-.82,1.07-.77,2.3-1.23,4.6-1.19,2.2.04,3.86.52,4.25,1.23l2.68.04v.48s-2.58-.04-2.58-.04c-.06.46-.49.77-.94.98l-1.75-.22c.32-.16.91-.46.92-.95,0-.59-1.21-.83-2.27-.85-1.38-.02-2.07.25-3.03.9-1.12.77-2.51,1.15-4.87,1.11-2.09-.03-4.05-.49-4.48-1.29l-2.75-.05v-.48Z"/>
          </g>
          <g>
            <path class="cls-17" d="m78.13,291.19c7.82.13,14.2-1.6,14.23-3.87.04-2.27-6.28-4.21-14.1-4.34-7.82-.13-14.2,1.6-14.23,3.87-.04,2.27,6.28,4.21,14.1,4.34Z"/>
            <polygon class="cls-17" points="92.36 287.31 92.48 284.69 89.9 285.04 64.14 284.22 64.02 286.85 72.44 289.7 84.45 288.33 92.36 287.31"/>
            <path class="cls-5" d="m78.25,288.57c7.82.13,14.2-1.6,14.23-3.87.04-2.27-6.28-4.21-14.1-4.34-7.82-.13-14.2,1.6-14.23,3.87-.04,2.27,6.28,4.21,14.1,4.34Z"/>
            <path class="cls-7" d="m67.45,284.01l2.68.04c.03-.44.52-.9,1.18-1.16l1.77.21c-.64.27-1.15.66-1.16,1.09,0,.55,1.07.93,2.58.96,1.46.02,2.36-.26,3.17-.82,1.07-.77,2.3-1.23,4.6-1.19,2.2.04,3.86.52,4.25,1.23l2.68.04v.48s-2.58-.04-2.58-.04c-.06.46-.49.77-.94.98l-1.75-.22c.32-.16.91-.46.92-.95,0-.59-1.21-.83-2.27-.85-1.38-.02-2.07.25-3.03.9-1.12.77-2.51,1.15-4.87,1.11-2.09-.03-4.05-.49-4.48-1.29l-2.75-.05v-.48Z"/>
          </g>
          <g>
            <path class="cls-17" d="m81.52,287.73c7.82.13,14.2-1.6,14.23-3.87.04-2.27-6.28-4.21-14.1-4.34-7.82-.13-14.2,1.6-14.23,3.87-.04,2.27,6.28,4.21,14.1,4.34Z"/>
            <polygon class="cls-17" points="95.76 283.86 95.88 281.24 93.3 281.59 67.54 280.77 67.42 283.39 75.84 286.24 87.84 284.88 95.76 283.86"/>
            <path class="cls-5" d="m81.64,285.11c7.82.13,14.2-1.6,14.23-3.87.04-2.27-6.28-4.21-14.1-4.34-7.82-.13-14.2,1.6-14.23,3.87-.04,2.27,6.28,4.21,14.1,4.34Z"/>
            <path class="cls-7" d="m70.85,280.56l2.68.04c.03-.44.52-.9,1.18-1.16l1.77.21c-.64.27-1.15.66-1.16,1.09,0,.55,1.07.93,2.58.96,1.46.02,2.36-.26,3.17-.82,1.07-.77,2.3-1.23,4.6-1.19,2.2.04,3.86.52,4.25,1.23l2.68.04v.48s-2.58-.04-2.58-.04c-.06.46-.49.77-.94.98l-1.75-.22c.32-.16.91-.46.92-.95,0-.59-1.21-.83-2.27-.85-1.38-.02-2.07.25-3.03.9-1.12.77-2.51,1.15-4.87,1.11-2.09-.03-4.05-.49-4.48-1.29l-2.75-.05v-.48Z"/>
          </g>
          <g>
            <path class="cls-17" d="m81.55,283.82c7.82.13,14.2-1.6,14.23-3.87.04-2.27-6.28-4.21-14.1-4.34-7.82-.13-14.2,1.6-14.23,3.87-.04,2.27,6.28,4.21,14.1,4.34Z"/>
            <polygon class="cls-17" points="95.78 279.95 95.9 277.33 93.32 277.68 67.56 276.86 67.44 279.48 75.86 282.33 87.87 280.97 95.78 279.95"/>
            <path class="cls-5" d="m81.67,281.2c7.82.13,14.2-1.6,14.23-3.87.04-2.27-6.28-4.21-14.1-4.34-7.82-.13-14.2,1.6-14.23,3.87-.04,2.27,6.28,4.21,14.1,4.34Z"/>
            <path class="cls-7" d="m70.87,276.65l2.68.04c.03-.44.52-.9,1.18-1.16l1.77.21c-.64.27-1.15.66-1.16,1.09,0,.55,1.07.93,2.58.96,1.46.02,2.36-.26,3.17-.82,1.07-.77,2.3-1.23,4.6-1.19,2.2.04,3.86.52,4.25,1.23l2.68.04v.48s-2.58-.04-2.58-.04c-.06.46-.49.77-.94.98l-1.75-.22c.32-.16.91-.46.92-.95,0-.59-1.21-.83-2.27-.85-1.38-.02-2.07.25-3.03.9-1.12.77-2.51,1.15-4.87,1.11-2.09-.03-4.05-.49-4.48-1.29l-2.75-.05v-.48Z"/>
          </g>
          <g>
            <path class="cls-17" d="m81.56,280.11c7.82.13,14.2-1.6,14.23-3.87.04-2.27-6.28-4.21-14.1-4.34-7.82-.13-14.2,1.6-14.23,3.87-.04,2.27,6.28,4.21,14.1,4.34Z"/>
            <polygon class="cls-17" points="95.8 276.23 95.92 273.61 93.34 273.96 67.58 273.14 67.46 275.76 75.88 278.61 87.88 277.25 95.8 276.23"/>
            <path class="cls-5" d="m81.68,277.48c7.82.13,14.2-1.6,14.23-3.87.04-2.27-6.28-4.21-14.1-4.34-7.82-.13-14.2,1.6-14.23,3.87-.04,2.27,6.28,4.21,14.1,4.34Z"/>
            <path class="cls-7" d="m70.89,272.93l2.68.04c.03-.44.52-.9,1.18-1.16l1.77.21c-.64.27-1.15.66-1.16,1.09,0,.55,1.07.93,2.58.96,1.46.02,2.36-.26,3.17-.82,1.07-.77,2.3-1.23,4.6-1.19,2.2.04,3.86.52,4.25,1.23l2.68.04v.48s-2.58-.04-2.58-.04c-.06.46-.49.77-.94.98l-1.75-.22c.32-.16.91-.46.92-.95,0-.59-1.21-.83-2.27-.85-1.38-.02-2.07.25-3.03.9-1.12.77-2.51,1.15-4.87,1.11-2.09-.03-4.05-.49-4.48-1.29l-2.75-.05v-.48Z"/>
          </g>
          <g>
            <path class="cls-17" d="m78.38,277.17c7.82.13,14.2-1.6,14.23-3.87.04-2.27-6.28-4.21-14.1-4.34-7.82-.13-14.2,1.6-14.23,3.87-.04,2.27,6.28,4.21,14.1,4.34Z"/>
            <polygon class="cls-17" points="92.62 273.29 92.74 270.67 90.16 271.02 64.4 270.2 64.28 272.83 72.7 275.68 84.7 274.31 92.62 273.29"/>
            <path class="cls-5" d="m78.5,274.55c7.82.13,14.2-1.6,14.23-3.87.04-2.27-6.28-4.21-14.1-4.34-7.82-.13-14.2,1.6-14.23,3.87-.04,2.27,6.28,4.21,14.1,4.34Z"/>
            <path class="cls-7" d="m67.71,269.99l2.68.04c.03-.44.52-.9,1.18-1.16l1.77.21c-.64.27-1.15.66-1.16,1.09,0,.55,1.07.93,2.58.96,1.46.02,2.36-.26,3.17-.82,1.07-.77,2.3-1.23,4.6-1.19,2.2.04,3.86.52,4.25,1.23l2.68.04v.48s-2.58-.04-2.58-.04c-.06.46-.49.77-.94.98l-1.75-.22c.32-.16.91-.46.92-.95,0-.59-1.21-.83-2.27-.85-1.38-.02-2.07.25-3.03.9-1.12.77-2.51,1.15-4.87,1.11-2.09-.03-4.05-.49-4.48-1.29l-2.75-.05v-.48Z"/>
          </g>
          <g>
            <path class="cls-17" d="m82.75,270.89c7.82.13,14.2-1.6,14.23-3.87.04-2.27-6.28-4.21-14.1-4.34-7.82-.13-14.2,1.6-14.23,3.87-.04,2.27,6.28,4.21,14.1,4.34Z"/>
            <polygon class="cls-17" points="96.98 267.02 97.1 264.39 94.52 264.75 68.77 263.93 68.65 266.55 77.06 269.4 89.07 268.03 96.98 267.02"/>
            <path class="cls-5" d="m82.87,268.27c7.82.13,14.2-1.6,14.23-3.87.04-2.27-6.28-4.21-14.1-4.34-7.82-.13-14.2,1.6-14.23,3.87-.04,2.27,6.28,4.21,14.1,4.34Z"/>
            <path class="cls-7" d="m72.07,263.71l2.68.04c.03-.44.52-.9,1.18-1.16l1.77.21c-.64.27-1.15.66-1.16,1.09,0,.55,1.07.93,2.58.96,1.46.02,2.36-.26,3.17-.82,1.07-.77,2.3-1.23,4.6-1.19,2.2.04,3.86.52,4.25,1.23l2.68.04v.48s-2.58-.04-2.58-.04c-.06.46-.49.77-.94.98l-1.75-.22c.32-.16.91-.46.92-.95,0-.59-1.21-.83-2.27-.85-1.38-.02-2.07.25-3.03.9-1.12.77-2.51,1.15-4.87,1.11-2.09-.03-4.05-.49-4.48-1.29l-2.75-.05v-.48Z"/>
          </g>
        </g>
        <g>
          <path class="cls-5" d="m117.63,280.54c-.12-8.82-6.98-15.87-15.31-15.75-8.33.12-14.99,7.37-14.87,16.19.12,8.82,6.98,15.87,15.31,15.75,8.33-.12,14.99-7.37,14.87-16.19Z"/>
          <path class="cls-7" d="m101.72,293.03l-.04-3.02c-1.64,0-3.34-.52-4.33-1.25l.65-2.01c1.03.7,2.5,1.25,4.08,1.22,2-.03,3.34-1.27,3.32-2.98-.02-1.64-1.14-2.64-3.24-3.51-2.89-1.15-4.69-2.5-4.73-5.1-.03-2.48,1.6-4.38,4.19-4.87l-.04-3.02,1.75-.03.04,2.9c1.69.04,2.86.5,3.68.99l-.68,1.98c-.6-.35-1.76-.99-3.57-.96-2.17.03-2.97,1.42-2.96,2.61.02,1.55,1.08,2.31,3.55,3.35,2.92,1.21,4.41,2.74,4.45,5.4.03,2.36-1.49,4.59-4.39,5.14l.04,3.11-1.78.03Z"/>
        </g>
      </g>
      <g>
        <path class="cls-19" d="m416.98,176.69l-34.91-20.19c-.07-.04-.16-.02-.2.05l-26.44,45.71c-.04.07-.02.16.05.2l34.86,20.16c.07.04.16.02.2-.05l26.46-45.76s.01-.1-.03-.12Z"/>
        <rect class="cls-1" x="367.38" y="164.29" width="37.88" height="50.15" transform="translate(144.2 -166.27) rotate(29.64)"/>
        <g>
          <path class="cls-12" d="m405.54,182.1l-17.07-9.71s-.01-.02,0-.02l.23-.41s.02-.01.02,0l17.07,9.71s.01.02,0,.02l-.23.41s-.02.01-.02,0Z"/>
          <path class="cls-12" d="m403.54,185.62l-17.07-9.71s-.01-.02,0-.02l.23-.41s.02-.01.02,0l17.07,9.71s.01.02,0,.02l-.23.41s-.02.01-.02,0Z"/>
          <path class="cls-12" d="m406.87,185.19l-19.41-11.04s-.01-.01,0-.02l.23-.41s.01-.01.02,0l19.41,11.04s.01.01,0,.02l-.23.41s-.01.01-.02,0Z"/>
          <path class="cls-12" d="m384.26,175.31l-5-2.84c-.11-.06-.15-.2-.09-.31l2.84-5c.06-.11.2-.15.31-.09l5,2.84c.11.06.15.2.09.31l-2.84,5c-.06.11-.2.15-.31.09Zm-4.57-3.13l4.6,2.62,2.62-4.6-4.6-2.62-2.62,4.6Z"/>
          <path class="cls-4" d="m381.86,172.92s-.01,0-.02,0c-.1-.07-.16-.19-.13-.31.2-1.08.22-2.19.06-3.3-.02-.17.09-.32.26-.35.17-.02.32.09.35.26.14.94.15,1.89.04,2.82,1.84-1.14,3.94-1.9,6.12-2.22.17-.02.32.09.35.26.02.17-.09.32-.26.35-2.32.33-4.54,1.2-6.44,2.49-.1.07-.22.07-.32.01Z"/>
          <path class="cls-12" d="m390.4,187.31l-7.72-4.39-.02-.08.19-.34.08-.02,7.72,4.39.02.08-.19.34-.08.02Z"/>
          <path class="cls-12" d="m389.5,188.98l-7.79-4.44s0-.01,0-.02l.24-.42s.01,0,.02,0l7.79,4.44s0,.01,0,.02l-.24.42s-.01,0-.02,0Z"/>
          <path class="cls-12" d="m394.42,187.26l-10.78-6.13s0-.01,0-.02l.24-.42s.01,0,.02,0l10.78,6.13s0,.01,0,.02l-.24.42s-.01,0-.02,0Z"/>
          <path class="cls-12" d="m379.24,184.12l-5-2.84c-.11-.06-.15-.2-.09-.31l2.84-5c.06-.11.2-.15.31-.09l5,2.84c.11.06.15.2.09.31l-2.84,5c-.06.11-.2.15-.31.09Zm-4.57-3.13l4.6,2.62,2.62-4.6-4.6-2.62-2.62,4.6Z"/>
          <path class="cls-12" d="m382.56,191.58l-3.77-2.14-.02-.06.21-.37.06-.02,3.77,2.14.02.06-.21.37-.06.02Z"/>
          <path class="cls-12" d="m383.05,194.2l-5.29-3.01s0,0,0-.01l.24-.43s0,0,.01,0l5.29,3.01s0,0,0,.01l-.24.43s0,0-.01,0Z"/>
          <path class="cls-12" d="m374.56,192.35l-5-2.84c-.11-.06-.15-.2-.09-.31l2.84-5c.06-.11.2-.15.31-.09l5,2.84c.11.06.15.2.09.31l-2.84,5c-.06.11-.2.15-.31.09Zm-4.57-3.13l4.6,2.62,2.62-4.6-4.6-2.62-2.62,4.6Z"/>
          <path class="cls-4" d="m372.04,189.89s0,0-.01,0c-.1-.06-.14-.18-.12-.29.19-1,.21-2.03.05-3.06-.02-.15.08-.3.24-.32.15-.02.3.08.32.24.13.87.14,1.75.04,2.61,1.7-1.06,3.65-1.76,5.67-2.05.15-.02.3.09.32.24.02.15-.09.3-.24.32-2.15.31-4.21,1.11-5.96,2.31-.09.06-.21.07-.3.01Z"/>
          <path class="cls-4" d="m377.03,181.54s0,0-.01,0c-.1-.06-.14-.18-.12-.29.19-1,.21-2.03.05-3.06-.02-.15.08-.3.24-.32.15-.02.3.08.32.24.13.87.14,1.75.04,2.61,1.7-1.06,3.65-1.76,5.67-2.05.15-.02.3.09.32.24.02.15-.09.3-.24.32-2.15.31-4.21,1.11-5.96,2.31-.09.06-.21.07-.3.01Z"/>
        </g>
        <path class="cls-23" d="m407.7,169.54l-5.23-3.02c.05-.07.09-.13.13-.21.75-1.29.31-2.95-.99-3.69-1.29-.75-2.95-.31-3.69.99-.04.07-.08.15-.11.22l-5.23-3.02c-1-.58-2.27-.24-2.85.76l-1.42,2.46c-.13.23-.05.53.18.66l17.89,10.35c.23.13.53.05.66-.18l1.42-2.46c.58-1,.24-2.27-.76-2.85Zm-8.3-3.09c-.82-.48-1.1-1.53-.63-2.35s1.53-1.1,2.35-.63c.82.48,1.1,1.53.63,2.35-.48.82-1.53,1.1-2.35.63Z"/>
      </g>
    </g>
  </g>
</svg>