<?xml version="1.0" encoding="UTF-8"?>
<svg id="Layer_2" data-name="Layer 2" xmlns="http://www.w3.org/2000/svg" viewBox="0 0 385.71 146.71">
  <defs>
    <style>
      .cls-1 {
        fill: #f4be41;
      }

      .cls-2 {
        fill: #f6cf46;
      }

      .cls-3 {
        fill: #fff;
      }

      .cls-4 {
        fill: #244157;
      }

      .cls-5 {
        fill: #1a3342;
      }
    </style>
  </defs>
  <g id="Layer_1-2" data-name="Layer 1">
    <g>
      <path class="cls-5" d="m320.46,108.65l-118.78-10.03,1.93-14.12,122.98,19.19v.05c-.42,3-3.11,5.16-6.13,4.9Z"/>
      <path class="cls-5" d="m319.64,92.36l-.14-1.38h7.18v12.09c0,2.8-2.13,5.1-4.86,5.38h0c-.18.02-.36.03-.55.03h-.05v-.03h-1.59v-16.09Z"/>
      <path class="cls-2" d="m290.27,92.36h67.38c11.49,0,20.81-9.32,20.81-20.81v-.21h-109.01v.21c0,11.49,9.32,20.81,20.81,20.81Z"/>
      <path class="cls-1" d="m268.79,73h110.34c2.66,0,4.97-1.85,5.55-4.45v-.06c.23-.98-.51-1.9-1.51-1.9h-118.41c-1,0-1.74.92-1.52,1.9v.06c.59,2.6,2.9,4.45,5.56,4.45Z"/>
      <path class="cls-5" d="m84.59,76.24l117.12,22.18,1.93-14.12-123.62-14.48v.05c-.42,3,1.6,5.8,4.57,6.36Z"/>
      <path class="cls-4" d="m223.95,122.03c-3.8-3.99-6.5-8.89-7.85-14.24l-5.41-21.43c-1.79-3.09-4.91-4.64-8.03-4.64s-6.25,1.55-8.03,4.64l-5.41,21.43c-1.35,5.34-4.05,10.25-7.85,14.24l-18.64,19.59h79.87l-18.64-19.59Z"/>
      <rect class="cls-1" x="153.74" y="141.28" width="97.85" height="5.43" rx="1.69" ry="1.69"/>
      <circle class="cls-3" cx="202.66" cy="91.36" r="4.22"/>
      <path class="cls-5" d="m87.15,58.56h-7.18v12.09c0,2.8,2.13,5.1,4.86,5.38h0c.18.02.36.03.55.03h.05v-.03h1.59l.14-17.47Z"/>
      <path class="cls-2" d="m116.39,59.95H49.01c-11.49,0-20.81-9.32-20.81-20.81v-.21h109.01v.21c0,11.49-9.32,20.81-20.81,20.81Z"/>
      <path class="cls-1" d="m137.87,40.59H27.53c-2.66,0-4.97-1.85-5.55-4.45v-.06c-.23-.98.51-1.9,1.51-1.9h118.41c1,0,1.74.92,1.52,1.9v.06c-.59,2.6-2.9,4.45-5.56,4.45Z"/>
      <g>
        <path d="m0,.31h3.76v17.79H0V.31Z"/>
        <path d="m7.13.31h5.86l2.49,9.81c.19.74.47,2.08.83,4.02h.13c.31-2.02.55-3.36.73-4.02L19.66.31h5.6v17.79h-3.76V6.77c0-.5.05-1.45.16-2.85h-.13l-.54,2.1-3.06,12.09h-3.58l-3.06-12.09-.54-2.1h-.13c.1,1.45.16,2.4.16,2.85v11.34h-3.63V.31Z"/>
        <path d="m28.66.31h8.48c1.99,0,3.48.51,4.49,1.52,1,1.01,1.5,2.44,1.5,4.29s-.52,3.29-1.57,4.32c-1.05,1.03-2.61,1.54-4.68,1.54h-4.46v6.12h-3.76V.31Zm8.15,8.48c.81,0,1.44-.23,1.87-.7s.65-1.12.65-1.97-.22-1.47-.65-1.93c-.43-.46-1.05-.69-1.87-.69h-4.38v5.29h4.38Z"/>
        <path d="m47.6,16.12c-1.57-1.53-2.36-3.83-2.36-6.91s.79-5.38,2.36-6.91c1.57-1.53,3.79-2.3,6.64-2.3s5.09.77,6.67,2.3c1.57,1.53,2.36,3.84,2.36,6.91s-.79,5.38-2.36,6.91c-1.57,1.53-3.8,2.3-6.67,2.3s-5.07-.77-6.64-2.3Zm10.49-2.36c.87-.98,1.31-2.36,1.31-4.16v-.78c0-1.8-.44-3.19-1.31-4.16-.87-.98-2.16-1.47-3.85-1.47s-2.97.49-3.84,1.47c-.86.98-1.3,2.36-1.3,4.16v.78c0,1.8.43,3.19,1.3,4.16.86.98,2.14,1.47,3.84,1.47s2.98-.49,3.85-1.47Z"/>
        <path d="m65.99.31h9.44c1.99,0,3.48.49,4.49,1.47,1,.98,1.5,2.35,1.5,4.11,0,2.49-1.04,4.15-3.11,4.98l3.63,7.24h-4.07l-3.14-6.64h-4.98v6.64h-3.76V.31Zm9.1,8.02c.81,0,1.44-.22,1.87-.65.43-.43.65-1.03.65-1.79s-.22-1.35-.65-1.76c-.43-.42-1.06-.62-1.87-.62h-5.34v4.82h5.34Z"/>
        <path d="m88.95,3.55h-5.5V.31h14.76v3.24h-5.5v14.55h-3.76V3.55Z"/>
        <path d="m103.76.31h4.72l6.95,17.79h-4.1l-1.27-3.4h-8.09l-1.27,3.4h-3.89L103.76.31Zm5.11,11.26l-1.69-4.51c-.21-.55-.58-1.72-1.12-3.5h-.13c-.54,1.78-.91,2.95-1.12,3.5l-1.69,4.51h5.73Z"/>
        <path d="m117.14.31h3.66l6.85,9.68c.21.29.55.87,1.04,1.74l.13-.08-.08-1.5V.31h3.66v17.79h-3.66l-6.87-9.75c-.33-.47-.67-1.04-1.01-1.71l-.13.08c.05.74.08,1.26.08,1.56v9.83h-3.66V.31Z"/>
        <path d="m140.1,3.55h-5.5V.31h14.76v3.24h-5.5v14.55h-3.76V3.55Z"/>
        <path d="m151.56.31h13.98v3.19h-10.22v3.92h9.08v3.19h-9.08v4.31h10.38v3.19h-14.14V.31Z"/>
      </g>
      <g>
        <path d="m264.52,47.98c-1.33-1.18-2-2.9-2-5.16v-11.18h3.76v11c0,1.28.33,2.25,1,2.92.67.67,1.61,1,2.84,1s2.18-.33,2.87-1c.68-.67,1.02-1.64,1.02-2.92v-11h3.76v11.18c0,2.27-.67,3.99-2.01,5.16-1.34,1.18-3.22,1.76-5.64,1.76s-4.27-.59-5.6-1.76Z"/>
        <path d="m281.17,31.64h9.44c1.99,0,3.48.49,4.49,1.47,1,.98,1.5,2.35,1.5,4.11,0,2.49-1.04,4.15-3.11,4.98l3.63,7.24h-4.07l-3.14-6.64h-4.98v6.64h-3.76v-17.79Zm9.11,8.02c.81,0,1.43-.22,1.87-.65.43-.43.65-1.03.65-1.79s-.22-1.35-.65-1.76-1.05-.62-1.87-.62h-5.34v4.82h5.34Z"/>
        <path d="m301.42,47.49c-1.5-1.5-2.24-3.82-2.24-6.95s.79-5.36,2.39-6.9c1.59-1.54,3.84-2.31,6.74-2.31,1.54,0,2.94.24,4.21.71,1.27.48,2.28,1.19,3.04,2.15s1.13,2.13,1.13,3.51h-3.89c0-.97-.43-1.74-1.28-2.32-.86-.58-1.88-.87-3.07-.87-1.82,0-3.17.48-4.06,1.45-.89.97-1.34,2.36-1.34,4.18v.78c0,1.9.41,3.32,1.23,4.24.82.93,2.08,1.39,3.77,1.39,1.4,0,2.56-.33,3.48-1,.92-.67,1.38-1.57,1.4-2.71h-5.4v-3.09h9.16v9.68h-2.59l-.34-1.97c-.83.8-1.7,1.37-2.62,1.74-.92.36-2.03.54-3.35.54-2.75,0-4.87-.75-6.37-2.26Z"/>
        <path d="m319.92,31.64h13.98v3.19h-10.22v3.92h9.08v3.19h-9.08v4.31h10.38v3.19h-14.14v-17.79Z"/>
        <path d="m337.15,31.64h3.66l6.85,9.68c.21.29.55.87,1.04,1.74l.13-.08-.08-1.5v-9.83h3.66v17.79h-3.66l-6.87-9.75c-.33-.47-.67-1.04-1.01-1.71l-.13.08c.05.74.08,1.26.08,1.56v9.83h-3.66v-17.79Z"/>
        <path d="m360.1,34.88h-5.5v-3.24h14.76v3.24h-5.5v14.55h-3.76v-14.55Z"/>
        <path d="m371.57,31.64h13.98v3.19h-10.22v3.92h9.08v3.19h-9.08v4.31h10.38v3.19h-14.14v-17.79Z"/>
      </g>
    </g>
  </g>
</svg>