<?xml version="1.0" encoding="UTF-8"?>
<svg id="Layer_2" data-name="Layer 2" xmlns="http://www.w3.org/2000/svg" xmlns:xlink="http://www.w3.org/1999/xlink" viewBox="0 0 465.8 297.71">
  <defs>
    <style>
      .cls-1 {
        fill: url(#linear-gradient);
      }

      .cls-2 {
        fill: #6a3f9a;
      }

      .cls-3 {
        fill: #f6d282;
      }

      .cls-4 {
        fill: #ea593c;
      }

      .cls-5 {
        fill: #e7e7f7;
      }

      .cls-6 {
        fill: #ea5b5d;
      }

      .cls-7 {
        fill: #eb5bc3;
      }

      .cls-8 {
        fill: #fff;
      }

      .cls-9 {
        fill: #e68e7a;
      }

      .cls-10 {
        fill: #e77247;
      }

      .cls-11 {
        fill: #f09e85;
      }

      .cls-12 {
        fill: #f0d4b6;
      }

      .cls-13 {
        fill: #b8c5f9;
      }

      .cls-14 {
        fill: #9e9ec5;
      }

      .cls-15 {
        fill: #cecee5;
      }

      .cls-16 {
        fill: #ce7972;
      }

      .cls-17 {
        fill: #cd5e63;
      }

      .cls-18 {
        fill: #de6754;
      }

      .cls-19 {
        fill: #d2d2e2;
      }

      .cls-20 {
        fill: #d543b3;
      }

      .cls-21 {
        fill: #3e2b37;
      }

      .cls-22 {
        fill: #3f2f34;
      }

      .cls-23 {
        fill: #7188e5;
      }

      .cls-24 {
        fill: #9aabf8;
      }

      .cls-25 {
        fill: #5d164f;
      }

      .cls-26 {
        fill: #2a1d26;
      }

      .cls-27 {
        fill: #2c2638;
      }

      .cls-28 {
        fill: #2d1d27;
      }

      .cls-29 {
        fill: #291c24;
      }

      .cls-30 {
        fill: #3c2b30;
      }

      .cls-31 {
        fill: #2e1806;
      }

      .cls-32 {
        fill: #624d54;
      }

      .cls-33 {
        fill: #5e2938;
      }

      .cls-34 {
        fill: #4ca0a4;
      }

      .cls-35 {
        fill: #523e44;
      }

      .cls-36 {
        fill: #55396d;
      }

      .cls-37 {
        fill: url(#linear-gradient-2);
        opacity: .58;
      }
    </style>
    <linearGradient id="linear-gradient" x1="636.18" y1="97.17" x2="1079.93" y2="97.17" gradientTransform="translate(-629.89 137.66) rotate(-6.19)" gradientUnits="userSpaceOnUse">
      <stop offset="0" stop-color="#eef5fc"/>
      <stop offset=".99" stop-color="#e1e8fb"/>
    </linearGradient>
    <linearGradient id="linear-gradient-2" x1="62.47" y1="103.91" x2="357.09" y2="103.91" gradientUnits="userSpaceOnUse">
      <stop offset="0" stop-color="#e1e8fb"/>
      <stop offset=".99" stop-color="#c8d4fa"/>
    </linearGradient>
  </defs>
  <g id="Layer_1-2" data-name="Layer 1">
    <g>
      <path class="cls-1" d="m454.42,119.45c1.04,12.06,0,24.26-3.5,36.13-14.33,48.65-62.8,78.87-110.37,96.45-74.29,27.46-156.3,35.09-233.7,18.31-36.51-7.92-76.27-25.49-87.73-61.05-7.68-23.83-.13-50.54,14.22-71.07,21.62-30.91,56.12-51.09,87.33-70.97,34.67-22.07,70.72-42.69,110.04-55.28,51.31-16.43,109.79-17.92,156.97,8.09,36.34,20.04,63.25,58.95,66.74,99.38Z"/>
      <path class="cls-37" d="m260.27,172.25c20.64-3.82,32.89-25.1,53.62-31.6,12.83-4.03,29.23-2.58,38.11-11.2,7.58-7.36,5.55-18.52,1.28-27.5-17.71-37.22-65.5-60.46-113.66-65.61-35.04-3.75-70.47.66-104.36,8.16-25.31,5.6-58.67,13.55-69.49,35.82-5.5,11.31-4.06,24.73,3.76,35.08,13.32,17.63,40.87,23.61,65.98,25.6,25.11,1.99,51.74,1.8,73.44,12.38,15.09,7.36,28.39,19.97,45.91,19.45,1.87-.06,3.67-.25,5.41-.58Z"/>
      <path class="cls-15" d="m460.8,297.71H5c-2.75,0-5-2.25-5-5h0c0-2.75,2.25-5,5-5h455.8c2.75,0,5,2.25,5,5h0c0,2.75-2.25,5-5,5Z"/>
      <g>
        <g>
          <g>
            <path class="cls-8" d="m240.37,113.09c-19.13,0-34.69-15.56-34.69-34.69s15.56-34.69,34.69-34.69,34.69,15.56,34.69,34.69-15.56,34.69-34.69,34.69Zm0-64.87c-16.64,0-30.18,13.54-30.18,30.18s13.54,30.18,30.18,30.18,30.18-13.54,30.18-30.18-13.54-30.18-30.18-30.18Z"/>
            <g>
              <path class="cls-8" d="m243,53.62c0,1.45-1.18,2.63-2.63,2.63s-2.63-1.18-2.63-2.63,1.18-2.63,2.63-2.63,2.63,1.18,2.63,2.63Z"/>
              <path class="cls-8" d="m243,103.18c0,1.45-1.18,2.63-2.63,2.63s-2.63-1.18-2.63-2.63,1.18-2.63,2.63-2.63,2.63,1.18,2.63,2.63Z"/>
            </g>
            <g>
              <circle class="cls-8" cx="215.6" cy="78.4" r="2.63"/>
              <path class="cls-8" d="m265.15,75.77c1.45,0,2.63,1.18,2.63,2.63s-1.18,2.63-2.63,2.63-2.63-1.18-2.63-2.63,1.18-2.63,2.63-2.63Z"/>
            </g>
          </g>
          <circle class="cls-8" cx="240.37" cy="78.4" r="3.3"/>
        </g>
        <path class="cls-8" d="m240.37,79.11h0c-.87,0-1.58-.71-1.58-1.58v-16.3c0-.87.71-1.58,1.58-1.58h0c.87,0,1.58.71,1.58,1.58v16.3c0,.87-.71,1.58-1.58,1.58Z"/>
        <path class="cls-8" d="m240.59,78.61h0c.61-.61,1.62-.61,2.23,0l12.63,12.63c.61.61.61,1.62,0,2.23h0c-.61.61-1.62.61-2.23,0l-12.63-12.63c-.61-.61-.61-1.62,0-2.23Z"/>
      </g>
      <g>
        <g>
          <path class="cls-5" d="m407.89,171.95c-4.19,1.12-8.08,3.34-11.18,6.38-3.98,3.91-6.61,9.07-10.85,12.7-4.68,4-11.69,6.84-12.33,12.96-.39,3.69,1.85,7.67.13,10.96-1.15,2.18-3.68,3.23-5.3,5.08-2.2,2.51-2.47,6.27-1.52,9.47.76,2.58,1.51,5.73,3.33,7.58-.04.14-.09.28-.14.42-.06.2.05.41.24.47,0,0,0,0,.01,0,.19.05.4-.05.46-.25.01-.04.02-.07.04-.11.29.22.6.41.94.56,2.59,1.18,5.16.17,5.16.17,3.45.75,7.27-1.85,7.83-5.34.23-1.41,0-2.92.58-4.23,1.37-3.1,6.06-3.05,8.15-5.71,2.9-3.68-1.05-9.23.44-13.66.9-2.67,3.53-4.27,5.65-6.13,5.26-4.61,7.9-12.01,6.76-18.91-.37-2.22-1.1-4.39-1.14-6.63-.05-2.25.78-4.71,2.74-5.8Z"/>
          <path class="cls-5" d="m368.69,243.74c-.2-.05-.4.08-.45.28-.17.75-.32,1.48-.45,2.21-.04.19.08.38.27.43.01,0,.02,0,.03,0,.2.04.4-.1.44-.3.13-.72.28-1.44.45-2.18.05-.2-.08-.42-.28-.45Z"/>
          <path class="cls-5" d="m369.84,239.4s0,0,0,0c-.2-.05-.4.06-.46.26-.1.33-.19.66-.28.98-.11.4-.22.8-.32,1.19-.05.2.07.4.26.45,0,0,0,0,0,0,.2.05.4-.07.46-.27.1-.39.21-.78.32-1.18.09-.32.18-.65.28-.97.06-.2-.06-.41-.25-.46Z"/>
        </g>
        <g>
          <path class="cls-5" d="m367.59,227.01c-.84-1.77-2.1-3.35-2.73-5.21-1.5-4.42.82-9.21.55-13.87-.23-4.04-2.41-7.72-4.9-10.91-5.08-6.51-11.75-11.77-19.26-15.2-.21,3.68,4.37,6.62,3.51,10.2-.18.74-.58,1.41-.92,2.1-1.6,3.21-1.77,7.22.02,10.33.72,1.25,1.72,2.34,2.3,3.66,2.3,5.3-3.2,11.36-1.63,16.92,1.18,4.2,5.78,6.26,8.94,9.28,3.53,3.37,5.97,9.23,5.59,14.17,0,.01-.01.02-.01.04-.03.08-.04.17-.02.25-.02.2-.04.41-.07.6h.18c.14-.1.28-.21.42-.33.07-.03.13-.08.18-.14,3.18-2.54,5.98-5.63,7.63-9.34,1.75-3.95,2.07-8.65.22-12.55Z"/>
          <path class="cls-5" d="m356.73,255.04c-.2-.09-.45,0-.54.2-.41.9-.76,1.63-1.05,2.18-.09.18-.04.39.11.51.02.01.04.03.06.04.2.1.45.03.55-.17.29-.56.65-1.3,1.07-2.22.09-.2,0-.44-.2-.54Z"/>
          <path class="cls-5" d="m358.65,250.55c-.21-.09-.45.01-.53.22-.34.83-.66,1.58-.95,2.24-.07.17-.02.37.12.48.03.02.06.04.09.05.21.09.45,0,.53-.21.29-.67.6-1.42.95-2.25.09-.21-.01-.44-.22-.53Z"/>
        </g>
        <g>
          <path class="cls-15" d="m366.04,244.31c-3.56-.56-5.72-4.61-7.65-7.7-1.93-3.08-2.74-7.11-1.16-10.38,1.17-2.42,3.52-4.26,4.09-6.88.85-3.95-2.66-7.48-3.33-11.47-1.11-6.62,5.42-11.65,9.17-17.21,3.39-5.04,4.65-11.24,7.69-16.5,2.36-4.09,5.8-7.56,9.88-9.96-1.75,1.72-1.89,4.54-1.19,6.89.7,2.35,2.1,4.41,3.13,6.63,3.21,6.91,2.59,15.46-1.59,21.83-1.68,2.57-3.98,5.02-4.14,8.08-.28,5.09,5.49,9.78,3.52,14.48-1.42,3.4-6.36,4.72-6.9,8.37-.22,1.54.45,3.06.62,4.61.42,3.83-2.82,7.67-6.67,7.89,0,0-2.4,1.8-5.47,1.32Z"/>
          <path class="cls-5" d="m364.67,254.27c-.21,0-.39-.16-.4-.37-.07-.8-.13-1.62-.17-2.45-.01-.22.16-.42.39-.43.22-.03.42.16.43.39.04.82.1,1.63.16,2.42.02.22-.15.42-.37.44-.01,0-.02,0-.04,0Zm-.24-4.88c-.22,0-.4-.18-.41-.4,0-.44-.01-.89-.01-1.34,0-.37,0-.74,0-1.11,0-.22.18-.4.41-.4h0c.22,0,.4.19.4.41,0,.37,0,.74,0,1.1,0,.45,0,.89.01,1.33,0,.22-.18.41-.4.41h0Zm.06-4.88h-.02c-.22,0-.4-.2-.39-.42.03-.81.07-1.63.12-2.45.01-.22.21-.4.43-.38.22.01.4.21.38.43-.05.82-.09,1.63-.12,2.43,0,.22-.19.39-.41.39Zm.29-4.88s-.02,0-.03,0c-.22-.02-.39-.21-.37-.44.06-.81.13-1.62.21-2.44.02-.22.23-.38.44-.37.22.02.39.22.37.44-.08.81-.15,1.62-.21,2.43-.02.21-.19.38-.4.38Zm.46-4.87s-.03,0-.05,0c-.22-.02-.38-.23-.36-.45.09-.81.19-1.62.29-2.43.03-.22.24-.38.45-.35.22.03.38.23.35.45-.1.81-.2,1.62-.29,2.42-.02.21-.2.36-.4.36Zm.61-4.85s-.04,0-.06,0c-.22-.03-.38-.24-.35-.46.11-.81.23-1.62.35-2.42.03-.22.24-.38.46-.34.22.03.38.24.34.46-.12.81-.24,1.61-.35,2.41-.03.2-.2.35-.4.35Zm.73-4.83s-.04,0-.07,0c-.22-.04-.37-.24-.34-.47.13-.81.27-1.62.41-2.42.04-.22.25-.37.47-.33.22.04.37.25.33.47-.14.8-.27,1.61-.41,2.41-.03.2-.2.34-.4.34Zm.83-4.83s-.05,0-.07,0c-.22-.04-.37-.25-.33-.47.15-.8.3-1.6.45-2.4.04-.22.25-.36.48-.32.22.04.36.26.32.48-.15.8-.3,1.6-.45,2.4-.04.2-.21.33-.4.33Zm.92-4.79s-.05,0-.08,0c-.22-.04-.36-.26-.32-.48.16-.8.32-1.6.49-2.4.05-.22.26-.36.48-.31.22.05.36.26.31.48-.17.79-.33,1.59-.49,2.39-.04.19-.21.33-.4.33Zm1-4.79s-.06,0-.09,0c-.22-.05-.36-.26-.31-.48.17-.8.35-1.6.53-2.39.05-.22.26-.35.49-.31.22.05.36.27.31.49-.18.79-.35,1.58-.53,2.38-.04.19-.21.32-.4.32Zm1.07-4.77s-.06,0-.09-.01c-.22-.05-.36-.27-.3-.49.19-.8.37-1.6.56-2.38.05-.22.27-.36.49-.3.22.05.35.27.3.49-.19.78-.37,1.58-.56,2.38-.04.19-.21.31-.4.31Zm1.14-4.76s-.06,0-.1-.01c-.22-.05-.35-.27-.3-.49.2-.8.39-1.59.59-2.37.05-.22.27-.35.49-.29.22.05.35.28.29.49-.2.78-.39,1.57-.59,2.37-.05.19-.21.31-.4.31Zm1.2-4.74s-.07,0-.1-.01c-.22-.06-.35-.28-.29-.5.21-.8.41-1.59.62-2.37.06-.22.28-.35.5-.29.22.06.35.28.29.5-.2.77-.41,1.56-.62,2.36-.05.18-.21.31-.39.31Zm1.25-4.73s-.07,0-.11-.01c-.22-.06-.35-.28-.29-.5.22-.81.44-1.6.65-2.36.06-.22.28-.34.5-.28.22.06.34.28.28.5-.21.76-.43,1.55-.65,2.36-.05.18-.21.3-.39.3Zm1.31-4.71s-.07,0-.11-.02c-.22-.06-.34-.29-.28-.5.23-.82.46-1.61.67-2.35.06-.22.29-.34.5-.28.22.06.34.29.28.5-.22.75-.44,1.53-.67,2.35-.05.18-.21.3-.39.3Zm1.36-4.7s-.08,0-.12-.02c-.22-.06-.34-.29-.27-.51.25-.85.49-1.64.7-2.35.07-.21.29-.34.51-.27.21.07.34.29.27.51-.22.71-.45,1.49-.7,2.34-.05.18-.21.29-.39.29Zm1.42-4.69s-.08,0-.12-.02c-.21-.07-.33-.29-.27-.51.47-1.52.75-2.35.75-2.35.07-.21.3-.33.51-.26.21.07.33.3.26.51,0,0-.27.83-.74,2.34-.05.17-.22.29-.39.29Z"/>
        </g>
        <g>
          <path class="cls-15" d="m358.05,247.16c-1.74-4.87-6.97-9.31-11.96-10.69-4.21-1.17-9.23-.81-12.26-3.96-4.01-4.17-2.02-12.09-6.55-15.69-1.13-.9-2.53-1.38-3.75-2.14-3.04-1.9-4.78-5.52-4.89-9.1-.02-.77.02-1.54-.18-2.28-.94-3.56-6.36-3.99-7.91-7.33,8.24-.52,16.6.97,24.15,4.31,3.7,1.64,7.35,3.85,9.47,7.3,2.44,3.98,2.65,9.31,6.06,12.49,1.44,1.34,3.29,2.14,4.87,3.3,3.47,2.57,5.41,6.86,5.73,11.17.32,4.3-.83,8.61-2.62,12.54l-.16.07Z"/>
          <path class="cls-5" d="m358.82,256.45c-.19-.03-.34-.2-.34-.4,0-.61-.04-1.42-.1-2.41-.01-.22.16-.42.38-.43.23-.01.42.16.43.38.07,1,.1,1.83.1,2.46,0,.22-.18.41-.4.41-.02,0-.05,0-.07,0Zm-.29-4.87c-.18-.03-.32-.18-.34-.37-.06-.72-.14-1.53-.23-2.43-.02-.22.14-.42.37-.45.23-.02.42.14.44.37.09.9.16,1.71.23,2.43.02.22-.15.42-.37.44-.04,0-.07,0-.1,0Zm-.48-4.86c-.18-.03-.32-.17-.34-.36-.08-.76-.17-1.56-.26-2.42-.03-.22.14-.43.36-.45.23-.03.42.14.45.36.1.86.18,1.67.26,2.43.02.22-.14.42-.36.45-.04,0-.08,0-.11,0Zm-.55-4.85c-.17-.03-.31-.17-.33-.35-.11-.83-.25-1.63-.41-2.37-.05-.22.09-.44.31-.48.22-.05.44.09.48.31.17.76.31,1.58.42,2.43.03.22-.13.43-.35.46-.04,0-.08,0-.12,0Zm-1.05-4.75c-.14-.02-.27-.13-.32-.27-.26-.79-.57-1.53-.9-2.19-.1-.2-.02-.45.18-.55.2-.1.45-.02.55.18.36.7.67,1.48.95,2.3.07.21-.04.44-.26.51-.07.02-.13.03-.2.02Zm-2.21-4.31c-.1-.02-.19-.07-.25-.15-.48-.62-1.01-1.18-1.62-1.7-.17-.15-.19-.4-.04-.57.15-.17.4-.19.57-.04.65.56,1.22,1.16,1.73,1.82.14.18.1.43-.07.57-.09.07-.21.1-.32.08Zm-3.64-3.19c-.05,0-.1-.03-.15-.06-.66-.41-1.36-.8-2.03-1.17l.13-.4.2-.36-.2.36.27-.32c.68.38,1.38.76,2.06,1.19.19.12.25.37.13.56-.09.15-.26.21-.41.19Zm-4.22-2.45c-.05,0-.1-.03-.15-.06-.77-.49-1.42-.98-2-1.51-.17-.15-.18-.41-.03-.58.15-.17.41-.18.58-.03.54.49,1.16.96,1.89,1.42.19.12.25.37.12.56-.09.14-.26.21-.41.18Zm-3.55-3.28c-.1-.02-.2-.07-.26-.17-.46-.66-.88-1.39-1.23-2.19-.09-.21,0-.45.21-.54.2-.09.45,0,.54.21.33.74.72,1.43,1.15,2.05.13.18.09.44-.1.57-.09.07-.2.09-.3.07Zm-2.01-4.41c-.15-.03-.28-.13-.32-.29-.06-.22-.12-.45-.18-.68-.13-.55-.29-1.11-.48-1.65-.07-.21.04-.44.26-.51.21-.07.44.04.51.26.19.57.36,1.14.5,1.72.05.22.11.44.17.65.06.22-.06.44-.28.5-.06.02-.12.02-.18,0Zm-1.56-4.61c-.13-.02-.24-.1-.3-.23-.33-.72-.71-1.43-1.13-2.11-.12-.19-.06-.44.13-.56.19-.12.44-.06.56.13.43.71.83,1.44,1.18,2.19.09.2,0,.45-.2.54-.08.04-.16.05-.24.03Zm-2.54-4.16c-.1-.02-.19-.07-.25-.15-.48-.63-1.01-1.24-1.56-1.83-.15-.16-.15-.42.02-.57.16-.15.42-.15.57.02.57.6,1.11,1.24,1.61,1.89.14.18.1.43-.07.57-.09.07-.21.1-.32.08Zm-3.34-3.55c-.07-.01-.14-.04-.2-.1-.59-.52-1.22-1.03-1.87-1.51-.18-.13-.22-.39-.08-.57.13-.18.39-.22.57-.08.67.49,1.32,1.02,1.93,1.56.17.15.18.41.04.57-.1.11-.24.16-.37.13Zm-3.92-2.91c-.05,0-.1-.03-.15-.06-.68-.42-1.38-.83-2.09-1.2-.2-.11-.27-.35-.17-.55.11-.2.35-.27.55-.17.73.38,1.45.8,2.14,1.23.19.12.25.37.13.56-.09.14-.26.21-.41.19Zm-4.32-2.28s-.06-.01-.09-.03c-1.35-.59-2.24-.86-2.24-.86-.22-.06-.34-.29-.27-.51.07-.22.3-.34.51-.27.04.01.93.28,2.34.89.21.09.3.33.21.54-.08.18-.26.27-.44.24Z"/>
        </g>
        <g>
          <path class="cls-15" d="m375.17,249.17c1.42-4.39,5.97-8.49,10.38-9.86,3.72-1.15,8.22-.97,10.83-3.86,3.46-3.82,1.48-10.84,5.42-14.17.98-.83,2.22-1.3,3.29-2.01,2.66-1.78,4.12-5.05,4.12-8.25,0-.68-.06-1.38.1-2.04.74-3.2,5.57-3.73,6.86-6.75-7.37-.25-14.79,1.31-21.44,4.49-3.26,1.56-6.46,3.63-8.25,6.77-2.07,3.62-2.12,8.37-5.08,11.31-1.24,1.23-2.88,1.99-4.25,3.08-3.03,2.38-4.64,6.27-4.81,10.12-.17,3.85.97,7.66,2.67,11.12l.15.06Z"/>
          <path class="cls-5" d="m374.73,257.48s-.04,0-.06,0c-.2,0-.37-.15-.37-.35-.01-.56,0-1.3.03-2.2,0-.2.17-.35.38-.35.2,0,.36.18.35.38-.03.88-.04,1.61-.03,2.16,0,.18-.12.33-.29.36Zm.13-4.35s-.06,0-.09,0c-.2-.01-.35-.18-.34-.38.04-.65.08-1.37.14-2.18.01-.2.19-.35.39-.34.2.01.35.19.34.39-.05.8-.1,1.52-.14,2.17,0,.17-.13.3-.29.34Zm.3-4.35s-.07,0-.1,0c-.2-.02-.35-.19-.34-.39.05-.68.11-1.4.17-2.18.02-.2.19-.35.39-.33.2.02.35.19.33.39-.06.77-.12,1.49-.17,2.17-.01.17-.13.3-.29.33Zm.36-4.34s-.07,0-.11,0c-.2-.02-.34-.2-.32-.4.08-.76.18-1.5.31-2.18.04-.2.23-.33.42-.29.2.04.33.23.29.42-.12.67-.23,1.38-.3,2.12-.02.16-.14.29-.29.32Zm.81-4.27c-.06.01-.12.01-.18,0-.19-.06-.3-.26-.24-.45.22-.74.49-1.44.78-2.08.08-.18.3-.26.48-.18.18.08.26.3.17.48-.28.61-.53,1.27-.75,1.98-.04.13-.15.23-.28.25Zm1.86-3.9c-.1.02-.2,0-.29-.06-.16-.12-.2-.34-.08-.51.44-.61.93-1.15,1.49-1.67.15-.13.38-.12.51.02.14.15.13.38-.02.51-.53.49-.99,1-1.4,1.56-.06.08-.14.13-.22.14Zm3.17-2.95c-.14.03-.29-.03-.37-.15-.11-.17-.07-.39.1-.5.6-.4,1.21-.76,1.81-1.12.17-.1.43-.06.53.11.1.17.08.38-.1.48l-.06.04c-.59.35-1.19.71-1.78,1.1-.04.03-.08.04-.13.05Zm3.7-2.3c-.14.03-.29-.03-.37-.15-.11-.17-.07-.39.1-.5.64-.43,1.18-.87,1.65-1.32.14-.14.37-.13.51,0,.14.14.14.37,0,.51-.5.48-1.07.94-1.74,1.4-.04.03-.09.05-.13.06Zm3.08-3.03c-.09.02-.19,0-.27-.05-.17-.11-.21-.34-.1-.5.37-.56.7-1.18.98-1.86.08-.18.29-.28.47-.2.19.08.27.29.2.47-.29.72-.65,1.38-1.04,1.98-.05.08-.14.14-.23.15Zm1.68-3.99c-.05.01-.11.01-.16,0-.19-.05-.31-.25-.26-.44.05-.19.09-.38.13-.58.11-.52.24-1.03.4-1.54.06-.19.26-.3.45-.24.19.06.3.26.24.45-.15.49-.28.99-.38,1.49-.04.21-.09.41-.14.61-.04.14-.15.24-.28.27Zm1.27-4.16c-.07.01-.15,0-.22-.02-.18-.08-.27-.29-.19-.48.29-.67.62-1.34.99-1.99.1-.17.32-.23.5-.13.17.1.23.32.13.5-.35.62-.68,1.26-.95,1.91-.05.11-.15.19-.26.21Zm2.15-3.78c-.1.02-.2,0-.29-.06-.16-.12-.2-.34-.08-.51.43-.59.89-1.17,1.39-1.73.13-.15.36-.16.51-.03.15.13.16.36.03.51-.48.54-.93,1.1-1.34,1.67-.06.08-.14.13-.22.14Zm2.89-3.26c-.12.02-.25-.01-.34-.11-.14-.15-.13-.38.02-.51.53-.5,1.1-.98,1.68-1.44.16-.12.39-.1.51.06.12.16.1.39-.06.51-.57.45-1.12.92-1.63,1.4-.05.05-.11.08-.18.09Zm3.42-2.7c-.14.03-.29-.03-.37-.15-.11-.17-.07-.39.1-.5.61-.41,1.24-.8,1.88-1.16.18-.1.4-.04.5.14.1.17.04.4-.14.5-.63.35-1.24.73-1.84,1.13-.04.03-.08.04-.13.05Zm3.8-2.15c-.16.03-.33-.05-.4-.2-.09-.18,0-.4.17-.48,1.23-.58,2.03-.85,2.06-.86.18-.07.4.04.46.23.06.19-.04.4-.23.46,0,0-.79.27-1.98.83-.03.01-.05.02-.08.03Z"/>
        </g>
        <g>
          <g>
            <polygon class="cls-5" points="380.86 292.58 350.74 292.58 346.67 244.55 384.93 244.55 380.86 292.58"/>
            <rect class="cls-5" x="343.82" y="242.52" width="43.96" height="7.73"/>
          </g>
          <polygon class="cls-15" points="347.07 250.25 384.47 250.25 383.96 255.9 347.63 255.9 347.07 250.25"/>
        </g>
      </g>
      <g>
        <g>
          <g>
            <path class="cls-15" d="m113.62,258.47c2.15.85,4.68-.06,6.69-1.3,5.06-3.13,8.77-8.37,10.04-14.19,1.16-2.73-3.15,0-4.12.08,4.55-4.42,8.31-10.67,8.06-17.02.29-2.23-1.92-.58-3.04.25,1.55-1.94,2.03-5.97,2.19-8.33.05-.64-.38-7.48-.29-7.55-3.27,2.41-5.88,5.58-8.03,9-1.94,3.07-3.09,7.81-5.43,10.35.04-4.09-1.92-1.45-1.86-1.54-3.95,5.75-5.28,13.28-4.91,20.24-.42-.1-1.69-2.23-1.92-.75-.44,1.91-.89,3.86-.69,5.8.21,1.95,1.19,3.92,2.94,4.8.12.06.24.11.36.16Z"/>
            <g>
              <path class="cls-5" d="m131.1,214.88c.08,0,.16-.04.2-.12.29-.51.44-.78.44-.78.06-.11.03-.25-.08-.31-.11-.06-.25-.03-.31.08,0,0-.16.28-.45.79-.06.11-.02.25.09.31.04.02.07.03.11.03Z"/>
              <path class="cls-5" d="m114.81,254.77c-.12-.02-.2-.15-.18-.27.12-.58.25-1.17.39-1.76.03-.12.15-.19.27-.17.12.03.2.15.17.27-.14.59-.27,1.17-.39,1.75-.02.11-.12.18-.22.18-.02,0-.03,0-.05,0Zm.81-3.5c-.12-.03-.2-.16-.16-.28.15-.58.31-1.16.47-1.74.03-.12.15-.18.28-.16.12.03.19.16.16.28-.16.58-.32,1.16-.47,1.73-.03.1-.12.17-.22.17-.02,0-.04,0-.06,0Zm.97-3.47c-.12-.04-.19-.16-.15-.29.17-.57.35-1.15.54-1.72.04-.12.16-.18.29-.15.12.04.19.17.15.29-.18.57-.36,1.15-.53,1.72-.03.1-.12.16-.22.16-.02,0-.04,0-.07,0Zm1.09-3.43c-.12-.04-.18-.17-.14-.29.19-.57.39-1.14.59-1.71.04-.12.17-.18.29-.14.12.04.18.17.14.29-.2.56-.4,1.13-.59,1.7-.03.09-.12.15-.22.15-.02,0-.05,0-.07-.01Zm1.2-3.4c-.12-.04-.18-.17-.14-.29.21-.57.42-1.13.64-1.69.05-.12.18-.18.29-.13.12.04.18.18.13.29-.21.56-.43,1.12-.63,1.68-.03.09-.12.15-.21.15-.03,0-.05,0-.08-.01Zm1.28-3.36c-.12-.05-.17-.18-.13-.3.22-.56.45-1.12.68-1.67.05-.12.19-.17.3-.12.12.05.17.18.12.3-.23.55-.45,1.11-.67,1.67-.04.09-.12.14-.21.14-.03,0-.06,0-.08-.02Zm1.36-3.33c-.12-.05-.17-.18-.12-.3.24-.56.47-1.11.71-1.66.05-.11.18-.17.3-.12.12.05.17.18.12.3-.24.55-.47,1.1-.71,1.65-.04.09-.12.14-.21.14-.03,0-.06,0-.09-.02Zm1.43-3.31c-.11-.05-.17-.19-.12-.3.25-.56.5-1.1.74-1.64.05-.12.19-.17.3-.11.11.05.16.19.11.3-.25.54-.49,1.09-.74,1.64-.04.09-.12.14-.21.14-.03,0-.06,0-.09-.02Zm1.49-3.28c-.11-.05-.16-.19-.11-.3.26-.55.52-1.1.77-1.63.05-.11.19-.16.3-.11.11.05.16.19.11.3-.25.53-.51,1.07-.77,1.63-.04.08-.12.13-.21.13-.03,0-.07,0-.1-.02Zm1.55-3.25c-.11-.06-.16-.19-.11-.3.27-.56.54-1.1.8-1.62.06-.11.2-.16.31-.1.11.06.16.19.1.3-.26.52-.53,1.06-.8,1.61-.04.08-.12.13-.2.13-.03,0-.07,0-.1-.02Zm1.61-3.22c-.11-.06-.16-.19-.1-.31.29-.56.56-1.1.83-1.6.06-.11.2-.15.31-.1.11.06.15.2.1.31-.26.51-.54,1.04-.82,1.6-.04.08-.12.12-.2.12-.03,0-.07,0-.1-.02Zm1.66-3.2c-.11-.06-.15-.2-.09-.31.31-.59.6-1.12.85-1.59.06-.11.2-.15.31-.09.11.06.15.2.09.31-.25.47-.54,1-.85,1.59-.04.08-.12.12-.2.12-.04,0-.07,0-.11-.03Z"/>
              <path class="cls-5" d="m114.36,257.42c.11,0,.21-.08.23-.19.05-.3.1-.59.15-.89.02-.12-.06-.24-.18-.26-.12-.02-.24.06-.26.19-.05.3-.11.6-.15.9-.02.12.07.24.19.26.01,0,.02,0,.04,0Z"/>
            </g>
            <path class="cls-5" d="m119.97,240.07c-.05-.12,0-.25.12-.3.16-.07.32-.14.47-.21.11-.05.25,0,.3.11.05.11,0,.25-.11.3-.16.07-.32.15-.48.22-.03.01-.06.02-.09.02-.09,0-.17-.05-.21-.14Zm2.11-1.03c-.06-.11-.02-.25.09-.31.52-.3,1.04-.62,1.54-.95.1-.07.25-.04.32.06.07.11.04.25-.06.32-.5.34-1.03.67-1.57.97-.04.02-.07.03-.11.03-.08,0-.16-.04-.2-.12Zm3.04-2.01c-.08-.1-.06-.24.04-.32.48-.38.94-.78,1.37-1.18.09-.09.23-.08.32,0,.09.09.08.24-.01.32-.44.41-.91.82-1.39,1.21-.04.03-.09.05-.14.05-.07,0-.13-.03-.18-.09Zm2.69-2.47c-.09-.09-.1-.23-.01-.32.41-.44.8-.9,1.17-1.38.08-.1.22-.12.32-.04s.12.22.04.32c-.38.48-.78.96-1.19,1.41-.05.05-.11.07-.17.07-.06,0-.11-.02-.15-.06Zm2.27-2.85c-.11-.07-.14-.21-.07-.32.61-.93.9-1.55.9-1.55.05-.12.19-.16.3-.11.11.05.16.19.11.3-.01.03-.3.65-.93,1.61-.04.07-.12.1-.19.1-.04,0-.09-.01-.12-.04Z"/>
            <path class="cls-5" d="m115.87,246.23c-.2-.41-.36-.84-.49-1.3-.03-.12.04-.25.16-.28.12-.03.25.04.28.16.12.43.28.84.46,1.22.06.11,0,.25-.11.3-.03.02-.07.02-.1.02-.08,0-.17-.05-.2-.13Zm-.81-3.14c-.02-.28-.03-.55-.03-.82,0-.34.01-.68.04-1.04,0-.13.12-.2.25-.21.13.01.22.12.21.25-.03.34-.04.68-.04,1,0,.26,0,.52.03.79,0,.12-.08.24-.21.24h-.02c-.12,0-.22-.09-.23-.21Zm.46-3.42c-.12-.03-.2-.15-.17-.27.23-1.07.5-1.76.51-1.79.05-.12.18-.18.29-.13.12.04.18.18.13.3,0,0-.27.69-.49,1.72-.02.11-.12.18-.22.18-.02,0-.03,0-.05,0Z"/>
            <path class="cls-5" d="m115.29,253.85c-.04-.12.03-.25.15-.29.32-.1.63-.21.94-.33.12-.05.25.01.29.13.05.12-.01.25-.13.29-.31.12-.63.24-.96.34-.02,0-.05.01-.07.01-.1,0-.19-.06-.22-.16Zm2.63-1.04c-.06-.11,0-.25.1-.31.54-.27,1.07-.56,1.58-.87.11-.07.25-.03.31.07.06.11.03.25-.08.31-.52.32-1.07.62-1.62.89-.03.02-.07.02-.1.02-.08,0-.16-.05-.2-.13Zm3.14-1.86c-.07-.1-.05-.25.05-.32.48-.35.95-.73,1.41-1.13.09-.08.24-.07.32.02.08.1.07.24-.02.32-.47.4-.95.79-1.44,1.15-.04.03-.09.04-.13.04-.07,0-.14-.03-.18-.09Zm2.78-2.36c-.09-.09-.09-.23,0-.32.77-.79,1.18-1.35,1.18-1.35.08-.1.22-.12.32-.05.1.07.12.22.05.32-.02.02-.43.58-1.22,1.4-.04.05-.1.07-.16.07s-.11-.02-.16-.06Z"/>
          </g>
          <g>
            <path class="cls-19" d="m105.97,259.04c-3.15-.12-5.8-2.65-7.62-5.29-4.59-6.68-6.34-15.24-4.74-23.19.05-4.04,3.92,1.73,5.09,2.36-3.24-8-4.51-17.86-.71-25.62.85-2.94,2.71.32,3.65,1.98-.87-3.27.75-8.55,1.83-11.59.29-.82,4.58-9.11,4.49-9.25,2.75,4.79,4.26,10.18,5.08,15.62.73,4.89-.43,11.43,1.1,15.87,2.19-5.11,3.19-.75,3.16-.89,1.78,9.33-.69,19.44-4.98,27.91.57.11,3.33-1.86,2.8.12-.49,2.62-1,5.29-2.33,7.61-1.32,2.31-3.63,4.24-6.29,4.37-.18,0-.36,0-.54,0Z"/>
            <g>
              <path class="cls-5" d="m108.07,195.14c-.1-.04-.17-.14-.18-.26-.08-.79-.12-1.22-.12-1.22-.02-.17.1-.32.28-.34.16-.02.32.1.34.28,0,0,.05.43.12,1.23.02.17-.11.32-.28.34-.06,0-.11,0-.15-.03Z"/>
              <path class="cls-5" d="m106.45,253.76c-.13-.06-.21-.2-.18-.35.17-.79.33-1.59.48-2.4.03-.17.19-.28.36-.25.17.04.28.19.25.36-.15.81-.31,1.62-.48,2.41-.04.17-.2.27-.37.24-.02,0-.04-.01-.06-.02Zm.89-4.82c-.13-.06-.2-.19-.18-.33.13-.8.25-1.61.37-2.42.02-.17.18-.29.35-.26.18.04.29.18.26.35-.11.82-.24,1.63-.37,2.43-.03.17-.19.28-.36.26-.03,0-.05-.01-.07-.02Zm.69-4.86c-.12-.05-.2-.18-.18-.32.1-.81.19-1.62.27-2.43.02-.17.17-.29.34-.28.17.02.29.17.28.34-.09.82-.18,1.63-.28,2.44-.02.17-.18.29-.35.27-.03,0-.06-.01-.09-.03Zm.51-4.88c-.12-.05-.2-.18-.18-.31.07-.81.14-1.63.2-2.44.01-.17.16-.3.33-.29.17,0,.3.16.29.33-.06.82-.13,1.63-.2,2.45-.01.17-.17.3-.34.28-.03,0-.07-.01-.1-.02Zm.36-4.89c-.12-.05-.19-.17-.18-.3.05-.82.09-1.63.13-2.44,0-.17.15-.3.32-.29.17,0,.3.15.3.32-.04.81-.08,1.63-.13,2.45,0,.17-.16.3-.33.29-.04,0-.07-.01-.11-.03Zm.23-4.89c-.11-.05-.19-.17-.19-.3.03-.82.05-1.64.07-2.45,0-.17.15-.31.32-.3.17,0,.31.14.3.32-.02.82-.04,1.63-.08,2.46,0,.17-.15.31-.32.3-.04,0-.08-.01-.11-.03Zm.12-4.9c-.11-.05-.19-.16-.19-.29.01-.82.02-1.64.02-2.45,0-.17.14-.31.31-.31.18,0,.31.14.31.31,0,.81-.01,1.63-.02,2.45,0,.17-.14.31-.32.31-.04,0-.08-.01-.12-.03Zm.02-4.9c-.11-.05-.18-.16-.19-.28,0-.83-.01-1.64-.03-2.45,0-.17.13-.31.3-.31.17,0,.31.13.32.31.01.81.02,1.62.03,2.45,0,.17-.14.31-.31.31-.04,0-.09,0-.13-.03Zm-.07-4.9c-.11-.05-.18-.15-.19-.28-.02-.83-.04-1.65-.07-2.45,0-.17.13-.31.3-.32.17,0,.31.13.32.3.03.8.05,1.62.07,2.45,0,.17-.13.32-.3.32-.05,0-.09,0-.13-.03Zm-.16-4.9c-.11-.05-.18-.15-.18-.27-.03-.84-.07-1.66-.11-2.45,0-.17.12-.32.29-.32.17-.01.32.12.33.29.04.79.08,1.61.11,2.45,0,.17-.13.32-.3.32-.05,0-.09,0-.14-.03Zm-.24-4.9c-.1-.05-.18-.14-.18-.27-.05-.85-.1-1.67-.15-2.45-.01-.17.12-.32.29-.33.17,0,.32.12.33.29.05.77.1,1.59.15,2.45,0,.17-.12.32-.29.33-.05,0-.1,0-.14-.03Zm-.32-4.9c-.1-.04-.18-.14-.18-.26-.07-.9-.13-1.72-.19-2.44-.01-.17.11-.32.28-.33.17-.02.32.11.34.28.06.72.13,1.54.19,2.45.01.17-.12.32-.29.33-.05,0-.1,0-.15-.03Z"/>
              <path class="cls-5" d="m105.61,257.33c-.14-.06-.21-.21-.18-.36.1-.4.2-.79.3-1.2.04-.17.21-.27.37-.23.16.04.27.21.23.38-.1.4-.2.81-.3,1.21-.04.16-.21.26-.38.22-.02,0-.03,0-.05-.02Z"/>
            </g>
            <path class="cls-5" d="m107.8,232.68s-.07-.04-.1-.07c-.17-.18-.33-.36-.48-.54-.11-.13-.1-.33.03-.44.13-.11.32-.1.44.03.15.18.31.35.47.53.12.13.11.32-.02.44-.09.08-.23.1-.33.05Zm-2.05-2.46s-.09-.05-.12-.1c-.5-.67-.98-1.36-1.42-2.06-.09-.14-.05-.34.1-.43.14-.09.34-.05.43.1.43.69.9,1.37,1.39,2.03.1.14.07.33-.06.43-.09.07-.21.08-.31.04Zm-2.65-4.19c-.06-.03-.12-.08-.15-.14-.39-.75-.75-1.51-1.08-2.27-.07-.16,0-.34.16-.41.16-.06.34,0,.41.17.32.74.67,1.48,1.06,2.22.08.15.02.34-.13.42-.09.05-.19.05-.27,0Zm-1.95-4.57c-.08-.03-.14-.1-.17-.18-.27-.79-.51-1.6-.71-2.4-.04-.17.06-.33.22-.38.17-.04.33.06.38.22.2.79.44,1.59.7,2.36.05.16-.03.34-.19.39-.08.03-.16.02-.23,0Zm-1.22-4.81c-.09-.04-.16-.12-.18-.23-.26-1.54-.28-2.48-.28-2.52,0-.17.13-.31.3-.32.17,0,.31.13.32.3,0,0,.02.93.27,2.43.03.17-.09.33-.25.36-.06.01-.12,0-.18-.02Z"/>
            <path class="cls-5" d="m109.54,242.61s-.08-.05-.11-.08c-.11-.13-.1-.33.04-.44.44-.37.86-.8,1.24-1.27.11-.13.3-.15.44-.04.13.11.15.3.04.44-.41.5-.85.95-1.32,1.35-.09.08-.22.09-.33.05Zm2.65-3.38s-.01,0-.02,0c-.15-.08-.21-.27-.13-.42.17-.32.32-.64.47-.97.18-.4.34-.83.5-1.27.06-.16.23-.25.4-.19.15.07.25.23.19.39-.16.46-.33.9-.51,1.32-.15.34-.31.67-.49,1.01-.08.15-.25.2-.4.14Zm1.63-4.68c-.13-.06-.21-.2-.18-.35.29-1.41.33-2.4.33-2.41,0-.17.15-.31.32-.3.17,0,.3.15.3.32,0,.04-.05,1.05-.35,2.51-.03.17-.2.28-.37.24-.02,0-.04-.01-.06-.02Z"/>
            <path class="cls-5" d="m106.06,252.44s-.06-.03-.08-.05c-.35-.31-.68-.63-1.01-.95-.12-.12-.12-.32,0-.44.12-.12.32-.12.44,0,.32.31.64.62.98.93.13.11.14.31.02.44-.09.1-.24.13-.36.08Zm-2.67-2.77s-.08-.05-.11-.08c-.53-.64-1.05-1.31-1.52-2-.1-.14-.06-.33.08-.43.14-.1.33-.06.43.08.47.67.97,1.33,1.49,1.95.11.13.09.33-.04.44-.09.08-.22.09-.32.05Zm-2.84-4.07c-.06-.03-.11-.07-.14-.13-.41-.71-.81-1.46-1.17-2.22-.07-.15,0-.34.15-.42.16-.07.34,0,.41.15.36.75.74,1.48,1.14,2.18.09.15.04.34-.11.42-.09.05-.19.05-.28.01Zm-2.13-4.49c-.07-.03-.13-.09-.17-.18-.55-1.46-.75-2.38-.76-2.41-.04-.17.07-.33.24-.37.16-.04.33.07.37.23,0,.01.21.92.73,2.33.06.16-.02.34-.18.4-.08.03-.16.02-.23,0Z"/>
          </g>
          <g>
            <path class="cls-15" d="m101.48,258.74c-2.85,1.12-6.2-.09-8.85-1.72-6.7-4.14-11.61-11.08-13.28-18.77-1.54-3.62,4.17,0,5.45.11-6.02-5.85-10.99-14.12-10.66-22.51-.39-2.95,2.54-.77,4.02.33-2.06-2.57-2.68-7.9-2.9-11.03-.06-.85.51-9.9.38-9.99,4.32,3.19,7.78,7.39,10.63,11.91,2.57,4.06,4.09,10.34,7.18,13.69-.05-5.41,2.55-1.91,2.46-2.03,5.23,7.6,6.99,17.57,6.49,26.78.55-.13,2.24-2.95,2.54-.99.59,2.52,1.18,5.1.91,7.68-.27,2.58-1.57,5.19-3.89,6.35-.16.08-.32.15-.48.21Z"/>
            <g>
              <path class="cls-5" d="m78.35,201.07c-.1,0-.21-.06-.26-.16-.38-.67-.59-1.03-.59-1.04-.08-.14-.03-.33.11-.41.14-.08.33-.04.41.11,0,0,.21.37.59,1.05.08.14.03.33-.12.41-.05.03-.1.04-.15.04Z"/>
              <path class="cls-5" d="m99.85,253.85c-.14,0-.27-.1-.3-.24-.16-.77-.33-1.54-.51-2.32-.04-.16.06-.33.23-.36.16-.03.32.06.36.23.18.78.36,1.56.52,2.33.03.16-.07.32-.23.36-.02,0-.04,0-.06,0Zm-1.09-4.63c-.13,0-.26-.09-.29-.23-.2-.76-.4-1.53-.62-2.29-.05-.16.05-.33.21-.37.17-.04.33.05.37.21.22.77.43,1.54.62,2.31.04.16-.06.33-.22.37-.02,0-.05,0-.08,0Zm-1.29-4.59c-.13,0-.25-.08-.29-.21-.23-.75-.46-1.51-.71-2.27-.05-.16.04-.33.2-.38.16-.04.33.04.38.2.24.76.48,1.52.71,2.28.05.16-.04.33-.2.38-.03,0-.06.01-.09.01Zm-1.46-4.54c-.13,0-.24-.08-.29-.21-.25-.75-.52-1.5-.78-2.25-.06-.16.03-.33.18-.39.15-.06.33.03.38.18.27.75.53,1.5.78,2.26.05.16-.03.33-.19.38-.03.01-.06.02-.1.02Zm-1.59-4.49c-.12,0-.24-.08-.28-.2-.27-.74-.55-1.49-.84-2.22-.06-.16.02-.33.17-.39.15-.06.33.02.39.17.28.74.57,1.48.84,2.23.06.16-.02.33-.18.39-.03.01-.07.02-.1.02Zm-1.71-4.44c-.12,0-.23-.07-.28-.19-.29-.74-.59-1.48-.89-2.21-.06-.16.01-.33.17-.39.15-.07.33,0,.39.16.3.73.6,1.47.89,2.22.06.16-.01.33-.17.39-.04.01-.07.02-.11.02Zm-1.81-4.41c-.12,0-.23-.07-.28-.18-.31-.74-.62-1.47-.94-2.19-.07-.15,0-.33.16-.4.15-.08.33,0,.4.16.31.72.63,1.45.94,2.19.06.15,0,.33-.16.4-.04.02-.08.02-.12.02Zm-1.9-4.37c-.12,0-.23-.07-.28-.18-.33-.73-.65-1.46-.98-2.17-.07-.15,0-.33.15-.4.15-.07.33,0,.4.15.33.71.65,1.44.98,2.17.07.15,0,.33-.15.4-.04.02-.08.03-.12.03Zm-1.98-4.34c-.11,0-.22-.06-.27-.17-.34-.73-.68-1.45-1.02-2.15-.07-.15,0-.33.14-.4.15-.07.33,0,.4.14.34.7.68,1.42,1.02,2.15.07.15,0,.33-.14.4-.04.02-.08.03-.13.03Zm-2.06-4.3c-.11,0-.22-.06-.27-.17-.36-.73-.71-1.45-1.05-2.13-.07-.15-.01-.33.14-.4.14-.08.33-.01.4.13.34.69.7,1.4,1.06,2.14.07.15.01.33-.14.4-.04.02-.09.03-.13.03Zm-2.13-4.26c-.11,0-.22-.06-.27-.16-.38-.74-.74-1.45-1.09-2.12-.08-.15-.02-.33.13-.41.15-.07.33-.02.41.13.35.67.71,1.38,1.09,2.12.08.15.02.33-.13.41-.04.02-.09.03-.14.03Zm-2.2-4.23c-.11,0-.21-.06-.27-.16-.41-.78-.79-1.48-1.13-2.1-.08-.15-.03-.33.12-.41.14-.08.33-.03.41.12.34.62.72,1.33,1.13,2.1.08.15.02.33-.12.41-.04.02-.09.04-.14.04Z"/>
              <path class="cls-5" d="m100.5,257.36c-.15,0-.27-.11-.3-.25-.06-.39-.13-.79-.2-1.18-.03-.16.08-.32.24-.35.16-.03.32.08.35.25.07.4.14.8.2,1.19.03.16-.09.32-.25.34-.02,0-.03,0-.05,0Z"/>
            </g>
            <path class="cls-5" d="m92.8,234.58s-.08,0-.12-.03c-.22-.09-.43-.19-.64-.29-.15-.07-.22-.25-.15-.4.07-.15.25-.21.4-.15.21.1.42.19.63.28.15.07.22.25.15.4-.05.11-.16.18-.28.18Zm-2.78-1.39c-.05,0-.1-.01-.15-.04-.71-.4-1.41-.83-2.07-1.28-.14-.09-.17-.28-.08-.42.09-.13.28-.17.42-.08.65.44,1.34.86,2.03,1.26.14.08.2.26.11.41-.06.1-.16.15-.26.15Zm-4-2.69c-.07,0-.13-.02-.19-.07-.64-.51-1.26-1.05-1.84-1.6-.12-.11-.13-.3-.01-.43.12-.12.31-.13.43-.01.57.53,1.18,1.06,1.81,1.56.13.1.15.29.05.42-.06.08-.15.11-.24.11Zm-3.52-3.3c-.08,0-.16-.03-.22-.1-.55-.6-1.08-1.22-1.58-1.86-.1-.13-.08-.32.05-.42.13-.1.32-.08.42.05.49.63,1.01,1.24,1.55,1.82.11.12.1.31-.02.43-.06.05-.13.08-.2.08Zm-2.97-3.81c-.1,0-.19-.05-.25-.14-.83-1.27-1.22-2.1-1.23-2.13-.07-.15,0-.33.15-.4.15-.07.33,0,.4.15,0,0,.39.82,1.19,2.06.09.14.05.33-.09.42-.05.03-.11.05-.17.05Z"/>
            <path class="cls-5" d="m98.23,242.72s-.09,0-.13-.03c-.15-.07-.21-.25-.14-.4.25-.5.45-1.05.61-1.62.04-.16.21-.25.37-.21.16.04.25.21.21.37-.17.6-.39,1.18-.65,1.72-.05.11-.16.17-.27.17Zm1.04-4.04h-.02c-.17-.01-.29-.16-.28-.32.02-.35.04-.7.04-1.04,0-.43-.02-.87-.06-1.32-.01-.17.11-.31.28-.33.16,0,.31.11.33.28.04.47.06.93.06,1.37,0,.36-.01.72-.04,1.08-.01.16-.14.28-.3.28Zm-.38-4.8c-.14,0-.27-.1-.29-.24-.29-1.37-.64-2.27-.64-2.28-.06-.16.02-.33.17-.39.16-.06.33.02.39.17.02.04.37.95.67,2.37.04.16-.07.32-.23.36-.02,0-.04,0-.06,0Z"/>
            <path class="cls-5" d="m98.99,252.83s-.06,0-.09-.01c-.43-.14-.86-.29-1.27-.45-.16-.06-.23-.23-.17-.39.06-.16.24-.24.39-.17.4.16.82.3,1.24.44.16.05.25.22.19.38-.04.13-.16.21-.29.21Zm-3.46-1.42s-.09,0-.13-.03c-.72-.36-1.44-.75-2.14-1.18-.14-.08-.19-.27-.1-.41.09-.14.27-.19.41-.1.68.41,1.38.8,2.09,1.15.15.08.21.25.14.41-.05.11-.16.17-.27.17Zm-4.12-2.51c-.06,0-.12-.02-.18-.06-.65-.47-1.29-.98-1.91-1.52-.13-.11-.14-.3-.03-.43.11-.12.3-.14.43-.03.61.53,1.24,1.03,1.87,1.49.13.1.16.29.07.42-.06.08-.15.12-.24.12Zm-3.65-3.16c-.08,0-.16-.03-.22-.09-1.05-1.08-1.6-1.82-1.62-1.85-.1-.14-.07-.33.07-.42.13-.1.32-.07.42.06,0,0,.54.74,1.56,1.79.12.12.11.31,0,.43-.06.06-.14.08-.21.08Z"/>
          </g>
          <g>
            <polygon class="cls-15" points="95.99 290.2 118 290.4 125.5 257.45 89.12 257.1 95.99 290.2"/>
            <rect class="cls-15" x="92.04" y="288.86" width="29.92" height="3.59" rx="1.44" ry="1.44" transform="translate(211.24 582.31) rotate(-179.46)"/>
          </g>
        </g>
        <polygon class="cls-5" points="91.39 259 101.63 259 102 288.41 97.35 288.41 91.39 259"/>
      </g>
      <g>
        <path class="cls-16" d="m418.96,179.74s-25.84,47.17,7.22,103.62c.1.17.2.35.31.52.11.18-6.69,3.63-6.58,3.81l6.06-.09,4.62-2.88s-21.12-53.56,1.23-79.27l-12.86-25.72Z"/>
        <path class="cls-29" d="m430.43,284.43s-6.53,4.07-9.45,2.51c0,0-7.43,2.58.57,3.16l5-.14,2.1-2.22.06,2.26,2.45-.07-.08-2.69s1.09-2.7-.65-2.81Z"/>
        <path class="cls-25" d="m430.51,102.51s-23.57,8.49-13.38,17.2c10.19,8.71-4.88,18.69-4.88,18.69,0,0-10.3,4.51,2.97,15.71,0,0,40.98,15.08,35.03-18.47,0,0,8.28-38.64-19.75-33.12Z"/>
        <polygon class="cls-11" points="391.31 164.45 393.22 165.46 391.89 168.47 389.41 167.29 391.31 164.45"/>
        <path class="cls-20" d="m413.69,155.31s1.93,14.08-2.89,12.92c0,0-12.83-7.28-16.11-1.69l-.87,2.85s0,8.29,19.29,7.14c0,0,4.44.39,6.37-4.05l5.4-21.8-11.19,4.63Z"/>
        <path class="cls-7" d="m427.77,132.93s-23.34,20.45-11.19,27.2l1.35,16.01s-.77,8.1,18.9,3.47c0,0,3.28-.58.96-4.63,0,0-7.72-10.22,6.17-25.65,0,0,8.39-9.82-7.86-17.45l-8.34,1.05Z"/>
        <g>
          <path class="cls-11" d="m432.23,105.17s-10,.28-10.71,8.13c0,0-.68,9.3,1.78,12.34l2.17,2.94s1.36,2.45,4.58-.32l5.71-3.92s1.03.24,1.85-1.78c0,0,3.25-3.11,3.5-6.88.25-3.76-1.12-9.77-8.87-10.52Z"/>
          <path class="cls-11" d="m427.56,128.61l.14,8s-.48,3.92,7.87-4.92c0,0-1.56-3.44.03-6.55l.95-2.63-9.43,4.95.43,1.14Z"/>
        </g>
        <path class="cls-11" d="m437.99,177.17s15.14,25.33-3.86,110.21l-5.83,3.56-4.47-1.28s6.87-2.72,6.95-3.56c.02-.21.04-.44.06-.69.87-10.42,3.91-60.51-12.91-109.28l20.06,1.03Z"/>
        <path class="cls-21" d="m437.03,173.53s11.25,12.79,8.94,42.88l-3.92.23-1.16-6.17-1.54,6.17-30.63.02s-.23-35.61,9.03-42.36l19.29-.77Z"/>
        <rect class="cls-21" x="417.29" y="171.54" width="20.45" height="3.7"/>
        <path class="cls-11" d="m441.14,178.29s-9.94.85-4.45,1.75l-5.17,1.36s-2.81,1.33,5.68,1.68c0,0,3.08.31,5.66-2.66l-1.72-2.13Z"/>
        <path class="cls-7" d="m442.81,137.18s29.9,15.82,19.48,26.62c0,0-8.74,16.72-17.62,15.56l-2.44-2.83s-.9-7.97,14.92-16.2c0,0,3.99-3.21-15.69-10.16l1.35-12.99Z"/>
        <rect class="cls-7" x="441.23" y="176.41" width="3.34" height="3.97" transform="translate(-2.89 349.46) rotate(-42.93)"/>
        <rect class="cls-20" x="391.75" y="165.23" width="3.34" height="3.97" transform="translate(103.48 -146.91) rotate(24.27)"/>
        <path class="cls-11" d="m391.68,165.52c0,1.42-1.4,2.58-3.13,2.58s-3.13-1.15-3.13-2.58,1.4-2.58,3.13-2.58,3.13,1.15,3.13,2.58Z"/>
        <path class="cls-22" d="m373.05,158.74v12.73c0,.4.32.72.72.72h9.7c.4,0,.72-.32.72-.72v-.9h1.17c1.59,0,2.87-1.29,2.87-2.87v-4.43c0-1.59-1.29-2.87-2.87-2.87h-1.17v-1.65h-11.14Zm11.14,10.4v-7.31h1.17c.79,0,1.44.64,1.44,1.44v4.43c0,.79-.64,1.44-1.44,1.44h-1.17Z"/>
        <path class="cls-11" d="m389.16,165.43c0,1.3-.86,2.35-1.91,2.35s-1.91-1.05-1.91-2.35.86-2.35,1.91-2.35,1.91,1.05,1.91,2.35Z"/>
        <polygon class="cls-3" points="435.24 129.43 427.75 136.24 427.6 132.3 421.95 138.64 427.51 136.74 428.25 141.12 439 133.24 435.24 129.43"/>
        <path class="cls-25" d="m425.94,106.16c-.99.69-1.79,1.54-2.21,2.55-1.31,3.15.67,7.38,3.55,8.85,1.65.85,3.87,1.28,4.47,3.03.45,1.31-.27,2.69-.54,4.04-.63,3.1,1.19,6.28,3.71,8.19,2.52,1.91,6.45,4.13,9.5,4.99.53-4.73,1.16-10.65,1.71-15.39.55-4.73.09-9.86-2.79-13.65-2.3-3.02-6.04-4.89-9.84-4.91-2.17-.01-5.35.76-7.56,2.3Z"/>
        <path class="cls-21" d="m434.17,287.06s-6.64,3.88-9.52,2.25c0,0-7.73,2.64.48,3.17h5l2.16-2.16v2.26h2.45v-2.69s1.16-2.67-.57-2.83Z"/>
      </g>
      <g>
        <g>
          <g>
            <g>
              <path class="cls-11" d="m112.59,162.04c.13,1.73-1.47,3.25-3.57,3.4-2.1.15-3.9-1.12-4.03-2.85s1.47-3.25,3.57-3.4c2.1-.15,3.9,1.12,4.03,2.85Z"/>
              <path class="cls-2" d="m94.16,157.15l.84,11.57c.03.36.34.63.7.61l8.82-.64c.36-.03.63-.34.61-.7l-.06-.82,1.06-.08c1.44-.1,2.53-1.36,2.42-2.8l-.29-4.03c-.1-1.44-1.36-2.53-2.8-2.42l-1.06.08-.11-1.5-10.12.73Zm10.81,8.71l-.48-6.64,1.06-.08c.72-.05,1.35.49,1.4,1.21l.29,4.03c.05.72-.49,1.35-1.21,1.4l-1.06.08Z"/>
              <path class="cls-11" d="m109.52,162.15c.11,1.57-.83,2.92-2.11,3.01-1.28.09-2.41-1.11-2.52-2.68-.11-1.57.83-2.92,2.11-3.01s2.41,1.11,2.52,2.68Z"/>
            </g>
            <polygon class="cls-11" points="112.04 160.76 114.44 161.82 113.1 165.59 109.99 164.38 112.04 160.76"/>
          </g>
          <path class="cls-10" d="m152.62,139.49s-6.91,7.06-13.11,25.61c0,0-1.21,3.08-5.21,2.04l-19.92-6.76-1.7,5.59,21.76,11.27s7.6,4.68,10.7-1.73l6.58-9.4.9-26.62Z"/>
          <path class="cls-22" d="m149.54,199.24s-19.35,29.03,0,87.54h5.53s-7.83-54.83,13.36-73.72l-3.69-19.81-15.21,5.99Z"/>
          <path class="cls-35" d="m185.02,198.47s2.15,3.38-.92,12.59c0,0-3.99,43.47-6.76,75.72h-6.45s-9.06-74.34-7.99-87.54l22.12-.77Z"/>
          <path class="cls-10" d="m167.21,132.58c-11.36,0-20.66,9.22-20.66,22.73v44.54s12.44,10.6,41.31,0v-44.54c0-13.52-9.3-22.73-20.66-22.73Z"/>
          <path class="cls-11" d="m170.71,123.54l2.05,11.71s-12.31,5.31-12.46-.53l2.22-10.94,8.19-.25Z"/>
          <g>
            <path class="cls-33" d="m172.1,113.61h.16c1.08,0,1.96.88,1.96,1.96v6.72c0,1.08-.88,1.96-1.96,1.96h-.16c-1.08,0-1.96-.88-1.96-1.96v-6.72c0-1.08.88-1.96,1.96-1.96Z" transform="translate(13.34 -17.3) rotate(5.98)"/>
            <path class="cls-11" d="m160.55,128.3c1.84.07,7.58-1.72,9.01-2.4,0,0,2.16-1.05,2.23-6.02,0,0,.62.39,1.16-.9.02-.08.03-.15.05-.23l.92-3.06c.66-3.54-1.41-6.93-4.6-7.53l-2.57-.48c-.72-.89-1.61-1.5-2.64-1.69-1.84-.34-3.73.67-5.29,2.56-.09.1.2-.99-.75-.83-2.12.36-2.94,4.21-2.98,7.54-.08,5.51,1.97,12.4,4.77,12.97l.7.08Z"/>
            <path class="cls-33" d="m160.07,110.39s-7.16,3.41-9.12-1.29c0,0-1.97-5.04,3.92-4.43,0,0-.29-6.29,4.28-1.76,0,0,3.36-9.67,7.05.82,0,0,7.45-5.98,3.92,2.88,0,0,9.07-1.72,3.82,2.3,0,0,9.39.14-1.04,10.02,0,0,.85-4.24-2.1.73,0,0,1.29-11.09-10.72-9.26Z"/>
            <path class="cls-11" d="m173.41,118.04c-.43,1.51-1.43,2.55-2.24,2.32-.81-.23-1.13-1.64-.7-3.15.43-1.51,1.43-2.55,2.24-2.32.81.23,1.13,1.64.7,3.15Z"/>
          </g>
          <g>
            <path class="cls-6" d="m178.11,292.43h-12.9c-1.44,0-2.61-1.17-2.61-2.61h0c0-1.44,1.17-2.61,2.61-2.61l12.9-1.84c1.44,0,2.61,3.02,2.61,4.45h0c0,1.44-1.17,2.61-2.61,2.61Z"/>
            <path class="cls-12" d="m179.88,292.58h-16.59c-.44,0-.81-.36-.81-.81h0c0-.44.36-.81.81-.81h16.59c.44,0,.81.36.81.81h0c0,.44-.36.81-.81.81Z"/>
            <path class="cls-12" d="m167.97,289.18h0c-.17,0-.32-.14-.32-.32v-2.13c0-.17.14-.32.32-.32h0c.17,0,.32.14.32.32v2.13c0,.17-.14.32-.32.32Z"/>
            <path class="cls-12" d="m168.92,288.88h0c-.17,0-.32-.14-.32-.32v-2.13c0-.17.14-.32.32-.32h0c.17,0,.32.14.32.32v2.13c0,.17-.14.32-.32.32Z"/>
            <path class="cls-12" d="m170.04,288.61h0c-.17,0-.32-.14-.32-.32v-2.13c0-.17.14-.32.32-.32h0c.17,0,.32.14.32.32v2.13c0,.17-.14.32-.32.32Z"/>
          </g>
          <g>
            <path class="cls-6" d="m154.84,292.43h-12.9c-1.44,0-2.61-1.17-2.61-2.61h0c0-1.44,1.17-2.61,2.61-2.61l12.9-1.84c1.44,0,2.61,3.02,2.61,4.45h0c0,1.44-1.17,2.61-2.61,2.61Z"/>
            <path class="cls-12" d="m156.61,292.58h-16.59c-.44,0-.81-.36-.81-.81h0c0-.44.36-.81.81-.81h16.59c.44,0,.81.36.81.81h0c0,.44-.36.81-.81.81Z"/>
            <path class="cls-12" d="m144.7,289.18h0c-.17,0-.32-.14-.32-.32v-2.13c0-.17.14-.32.32-.32h0c.17,0,.32.14.32.32v2.13c0,.17-.14.32-.32.32Z"/>
            <path class="cls-12" d="m145.66,288.88h0c-.17,0-.32-.14-.32-.32v-2.13c0-.17.14-.32.32-.32h0c.17,0,.32.14.32.32v2.13c0,.17-.14.32-.32.32Z"/>
            <path class="cls-12" d="m146.77,288.61h0c-.17,0-.32-.14-.32-.32v-2.13c0-.17.14-.32.32-.32h0c.17,0,.32.14.32.32v2.13c0,.17-.14.32-.32.32Z"/>
          </g>
          <path class="cls-10" d="m180.05,154.78c1.12,2.58,2.55,5.02,4.27,7.25,2.39,3.1,5.29,5.77,7.76,8.82,1.8,2.23,3.43,4.74,4.24,7.51.94,3.23-1.05,5.34-2.74,8.04-3.72,5.94-8.06,11.44-11.97,17.25.95,1.13,1.89,2.26,2.84,3.39,3.7-5.79,9.62-9.7,14.62-14.4,5-4.7,9.39-11.13,8.42-17.92-.71-4.95-4.1-9.02-7.04-13.07-3.41-4.72-6.35-9.77-9.9-14.4-3.54-4.62-7.8-8.87-13.08-11.33-.92,6.36.02,12.97,2.58,18.86Z"/>
          <polygon class="cls-11" points="181.61 203.65 183.87 206.46 182.18 208.45 179.34 205.07 181.61 203.65"/>
        </g>
        <polygon class="cls-8" points="162.38 136.3 173.71 131.63 177.46 135.3 162.55 144.13 162.21 137.3 157.71 142.55 158.55 134.63 160.71 132.38 162.38 136.3"/>
      </g>
      <g>
        <g>
          <g>
            <g>
              <path class="cls-28" d="m51.09,148.62c0,3.43-2.78,6.21-6.21,6.21s-6.21-2.78-6.21-6.21,2.78-6.21,6.21-6.21,6.21,2.78,6.21,6.21Z"/>
              <path class="cls-6" d="m72.89,175.93v1.52h-1.08c-1.46,0-2.65,1.19-2.65,2.65v4.09c0,1.46,1.19,2.65,2.65,2.65h1.08v.83c0,.36.3.66.66.66h8.95c.36,0,.66-.3.66-.66v-11.74h-10.27Zm-1.08,9.59c-.73,0-1.33-.59-1.33-1.33v-4.09c0-.73.59-1.33,1.33-1.33h1.08v6.74h-1.08Z"/>
              <path class="cls-11" d="m45.29,151.39c3.29.17,11.38,5.96,14.74,7.79,3.07,1.68,6.76,3.19,9.92,1.69,1.72-.82,2.96-2.36,4.13-3.85,2.97-3.76,5.93-7.51,8.9-11.27.43.31.86.63,1.28.94-2.61,5.46-5.22,10.92-7.82,16.38-.8,1.68-1.66,3.43-3.15,4.54-1.38,1.03-3.17,1.39-4.89,1.34-1.72-.05-3.4-.49-5.07-.92-2.37-.62-4.84-1.28-6.67-2.91-2.8-2.49-9.9-10.4-11.37-13.73Z"/>
              <path class="cls-11" d="m82.73,146.49s.92-4.27,5.64-5.5c0,0,1.94-.62-1.19,2.2,0,0-.88,1.06,1.81-.13,2.69-1.19,8.54-4.27,3.57.31,0,0-4.89,4.3-8.7,3.56l-1.17.67.04-1.1Z"/>
              <polygon class="cls-34" points="45.27 149.55 58.32 157.02 56.42 162.83 45.27 149.55"/>
              <path class="cls-28" d="m43.95,124.18c0,3.43-2.78,6.21-6.21,6.21s-6.21-2.78-6.21-6.21,2.78-6.21,6.21-6.21,6.21,2.78,6.21,6.21Z"/>
              <path class="cls-28" d="m33.03,128.84c0,3.43-2.78,6.21-6.21,6.21s-6.21-2.78-6.21-6.21,2.78-6.21,6.21-6.21,6.21,2.78,6.21,6.21Z"/>
              <path class="cls-28" d="m38.01,123.85c0,3.43-2.78,6.21-6.21,6.21s-6.21-2.78-6.21-6.21,2.78-6.21,6.21-6.21,6.21,2.78,6.21,6.21Z"/>
              <path class="cls-28" d="m48.23,130.64c0,3.43-2.78,6.21-6.21,6.21s-6.21-2.78-6.21-6.21,2.78-6.21,6.21-6.21,6.21,2.78,6.21,6.21Z"/>
              <path class="cls-28" d="m50.93,139.46c0,3.43-2.78,6.21-6.21,6.21s-6.21-2.78-6.21-6.21,2.78-6.21,6.21-6.21,6.21,2.78,6.21,6.21Z"/>
              <circle class="cls-28" cx="26.24" cy="151.56" r="6.21"/>
              <path class="cls-28" d="m31.8,142.73c0,3.43-2.78,6.21-6.21,6.21s-6.21-2.78-6.21-6.21,2.78-6.21,6.21-6.21,6.21,2.78,6.21,6.21Z"/>
              <path class="cls-28" d="m31.8,136.2c0,3.43-2.78,6.21-6.21,6.21s-6.21-2.78-6.21-6.21,2.78-6.21,6.21-6.21,6.21,2.78,6.21,6.21Z"/>
              <path class="cls-28" d="m38.34,148.46c0,3.43-2.78,6.21-6.21,6.21s-6.21-2.78-6.21-6.21,2.78-6.21,6.21-6.21,6.21,2.78,6.21,6.21Z"/>
              <path class="cls-26" d="m52.98,193.19s40.91,55.5-30.95,81.12l-.53-3.56s42.16-26.33,21.52-55.15l5.69-25.79,4.27,3.38Z"/>
              <path class="cls-21" d="m33.71,188.45s-17.49,13.05-.42,98.91l3.08.24s5.62-72.42,17-94l-19.67-5.14Z"/>
              <path class="cls-34" d="m42.49,147.3s23.22,15.63,13.61,27.18c0,0-2.36,10.17,0,20.67,0,0-26.92,7.05-25.67-4.52,0,0,9.03-10.42,2.09-19.49,0,0-15.83-16.54,1.6-22.68l8.36-1.16Z"/>
              <path class="cls-11" d="m29,122.74s9.48-3.6,13.19,3.49c0,0,4.23,8.46,3.11,12.26l-.9,3.6s-.33,2.82-4.41,1.47l-6.87-1.47s-.87.63-2.42-.95c0,0-4.25-1.66-5.94-5.09-1.69-3.43-2.72-9.59,4.25-13.3Z"/>
              <path class="cls-11" d="m41.86,143.63l1.02,5.68s2.04,5.79-8.26-1c0,0,.78-3.54-1.51-6.24l-1.55-2.37,10.46,2.7-.16,1.23Z"/>
              <path class="cls-11" d="m35.9,160.11s-2.13,20.99,7.65,21.7l24.9-.36.53,2.13-25.26,4.98s-12.99,2.85-14.94-12.45l-1.42-11.92,8.54-4.09Z"/>
              <path class="cls-34" d="m28.91,151.21s-6.4,3.8-2.13,18.03l11.62-1.54-1.78-10.55s-.24-10.08-7.71-5.93Z"/>
              <path class="cls-11" d="m73.14,182.34c0,1.41-1.38,2.55-3.08,2.55s-3.08-1.14-3.08-2.55,1.38-2.55,3.08-2.55,3.08,1.14,3.08,2.55Z"/>
              <path class="cls-28" d="m37.28,122.74s2.01,15.92-7.03,27.25l-7.24.43s-8.72-26.16,8.94-29.43c0,0,5.01-.93,5.34,1.74Z"/>
              <path class="cls-28" d="m35.89,123.69s7.11,1.06,8.83,7.6l-3.68-9.64-4.9-2.04-2.21,1.72,1.96,2.37Z"/>
            </g>
            <path class="cls-26" d="m31.18,211.26c-.13,0-.27,0-.4,0-.54-.01-.96-.46-.95-1,.01-.54.49-.94,1-.95,8.48.18,9.46-7.59,9.5-7.92.06-.53.55-.92,1.08-.86.53.06.92.54.86,1.07-.01.1-1.16,9.66-11.09,9.66Z"/>
          </g>
          <path class="cls-27" d="m32.4,284.81v3.05s-1.46,1.1-.37,3.42v1.3h1.38v-1.3l1.26,1.26h7.53s.57-1.59-2.28-1.75l-3.55-3.2.7-2.58-4.68-.2Z"/>
          <path class="cls-27" d="m23.64,269.29l-2.71,1.41s-1.65-.79-3.2,1.26l-1.15.6.64,1.23,1.15-.6-.53,1.7,3.48,6.67s1.67-.23.5-2.83l1.19-4.62,2.61-.57-1.98-4.24Z"/>
        </g>
        <polygon class="cls-8" points="34.43 147.5 30.84 150.17 43.26 156.83 43.09 151.83 47.26 154.25 45.28 149.58 42.47 147.06 42.93 151 34.43 147.5"/>
      </g>
      <g>
        <path class="cls-11" d="m348.71,157.31s15.19-10.03,7.32-1.81c0,0-.72,1.18,2.26.54l6.06-2.35s3.25-1.45.45,2.26l-6.15,4.25h-9.13l-.81-2.89Z"/>
        <path class="cls-22" d="m325.14,145.14l5.83,14.58s.51,2.7,4.84,1.37l13.73-6,2.75,6s-9.38,5.56-24,11.93c-2.24.98-6.24,1.37-8.75,2.25l5.59-30.12Z"/>
        <path class="cls-26" d="m324.23,199.24s4.33,25.89,10.33,87.22l-6.17-.25s-14-46.75-23.06-73.15l3.69-19.81,15.21,5.99Z"/>
        <path class="cls-21" d="m288.75,198.47s-2.15,3.38.92,12.59c0,0,3.99,43.47,6.76,75.72h6.45s9.06-74.34,7.99-87.54l-22.12-.77Z"/>
        <path class="cls-3" d="m306.57,132.58c11.36,0,20.66,9.22,20.66,22.73v44.54s-12.44,10.6-41.31,0v-44.54c0-13.52,9.3-22.73,20.66-22.73Z"/>
        <g>
          <path class="cls-3" d="m295.67,292.43h12.9c1.44,0,2.61-1.18,2.61-2.61h0c0-1.44-1.17-2.61-2.61-2.61l-12.9-1.84c-1.44,0-2.61,3.02-2.61,4.45h0c0,1.44,1.17,2.61,2.61,2.61Z"/>
          <path class="cls-17" d="m293.9,292.58h16.59c.44,0,.81-.36.81-.81h0c0-.44-.36-.81-.81-.81h-16.59c-.44,0-.81.36-.81.81h0c0,.44.36.81.81.81Z"/>
          <path class="cls-17" d="m305.81,289.18h0c.17,0,.32-.14.32-.32v-2.13c0-.17-.14-.32-.32-.32h0c-.17,0-.32.14-.32.32v2.13c0,.17.14.32.32.32Z"/>
          <path class="cls-17" d="m304.85,288.88h0c.17,0,.32-.14.32-.32v-2.13c0-.17-.14-.32-.32-.32h0c-.17,0-.32.14-.32.32v2.13c0,.17.14.32.32.32Z"/>
          <path class="cls-17" d="m303.74,288.61h0c.17,0,.32-.14.32-.32v-2.13c0-.17-.14-.32-.32-.32h0c-.17,0-.32.14-.32.32v2.13c0,.17.14.32.32.32Z"/>
        </g>
        <g>
          <path class="cls-3" d="m328.27,292.43h12.9c1.44,0,2.61-1.18,2.61-2.61h0c0-1.44-1.17-2.61-2.61-2.61l-12.9-1.84c-1.44,0-2.61,3.02-2.61,4.45h0c0,1.44,1.17,2.61,2.61,2.61Z"/>
          <path class="cls-17" d="m326.5,292.58h16.59c.44,0,.81-.36.81-.81h0c0-.44-.36-.81-.81-.81h-16.59c-.44,0-.81.36-.81.81h0c0,.44.36.81.81.81Z"/>
          <path class="cls-17" d="m338.41,289.18h0c.17,0,.32-.14.32-.32v-2.13c0-.17-.14-.32-.32-.32h0c-.17,0-.32.14-.32.32v2.13c0,.17.14.32.32.32Z"/>
          <path class="cls-17" d="m337.45,288.88h0c.17,0,.32-.14.32-.32v-2.13c0-.17-.14-.32-.32-.32h0c-.17,0-.32.14-.32.32v2.13c0,.17.14.32.32.32Z"/>
          <path class="cls-17" d="m336.34,288.61h0c.17,0,.32-.14.32-.32v-2.13c0-.17-.14-.32-.32-.32h0c-.17,0-.32.14-.32.32v2.13c0,.17.14.32.32.32Z"/>
        </g>
        <path class="cls-35" d="m299.13,132.71s16,1.67,15.67,23.67l-.25,42.08s-1,16.75-30.75,10.5c0,0,.25-34.5,1.67-52.25,0,0-.67-17.33,13.67-24Z"/>
        <path class="cls-35" d="m310.59,132.3s13.33,5.67,13.33,25.67v45.5s5.42-2.33,4.92-8.67l-1-38s.33-19.33-17.25-24.5Z"/>
        <path class="cls-22" d="m312.92,133.96s10.21,4.92,10.88,21.75v15.5s3-13.75,2.38-21.25c0,0-.88-13.38-13.38-18l.12,2Z"/>
        <path class="cls-11" d="m303.07,123.54l-2.05,11.71s12.31,5.31,12.46-.53l-2.22-10.94-8.19-.25Z"/>
        <g>
          <path class="cls-11" d="m313.23,128.3c-1.84.07-7.58-1.72-9.01-2.4,0,0-2.16-1.05-2.23-6.02,0,0-.62.39-1.16-.9-.02-.08-.03-.15-.05-.23l-.92-3.06c-.66-3.54,1.41-6.93,4.6-7.53l2.57-.48c.72-.89,1.61-1.5,2.64-1.69,1.84-.34,3.73.67,5.29,2.56.09.1-.2-.99.75-.83,2.12.36,2.94,4.21,2.98,7.54.08,5.51-1.97,12.4-4.77,12.97l-.7.08Z"/>
          <path class="cls-11" d="m300.36,118.04c.43,1.51,1.43,2.55,2.24,2.32.81-.23,1.13-1.64.7-3.15-.43-1.51-1.43-2.55-2.24-2.32-.81.23-1.13,1.64-.7,3.15Z"/>
        </g>
        <path class="cls-36" d="m304.9,119.87s.33-2.58-.92-5.17c-1.25-2.58,2.92-2.08,2.92-2.08,0,0,16.83,1.83,13.83-7.08-3-8.92-8.5-1.25-8.5-1.25,0,0-5.25-3.92-7.08,1.25,0,0-12.73.81-8.06,11.73,0,0,1,6.31,5.44,9.56l.56-2.56v-3.75s1.69,2.4,1.81-.65Z"/>
        <path class="cls-11" d="m302.82,119.52c.83,1.33.93,2.77.21,3.22-.72.45-1.97-.27-2.8-1.6-.83-1.33-.93-2.77-.21-3.22s1.97.27,2.8,1.6Z"/>
        <path class="cls-22" d="m301.92,129.77s1.77,1.43,4.75,4.75c3.38,3.75,8,7.19,8.12,20.44l-.12,20.22s-1.46-12.3-4.88-25.64c-2.07-8.09-8.64-14.09-16.25-13.58l8.38-6.19Z"/>
        <g>
          <g>
            <path class="cls-17" d="m331.48,173.76v1.95h-1.38c-1.87,0-3.39,1.52-3.39,3.39v5.22c0,1.87,1.52,3.39,3.39,3.39h1.38v1.06c0,.47.38.85.85.85h11.43c.47,0,.85-.38.85-.85v-14.99h-13.12Zm-1.38,12.24c-.93,0-1.69-.76-1.69-1.69v-5.22c0-.93.76-1.69,1.69-1.69h1.38v8.6h-1.38Z"/>
            <path class="cls-11" d="m331.8,181.95c0,1.8-1.76,3.26-3.94,3.26s-3.94-1.46-3.94-3.26,1.76-3.26,3.94-3.26,3.94,1.46,3.94,3.26Z"/>
            <rect class="cls-11" x="322.05" y="179.87" width="4.63" height="4.37"/>
          </g>
          <path class="cls-32" d="m292.01,143.36c-.44.37-.83.78-1.18,1.23-3.14,4-4.25,10.23-5.28,15.07-1.2,5.65-1.95,11.4-2.23,17.16-.11,2.22-.04,4.72,1.58,6.25,1.42,1.34,3.57,1.47,5.52,1.51,10.64.26,23.99,1.68,34.63,1.94.24-2.16.26-5.53.5-7.69-7.61-1.76-17.7-3.47-25.31-5.23-1.32-.3-2.78-.72-3.44-1.89-1.01-1.8.5-3.9,1.71-5.56,3.41-4.68,5-10.66,4.37-16.42-.37-3.39-1.99-7.19-5.31-7.99-1.96-.48-4.01.29-5.57,1.62Z"/>
        </g>
      </g>
      <g>
        <g>
          <g>
            <g>
              <g>
                <g>
                  <g>
                    <path class="cls-24" d="m224.6,128.58h32.4c4.31,0,7.81,3.5,7.81,7.81v52.64c0,4.31-3.5,7.81-7.81,7.81h-32.4c-4.31,0-7.81-3.5-7.81-7.81v-52.64c0-4.31,3.5-7.81,7.81-7.81Z"/>
                    <path class="cls-13" d="m227.06,193.08h0c-2.78,0-5.06-2.28-5.06-5.06v-50.62c0-2.78,2.28-5.06,5.06-5.06h0c2.78,0,5.06,2.28,5.06,5.06v50.62c0,2.78-2.28,5.06-5.06,5.06Z"/>
                  </g>
                  <g>
                    <g>
                      <path class="cls-23" d="m265.1,139.64h-48.59c-.66,0-1.19-.54-1.19-1.19h0c0-.66.54-1.19,1.19-1.19h48.59c.66,0,1.19.54,1.19,1.19h0c0,.66-.54,1.19-1.19,1.19Z"/>
                      <path class="cls-23" d="m265.1,143.47h-48.59c-.66,0-1.19-.54-1.19-1.19h0c0-.66.54-1.19,1.19-1.19h48.59c.66,0,1.19.54,1.19,1.19h0c0,.66-.54,1.19-1.19,1.19Z"/>
                    </g>
                    <g>
                      <path class="cls-23" d="m265.1,184.33h-48.59c-.66,0-1.19-.54-1.19-1.19h0c0-.66.54-1.19,1.19-1.19h48.59c.66,0,1.19.54,1.19,1.19h0c0,.66-.54,1.19-1.19,1.19Z"/>
                      <path class="cls-23" d="m265.1,188.16h-48.59c-.66,0-1.19-.54-1.19-1.19h0c0-.66.54-1.19,1.19-1.19h48.59c.66,0,1.19.54,1.19,1.19h0c0,.66-.54,1.19-1.19,1.19Z"/>
                    </g>
                  </g>
                </g>
                <rect class="cls-24" x="223.95" y="195.76" width="33.7" height="4.84"/>
              </g>
              <path class="cls-35" d="m262.78,203.43c-.89-2.04-2.92-3.47-5.27-3.47h-33.41c-2.35,0-4.39,1.43-5.27,3.47h43.95Z"/>
            </g>
            <rect class="cls-15" x="209.06" y="203" width="63.49" height="89.58" rx="4.67" ry="4.67"/>
            <rect class="cls-35" x="214.99" y="212.11" width="51.63" height="35.14"/>
          </g>
          <g>
            <g>
              <g>
                <g>
                  <rect class="cls-15" x="225.51" y="223.28" width="3.04" height="3.36"/>
                  <g>
                    <rect class="cls-15" x="224.1" y="211.84" width="5.86" height="11.93"/>
                    <rect class="cls-4" x="224.1" y="219.92" width="5.86" height="3.9"/>
                  </g>
                </g>
                <rect class="cls-4" x="221.49" y="208.65" width="11.06" height="2.02"/>
              </g>
              <g>
                <g>
                  <rect class="cls-15" x="253.06" y="223.28" width="3.04" height="3.36"/>
                  <g>
                    <rect class="cls-15" x="251.65" y="211.84" width="5.86" height="11.93"/>
                    <rect class="cls-23" x="251.65" y="219.92" width="5.86" height="3.9"/>
                  </g>
                </g>
                <rect class="cls-23" x="249.04" y="208.65" width="11.06" height="2.02"/>
              </g>
            </g>
            <rect class="cls-14" x="224.11" y="212.11" width="5.86" height="2.13"/>
            <rect class="cls-14" x="251.67" y="212.13" width="5.86" height="2.13"/>
          </g>
          <rect class="cls-30" x="215.06" y="238.86" width="51.49" height="8.39"/>
        </g>
        <g>
          <rect class="cls-5" x="216.36" y="255.35" width="48.88" height="24.3" rx="5.21" ry="5.21"/>
          <g>
            <rect class="cls-15" x="221.85" y="258.75" width="16.7" height="2.6"/>
            <rect class="cls-15" x="221.85" y="263.23" width="24.15" height="2.6"/>
          </g>
        </g>
      </g>
      <path class="cls-8" d="m102.96,145.76c-.32.59-.67,1.18-.99,1.81-1.25,2.44-1.87,5.09-1.29,7.81-2.04-1.28-3.33-3.71-3.14-6.11.18-2.32,1.59-4.33,2.65-6.4,1.06-2.07,1.78-4.65.6-6.65,1.63.88,2.85,2.49,3.27,4.29.48,2.08-.22,3.64-1.1,5.25Z"/>
      <path class="cls-8" d="m342.05,163.51c-.32.59-.67,1.18-.99,1.81-1.25,2.44-1.87,5.09-1.29,7.81-2.04-1.28-3.33-3.71-3.14-6.11.18-2.32,1.59-4.33,2.65-6.4s1.78-4.65.6-6.65c1.63.88,2.85,2.49,3.27,4.29.48,2.08-.22,3.64-1.1,5.25Z"/>
      <path class="cls-8" d="m381.55,147.51c-.32.59-.67,1.18-.99,1.81-1.25,2.44-1.87,5.09-1.29,7.81-2.04-1.28-3.33-3.71-3.14-6.11.18-2.32,1.59-4.33,2.65-6.4s1.78-4.65.6-6.65c1.63.88,2.85,2.49,3.27,4.29.48,2.08-.22,3.64-1.1,5.25Z"/>
      <path class="cls-8" d="m82.49,167.31c-.26.48-.54.96-.8,1.47-1.01,1.98-1.52,4.14-1.05,6.35-1.65-1.04-2.7-3.02-2.56-4.97.14-1.89,1.29-3.52,2.16-5.2.86-1.68,1.45-3.78.49-5.41,1.32.72,2.32,2.02,2.66,3.49.39,1.69-.18,2.96-.9,4.27Z"/>
    </g>
    <g>
      <path class="cls-9" d="m41.77,130.16c-.25.08-.43.3-.59.5-.17.21-.32.44-.44.68-.24.47-.39.99-.43,1.52-.08,1.09.39,2.14,1.21,2.86.45.4,1.05.79,1.67.77.18,0,.19-.22.06-.31-.27-.18-.56-.29-.83-.44-.27-.15-.51-.34-.73-.56-.42-.42-.73-.96-.85-1.55-.12-.57-.05-1.19.15-1.73.11-.29.25-.57.42-.82.16-.24.42-.46.53-.73.04-.11-.05-.23-.16-.19h0Z"/>
      <path class="cls-9" d="m43.16,136.19c-.11.26-.23.5-.32.77-.09.28-.19.56-.28.84-.09.26.35.36.43.09.07-.27.15-.54.22-.81.07-.27.11-.54.16-.82.02-.12-.15-.19-.2-.07h0Z"/>
      <path class="cls-31" d="m36.95,133.61s0,0,0,0c-.05.06-.08.16-.04.23.05.1.1.21.14.32.02.07.03.14.03.21,0,.1-.06.12.06.12.12,0,.08-.01.04-.11-.02-.07-.04-.14-.06-.2-.02-.07-.04-.14-.05-.21,0-.03,0-.06-.01-.08,0-.11-.02-.11-.07,0l-.16.05c-.09-.05-.12-.05-.08,0,.02.03.03.06.04.09.03.07.05.14.07.21.03.14.03.28.02.42-.03.36.59.41.64.05.04-.25.03-.5-.06-.75-.07-.21-.19-.49-.4-.6-.22-.12-.49-.02-.58.21-.1.24,0,.57.08.81.06.21.14.46.33.6.19.13.44.1.59-.08.3-.35.15-1.03-.2-1.29-.08-.06-.2-.08-.28-.02-.01.01-.03.02-.04.03h0Z"/>
      <path class="cls-31" d="m43.15,131.98c.02.11.03.21.05.32.02.09.02.22.05.3,0,.02,0,.04,0,.05.07-.01.14-.02.21-.03,0-.01-.05-.12-.06-.14-.04-.11-.06-.21-.06-.32,0-.04.01-.12,0-.15.02-.07-.02-.07-.12,0-.11,0-.14,0-.11.05,0,.05.06.16.08.21.04.17.03.34-.03.51-.14.37.4.65.56.28.18-.43.18-.95-.11-1.34-.13-.18-.37-.3-.59-.2-.25.11-.26.4-.24.64.03.32.24,1.15.72.93.49-.22.15-.96-.05-1.25-.11-.16-.33-.03-.29.15h0Z"/>
      <path class="cls-18" d="m43.87,139.16c-.51.71-1.29,1.27-2.19,1.25-.41,0-.81-.12-1.16-.31-.36-.2-.66-.49-.95-.77-.15-.14-.43.04-.34.23.11.23.22.42.42.59.19.16.39.3.61.41.43.21.93.32,1.41.29.98-.07,1.97-.67,2.31-1.61.02-.06-.06-.14-.11-.07h0Z"/>
    </g>
    <g>
      <path class="cls-9" d="m158.13,112.91c.31,0,.6.18.85.34.27.17.52.37.75.59.45.43.8.96,1.04,1.53.5,1.19.36,2.52-.27,3.63-.35.61-.87,1.28-1.57,1.48-.2.06-.29-.18-.18-.32.23-.3.51-.53.76-.8.24-.27.44-.57.61-.9.31-.63.45-1.34.36-2.04-.08-.68-.39-1.34-.82-1.87-.23-.28-.49-.54-.77-.76-.27-.21-.64-.35-.87-.62-.09-.1-.03-.27.11-.27h0Z"/>
      <path class="cls-9" d="m158.85,120.15c.22.25.44.48.65.74.21.27.42.55.62.83.19.26-.26.53-.44.26-.18-.27-.37-.54-.55-.82-.18-.28-.33-.56-.48-.85-.07-.12.1-.27.2-.15h0Z"/>
      <path class="cls-31" d="m164.79,114.93s0,0,0,0c.08.04.14.15.14.24-.01.13-.04.27-.03.4,0,.08.01.16.04.24.04.11.11.11-.03.15-.13.04-.09.02-.09-.11,0-.08,0-.17,0-.25,0-.09-.01-.17-.03-.25,0-.03-.01-.07-.02-.1-.05-.12-.02-.13.08-.04h.2c.08-.09.11-.1.09-.03,0,.04-.01.07-.01.11,0,.08,0,.17,0,.26.02.16.08.33.14.48.16.39-.5.67-.69.29-.14-.27-.22-.55-.22-.85,0-.26.03-.61.22-.81.2-.21.54-.21.73.01.2.23.21.64.21.93,0,.26.01.57-.15.79-.16.22-.45.27-.69.14-.47-.27-.55-1.08-.26-1.51.07-.09.19-.17.31-.13.02,0,.04.01.06.02h0Z"/>
      <path class="cls-31" d="m157.28,115.45c.01.13.04.25.06.38.02.1.07.26.06.36,0,.02.02.04.02.06-.08.01-.16.03-.24.04-.01,0,.01-.16.01-.18,0-.13-.02-.26-.05-.39-.01-.04-.06-.13-.05-.16-.04-.07,0-.09.13-.05.12-.05.16-.05.14.02.02.05-.01.2,0,.26.02.2.09.4.22.55.3.36-.21.87-.52.52-.36-.41-.56-.99-.38-1.53.08-.25.3-.48.58-.45.32.03.44.35.5.62.09.37.16,1.37-.45,1.31-.62-.06-.53-1.01-.41-1.41.07-.22.36-.16.38.05h0Z"/>
      <path class="cls-18" d="m159.18,123.72c.84.59,1.91.92,2.91.57.45-.16.85-.43,1.17-.78.32-.35.55-.8.77-1.22.11-.21.49-.12.47.13-.03.3-.09.55-.24.82-.15.25-.33.48-.53.68-.4.4-.91.71-1.47.85-1.11.29-2.44,0-3.17-.92-.05-.06.02-.17.09-.12h0Z"/>
    </g>
    <g>
      <path class="cls-9" d="m315.27,114.76c-.26.02-.49.19-.69.35-.21.16-.41.35-.59.55-.35.4-.61.86-.77,1.36-.33,1.04-.12,2.15.49,3.04.34.49.82,1.01,1.43,1.14.17.03.23-.17.13-.28-.22-.23-.47-.41-.7-.62-.22-.21-.42-.45-.58-.71-.31-.51-.48-1.1-.45-1.69.02-.58.23-1.16.55-1.64.17-.25.37-.49.6-.69.22-.2.51-.34.69-.58.07-.09,0-.23-.11-.22h0Z"/>
      <path class="cls-9" d="m315.18,120.91c-.17.22-.34.43-.49.67-.16.25-.31.5-.47.74-.14.23.25.43.39.18.13-.24.27-.49.4-.73.13-.25.23-.5.35-.75.05-.11-.1-.22-.18-.12h0Z"/>
      <path class="cls-31" d="m309.8,116.95s0,0,0,0c-.06.04-.11.13-.1.21.02.11.05.22.06.34,0,.07,0,.14-.02.21-.03.09-.09.1.04.13.11.03.08,0,.07-.1,0-.07-.01-.14-.01-.21,0-.07,0-.14,0-.22,0-.03,0-.06,0-.08.03-.11.01-.11-.07-.02h-.16c-.08-.06-.1-.06-.08,0,.01.03.02.06.02.09.01.07.02.15.01.22,0,.14-.04.28-.08.41-.11.34.47.53.6.2.09-.24.14-.48.12-.73-.02-.22-.07-.51-.25-.67-.19-.16-.47-.14-.61.06-.15.21-.13.55-.11.8.01.22.03.48.18.66.15.17.4.2.59.07.38-.27.39-.95.11-1.29-.06-.08-.17-.13-.27-.08-.02,0-.03.02-.05.02h0Z"/>
      <path class="cls-31" d="m316.17,116.84c0,.11-.02.22-.03.32,0,.09-.04.22-.02.3,0,.02-.01.03-.02.05.07,0,.14.01.21.02,0,0-.02-.13-.02-.15-.01-.11,0-.22.01-.33,0-.03.04-.11.03-.14.03-.06,0-.07-.11-.03-.1-.03-.14-.03-.11.03-.02.04.02.17.02.22,0,.17-.05.34-.15.48-.22.32.24.72.47.4.27-.37.4-.87.21-1.32-.09-.2-.29-.38-.52-.34-.27.05-.34.33-.38.56-.05.31-.04,1.16.47,1.07.52-.1.38-.89.24-1.22-.07-.18-.31-.11-.32.07h0Z"/>
      <path class="cls-18" d="m315.17,123.95c-.66.56-1.54.92-2.41.69-.39-.1-.75-.3-1.05-.58-.3-.27-.52-.63-.74-.97-.11-.17-.42-.07-.38.14.05.25.11.46.26.67.14.2.31.38.5.54.37.31.82.53,1.3.61.96.16,2.06-.18,2.61-1.01.04-.06-.03-.15-.09-.09h0Z"/>
    </g>
    <g>
      <path class="cls-9" d="m423.42,116.63c.26,0,.51.15.72.29.23.15.44.32.64.5.38.37.69.81.89,1.3.42,1.01.31,2.15-.23,3.1-.3.52-.74,1.09-1.33,1.27-.17.05-.25-.15-.16-.27.2-.25.44-.45.65-.69.21-.23.38-.49.52-.76.27-.53.38-1.15.31-1.74-.07-.58-.33-1.14-.7-1.6-.19-.24-.42-.46-.66-.64-.23-.18-.54-.3-.74-.52-.08-.09-.03-.23.1-.23h0Z"/>
      <path class="cls-9" d="m424.05,122.8c.19.21.38.41.55.63.18.23.36.47.53.71.17.22-.22.45-.38.22-.16-.23-.31-.46-.47-.7-.16-.24-.28-.48-.41-.73-.06-.1.09-.23.17-.13h0Z"/>
      <path class="cls-31" d="m429.1,118.35s0,0,0,0c.07.04.12.12.12.2-.01.11-.03.23-.03.34,0,.07.01.14.04.2.03.09.1.09-.02.13-.11.04-.08.01-.08-.09,0-.07,0-.14,0-.21,0-.07-.01-.14-.02-.22,0-.03-.01-.06-.02-.08-.04-.1-.02-.11.07-.03h.17c.07-.08.1-.09.07-.02,0,.03-.01.06-.01.1,0,.07,0,.15,0,.22.02.14.07.28.12.41.14.34-.43.57-.59.25-.12-.23-.18-.47-.19-.73,0-.22.03-.52.19-.69.17-.18.46-.18.62,0,.17.2.18.55.18.79,0,.22.01.49-.12.67-.14.19-.39.23-.59.12-.4-.23-.47-.92-.22-1.28.06-.08.16-.14.26-.11.02,0,.03.01.05.02h0Z"/>
      <path class="cls-31" d="m422.7,118.8c.01.11.04.21.05.32.01.09.06.22.05.3,0,.02.01.03.02.05-.07.01-.14.02-.21.04,0,0,0-.13,0-.15,0-.11-.01-.22-.04-.33,0-.03-.05-.11-.05-.14-.04-.06,0-.07.11-.04.1-.04.14-.04.12.02.02.04,0,.17,0,.22.02.17.08.34.19.47.25.3-.17.74-.44.44-.31-.35-.48-.84-.33-1.3.07-.21.26-.41.5-.38.27.03.37.3.43.53.07.31.14,1.16-.38,1.11-.53-.05-.45-.86-.35-1.21.06-.19.31-.14.33.04h0Z"/>
      <path class="cls-18" d="m424.33,125.84c.71.5,1.63.79,2.48.48.38-.14.73-.37,1-.67.27-.3.47-.68.65-1.04.09-.18.42-.1.4.11-.03.26-.07.47-.21.7-.12.21-.28.41-.45.58-.34.34-.78.6-1.25.73-.95.25-2.08,0-2.71-.79-.04-.05.01-.15.08-.1h0Z"/>
    </g>
  </g>
</svg>