<?xml version="1.0" encoding="UTF-8"?>
<svg xmlns="http://www.w3.org/2000/svg" viewBox="0 0 410.75 343.67">
  <defs>
    <style>
      .cls-1 {
        fill: #f2f9ee;
      }

      .cls-2 {
        fill: #f5d0bb;
      }

      .cls-3 {
        fill: #fff;
      }

      .cls-4 {
        fill: #f2bfa1;
      }

      .cls-5 {
        fill: #6595bd;
      }

      .cls-6 {
        fill: #333;
      }

      .cls-7 {
        fill: #b1d8da;
      }

      .cls-8 {
        fill: #d3494c;
      }

      .cls-9 {
        fill: #dee2e2;
      }

      .cls-10 {
        fill: #233454;
      }

      .cls-11 {
        fill: #527a99;
      }

      .cls-12 {
        fill: #3a527a;
      }

      .cls-13 {
        fill: #78a3a6;
      }

      .cls-14 {
        fill: #d5ad96;
        mix-blend-mode: multiply;
      }

      .cls-15 {
        isolation: isolate;
      }
    </style>
  </defs>
  <g class="cls-15">
    <g id="Layer_2" data-name="Layer 2">
      <g id="Layer_1-2" data-name="Layer 1">
        <g>
          <path class="cls-11" d="m86.5,245.25c1.38,5.77,2.27,11.64,2.65,17.57l4.57,70.29h130.25v-79.15c0-21.18-17.17-38.35-38.35-38.35h-95.3c-5.55,0-9.62,5.37-8.29,10.93l4.48,18.71Z"/>
          <path class="cls-5" d="m86.5,245.25c1.38,5.77,2.26,11.64,2.66,17.57l4.56,70.29h19.38l-4.57-70.29c-.38-5.92-1.26-11.8-2.64-17.57l-4.48-18.7c-1.33-5.57-2.53-9.6-5.31-10.94h-5.77c-5.55,0-9.63,5.37-8.3,10.94l4.48,18.7Z"/>
        </g>
        <g>
          <g>
            <path class="cls-8" d="m78.54,255.84h-5.7c-.79,0-1.49.64-1.72,1.56l-8.89,36.87h-10.59c-.8,0-1.45.79-1.45,1.76v34.99c0,.97.65,1.76,1.45,1.76h26.9v-76.95Z"/>
            <path class="cls-8" d="m78.54,255.84h15.91c1.9,0,3.44,1.54,3.44,3.44v70.06c0,1.9-1.54,3.44-3.44,3.44h-15.91v-76.95h0Z"/>
            <g>
              <rect class="cls-3" x="83.9" y="279.85" width="9.29" height="33.51"/>
              <rect class="cls-3" x="83.9" y="316.57" width="9.29" height="2.56"/>
              <rect class="cls-3" x="83.9" y="321.35" width="9.29" height="2.56"/>
              <circle class="cls-3" cx="88.54" cy="271.75" r="4.39"/>
            </g>
          </g>
          <g>
            <path class="cls-7" d="m37.25,255.84h30.68c1.27,0,2.31,1.03,2.31,2.31v68.14c0,1.27-1.03,2.31-2.31,2.31h-30.68c-1.27,0-2.31-1.03-2.31-2.31v-68.14c0-1.27,1.03-2.31,2.31-2.31Z"/>
            <path class="cls-10" d="m59.17,255.84h-5.7c-.79,0-1.49.64-1.72,1.56l-8.89,36.87h-10.59c-.8,0-1.45.79-1.45,1.76v34.99c0,.97.65,1.76,1.45,1.76h26.9v-76.95Z"/>
            <path class="cls-12" d="m59.17,255.84h15.91c1.9,0,3.44,1.54,3.44,3.44v70.06c0,1.9-1.54,3.44-3.44,3.44h-15.91v-76.95h0Z"/>
            <g>
              <rect class="cls-3" x="64.53" y="279.85" width="9.29" height="33.51"/>
              <rect class="cls-3" x="64.53" y="316.57" width="9.29" height="2.56"/>
              <rect class="cls-3" x="64.53" y="321.35" width="9.29" height="2.56"/>
              <circle class="cls-3" cx="69.17" cy="271.75" r="4.39"/>
            </g>
          </g>
        </g>
        <g>
          <g>
            <g>
              <path class="cls-7" d="m127.89,144.01c-.19,0-.38-.08-.53-.23-.27-.29-.25-.74.04-1.01.89-.83,1.77-1.64,2.62-2.44.29-.27.74-.26,1.01.03.27.29.26.74-.03,1.01-.86.8-1.73,1.62-2.63,2.45-.14.13-.31.19-.49.19Z"/>
              <path class="cls-7" d="m135.54,136.78c-.19,0-.38-.07-.52-.22-.27-.29-.27-.74.02-1.01,1.71-1.64,3.37-3.27,4.96-4.84.28-.28.73-.28,1.01,0,.28.28.28.73,0,1.01-1.59,1.58-3.26,3.21-4.97,4.86-.14.13-.32.2-.5.2Zm9.85-9.78c-.18,0-.36-.07-.5-.2-.28-.28-.29-.73-.01-1.01,1.66-1.71,3.27-3.4,4.77-5.02.27-.29.72-.31,1.01-.04.29.27.31.72.04,1.01-1.51,1.63-3.12,3.32-4.79,5.04-.14.14-.33.22-.51.22Zm9.43-10.18c-.17,0-.34-.06-.47-.18-.3-.26-.33-.71-.07-1.01,1.59-1.81,3.09-3.59,4.46-5.28.25-.31.7-.35,1.01-.1.31.25.35.7.1,1.01-1.38,1.7-2.9,3.49-4.5,5.32-.14.16-.34.24-.54.24Zm8.71-10.79c-.15,0-.29-.04-.42-.14-.32-.23-.39-.68-.16-1,1.43-1.96,2.7-3.83,3.86-5.7.21-.34.65-.44.99-.23.34.21.44.65.23.99-1.19,1.9-2.47,3.79-3.92,5.78-.14.19-.36.29-.58.29Zm7.32-11.76c-.11,0-.23-.03-.33-.08-.35-.18-.49-.62-.3-.97.31-.59.6-1.15.88-1.69.6-1.17,1.17-2.27,1.75-3.3.02-.04.04-.07.06-.11-.54-.36-1.03-.79-1.48-1.28-.27-.29-.25-.74.04-1.01.29-.27.74-.25,1.01.04.37.4.77.74,1.17,1.02.22-.18.54-.22.81-.08.27.15.4.44.36.73,1.15.5,2.31.64,3.23.64h.12c.42.01.72.31.73.71,0,.4-.31.72-.71.73h-.14c-1.41,0-2.72-.27-3.89-.8-.02.04-.04.08-.07.12-.57,1.01-1.13,2.1-1.73,3.25-.28.55-.57,1.11-.88,1.7-.13.24-.38.38-.64.38Zm13.85-6.76c-.23,0-.45-.11-.59-.31-.22-.33-.14-.77.19-1,.87-.59,1.6-1.29,2.12-2.01.35-.48.53-1.14.53-1.89,0-.37-.05-.75-.13-1.14-.09-.39.15-.77.53-.86.39-.09.77.15.86.53.12.49.17.98.17,1.46,0,1.05-.28,2-.8,2.73-.61.86-1.47,1.67-2.48,2.36-.12.08-.26.12-.4.12Zm-7.29-5.46c-.12,0-.25-.03-.36-.1-.34-.2-.46-.64-.25-.98,1.48-2.53,2.95-4.17,5.66-4.57.39-.06.76.21.81.61.06.39-.21.76-.61.81-1.93.28-3.1,1.26-4.63,3.88-.13.23-.37.35-.62.35Zm-8.15-1.27c-.35,0-.66-.26-.71-.61-.16-1.06-.24-2.22-.24-3.44,0-1.15.07-2.38.21-3.66.04-.39.4-.67.79-.64.39.04.68.4.64.79-.13,1.23-.2,2.41-.2,3.51,0,1.15.07,2.24.22,3.23.06.39-.21.76-.6.81-.04,0-.07,0-.11,0Zm1.44-13.7c-.08,0-.16-.01-.23-.04-.37-.13-.57-.54-.44-.91.7-2.01,1.66-4.18,2.87-6.44.19-.35.62-.48.97-.29.35.19.48.62.29.97-1.17,2.2-2.11,4.29-2.78,6.23-.1.3-.38.48-.68.48Zm6.4-12.29c-.14,0-.27-.04-.4-.12-.33-.22-.42-.66-.2-.99,1.23-1.85,2.6-3.76,4.08-5.68.24-.31.69-.37,1.01-.13.31.24.37.69.13,1.01-1.46,1.9-2.81,3.78-4.03,5.6-.14.21-.37.32-.6.32Z"/>
              <path class="cls-7" d="m185.65,43.7c-.17,0-.33-.06-.47-.18-.3-.26-.33-.71-.07-1.01,1.46-1.67,2.39-2.64,2.42-2.68.27-.29.73-.29,1.01-.02.29.27.3.73.02,1.01,0,0-.95.99-2.38,2.63-.14.16-.34.25-.54.25Z"/>
            </g>
            <g>
              <polygon class="cls-7" points="193.97 22.91 193.35 36.17 202.77 29.78 212.99 38.61 230.41 7.52 186.69 16.11 193.97 22.91"/>
              <polygon class="cls-13" points="202.77 29.78 230.41 7.52 193.97 22.91 193.35 36.17 202.77 29.78"/>
            </g>
          </g>
          <g>
            <polygon class="cls-7" points="73.77 54.04 129.08 39.64 133.99 83.27 77.98 97.21 73.77 54.04"/>
            <path class="cls-10" d="m83.56,55.01h0c-1.73-.02-3.06-1.05-3.56-2.77-.34-1.18-.2-2.4.37-3.25.49-.73,1.28-1.17,2.26-1.28,2.42-.25,3.37,1.82,3.53,2.95.03.21-.12.41-.33.44-.22.03-.41-.12-.45-.33-.02-.1-.41-2.52-2.68-2.28-.76.08-1.32.39-1.69.93-.45.66-.55,1.63-.27,2.59.39,1.37,1.44,2.19,2.81,2.2.22,0,.39.18.39.4,0,.22-.18.39-.39.39Z"/>
            <path class="cls-10" d="m92.61,52.66h0c-1.73-.02-3.06-1.05-3.56-2.77-.34-1.18-.2-2.4.37-3.25.49-.73,1.28-1.17,2.26-1.28,2.42-.25,3.37,1.82,3.53,2.95.03.21-.12.41-.33.44-.21.03-.41-.12-.45-.33-.02-.1-.41-2.52-2.68-2.28-.76.08-1.32.39-1.69.93-.45.66-.55,1.63-.27,2.59.39,1.37,1.44,2.19,2.81,2.2.22,0,.39.18.39.4,0,.22-.18.39-.39.39Z"/>
            <path class="cls-10" d="m101.65,50.31h0c-1.73-.02-3.06-1.05-3.56-2.77-.34-1.18-.2-2.4.37-3.25.49-.73,1.28-1.17,2.26-1.28,2.42-.24,3.37,1.82,3.53,2.95.03.21-.12.41-.33.44-.22.03-.41-.12-.45-.33-.02-.1-.41-2.52-2.68-2.28-.76.08-1.32.39-1.69.93-.45.66-.55,1.63-.27,2.59.39,1.37,1.44,2.19,2.81,2.2.22,0,.39.18.39.4,0,.22-.18.39-.39.39Z"/>
            <path class="cls-10" d="m110.69,47.96h0c-1.73-.02-3.06-1.05-3.56-2.77-.34-1.18-.2-2.4.37-3.25.49-.73,1.28-1.17,2.26-1.28,2.42-.25,3.37,1.82,3.53,2.95.03.21-.12.41-.33.44-.21.03-.41-.12-.45-.33-.02-.1-.41-2.52-2.68-2.28-.76.08-1.32.39-1.69.93-.45.66-.55,1.63-.27,2.59.39,1.37,1.44,2.19,2.81,2.2.22,0,.39.18.39.4,0,.22-.18.39-.39.39Z"/>
            <path class="cls-10" d="m119.74,45.61h0c-1.73-.02-3.06-1.05-3.56-2.77-.34-1.18-.2-2.4.37-3.25.49-.73,1.28-1.17,2.26-1.28,2.42-.25,3.37,1.82,3.53,2.95.03.21-.12.41-.33.44-.22.03-.41-.12-.45-.33-.02-.1-.4-2.52-2.68-2.28-.76.08-1.32.39-1.69.93-.45.66-.55,1.63-.27,2.59.39,1.37,1.44,2.19,2.81,2.2.22,0,.39.18.39.4,0,.22-.18.39-.39.39Z"/>
            <rect class="cls-11" x="80.87" y="60.51" width="45.39" height=".82" transform="translate(-11.93 27.78) rotate(-14.46)"/>
            <rect class="cls-11" x="81.73" y="67.99" width="45.39" height=".82" transform="translate(-13.77 28.24) rotate(-14.46)"/>
            <rect class="cls-11" x="81.93" y="75.75" width="45.39" height=".82" transform="translate(-15.7 28.53) rotate(-14.46)"/>
            <path class="cls-11" d="m83.37,89.95l-2.81-30.34,44.67-12.01,3.09,31.11-44.95,11.25Zm-1.92-29.73l2.65,28.7,43.33-10.84-2.92-29.44-43.06,11.58Z"/>
            <polygon class="cls-10" points="129.08 39.64 147.99 77.06 133.99 83.27 129.08 39.64"/>
            <rect class="cls-11" x="90.09" y="57.85" width=".82" height="29.59" transform="translate(-7.04 9.76) rotate(-5.94)"/>
            <rect class="cls-11" x="99.22" y="55.66" width=".82" height="29.59" transform="translate(-6.76 10.7) rotate(-5.94)"/>
            <rect class="cls-11" x="108.59" y="53.14" width=".82" height="29.59" transform="translate(-6.45 11.65) rotate(-5.94)"/>
            <rect class="cls-11" x="117.21" y="50.71" width=".82" height="29.59" transform="translate(-6.15 12.53) rotate(-5.94)"/>
            <path class="cls-8" d="m104.03,74.75c-.08,0-.15-.02-.22-.07l-3.24-2.11c-.19-.12-.24-.38-.12-.57.12-.19.38-.24.57-.12l2.9,1.89,5.77-8.7c.13-.19.38-.24.57-.12.19.13.24.38.12.57l-6,9.04c-.08.12-.21.18-.34.18Z"/>
            <path class="cls-8" d="m86.04,72.3c-.17,0-.35-.01-.52-.05-1.65-.29-2.77-1.87-2.48-3.52.29-1.66,1.87-2.77,3.52-2.48,1.66.29,2.77,1.87,2.48,3.52-.26,1.48-1.55,2.53-3,2.53Zm0-5.31c-1.08,0-2.04.78-2.23,1.88-.21,1.23.61,2.4,1.84,2.62,1.23.21,2.4-.61,2.62-1.84h0c.1-.6-.03-1.2-.38-1.69-.35-.49-.87-.82-1.46-.93-.13-.02-.26-.03-.39-.03Z"/>
            <path class="cls-8" d="m120.71,55.91c-.18,0-.35-.02-.53-.05-.8-.14-1.5-.58-1.97-1.25-.47-.67-.65-1.47-.51-2.28.29-1.66,1.87-2.77,3.52-2.48,1.66.29,2.77,1.87,2.48,3.52h0c-.14.8-.58,1.5-1.25,1.97-.52.37-1.13.56-1.75.56Zm0-5.31c-1.08,0-2.04.78-2.23,1.88-.1.6.03,1.2.38,1.69.35.49.87.82,1.46.93.6.1,1.2-.03,1.69-.38.49-.35.82-.87.93-1.46h0c.21-1.23-.61-2.4-1.84-2.62-.13-.02-.26-.03-.39-.03Zm2.62,2.72h0,0Z"/>
          </g>
          <path class="cls-2" d="m260.99,100.49s4.71-9.71,2.94-12.35c-1.76-2.65-3.24-1.62-3.24-1.62l-8.38,8.46s3.31,8.6,5.74,7.5c2.43-1.1,2.94-1.99,2.94-1.99Z"/>
          <path class="cls-2" d="m210.69,207.4s28.68-36.75,29.41-43.66c.74-6.91,5.79-63.61,5.79-63.61l15.53-.51s8.26,52.87,2.06,74.86c-1.48,5.26-5.59,12.35-8.75,17.35-7.47,11.81-23.69,38.84-23.69,38.84,0,0-28.55-7.83-20.35-23.26Z"/>
          <path class="cls-2" d="m260.87,251.21l45.74-5.65,34.25-68.99s1.33-8.08,8.45-10.17c7.11-2.09,14.02,1.22,14.02,1.22l-7.32,12.95s-15.4,65.55-26.11,80.14c-3.48,4.75-12.16,8.05-17.66,10.19-14.03,5.46-44.31,9.72-44.31,9.72,0,0-21.46-17.26-7.07-29.42Z"/>
          <path class="cls-2" d="m176.72,205.06s-31.77-30.3-33.53-33.83c-1.76-3.53-3.91-61.07-3.91-61.07l-15.58-1.5s-8.06,45.96-5.54,63.37c.78,5.41,4.14,12.74,7.08,16.86,8.12,11.37,25.82,37.48,25.82,37.48,0,0,33.85-5.86,25.65-21.3Z"/>
          <path class="cls-2" d="m153.1,217.2l-50.57-8.09-22.49-40.46-9.28-9.95-9.61,5.23s10.28,42.65,18.37,58.83c2.63,5.27,8.09,9.61,13.15,12.64,12.91,7.75,46.78,14.41,46.78,14.41,0,0,25.79-18.2,13.65-32.62Z"/>
          <path class="cls-2" d="m139.27,110.16s8.93-22.08,6.41-27.14-15.68-10.62-17.19-9.61c-1.52,1.01-10.11,4.05-7.59,7.08,2.53,3.03,9.1-1.01,9.1-1.01l3.03,9.1-7.08,7.59-5.56-8.6s-.51-7.59-3.54-3.03c-3.03,4.55,6.84,24.12,6.84,24.12l15.58,1.5Z"/>
          <path class="cls-10" d="m107.58,73.58l31.35,16.18s-2.02,3.37-2.87,3.71c-.84.34-29.33-16.86-29.33-16.86l-2.7-3.37,3.54.34Z"/>
          <g>
            <path class="cls-10" d="m85.75,133.04c-.46,0-.93-.06-1.38-.2-1.28-.37-2.34-1.21-2.99-2.38-1.33-2.41-.46-5.45,1.95-6.79,1.17-.65,2.51-.8,3.8-.43,1.28.37,2.34,1.21,2.99,2.38.65,1.17.8,2.51.43,3.8-.37,1.28-1.21,2.34-2.38,2.99h0c-.75.42-1.58.63-2.41.63Zm-.01-7.42c-.4,0-.81.1-1.17.3-1.17.65-1.59,2.12-.94,3.29.31.57.83.98,1.45,1.15.62.18,1.28.1,1.84-.21h0c.57-.31.98-.83,1.15-1.45.18-.62.1-1.27-.21-1.84s-.83-.98-1.45-1.15c-.22-.06-.45-.1-.67-.1Z"/>
            <path class="cls-11" d="m40.63,176.13l-19.2-34.66c-.81-1.46-.28-3.29,1.18-4.1l49.32-27.56c1.46-.81,3.29-.28,4.1,1.18l19.2,34.66c.81,1.46.28,3.29-1.18,4.1l-49.32,27.56c-1.46.81-3.29.28-4.1-1.18Z"/>
            <rect class="cls-3" x="30.86" y="124.21" width="55.68" height="38.05" transform="translate(-62.22 46.59) rotate(-29.08)"/>
            <rect class="cls-10" x="72.34" y="126.4" width="20.06" height="7.46" rx="2.33" ry="2.33" transform="translate(156.29 -4.98) rotate(61.02)"/>
          </g>
          <path class="cls-2" d="m80.04,168.65s1.34-10.94,1.34-13.17-1.34-11.61-4.46-9.82c-3.12,1.79-2.23,11.38-2.23,11.38,0,0-3.57,4.76-5.65,7.59-2.65,3.6,11.01,4.02,11.01,4.02Z"/>
          <path class="cls-10" d="m261.57,94.23h0c-2.72,2.79-7.19,2.85-9.98.13l-16.11-15.71,9.86-10.11,16.11,15.71c2.79,2.72,2.85,7.19.13,9.98Z"/>
          <path class="cls-7" d="m223.17,66.6l-1.61,1.65c-4.21,4.32-4.12,11.23.2,15.44h0c4.32,4.21,11.23,4.12,15.44-.2l3.81-3.91c5.77-5.92,12.39-10.94,19.65-14.91l22.84-12.49c1.5-.82,1.78-2.86.55-4.05l-30.49-29.73c-1.28-1.25-3.41-.82-4.11.83l-9.26,21.81c-4.03,9.5-9.8,18.17-17.01,25.56Z"/>
          <path class="cls-10" d="m236.42,84.22c-2.02,1.71-4.53,2.57-7.04,2.57-2.75,0-5.5-1.03-7.63-3.1-4.32-4.21-4.4-11.12-.19-15.44l1.61-1.64c-.14.25-2.61,4.93,4.44,11.98,3.58,3.58,6.64,5.06,8.82,5.64Z"/>
          <path class="cls-10" d="m283.49,52.19l-1.6.87-32.84-32.03c-.09-.09-.18-.16-.28-.23l.67-1.57c.7-1.65,2.83-2.08,4.12-.83l30.49,29.74c1.23,1.19.95,3.23-.55,4.04Z"/>
          <path class="cls-2" d="m245.89,100.12s-6.82-9.26-5.94-13.97,5.72-9.56,6.62-9.82c2.06-.59,3.8,1.6,2.65,5.18-.88,2.76-2.76,5.29-2.76,5.29,0,0,8.93,6.4,11.36,10.81,3.01,5.47-11.93,2.5-11.93,2.5Z"/>
          <path class="cls-2" d="m250.05,84.2h0c-.93-.77-1.07-2.14-.3-3.07l4.02-4.9c.77-.93,2.14-1.07,3.07-.3h0c.93.77,1.07,2.14.3,3.07l-4.02,4.9c-.77.93-2.14,1.07-3.07.3Z"/>
          <path class="cls-2" d="m252.66,87.29h0c-.93-.77-1.07-2.14-.3-3.07l4.43-5.39c.77-.93,2.14-1.07,3.07-.3h0c.93.77,1.07,2.14.3,3.07l-4.43,5.39c-.77.93-2.14,1.07-3.07.3Z"/>
          <rect class="cls-2" x="257.19" y="80.85" width="4.37" height="9.55" rx="2.18" ry="2.18" transform="translate(113.17 -145.09) rotate(39.37)"/>
          <rect class="cls-2" x="260.22" y="84.5" width="3.42" height="6.86" rx="1.71" ry="1.71" transform="translate(115.27 -146.23) rotate(39.38)"/>
          <g>
            <rect class="cls-11" x="338.44" y="128.93" width="35.49" height="48.72" rx="3.64" ry="3.64" transform="translate(509.84 -202.74) rotate(90.06)"/>
            <rect class="cls-10" x="357.46" y="148.34" width="26.69" height="9.93" transform="translate(524.48 -217.34) rotate(90.06)"/>
            <rect class="cls-7" x="350.77" y="139.94" width="11.26" height="11.26" transform="translate(502.33 -210.68) rotate(90.06)"/>
            <rect class="cls-7" x="350.75" y="155.38" width="11.26" height="11.26" transform="translate(517.75 -195.21) rotate(90.06)"/>
            <rect class="cls-7" x="335.91" y="139.93" width="11.26" height="11.26" transform="translate(487.44 -195.84) rotate(90.06)"/>
            <rect class="cls-7" x="335.9" y="155.36" width="11.26" height="11.26" transform="translate(502.86 -180.37) rotate(90.06)"/>
            <g>
              <path class="cls-11" d="m359.12,146.29h-5.44c-.4,0-.72-.33-.72-.72,0-.4.32-.72.72-.72h5.44c.4,0,.72.33.72.72,0,.4-.32.72-.72.72Z"/>
              <path class="cls-11" d="m356.39,149.01h0c-.4,0-.72-.32-.72-.72v-5.44c0-.4.33-.72.72-.72h0c.4,0,.72.32.72.72v5.44c0,.4-.33.72-.72.72Z"/>
            </g>
            <g>
              <path class="cls-11" d="m343.45,163.63c-.18,0-.37-.07-.51-.21l-3.84-3.85c-.28-.28-.28-.73,0-1.01.28-.28.73-.28,1.01,0l3.84,3.85c.28.28.28.73,0,1.01-.14.14-.32.21-.51.21Z"/>
              <path class="cls-11" d="m339.6,163.63c-.18,0-.37-.07-.51-.21-.28-.28-.28-.73,0-1.01l3.85-3.84c.28-.28.73-.28,1.01,0,.28.28.28.73,0,1.01l-3.85,3.84c-.14.14-.32.21-.51.21Z"/>
            </g>
            <path class="cls-11" d="m341.54,148.99h0c-.4,0-.72-.32-.72-.72v-5.44c0-.4.33-.72.72-.72h0c.4,0,.72.32.72.72v5.44c0,.4-.33.72-.72.72Z"/>
            <g>
              <path class="cls-11" d="m356.38,164.44h0c-.4,0-.72-.32-.72-.72v-5.44c0-.4.33-.72.72-.72h0c.4,0,.72.32.72.72v5.44c0,.4-.33.72-.72.72Z"/>
              <path class="cls-11" d="m359.19,161.89c-.49,0-.88-.4-.88-.88,0-.49.4-.88.88-.88.49,0,.88.4.88.88,0,.49-.4.88-.88.88Z"/>
              <path class="cls-11" d="m353.57,161.88c-.49,0-.88-.4-.88-.88,0-.49.4-.88.88-.88.49,0,.88.4.88.88,0,.49-.4.88-.88.88Z"/>
            </g>
          </g>
          <path class="cls-2" d="m339.86,180.65s-3.96-11.57-4.3-13.78c-.34-2.21.45-10.15,3.81-8.85s2.02,5.93,3.05,9.38c1.03,3.46,4.25,4.17,6.74,6.64,3.17,3.15-9.29,6.6-9.29,6.6Z"/>
          <g>
            <path class="cls-9" d="m328.14,31.22c-.24,0-.48-.09-.66-.27l-1.83-1.83c-.36-.37-.36-.96,0-1.32.37-.36.96-.36,1.32,0l1.83,1.83c.36.37.36.96,0,1.32-.18.18-.42.27-.66.27Z"/>
            <path class="cls-9" d="m321.56,24.64c-.24,0-.48-.09-.66-.27l-1.83-1.83c-.36-.37-.36-.96,0-1.32.37-.36.96-.36,1.32,0l1.83,1.83c.37.37.37.96,0,1.32-.18.18-.42.27-.66.27Z"/>
            <path class="cls-9" d="m326.31,24.64c-.24,0-.48-.09-.66-.27-.36-.37-.36-.96,0-1.32l1.83-1.83c.37-.36.96-.36,1.32,0,.36.37.36.96,0,1.32l-1.83,1.83c-.18.18-.42.27-.66.27Z"/>
            <path class="cls-9" d="m319.73,31.22c-.24,0-.48-.09-.66-.27-.36-.37-.36-.96,0-1.32l1.83-1.83c.37-.36.96-.36,1.32,0,.37.37.37.96,0,1.32l-1.83,1.83c-.18.18-.42.27-.66.27Z"/>
          </g>
          <g>
            <path class="cls-9" d="m151.3,10.28c-.24,0-.48-.09-.66-.27l-1.83-1.83c-.36-.37-.36-.96,0-1.32.37-.37.96-.37,1.32,0l1.83,1.83c.37.37.37.96,0,1.32-.18.18-.42.27-.66.27Z"/>
            <path class="cls-9" d="m144.72,3.7c-.24,0-.48-.09-.66-.27l-1.83-1.83c-.37-.37-.37-.96,0-1.32.37-.37.96-.37,1.32,0l1.83,1.83c.37.37.37.96,0,1.32-.18.18-.42.27-.66.27Z"/>
            <path class="cls-9" d="m149.47,3.7c-.24,0-.48-.09-.66-.27-.36-.37-.36-.96,0-1.32l1.83-1.83c.37-.37.96-.37,1.32,0,.37.37.37.96,0,1.32l-1.83,1.83c-.18.18-.42.27-.66.27Z"/>
            <path class="cls-9" d="m142.89,10.28c-.24,0-.48-.09-.66-.27-.37-.37-.37-.96,0-1.32l1.83-1.83c.37-.37.96-.37,1.32,0,.37.37.37.96,0,1.32l-1.83,1.83c-.18.18-.42.27-.66.27Z"/>
          </g>
          <g>
            <path class="cls-9" d="m41.05,90.92c-.24,0-.48-.09-.66-.27l-1.83-1.83c-.36-.37-.36-.96,0-1.32.37-.37.96-.37,1.32,0l1.83,1.83c.36.37.36.96,0,1.32-.18.18-.42.27-.66.27Z"/>
            <path class="cls-9" d="m34.47,84.34c-.24,0-.48-.09-.66-.27l-1.83-1.83c-.36-.37-.36-.96,0-1.32.37-.36.96-.36,1.32,0l1.83,1.83c.36.37.36.96,0,1.32-.18.18-.42.27-.66.27Z"/>
            <path class="cls-9" d="m39.23,84.34c-.24,0-.48-.09-.66-.27-.36-.37-.36-.96,0-1.32l1.83-1.83c.37-.36.96-.36,1.32,0,.36.37.36.96,0,1.32l-1.83,1.83c-.18.18-.42.27-.66.27Z"/>
            <path class="cls-9" d="m32.65,90.92c-.24,0-.48-.09-.66-.27-.36-.37-.36-.96,0-1.32l1.83-1.83c.37-.37.96-.37,1.32,0,.36.37.36.96,0,1.32l-1.83,1.83c-.18.18-.42.27-.66.27Z"/>
          </g>
          <g>
            <path class="cls-9" d="m34.94,214.08c-.24,0-.48-.09-.66-.27l-1.83-1.83c-.36-.37-.36-.96,0-1.32.37-.36.96-.36,1.32,0l1.83,1.83c.36.37.36.96,0,1.32-.18.18-.42.27-.66.27Z"/>
            <path class="cls-9" d="m28.36,207.5c-.24,0-.48-.09-.66-.27l-1.83-1.83c-.36-.37-.36-.96,0-1.32.37-.37.96-.37,1.32,0l1.83,1.83c.36.37.36.96,0,1.32-.18.18-.42.27-.66.27Z"/>
            <path class="cls-9" d="m33.11,207.5c-.24,0-.48-.09-.66-.27-.36-.37-.36-.96,0-1.32l1.83-1.83c.37-.37.96-.37,1.32,0,.36.37.36.96,0,1.32l-1.83,1.83c-.18.18-.42.27-.66.27Z"/>
            <path class="cls-9" d="m26.53,214.08c-.24,0-.48-.09-.66-.27-.36-.37-.36-.96,0-1.32l1.83-1.83c.37-.36.96-.36,1.32,0,.36.37.36.96,0,1.32l-1.83,1.83c-.18.18-.42.27-.66.27Z"/>
          </g>
          <g>
            <circle class="cls-9" cx="324.24" cy="82.51" r="26.58" transform="translate(179.33 384.08) rotate(-78.61)"/>
            <path class="cls-3" d="m337.4,83.55h-13.16c-.57,0-1.04-.46-1.04-1.04v-19.07c0-.57.46-1.04,1.04-1.04s1.04.46,1.04,1.04v18.03h12.12c.57,0,1.04.46,1.04,1.04s-.46,1.04-1.04,1.04Z"/>
          </g>
          <g>
            <path class="cls-7" d="m266.62,21.62c-.08,0-.16-.02-.24-.06-.27-.13-.38-.45-.25-.72l9.51-19.42c.13-.27.45-.38.72-.25.27.13.38.45.25.72l-9.51,19.42c-.09.19-.28.3-.48.3Z"/>
            <path class="cls-7" d="m282.9,36.85c-.21,0-.41-.12-.5-.33-.11-.27.01-.59.29-.7l18.39-7.73c.27-.12.59.01.7.29.11.27-.01.59-.29.7l-18.39,7.73c-.07.03-.14.04-.21.04Z"/>
            <path class="cls-7" d="m276.13,28.23c-.13,0-.26-.05-.36-.14-.22-.2-.24-.54-.04-.76l19.63-21.62c.2-.22.54-.24.76-.04.22.2.24.54.04.76l-19.63,21.62c-.11.12-.25.18-.4.18Z"/>
          </g>
        </g>
        <g>
          <path class="cls-6" d="m180.14,176.23c-1.25-.74-5.41-11.41-5.41-11.41l3.51,2.03s2.53,9.75,1.91,9.38Z"/>
          <path class="cls-4" d="m181.79,162.9v49.72s5.42,6.53,13.5,6.53,14.07-6.53,14.07-6.53v-31.28l-27.57-18.44Z"/>
          <path class="cls-4" d="m201.34,191.88c-13.47.49-22.64-12.26-23.1-25.03l-.74-20.25c-.47-12.77,9.07-23.49,21.31-23.94h0c12.24-.45,22.54,9.54,23,22.31l.74,20.25c.47,12.77-7.74,26.16-21.21,26.66Z"/>
          <path class="cls-6" d="m208.51,174.58c.34-.03.34.5,0,.53-1.65.13-3.44.08-4.95-.69-1.18-.61-2.12-1.78-2.26-3.11-.02-.21.34-.26.37-.05.2,1.29,1.19,2.19,2.33,2.71,0,0,1.43.87,4.5.62Z"/>
          <path class="cls-14" d="m209.36,189.79v4c-9.69-.09-12.8-5.99-12.8-5.99,4.37,3.8,11.76,2.24,12.8,1.99Z"/>
          <path class="cls-6" d="m211.09,162.48c-.7-1.57-1.24-3.19-1.54-4.89-.32-1.79-.29-3.59-.39-5.4-.01-.22-.33-.25-.38-.04-.7,2.8-.12,5.99.79,8.68.44,1.29,1.66,2.98,1.04,4.35-.29.64-.84,1.12-1.45,1.47-.68.39-1.52.49-2.16.93-.31.21-.16.71.22.7,1.31-.02,2.96-1,3.74-2.03.91-1.2.73-2.46.15-3.76Z"/>
          <path class="cls-6" d="m220.14,149.53s-1.53-.49-3.84-.4c-2.31.08-3.89.69-3.89.69-.28.12-.83-.17-.85-.71-.02-.54.34-.96.78-1.25,0,0,1.53-.82,3.83-.9,2.31-.08,3.89.62,3.89.62.37.17.89.6.91,1.14.02.54-.34.8-.84.82Z"/>
          <path class="cls-6" d="m199.66,150.29s-1.54-.49-3.88-.4c-2.33.09-3.93.69-3.93.69-.29.12-.84-.17-.86-.71-.02-.54.35-.96.79-1.25,0,0,1.54-.82,3.87-.9,2.33-.09,3.93.62,3.93.62.38.17.9.6.92,1.14.02.54-.34.8-.85.82Z"/>
          <path class="cls-6" d="m198.31,154.45c.04.96-.71,1.77-1.67,1.8-.96.04-1.77-.71-1.8-1.67s.71-1.77,1.67-1.8c.96-.04,1.77.71,1.8,1.67Z"/>
          <path class="cls-6" d="m217.7,153.98c.04.96-.71,1.77-1.67,1.8s-1.77-.71-1.8-1.67c-.04-.96.71-1.77,1.67-1.8s1.77.71,1.8,1.67Z"/>
          <path class="cls-4" d="m170.59,160.04c.15,4.03,2.73,7.2,5.77,7.09,5.65-.21,5.38-3.47,5.23-7.49-.15-4.03-2.73-7.2-5.77-7.09-3.04.11-5.38,3.47-5.23,7.49Z"/>
          <path class="cls-14" d="m172.74,157.79c.2-.98.71-2.13,1.69-2.55.85-.36,2.05.15,2.12,1.13.01.19-.3.26-.34.06-.09-.48-.52-.75-1-.74-.5.02-.92.39-1.19.78-.57.84-.73,1.96-.63,2.96.1,1.01.52,2.05,1.22,2.8.33.35.74.63,1.2.76.39.11.94.12,1.31-.07.15-.08.38.08.27.25-.25.37-.59.65-1.04.67-.48.03-.99-.14-1.4-.38-.94-.53-1.58-1.48-1.95-2.47-.38-1.01-.47-2.14-.25-3.21Z"/>
          <path class="cls-6" d="m233.27,127.15c-1.91-.87-2.81.26-6.39-1.26-1.48-.63,4.6-2.23,2.02-5.86-3.74-5.27-10.76-1.6-20.68-4.28-17.01-4.6-21.96-2.95-26.27.97-2.65,2.41-5.19,5.69-6.62,12.75-.76-4.03-.25-8.24,1.89-11.83,2.33-3.9,6.33-6.65,10.7-7.78.26-.07.19-.53-.08-.48-4.7.78-8.83,3.7-11.28,7.78-2.34,3.88-3.04,8.84-1.75,13.21-1.25.54-4.88.93-6.14,4.88-2.57,8.06,2.55,15.64,4.48,18.27,2.51-1.4,3.87-.25,3.92.1.6,4.31,1.13,7.02,1.13,7.02l3.12-.04s-.53-3.78-.26-7.08c.27-3.3.43-4.6,4.59-7.07,4.16-2.47-.21-12.56-.21-12.56,0,0,1.51,3.8,6.57,2.74,1.29-.27,4.53-3.89,7.12-4.3,4.54-.73,9.42,2.45,12.78,4.32,9.48,5.26,15.56,5.05,19.24,2.4,4.58-3.28,4.44-10.84,2.11-11.89Z"/>
          <path class="cls-2" d="m281.1,161.72s.16-6.37-.09-12.45,7.52-13.77,11.13-12.34c5.44,2.16-6.56,6.17-2.89,9.1,3.66,2.93,14.1-25.11,18.88-19.98,1.58,1.69-7.99,15.34-6.76,16.26,1.94,1.45,7.21-15.61,9.25-14.09,1.25.93,2.07,3.55,1.67,5.52-1.13,5.54-7.35,12.62-5.86,14.15,1.01,1.04,5.45-14.66,8.07-12.03.98.99-.18,6.18-1.53,9.4-2.25,5.37-5.55,9.4-4.25,9.77,2.08.6,4.97-11.28,6.85-9.93,4.37,3.13-3.26,13.66-7.91,18.08-4.64,4.42-10.94,9.36-10.94,9.36,0,0-3.23,59.74-5.96,71.93-2.68,11.93-2.56,23.73-18.99,24.1-10.28.23-28.11-9.49-28.11-9.49l8.76-36.15,12.78,5.84,15.89-67.05Z"/>
          <g>
            <rect class="cls-10" x="288.52" y="121.77" width="24.4" height="49.94" rx="3.77" ry="3.77" transform="translate(629.32 209.88) rotate(164.87)"/>
            <rect class="cls-3" x="289.78" y="127.37" width="21.63" height="37.82" rx="1.1" ry="1.1" transform="translate(628.96 209.02) rotate(164.87)"/>
          </g>
          <path class="cls-2" d="m288.14,150.41s1.02-4.58,3.57-7.88c2.84-3.68,2.2-6.79.8-7.26-2.97-1-8.23,6.06-8.23,6.06l3.85,9.08Z"/>
          <path class="cls-8" d="m235.31,209.62l28.43,18.05-5.72,39.58s-30.56-12.01-34.39-21.74c-4.74-12.06-4.71-40.2,11.67-35.89Z"/>
          <path class="cls-8" d="m233.65,332.87c.9-30.02,3.47-121.09,1.67-123.25-1.56-1.87-25.79-6.82-25.79-6.82,0,0,1.51,7.34-11.51,7.54-11.58.18-16.69-9.3-16.69-9.3,0,0-30.32,5.42-30.89,6.85-2.9,7.25-6.97,95.53-8.25,124.97h91.47Z"/>
          <path class="cls-6" d="m233.65,333.11s0,0,0,0c-.18,0-.32-.15-.31-.33l.13-4.73c.4-14.56,1.23-44.86,1.47-55.89.21-9.24.37-17.6.48-24.87,0-.17.15-.31.32-.31h0c.18,0,.32.15.31.32-.11,7.26-.27,15.63-.48,24.87-.25,11.04-1.07,41.34-1.47,55.9l-.13,4.73c0,.17-.15.31-.32.31Z"/>
          <g>
            <path class="cls-3" d="m200.42,265.84h19.28c2.56,0,4.63,2.08,4.63,4.63v15.17c0,6.54-5.31,11.86-11.86,11.86h-5.08c-6.41,0-11.61-5.2-11.61-11.61v-15.42c0-2.56,2.08-4.63,4.63-4.63Z"/>
            <path class="cls-3" d="m197.25,293.61c-.11,0-.21,0-.32-.03-9.57-1.63-14.89-8.09-13.57-16.45.4-2.52,1.63-4.5,3.55-5.72,4.15-2.64,10.21-.93,10.46-.86,1.02.29,1.6,1.36,1.31,2.37-.29,1.01-1.35,1.6-2.37,1.31h0c-1.29-.37-5.13-1.01-7.35.41-.99.64-1.59,1.64-1.82,3.09-.98,6.19,3.02,10.82,10.43,12.08,1.04.18,1.74,1.17,1.57,2.21-.16.93-.97,1.59-1.89,1.59Z"/>
            <path class="cls-1" d="m214.42,249.83c.81-3.72-1.21-7.36-4.05-9.66-.17-.13-.44.03-.31.24.92,1.58,2.17,2.95,2.96,4.61.96,2.01.83,4.02.16,6.09-.96,2.96-2.71,6.55-.56,9.43.14.19.33.28.56.23.14-.03.25-.06.3-.2.23-.65-.54-1.27-.75-1.88-.3-.93-.29-1.97-.14-2.93.32-2.06,1.38-3.91,1.82-5.94Z"/>
            <path class="cls-1" d="m208.59,250.8c1.29-2.93.16-5.71-1.62-8.15-.23-.32-.71-.05-.53.31.77,1.55,1.73,3.12,1.86,4.89.13,1.78-.83,3.25-1.58,4.78-1.25,2.58-1.21,5.43.74,7.66.26.3.67-.13.43-.43-1.02-1.31-1.52-3.06-1.22-4.71.28-1.58,1.28-2.91,1.92-4.35Z"/>
          </g>
          <path class="cls-4" d="m158.62,248.83l-11.09,42.34,21.58-5.63,8.91,12.9s-33.54,22.75-47.92,25.63c-11.09,2.22-16.56-9.62-16.43-16.6.27-15.52,15.1-73.61,15.1-73.61l29.86,14.98Z"/>
          <path class="cls-8" d="m150.43,207.9s-10.32,1.71-18.82,15.57c-7.36,12.01-14.16,47.84-14.16,47.84l37.93,7.84s8.35-34.64,9.27-37.64c6.89-22.41-5.91-33.59-14.22-33.61Z"/>
          <path class="cls-14" d="m193.01,152.5c.15-.17.35-.25.55-.33.22-.1.45-.18.68-.24.46-.11.92-.17,1.39-.19.93-.03,1.93.18,2.74.63.34.19.21.82-.21.7-.83-.23-1.64-.38-2.5-.41-.41-.01-.83.02-1.24.08-.21.03-.41.05-.62.09-.21.04-.42.11-.64.09-.2-.02-.29-.28-.16-.43Z"/>
          <path class="cls-14" d="m213.41,151.93c.24-.33.71-.42,1.09-.5.41-.09.81-.11,1.22-.07.8.07,1.62.33,2.26.83.36.28,0,.86-.42.68-.63-.28-1.27-.52-1.96-.58-.32-.03-.66-.04-.98-.01-.34.02-.72.14-1.06.06-.18-.04-.26-.24-.15-.39Z"/>
          <path class="cls-6" d="m155.38,279.46s-.04,0-.06,0l-37.93-7.84c-.17-.04-.28-.2-.25-.38.04-.17.21-.29.38-.25l37.63,7.78c.74-3,6.81-27.45,7.67-30.26.05-.17.23-.26.4-.21.17.05.26.23.21.4-.91,2.96-7.67,30.25-7.74,30.52-.04.14-.17.24-.31.24Z"/>
          <path class="cls-4" d="m175.2,300.55s15.97-1.71,18.09-5.47c.4-.7.7-1.54.57-2.37-.09-.6-.4-1.47-.37-2.1.04-.64.41-1.55.41-2.2,0-.89-.25-1.71-.29-2.58-.04-.65.12-1.68.05-2.31-.1-.93-.59-1.74-.75-2.56-.19-.93-.05-1.85-.31-2.55-.45-1.21-1.02-2.01-1.68-2.2-2.58-.7-7.48.7-7.48.7,0,0-.09-.5.57-1.98.54-1.22,1.19-2.07,1.19-2.07-2.7-1.06-6.24.47-10.23,2.93-4.55,2.81-8.68,11.14-8.68,11.14,0,0,4.22,12.66,8.91,13.6Z"/>
          <path class="cls-14" d="m185.44,276.57c-1.93-.01-3.73.29-5.52,1.01-1.74.7-3.46,1.45-4.79,2.77-.14.14.06.43.22.31,2.86-2.18,6.5-3.45,10.1-3.74.23-.02.22-.36-.01-.36Z"/>
          <path class="cls-14" d="m148.04,291.04c-1.06.11-1.85.51-2.79.82-1.06.35-2.12.73-3.14,1.16-1.92.81-4.05,1.76-5.54,3.26-.12.12.03.31.18.23.92-.52,1.8-1.11,2.74-1.6.98-.51,2.03-.85,3.02-1.35.72-.37,3.66-1.55,5.5-2.13.19-.06.26-.42.04-.4Z"/>
        </g>
        <g>
          <path class="cls-11" d="m394.22,304.78h-144.78c-2.28,0-4.05-2-3.77-4.26l12.74-103.6c.23-1.9,1.85-3.33,3.77-3.33h144.78c2.28,0,4.05,2,3.77,4.26l-12.74,103.6c-.23,1.9-1.85,3.33-3.77,3.33Z"/>
          <path class="cls-5" d="m348.05,237.93c0,6.15-4.98,11.13-11.13,11.13s-11.13-4.98-11.13-11.13,4.98-11.13,11.13-11.13v11.13h11.13Z"/>
          <path class="cls-5" d="m267.16,193.59c-1.92,0-3.52,1.43-3.77,3.34l-12.73,103.59c-.28,2.27,1.49,4.27,3.77,4.27h-4.98c-2.28,0-4.05-2-3.77-4.27l12.73-103.59c.23-1.9,1.85-3.34,3.77-3.34h4.98Z"/>
          <path class="cls-10" d="m323.29,332.79h-24.39c0-2.31,1.88-4.19,4.19-4.19h20.2v4.19Z"/>
          <path class="cls-10" d="m323.07,277.94h22.12c1.92,0,3.48,1.56,3.48,3.48v42.81c0,4.73-3.84,8.56-8.56,8.56h-20.51v-51.37c0-1.92,1.56-3.48,3.48-3.48Z"/>
        </g>
        <path class="cls-7" d="m402.49,343.67H5.47c-3.02,0-5.47-2.45-5.47-5.47h0c0-3.02,2.45-5.47,5.47-5.47h397.01c3.02,0,5.47,2.45,5.47,5.47h0c0,3.02-2.45,5.47-5.47,5.47Z"/>
      </g>
    </g>
  </g>
</svg>